<svg width="240" height="240" viewBox="0 0 240 240" fill="none" xmlns="http://www.w3.org/2000/svg">
<path d="M71.5195 43.8796V48.3987H74.7923V46.721H79.6548V51.5659H74.7923V49.8889H71.5195V56.9695H74.7923V55.2926H79.6548V60.1375H74.7923V58.4598H71.5195V65.5412H74.7923V63.8642H79.6548V68.7083H74.7923V67.0314H71.5195V74.1112H74.7923V72.435H79.6548V77.28H74.7923V75.603H71.5195V82.6828H74.7923V81.0067H79.6548V85.8508H74.7923V84.1738H71.5195V91.2537H74.7923V89.5767H79.6548V94.4224H74.7923V92.7455H71.5195V99.8253H74.7923V98.1483H79.6548V102.992H74.7923V101.316H71.5195V108.397H74.7923V106.719H79.6548V111.564H74.7923V109.888H71.5195V116.968H74.7923V115.291H79.6548V120.136H74.7923V118.458H71.5195V125.539H74.7923V123.862H79.6548V128.707H74.7923V127.03H71.5195V134.11H74.7923V132.433H79.6548V137.278H74.7923V135.601H71.5195V138.164H148.2V43.8796H71.5195Z" fill="#0D236A"/>
<path d="M71.5195 86.8479V91.3662H74.7923V89.6892H79.6548V94.5334H74.7923V92.8564H71.5195V99.937H74.7923V98.26H79.6548V103.105H74.7923V101.428H71.5195V108.509H74.7923V106.832H79.6548V111.676H74.7923V109.999H71.5195V117.08H74.7923V115.403H79.6548V120.247H74.7923V118.57H71.5195V125.651H74.7923V123.974H79.6548V128.819H74.7923V127.141H71.5195V134.223H74.7923V132.546H79.6548V137.39H74.7923V135.713H71.5195V142.794H74.7923V141.117H79.6548V145.961H74.7923V144.285H71.5195V151.365H74.7923V149.688H79.6548V154.532H74.7923V152.855H71.5195V159.936H74.7923V158.259H79.6548V163.104H74.7923V161.427H71.5195V168.507H74.7923V166.831H79.6548V171.675H74.7923V169.998H71.5195V177.078H74.7923V175.402H79.6548V180.246H74.7923V178.569H71.5195V181.131H148.2V86.8479H71.5195Z" fill="#0D236A"/>
<path d="M221.443 34.9774H83.4688V215.254H221.443V34.9774Z" fill="#D6D7D8"/>
<path d="M86.7969 37.2757L221.23 35.0658L224.159 211.899L89.7252 214.11L86.7969 37.2757Z" fill="#EEEEEE"/>
<path d="M91.6903 39.3425L219.898 40.1091L218.832 216.96L90.625 216.193L91.6903 39.3425Z" fill="white"/>
<path d="M170.184 25.0946H134.617V26.7138H170.184V25.0946Z" fill="#151A4F"/>
<path d="M170.184 26.6582H134.617V42.012H170.184V26.6582Z" fill="url(#paint0_linear_3799_4267)"/>
<path d="M149.587 41.0117H132.473V39.3879H148.772V36.806L140.132 22.837L140.825 21.6H153.39V23.2238H142.285L150.281 36.1496L150.402 36.5763V40.1998L149.587 41.0117Z" fill="#FF4945"/>
<path d="M171.954 41.0117H154.877L154.062 40.1998V36.5763L154.183 36.1504L162.179 23.2238H151.074V21.6H163.638L164.333 22.837L155.692 36.806V39.3879H171.954V41.0117Z" fill="#FF4945"/>
<path d="M145.414 38.7174H133.555V42.0112H145.414V38.7174Z" fill="url(#paint1_linear_3799_4267)"/>
<path d="M171.244 38.7174H159.055V42.0112H171.244V38.7174Z" fill="url(#paint2_linear_3799_4267)"/>
<path d="M106.138 78.8311H101.25V82.0779H106.138V78.8311Z" fill="#EEEEEE"/>
<path d="M165.155 82.0779H155.319V78.8311H165.155V82.0779ZM145.484 82.0779H135.648V78.8311H145.483L145.484 82.0779ZM125.813 82.0779H115.977V78.8311H125.812L125.813 82.0779Z" fill="#EEEEEE"/>
<path d="M179.877 78.8311H174.988V82.0779H179.877V78.8311Z" fill="#EEEEEE"/>
<path d="M106.138 105.619H101.25V108.866H106.138V105.619Z" fill="#EEEEEE"/>
<path d="M165.155 108.866H155.319V105.619H165.155V108.866ZM145.484 108.866H135.648V105.619H145.483L145.484 108.866ZM125.813 108.866H115.977V105.619H125.812L125.813 108.866Z" fill="#EEEEEE"/>
<path d="M179.877 105.619H174.988V108.866H179.877V105.619Z" fill="#EEEEEE"/>
<path d="M106.138 132.407H101.25V135.653H106.138V132.407Z" fill="#EEEEEE"/>
<path d="M165.155 135.653H155.319V132.407H165.155V135.653ZM145.484 135.653H135.648V132.407H145.483L145.484 135.653ZM125.813 135.653H115.977V132.407H125.812L125.813 135.653Z" fill="#EEEEEE"/>
<path d="M179.877 132.407H174.988V135.653H179.877V132.407Z" fill="#EEEEEE"/>
<path d="M106.138 159.194H101.25V162.441H106.138V159.194Z" fill="#EEEEEE"/>
<path d="M165.155 162.441H155.319V159.194H165.155V162.441ZM145.484 162.441H135.648V159.194H145.483L145.484 162.441ZM125.813 162.441H115.977V159.194H125.812L125.813 162.441Z" fill="#EEEEEE"/>
<path d="M179.877 159.194H174.988V162.441H179.877V159.194Z" fill="#EEEEEE"/>
<path d="M207.578 83.2955H186.801V62.5959H207.578V83.2955ZM190.06 80.0486H204.319V65.8428H190.06V80.0486Z" fill="#EEEEEE"/>
<path d="M207.578 137.683H186.801V116.983H207.578V137.683ZM190.06 134.436H204.319V120.23H190.06V134.436Z" fill="#EEEEEE"/>
<path d="M207.578 192.07H186.801V171.371H207.578V192.07ZM190.06 188.823H204.319V174.618H190.06V188.823Z" fill="#EEEEEE"/>
<path d="M80.0671 73.8711C78.5246 73.5133 76.9421 73.1532 75.3721 73.3551C73.024 73.6572 71.0213 75.168 69.2499 76.7424C67.076 78.6747 65.0484 80.8018 63.4606 83.2404C59.6865 89.0395 58.6354 96.2411 58.871 103.161C59.1067 110.081 60.5247 116.9 61.2779 123.783C62.0591 130.914 62.1267 138.125 61.478 145.269C77.3436 142.986 93.6068 143.501 109.297 146.785C98.9372 131.696 92.8381 112.824 96.4872 94.8752C97.5695 89.5502 99.2453 83.2689 95.5833 79.2621C93.577 77.0668 90.4988 76.2914 87.6064 75.6203C85.0928 75.0374 82.5802 74.4545 80.0671 73.8711Z" fill="#151A4F"/>
<path d="M79.19 102.392C79.3412 102.412 79.4968 102.435 79.628 102.524C80.0389 102.804 79.9882 103.516 79.8908 104.068C78.1358 113.96 78.8437 124.453 81.9023 133.884C76.1718 129.611 68.5805 133.867 61.9722 132.17C63.8664 127.807 63.4333 122.61 63.4115 117.698C63.3857 111.915 62.1718 104.139 63.4062 98.546C68.0576 99.1655 74.5386 101.774 79.19 102.392Z" fill="#F2AF9C"/>
<path d="M90.3559 85.0314C90.841 90.0872 89.6596 94.4728 87.7316 99.1708C85.4911 104.63 81.4071 109.621 75.8366 111.537C70.2657 113.452 64.5125 112.728 61.7868 107.494C60.6624 105.335 60.1226 101.796 60.1635 99.3606C60.2755 92.6791 61.8513 85.6954 66.7197 81.1306C69.6085 78.422 72.6156 74.5881 76.556 74.2499C80.4969 73.9116 86.0469 75.6751 88.3035 78.9314C90.1514 81.5968 90.0456 81.8005 90.3559 85.0314Z" fill="#FFCBB6"/>
<path d="M67.2586 101.813C68.047 102.695 69.1897 103.17 70.3253 103.495C72.0847 103.999 73.9616 104.206 75.7495 103.817C77.5374 103.428 79.2292 102.393 80.1719 100.821C79.0923 100.99 77.9887 101.01 76.9033 100.88C71.6739 100.252 67.4836 96.2978 64.1937 92.1747C64.3818 94.324 64.6295 95.7184 65.1604 97.7992C65.4685 99.0069 66.4294 100.883 67.2586 101.813Z" fill="white"/>
<path d="M95.4495 93.5981C90.0632 84.855 80.7937 78.6177 70.6808 76.9327C68.9738 78.4702 67.2669 80.0081 65.5599 81.5452C76.9725 83.1165 86.4398 91.2794 93.5109 100.396C94.9293 98.3905 96.3993 95.7991 95.2348 93.635C95.7319 97.0683 94.2161 90.3582 95.4495 93.5981Z" fill="#E94A47"/>
<path d="M92.7645 152.104C88.3359 133.531 89.0326 129.925 89.1349 110.83C89.158 106.581 87.3092 89.4781 84.2656 84.293C79.9975 77.0214 76.1572 75.8151 72.1567 74.4118C81.5907 66.4811 93.2683 75.1355 96.0313 80.0278C98.7943 84.92 99.1807 90.7544 99.5942 96.3619C100.961 114.903 103.305 133.372 106.613 151.665C101.994 151.527 97.3665 151.674 92.7645 152.104Z" fill="#23286B"/>
<path d="M86.2501 105.646C86.2506 105.646 86.2514 105.646 86.2519 105.646C86.42 105.645 86.5556 105.507 86.5547 105.339C86.512 98.7934 85.1527 92.6323 82.1483 85.3639C80.2532 80.7804 76.0976 75.8623 73.6486 74.5267C73.5009 74.447 73.3164 74.5013 73.2359 74.6488C73.1555 74.7968 73.2101 74.9826 73.3587 75.0633C75.6703 76.3236 79.7681 81.2002 81.5867 85.5983C84.56 92.7901 85.9046 98.8803 85.9473 105.343C85.9469 105.511 86.0825 105.646 86.2501 105.646Z" fill="#23286B"/>
<path d="M84.0777 102.924C84.0911 102.924 84.1049 102.924 84.1186 102.921C84.2858 102.9 84.4023 102.746 84.3801 102.579C83.0417 92.5784 78.63 81.8335 72.8661 74.5347C72.7612 74.4041 72.57 74.3801 72.4384 74.4852C72.3068 74.5895 72.2841 74.7812 72.3886 74.9135C78.0893 82.1303 82.4526 92.762 83.7767 102.659C83.7963 102.813 83.9274 102.924 84.0777 102.924Z" fill="#23286B"/>
<path d="M110.176 150.889C110.182 150.889 110.189 150.889 110.195 150.889C110.363 150.877 110.491 150.733 110.48 150.565C109.286 131.295 106.675 114.594 101.75 94.7179L101.633 94.2446C100.453 89.4726 98.6711 82.2608 95.2384 79.0557C95.1153 78.9412 94.9219 78.9474 94.8085 79.0709C94.6942 79.1943 94.7004 79.3877 94.8236 79.5023C98.1237 82.5839 99.8805 89.6892 101.042 94.3908L101.159 94.864C106.075 114.703 108.681 131.372 109.872 150.602C109.883 150.765 110.016 150.889 110.176 150.889Z" fill="#23286B"/>
<path d="M59.2146 121.965C59.3934 125.374 59.5726 128.782 59.7518 132.191C59.7593 132.336 59.7816 132.506 59.9087 132.576C59.9883 132.62 60.0857 132.609 60.1768 132.597C63.722 132.123 65.7789 148.699 69.3547 148.652C73.1408 148.602 78.448 131.954 82.2101 132.381C82.2008 130.324 82.1924 128.266 82.183 126.208C82.1799 125.476 82.2617 123.56 82.2617 123.56C82.2617 123.56 81.3173 122.652 80.6499 122.344C78.36 121.289 76.0434 125.006 73.6401 124.242C72.3538 123.833 71.6548 122.251 70.3298 121.995C68.4681 121.634 67.26 124.034 65.4489 124.597C64.3333 124.944 63.1137 124.536 62.115 123.931C61.1164 123.325 60.2418 122.523 59.2146 121.965Z" fill="white"/>
<path d="M68.8481 145.321C65.7619 140.157 62.6756 134.993 59.589 129.829C52.902 131.332 46.42 133.748 40.3773 136.989C37.2102 138.687 34.1217 140.645 31.7037 143.307C28.1622 147.206 26.2991 152.337 24.9692 157.438C21.0835 172.346 21.8807 196.35 25.8002 211.249C30.686 210.444 34.9785 209.59 39.8922 210.202C45.4178 210.892 52.0843 212.174 57.6383 211.772C77.4622 210.336 89.5826 209.782 108.788 214.91C109.618 203.893 116.632 185.638 116.074 174.603C115.527 163.788 114.11 152.455 107.782 143.679C102.349 136.145 82.1371 130.35 82.1371 130.35C82.1371 130.35 72.1634 141.23 68.8481 145.321Z" fill="url(#paint3_linear_3799_4267)"/>
<path d="M138.776 122.745C140.283 116.731 142.732 116.492 147.145 112.069C147.857 111.355 148.629 110.233 149.427 110.849C150.206 113.05 144.71 116.797 144.231 121.941C151.421 117.773 162.125 115.755 168.599 116.187C170.881 116.34 166.925 118.17 161.752 118.933C157.029 119.629 154.144 121.526 149.906 123.718C149.656 124.444 152.486 123.23 153.23 123.051C160.292 121.353 165.251 120.001 172.771 119.431C174.989 119.695 171.165 123.478 169.131 124.271C164.075 126.241 158.405 127.717 153.35 129.688C154.676 132.125 167.989 123.89 165.369 127.152C160.711 132.401 153.622 135.387 146.623 135.049C145.469 134.993 144.271 134.858 143.191 135.266C141.921 135.746 140.734 136.99 140.372 138.301C135.183 157.146 129.484 174.979 125.081 186.952C123.787 185.148 119.163 168.399 117.106 167.57C121.082 156.775 128.393 151.128 132.233 140.284C133.907 135.556 136.022 132.057 137.406 128.541C137.704 127.788 139.055 121.986 138.776 122.745Z" fill="url(#paint4_linear_3799_4267)"/>
<path d="M131.564 138.137C122.757 151.722 121.634 157.314 113.315 172.362C109.007 180.156 102.672 190.629 101.142 199.406C100.747 201.676 101.959 214.269 103.779 215.675C105.22 216.787 109.099 215 110.584 213.949C112.069 212.898 113.033 211.278 113.945 209.702C126.167 188.579 136.908 166.594 146.062 143.964C140.826 143.373 135.758 141.337 131.564 138.137Z" fill="url(#paint5_linear_3799_4267)"/>
<path d="M17.1538 211.48H120.031V216.48H17.1538V211.48Z" fill="#EEEEEE"/>
<path d="M70.6805 87.1723C70.8437 87.1723 70.9789 87.0422 70.9842 86.8782C70.99 86.7102 70.8579 86.5685 70.6903 86.5618C66.6565 86.4219 62.9455 82.8999 62.5893 78.87C62.5747 78.7029 62.4199 78.5843 62.259 78.5932C62.0913 78.608 61.9673 78.7568 61.9829 78.9239C62.3719 83.3206 66.2683 87.0204 70.6685 87.1723C70.6729 87.1723 70.6769 87.1723 70.6805 87.1723Z" fill="#23286B"/>
<path d="M17.1491 153.179H104.312V216.48H17.1491V153.179Z" fill="url(#paint6_linear_3799_4267)"/>
<path d="M53.7758 180.645H66.8242V193.724H53.7758V180.645Z" fill="white"/>
<path d="M32.366 197.374C30.7799 200.156 19.1401 193.402 16.9476 191.07C17.0134 194.184 21.6141 196.358 22.0263 197.546C22.3882 198.589 19.8716 197.8 18.9463 197.201C14.398 194.258 12.3678 187.998 12.4843 182.53C12.523 180.707 13.1308 179.772 13.7013 178.057C15.527 172.566 15.7297 160.365 16.9952 163.08C18.3536 166.686 19.5768 172.806 17.7591 176.023C24.342 180.715 28.4385 185.705 32.8106 192.512C33.4469 193.504 33.9498 195.05 32.9467 195.666C29.8164 192.704 26.6861 189.743 23.5559 186.781C21.5821 184.914 19.6866 182.471 17.5568 184.157C20.3771 187.446 33.177 195.95 32.366 197.374Z" fill="url(#paint7_linear_3799_4267)"/>
<path d="M96.4657 177.955C96.4199 178.125 96.2816 178.233 96.1126 178.188C95.9428 178.142 95.8343 178.004 95.8797 177.834C95.9255 177.663 96.0637 177.555 96.2327 177.601C96.4034 177.647 96.5115 177.785 96.4657 177.955ZM85.1505 205.177C85.259 205.316 85.2132 205.486 85.0749 205.595C84.9366 205.704 84.7667 205.658 84.6587 205.519C84.5502 205.381 84.596 205.21 84.7343 205.102C84.857 204.916 85.042 205.038 85.1505 205.177ZM81.2768 198.733C81.3853 198.872 81.3395 199.042 81.2012 199.151C81.0629 199.26 80.893 199.214 80.785 199.075C80.6765 198.937 80.7223 198.766 80.8606 198.658C80.9219 198.565 81.1683 198.594 81.2768 198.733ZM94.431 192.033C94.2927 192.142 94.1389 192.173 93.9695 192.127C93.861 191.988 93.8299 191.834 93.8757 191.664C94.0139 191.555 94.1678 191.524 94.2607 191.585C94.5222 191.693 94.5542 191.848 94.431 192.033ZM88.3141 187.574C88.1758 187.682 88.022 187.714 87.8526 187.668C87.7441 187.529 87.7129 187.375 87.7587 187.205C87.897 187.096 88.0509 187.065 88.1438 187.126C88.4057 187.234 88.4524 187.465 88.3141 187.574ZM70.1309 207.034C70.1621 207.188 70.0393 207.374 69.8855 207.405C69.7312 207.436 69.5458 207.313 69.5151 207.16C69.484 207.005 69.6067 206.819 69.7606 206.788C69.9153 206.756 70.0994 206.879 70.1309 207.034ZM68.9357 199.561C68.9669 199.716 68.8442 199.902 68.6903 199.933C68.536 199.964 68.3506 199.841 68.3199 199.688C68.2888 199.533 68.4115 199.347 68.5654 199.316C68.7188 199.284 68.9046 199.407 68.9357 199.561ZM98.572 185.964C98.5106 186.057 98.2945 186.181 98.1869 186.043C98.0944 185.982 97.9699 185.766 98.1082 185.657C98.1696 185.564 98.3857 185.44 98.4933 185.578C98.6636 185.624 98.6951 185.779 98.572 185.964ZM92.813 182.477C92.7516 182.57 92.5355 182.694 92.4279 182.556C92.3354 182.495 92.2269 182.356 92.3492 182.17C92.4106 182.077 92.5493 181.969 92.7343 182.091C92.8436 182.23 92.8748 182.385 92.813 182.477ZM76.066 202.689C76.0971 202.844 76.0513 203.013 75.897 203.045C75.7428 203.076 75.6503 203.015 75.5427 202.876C75.5115 202.721 75.5573 202.551 75.7116 202.52C75.865 202.489 76.0349 202.535 76.066 202.689ZM74.4266 196.192C74.4577 196.346 74.4119 196.516 74.2577 196.547C74.1034 196.578 74.0109 196.517 73.9033 196.378C73.8722 196.224 73.9179 196.054 74.0722 196.023C74.2256 195.992 74.3951 196.037 74.4266 196.192ZM87.4088 193.384C87.5173 193.523 87.4715 193.693 87.3332 193.802C87.1949 193.911 87.0251 193.865 86.917 193.726C86.8085 193.588 86.8543 193.417 86.9926 193.309C87.13 193.2 87.3003 193.246 87.4088 193.384ZM101.998 192.178C102.107 192.317 102.061 192.487 101.923 192.596C101.784 192.704 101.615 192.658 101.507 192.52C101.398 192.381 101.444 192.211 101.582 192.102C101.72 191.994 101.89 192.04 101.998 192.178ZM97.3701 185.968C97.4786 186.107 97.4328 186.277 97.2945 186.386C97.1562 186.495 96.9864 186.449 96.8783 186.31C96.7698 186.172 96.8156 186.001 96.9539 185.893C97.0917 185.784 97.2616 185.83 97.3701 185.968ZM92.8036 179.667C92.9121 179.805 92.8663 179.975 92.728 180.084C92.5898 180.193 92.4199 180.147 92.3119 180.008C92.2034 179.87 92.2492 179.7 92.3874 179.591C92.5409 179.559 92.7111 179.605 92.8036 179.667ZM70.4484 200.298C70.4026 200.468 70.2643 200.577 70.0954 200.531C69.9255 200.485 69.817 200.347 69.8624 200.177C69.9082 200.007 70.0465 199.898 70.2154 199.944C70.3697 199.912 70.4942 200.127 70.4484 200.298ZM96.9477 169.659C97.1335 169.783 97.1647 169.937 97.0415 170.122L96.9477 169.659ZM86.6769 195.704C86.708 195.858 86.5853 196.044 86.4319 196.075C86.2776 196.106 86.0922 195.983 86.0615 195.83C86.0309 195.676 86.1531 195.489 86.3065 195.458C86.4599 195.427 86.6449 195.549 86.6769 195.704ZM91.9779 195.748C92.0091 195.903 91.8863 196.089 91.7329 196.12C91.5786 196.151 91.3932 196.028 91.3625 195.874C91.3314 195.72 91.3772 195.55 91.6075 195.503C91.761 195.471 91.9459 195.594 91.9779 195.748ZM89.8268 188.31C89.8579 188.465 89.7352 188.651 89.5818 188.682C89.4275 188.713 89.2581 188.667 89.2114 188.436C89.1803 188.282 89.303 188.096 89.4413 187.987C89.6102 188.033 89.7956 188.156 89.8268 188.31ZM99.3803 178.487C99.4888 178.625 99.443 178.795 99.3047 178.904C99.1664 179.013 98.9966 178.967 98.8112 178.844C98.7027 178.705 98.7485 178.535 98.8716 178.348C99.1024 178.302 99.2718 178.347 99.3803 178.487ZM96.3425 177.739C96.3737 177.894 96.3127 177.986 96.2509 178.08C96.0966 178.111 96.0042 178.05 95.9112 177.988C95.8801 177.833 95.941 177.741 96.0028 177.647C96.1567 177.617 96.3265 177.662 96.3425 177.739Z" fill="white"/>
<path d="M140.681 130.455C139.686 130.192 138.843 129.569 138.745 129.205C138.516 128.353 138.286 127.493 138.254 126.612C138.223 125.758 138.379 124.91 138.545 124.072C139.165 120.939 140.074 117.948 142.556 115.947C144.102 114.699 145.678 113.496 147.043 112.051C147.586 111.476 148.505 110.038 149.186 110.439C150.376 111.138 148.674 113.273 147.981 114.469C146.879 116.37 145.936 117.337 144.833 119.238C144.581 119.673 144.416 120.953 144.365 121.454C144.32 121.889 144.598 122.724 144.69 123.152C144.932 124.28 145.022 125.441 144.954 126.593C144.909 127.366 144.781 128.166 144.339 128.8C143.464 130.051 142.154 130.845 140.681 130.455Z" fill="url(#paint8_linear_3799_4267)"/>
<path d="M184.16 116.337L193.317 131.2H200.889L213.92 110.72H205.115L196.428 124.822L191.086 116.337H184.16Z" fill="url(#paint9_linear_3799_4267)"/>
<path d="M184.961 62.6342L193.724 76.8H200.97L213.441 57.28H205.015L196.701 70.721L191.589 62.6342H184.961Z" fill="url(#paint10_linear_3799_4267)"/>
<path d="M184.16 171.522L193.071 185.92H200.439L213.12 166.08H204.552L196.098 179.741L190.9 171.522H184.16Z" fill="url(#paint11_linear_3799_4267)"/>
<defs>
<linearGradient id="paint0_linear_3799_4267" x1="152.449" y1="26.9055" x2="152.341" y2="43.5555" gradientUnits="userSpaceOnUse">
<stop stop-color="#23286B"/>
<stop offset="1" stop-color="#151A4F"/>
</linearGradient>
<linearGradient id="paint1_linear_3799_4267" x1="139.459" y1="38.9779" x2="139.538" y2="43.3537" gradientUnits="userSpaceOnUse">
<stop stop-color="#23286B"/>
<stop offset="1" stop-color="#151A4F"/>
</linearGradient>
<linearGradient id="paint2_linear_3799_4267" x1="165.22" y1="38.532" x2="165.031" y2="43.4508" gradientUnits="userSpaceOnUse">
<stop stop-color="#23286B"/>
<stop offset="1" stop-color="#151A4F"/>
</linearGradient>
<linearGradient id="paint3_linear_3799_4267" x1="116.106" y1="172.369" x2="22.4261" y2="172.369" gradientUnits="userSpaceOnUse">
<stop stop-color="#428DFC"/>
<stop offset="1" stop-color="#1D72D8"/>
</linearGradient>
<linearGradient id="paint4_linear_3799_4267" x1="154.065" y1="137.351" x2="175.466" y2="123.143" gradientUnits="userSpaceOnUse">
<stop stop-color="#FFCBB6"/>
<stop offset="1" stop-color="#F2AF9C"/>
</linearGradient>
<linearGradient id="paint5_linear_3799_4267" x1="146.063" y1="177.082" x2="101.067" y2="177.082" gradientUnits="userSpaceOnUse">
<stop stop-color="#428DFC"/>
<stop offset="1" stop-color="#1D72D8"/>
</linearGradient>
<linearGradient id="paint6_linear_3799_4267" x1="104.312" y1="184.83" x2="17.149" y2="184.83" gradientUnits="userSpaceOnUse">
<stop stop-color="#D6D7D8"/>
<stop offset="1" stop-color="#EEEEEE"/>
</linearGradient>
<linearGradient id="paint7_linear_3799_4267" x1="33.5155" y1="180.373" x2="12.4794" y2="180.373" gradientUnits="userSpaceOnUse">
<stop stop-color="#FFCBB6"/>
<stop offset="1" stop-color="#F2AF9C"/>
</linearGradient>
<linearGradient id="paint8_linear_3799_4267" x1="145.726" y1="120.774" x2="138.73" y2="118.012" gradientUnits="userSpaceOnUse">
<stop stop-color="#FFCBB6"/>
<stop offset="1" stop-color="#F2AF9C"/>
</linearGradient>
<linearGradient id="paint9_linear_3799_4267" x1="199.04" y1="114.775" x2="199.04" y2="136.916" gradientUnits="userSpaceOnUse">
<stop offset="0.1291" stop-color="#428DFC"/>
<stop offset="0.9987" stop-color="#1D72D8"/>
</linearGradient>
<linearGradient id="paint10_linear_3799_4267" x1="199.201" y1="61.145" x2="199.201" y2="82.2479" gradientUnits="userSpaceOnUse">
<stop offset="0.1291" stop-color="#428DFC"/>
<stop offset="0.9987" stop-color="#1D72D8"/>
</linearGradient>
<linearGradient id="paint11_linear_3799_4267" x1="198.64" y1="170.008" x2="198.64" y2="191.457" gradientUnits="userSpaceOnUse">
<stop offset="0.1291" stop-color="#428DFC"/>
<stop offset="0.9987" stop-color="#1D72D8"/>
</linearGradient>
</defs>
</svg>
