<svg width="240" height="240" viewBox="0 0 240 240" fill="none" xmlns="http://www.w3.org/2000/svg">
<path d="M56.669 34.9849L56.6612 35.0193C56.6762 35.0105 56.6917 35.0027 56.7071 34.9942L56.669 34.9849Z" fill="#151A4F"/>
<path d="M85.4681 28.7985C85.2363 28.7751 85.0048 28.7532 84.773 28.7333L85.447 28.8889L85.4681 28.7985Z" fill="#151A4F"/>
<path d="M96.4711 31.4208L96.5116 31.2455C95.2169 30.7915 93.9072 30.4041 92.5885 30.0656L92.4877 30.5061L96.4711 31.4208Z" fill="#151A4F"/>
<path d="M67.0492 30.534C65.7433 30.9211 64.4549 31.373 63.1816 31.8719L66.5662 32.6495L67.0492 30.534Z" fill="#151A4F"/>
<path d="M73.6046 34.2687L74.5124 30.2873L78.4968 31.2027L77.5888 35.1834L73.6046 34.2687Z" fill="#151A4F"/>
<path d="M84.6284 36.7991L85.5359 32.8181L89.5202 33.7335L88.6123 37.7142L84.6284 36.7991Z" fill="#151A4F"/>
<path d="M95.6471 39.3314L96.5554 35.3503L100.539 36.2654L99.6319 40.2464L95.6471 39.3314Z" fill="#151A4F"/>
<path d="M106.67 41.8606L110.654 42.7757L111.355 39.7008C111.225 39.5922 111.103 39.4777 110.971 39.3696C110.544 39.0208 110.106 38.6922 109.671 38.3609L107.578 37.8799L106.67 41.8606Z" fill="#151A4F"/>
<path d="M59.7485 39.8804L60.6564 35.8998L56.7102 34.9937C56.6952 35.0026 56.6797 35.0103 56.6643 35.0188L55.7642 38.965L59.7485 39.8804Z" fill="#151A4F"/>
<path d="M66.7839 41.4992L67.6918 37.5186L71.676 38.4332L70.7678 42.4143L66.7839 41.4992Z" fill="#151A4F"/>
<path d="M77.8034 44.0315L78.7113 40.0508L82.6956 40.9655L81.7877 44.9469L77.8034 44.0315Z" fill="#151A4F"/>
<path d="M88.8312 46.5634L89.7387 42.5823L93.7234 43.4973L92.8151 47.4784L88.8312 46.5634Z" fill="#151A4F"/>
<path d="M99.8503 49.0938L100.758 45.1132L104.742 46.0278L103.835 50.0093L99.8503 49.0938Z" fill="#151A4F"/>
<path d="M52.7893 42.1908L51.8814 46.1715L47.8975 45.2564L48.8054 41.2757L52.7893 42.1908Z" fill="#151A4F"/>
<path d="M58.9209 47.7928L59.8289 43.8121L63.8127 44.7272L62.9048 48.7078L58.9209 47.7928Z" fill="#151A4F"/>
<path d="M69.944 50.3226L70.8519 46.3419L74.8362 47.2566L73.9284 51.2381L69.944 50.3226Z" fill="#151A4F"/>
<path d="M80.9644 52.8559L81.8718 48.8748L85.8562 49.7903L84.9482 53.771L80.9644 52.8559Z" fill="#151A4F"/>
<path d="M91.9874 55.3864L92.8952 51.405L96.8796 52.3204L95.9717 56.3011L91.9874 55.3864Z" fill="#151A4F"/>
<path d="M103.007 57.9187L103.915 53.9372L107.899 54.8527L106.991 58.8333L103.007 57.9187Z" fill="#151A4F"/>
<path d="M45.969 49.4205L45.0611 53.4012L41.0768 52.4865L41.9851 48.5055L45.969 49.4205Z" fill="#151A4F"/>
<path d="M56.0885 55.9343L52.1042 55.0197L53.0124 51.0385L56.9964 51.9537L56.0885 55.9343Z" fill="#151A4F"/>
<path d="M63.124 57.5557L64.032 53.575L68.0159 54.4901L67.108 58.4708L63.124 57.5557Z" fill="#151A4F"/>
<path d="M74.1436 60.0862L75.0512 56.1052L79.0358 57.0202L78.1276 61.0013L74.1436 60.0862Z" fill="#151A4F"/>
<path d="M85.1667 62.6169L86.0749 58.6358L90.0588 59.5509L89.1513 63.5319L85.1667 62.6169Z" fill="#151A4F"/>
<path d="M96.1867 65.1486L97.0945 61.1671L101.079 62.0825L100.171 66.0632L96.1867 65.1486Z" fill="#151A4F"/>
<path d="M38.1049 55.7159L37.6558 55.6126C37.0533 56.8668 36.5123 58.1388 36.0271 59.4269L37.1973 59.6954L38.1049 55.7159Z" fill="#151A4F"/>
<path d="M49.1292 58.2447L48.2217 62.2258L44.2373 61.3103L45.1453 57.3296L49.1292 58.2447Z" fill="#151A4F"/>
<path d="M60.1487 60.7762L59.2412 64.7572L55.2565 63.8422L56.1648 59.8612L60.1487 60.7762Z" fill="#151A4F"/>
<path d="M71.1721 63.3085L70.2646 67.2895L66.2803 66.3741L67.1882 62.3934L71.1721 63.3085Z" fill="#151A4F"/>
<path d="M81.2873 69.8225L77.3034 68.9074L78.2113 64.9267L82.1956 65.8414L81.2873 69.8225Z" fill="#151A4F"/>
<path d="M89.2273 67.4597L93.2112 68.3748L92.3037 72.3558L88.3191 71.4408L89.2273 67.4597Z" fill="#151A4F"/>
<path d="M99.3467 73.973L100.255 69.9924L104.239 70.9075L103.331 74.8881L99.3467 73.973Z" fill="#151A4F"/>
<path d="M42.3089 65.4736L41.4006 69.4548L37.4167 68.5397L38.3246 64.559L42.3089 65.4736Z" fill="#151A4F"/>
<path d="M53.3288 68.0071L52.4206 71.9882L48.4367 71.0731L49.3441 67.0921L53.3288 68.0071Z" fill="#151A4F"/>
<path d="M63.4483 74.5212L59.4639 73.6058L60.3718 69.6251L64.3557 70.5402L63.4483 74.5212Z" fill="#151A4F"/>
<path d="M71.3836 72.1592L75.3679 73.0747L74.46 77.0554L70.476 76.1403L71.3836 72.1592Z" fill="#151A4F"/>
<path d="M85.4912 79.5833L81.5065 78.6683L82.4148 74.6872L86.3987 75.6023L85.4912 79.5833Z" fill="#151A4F"/>
<path d="M92.5261 81.2058L93.4343 77.2247L97.4182 78.1398L96.5103 82.1205L92.5261 81.2058Z" fill="#151A4F"/>
<path d="M33.1081 72.7365C33.0132 74.0403 32.9629 75.3455 32.9758 76.6503L33.8309 72.9023L33.1081 72.7365Z" fill="#151A4F"/>
<path d="M44.8518 75.4321L43.9439 79.4128L39.9596 78.4981L40.8679 74.5171L44.8518 75.4321Z" fill="#151A4F"/>
<path d="M55.8713 77.9622L54.9635 81.9429L50.9796 81.0278L51.8874 77.0471L55.8713 77.9622Z" fill="#151A4F"/>
<path d="M66.8948 80.4955L65.9869 84.4762L62.0026 83.5615L62.9109 79.5804L66.8948 80.4955Z" fill="#151A4F"/>
<path d="M77.0143 87.0083L73.0299 86.0929L73.9379 82.1122L77.9221 83.0269L77.0143 87.0083Z" fill="#151A4F"/>
<path d="M88.0338 89.5411L84.0496 88.6257L84.9574 84.645L88.9417 85.5597L88.0338 89.5411Z" fill="#151A4F"/>
<path d="M95.069 91.1593L95.9769 87.1786L99.9612 88.0933L99.0534 92.0747L95.069 91.1593Z" fill="#151A4F"/>
<path d="M38.0315 82.6656L34.0476 81.7505L33.5812 83.7957C33.6952 84.5061 33.8226 85.2148 33.9683 85.9209L37.1232 86.6459L38.0315 82.6656Z" fill="#151A4F"/>
<path d="M49.0514 85.193L48.1436 89.1737L44.1593 88.259L45.0671 84.2776L49.0514 85.193Z" fill="#151A4F"/>
<path d="M60.0745 87.726L59.1666 91.7067L55.1826 90.7916L56.0906 86.8109L60.0745 87.726Z" fill="#151A4F"/>
<path d="M67.1058 89.3466L71.0901 90.2612L70.1819 94.2424L66.1979 93.3273L67.1058 89.3466Z" fill="#151A4F"/>
<path d="M78.1296 91.8775L82.114 92.793L81.2061 96.7736L77.2222 95.8586L78.1296 91.8775Z" fill="#151A4F"/>
<path d="M88.2491 98.3931L89.1566 94.4121L93.1413 95.3271L92.2331 99.3082L88.2491 98.3931Z" fill="#151A4F"/>
<path d="M41.1877 91.4891L37.2039 90.574L36.4122 94.048C36.4913 94.2443 36.5692 94.4403 36.651 94.6359L40.281 95.4701L41.1877 91.4891Z" fill="#151A4F"/>
<path d="M52.2073 94.0184L51.2998 97.9993L47.3155 97.0839L48.2234 93.1032L52.2073 94.0184Z" fill="#151A4F"/>
<path d="M63.2307 96.5475L62.3232 100.529L58.3385 99.6135L59.2468 95.6325L63.2307 96.5475Z" fill="#151A4F"/>
<path d="M74.2542 99.0821L73.3467 103.063L69.362 102.148L70.2703 98.167L74.2542 99.0821Z" fill="#151A4F"/>
<path d="M85.2737 101.612L84.3658 105.592L80.3816 104.678L81.2898 100.697L85.2737 101.612Z" fill="#151A4F"/>
<path d="M96.2971 104.143L95.3889 108.124L91.4049 107.209L92.3132 103.228L96.2971 104.143Z" fill="#151A4F"/>
<path d="M45.3909 101.251L41.407 100.336L40.8891 102.608C41.3698 103.336 41.8775 104.05 42.4015 104.753L44.4829 105.231L45.3909 101.251Z" fill="#151A4F"/>
<path d="M56.4108 103.78L55.5026 107.761L51.5186 106.846L52.4262 102.865L56.4108 103.78Z" fill="#151A4F"/>
<path d="M67.4338 106.312L66.5256 110.293L62.5417 109.378L63.4496 105.397L67.4338 106.312Z" fill="#151A4F"/>
<path d="M78.4534 108.841L77.5455 112.823L73.5612 111.907L74.4691 107.926L78.4534 108.841Z" fill="#151A4F"/>
<path d="M89.4768 111.376L88.5693 115.357L84.585 114.441L85.4929 110.461L89.4768 111.376Z" fill="#151A4F"/>
<path d="M46.5639 109.619C47.1179 110.186 47.6886 110.741 48.2759 111.285L48.552 110.075L46.5639 109.619Z" fill="#151A4F"/>
<path d="M59.5706 112.604L58.6623 116.585L54.6784 115.67L55.5863 111.69L59.5706 112.604Z" fill="#151A4F"/>
<path d="M70.5906 115.136L69.6823 119.117L65.6984 118.202L66.6058 114.221L70.5906 115.136Z" fill="#151A4F"/>
<path d="M81.614 117.668L80.7061 121.649L76.7214 120.734L77.6296 116.753L81.614 117.668Z" fill="#151A4F"/>
<path d="M92.637 120.202L88.6531 119.287L87.7448 123.268L88.56 123.455C89.7314 123.264 90.8978 123.034 92.0546 122.756L92.637 120.202Z" fill="#151A4F"/>
<path d="M188.149 148.687L191.167 147.745C191.409 147.583 191.679 147.475 191.921 147.26L187.233 148.768C187.556 148.741 187.853 148.741 188.149 148.687ZM186.021 148.687L192.837 146.479C192.972 146.371 193.053 146.236 193.187 146.129L185.563 148.552C185.724 148.633 185.886 148.66 186.021 148.687ZM184.835 148.391L193.753 145.536C193.861 145.456 193.888 145.348 193.996 145.24L184.593 148.229C184.674 148.337 184.754 148.337 184.835 148.391ZM184.135 147.933L194.373 144.648C194.427 144.567 194.481 144.459 194.535 144.378L183.973 147.771C184 147.852 184.081 147.906 184.135 147.933ZM183.623 147.421L194.777 143.866C194.831 143.786 194.831 143.705 194.885 143.597L183.488 147.259C183.569 147.314 183.596 147.394 183.623 147.421ZM183.299 146.883L195.154 143.113C195.154 143.032 195.208 142.951 195.208 142.843L183.192 146.694C183.219 146.748 183.246 146.829 183.299 146.883ZM183.003 146.29L195.316 142.332C195.316 142.251 195.343 142.17 195.37 142.062L182.922 146.021C182.949 146.156 182.976 146.21 183.003 146.29ZM182.787 145.698L195.478 141.632C195.478 141.551 195.505 141.47 195.505 141.389L182.707 145.509C182.733 145.536 182.761 145.617 182.787 145.698ZM182.68 144.971C182.707 144.998 182.653 145.025 182.68 145.051L195.586 140.931C195.586 140.851 195.612 140.77 195.612 140.689L182.76 144.782C182.733 144.836 182.707 144.89 182.68 144.971ZM183.353 144.055C183.326 144.082 183.299 144.136 183.245 144.136L195.612 140.178C195.612 140.097 195.585 140.043 195.612 139.962L183.569 143.84C183.461 143.921 183.407 144.001 183.353 144.055ZM183.946 143.274L195.505 139.585C195.505 139.504 195.478 139.45 195.451 139.37L184.054 143.032C184.054 143.113 184 143.167 183.946 143.274ZM184.323 142.466L195.451 138.912C195.424 138.831 195.424 138.777 195.397 138.696L184.431 142.224C184.35 142.332 184.35 142.413 184.323 142.466ZM184.512 141.739L195.289 138.319C195.262 138.238 195.235 138.211 195.235 138.104L184.593 141.524C184.539 141.605 184.512 141.659 184.512 141.739ZM184.566 141.039L195.047 137.7C195.02 137.619 194.993 137.592 194.966 137.512L184.539 140.824C184.566 140.905 184.566 140.985 184.566 141.039ZM184.512 140.366L194.697 137.108C194.67 137.027 194.643 137 194.616 136.919L184.485 140.15C184.512 140.231 184.512 140.339 184.512 140.366ZM184.377 139.747L194.319 136.542C194.292 136.462 194.211 136.408 194.184 136.381L184.269 139.558C184.323 139.639 184.35 139.693 184.377 139.747ZM193.7 135.869L184.027 138.939C184.054 139.019 184.081 139.046 184.108 139.127L193.861 136.003C193.861 135.977 193.78 135.923 193.7 135.869ZM193.134 135.384L183.703 138.4C183.73 138.481 183.811 138.535 183.838 138.562L193.349 135.519C193.268 135.519 193.188 135.438 193.134 135.384ZM192.379 134.953L183.38 137.808C183.407 137.889 183.434 137.915 183.461 137.996L192.649 135.034C192.541 135.034 192.487 134.98 192.379 134.953ZM191.436 134.603C191.409 134.63 191.383 134.576 191.356 134.603L183.407 137.134C183.381 137.188 183.381 137.296 183.381 137.377L191.787 134.684C191.652 134.684 191.544 134.63 191.436 134.603ZM189.416 134.523L184.269 136.165C184.108 136.3 183.919 136.408 183.757 136.542L190.278 134.469C190.008 134.496 189.685 134.496 189.416 134.523Z" fill="#E6E6E6"/>
<path d="M203.396 103.016C203.773 104.147 203.343 105.359 202.777 106.409C201.241 109.29 198.762 111.66 195.798 113.033C194.155 113.814 192.376 114.272 190.679 114.972C185.749 117.019 181.734 121.112 179.821 126.094C180.387 122.647 178.582 119.227 176.372 116.507C174.19 113.787 171.549 111.337 169.987 108.213C168.64 105.52 168.613 101.535 171.334 100.242C173.328 99.2995 175.834 100.35 177.881 99.488C178.609 99.1649 179.256 98.5186 179.229 97.7376C179.121 95.7448 175.187 95.8795 175.079 93.8869C174.971 91.5979 181.007 92.2713 180.226 90.09C179.902 89.1744 178.609 88.905 178.178 88.0434C177.72 87.1818 177.747 85.9699 178.528 85.3506C179.525 84.5427 181.034 85.189 182.3 84.8927C183.728 84.5696 184.644 83.1155 184.941 81.6614C185.237 80.2073 185.075 78.7261 185.291 77.272C185.803 73.6904 188.74 70.5937 192.269 69.8397C195.799 69.0856 199.732 70.7553 201.645 73.8251C202.427 75.0907 202.858 76.7873 202.022 77.9989C201.295 79.0221 199.732 79.6955 199.867 80.9342C200.029 82.6308 203.181 82.7924 203.235 84.4889C203.288 86.4818 199.193 86.4818 199.301 88.4743C199.355 89.3631 200.298 89.8747 200.864 90.5747C201.941 91.8672 201.51 94.1023 200.029 94.9101C199.436 95.2332 198.735 95.3679 198.277 95.8257C197.092 96.9836 198.25 99.0302 199.651 99.892C201.052 100.754 202.884 101.427 203.396 103.016Z" fill="url(#paint0_linear_3799_4068)"/>
<path d="M193.049 103.151C193.884 102.693 194.773 102.262 195.447 101.562C196.821 100.054 196.74 97.7918 196.848 95.7452C196.956 93.6986 197.683 91.302 199.65 90.7632C201.293 90.3054 203.368 91.3017 204.581 90.117C205.039 89.6861 205.227 89.0398 205.551 88.5013C206.952 86.1585 210.643 86.3469 212.69 88.1513C214.711 89.9554 215.493 92.7561 216.166 95.3951C216.409 96.3645 216.436 97.7111 215.493 97.9802C214.576 98.2227 213.66 97.0915 212.798 97.4417C212.098 97.7111 212.044 98.7074 212.313 99.4346C212.556 100.135 212.987 100.862 212.825 101.616C212.502 103.016 210.535 103.097 209.134 102.72C207.733 102.343 205.928 101.966 205.12 103.178C206.009 106.005 206.763 109.452 204.769 111.687C202.479 114.245 198.249 113.976 194.827 114.299C188.469 114.892 183.969 119.739 180.386 125.044C180.17 116.157 185.262 107.378 193.049 103.151Z" fill="url(#paint1_linear_3799_4068)"/>
<path d="M185.075 121.004C185.048 121.004 185.048 121.004 185.021 121.004C184.94 120.977 184.913 120.896 184.94 120.843C188.173 110.96 193.319 104.093 202.722 97.1723C204.474 95.8797 209.755 93.6985 212.045 93.51C212.099 93.51 212.18 93.5638 212.18 93.6447C212.18 93.7256 212.126 93.7794 212.045 93.7794C209.862 93.9678 204.555 96.1491 202.884 97.3879C193.508 104.282 188.389 111.095 185.182 120.924C185.182 120.95 185.129 121.004 185.075 121.004Z" fill="white"/>
<path d="M190.061 92.0288L188.983 89.0665C188.606 89.0396 188.202 89.0934 187.825 89.2281L188.983 92.4057C189.037 92.5941 188.956 92.7826 188.768 92.8366C188.579 92.8904 188.39 92.8097 188.336 92.6213L187.178 89.4975C186.828 89.7128 186.531 90.009 186.289 90.3322L187.259 92.9713C187.312 93.1597 187.232 93.3482 187.043 93.4022C186.855 93.456 186.666 93.3753 186.612 93.1869L185.858 91.1134C185.426 92.1906 185.399 93.564 185.884 94.9103C185.884 94.9372 185.911 94.9641 185.911 94.9912C185.669 95.1259 185.399 95.2875 185.184 95.4759C184.51 95.9606 183.648 96.7954 183.352 97.9803L183.675 98.0613C183.944 96.9841 184.753 96.2031 185.372 95.7722C185.588 95.6106 185.804 95.4759 186.046 95.3413C186.558 96.4722 187.393 97.3878 188.309 97.8725L187.581 95.9069C187.528 95.7184 187.608 95.53 187.797 95.4759C187.985 95.4219 188.174 95.5028 188.228 95.6913L189.171 98.2226C189.575 98.3304 189.979 98.3572 190.384 98.2763L189.306 95.3141C189.252 95.1257 189.333 94.9372 189.521 94.8832C189.71 94.8294 189.898 94.9101 189.952 95.0985L191.057 98.0876C191.407 97.9261 191.731 97.6836 192 97.4145L191.003 94.7216C190.949 94.5332 191.03 94.3447 191.219 94.2907C191.407 94.2369 191.596 94.3176 191.65 94.506L192.512 96.822C192.781 96.418 193.024 95.9873 193.24 95.5295L192.701 94.0754C192.647 93.8869 192.728 93.6985 192.916 93.6444C193.105 93.5907 193.293 93.6713 193.347 93.8598L193.644 94.6407C194.183 93.3482 194.533 92.0825 194.991 91.6785C194.237 91.5169 193.186 90.8169 192.027 90.1704L192.404 91.1667C192.458 91.3551 192.377 91.5436 192.189 91.5976C192 91.6514 191.812 91.5707 191.758 91.3822L191.138 89.6857C190.68 89.4703 190.222 89.3088 189.764 89.201L190.707 91.8132C190.761 92.0016 190.68 92.1901 190.491 92.2441C190.33 92.2981 190.141 92.2172 190.061 92.0288Z" fill="white"/>
<path d="M136.764 125.016H106.695V158.435H136.764V125.016Z" fill="#D6D7D8"/>
<path d="M155.383 157.358H88.0781V159.943H155.383V157.358Z" fill="#428DFC"/>
<path d="M187.772 61.1145H55.6953V146.587H187.772V61.1145Z" fill="url(#paint2_linear_3799_4068)"/>
<path d="M185.454 63.2419H58.0117V133.634H185.454V63.2419Z" fill="white"/>
<path d="M115.262 140.242L116.996 141.974L118.73 140.242L116.996 138.509L115.262 140.242Z" fill="#A1C3FC"/>
<path d="M119.989 140.238L121.723 141.971L123.456 140.238L121.723 138.505L119.989 140.238Z" fill="white"/>
<path d="M124.72 140.245L126.453 141.978L128.187 140.245L126.453 138.513L124.72 140.245Z" fill="#1D72D8"/>
<path d="M185.102 51.124C185.102 51.1778 185.102 51.2318 185.102 51.2856C185.102 53.5206 186.907 55.325 189.143 55.325C191.38 55.325 193.185 53.5209 193.185 51.2856C193.185 51.2318 193.185 51.1778 193.185 51.124H185.102Z" fill="#D3E3FE"/>
<path d="M199.574 41.2949C199.574 41.3758 199.574 41.4834 199.574 41.5643C199.574 45.2534 202.565 48.2425 206.256 48.2425C209.947 48.2425 212.938 45.2534 212.938 41.5643C212.938 41.4834 212.938 41.3758 212.938 41.2949C212.938 41.2949 199.574 41.2949 199.574 41.2949Z" fill="#A1C3FC"/>
<path d="M30.1523 34.2935C30.1523 34.455 30.1523 34.5897 30.1523 34.7513C30.1523 40.9717 35.2177 46.0346 41.4417 46.0346C47.6658 46.0346 52.7311 40.972 52.7311 34.7513C52.7311 34.5897 52.7311 34.455 52.7311 34.2935C52.7309 34.2935 30.1523 34.2935 30.1523 34.2935Z" fill="#F4F4F4"/>
<path d="M41.9805 34.2935C41.9805 34.4013 41.9805 34.5088 41.9805 34.6166C41.9805 39.1407 45.6447 42.803 50.1713 42.803C54.6978 42.803 58.3621 39.1407 58.3621 34.6166C58.3621 34.5088 58.3621 34.4013 58.3621 34.2935H41.9805Z" fill="#E7EFFE"/>
<path d="M37.2365 142.116C37.1827 143.301 37.91 144.378 38.7454 145.24C41.0086 147.637 44.0534 149.28 47.2864 149.818C49.0915 150.114 50.9507 150.114 52.7829 150.33C58.1178 151.003 63.1021 153.911 66.3086 158.22C64.8268 155.015 65.6888 151.218 67.0899 147.987C68.491 144.756 70.404 141.686 71.0775 138.239C71.6703 135.276 70.6194 131.372 67.6287 130.86C65.4193 130.483 63.2638 132.179 61.0544 131.856C60.2731 131.749 59.4379 131.291 59.2762 130.51C58.8451 128.544 62.725 127.628 62.267 125.663C61.7551 123.401 56.0701 125.663 56.2586 123.373C56.3396 122.404 57.498 121.812 57.7135 120.842C57.929 119.873 57.5787 118.715 56.6626 118.338C55.477 117.826 54.1838 118.849 52.8905 118.903C51.4087 118.984 50.1424 117.799 49.4687 116.48C48.7949 115.16 48.5525 113.652 47.9597 112.306C46.5048 108.967 42.8406 106.732 39.203 106.947C35.5657 107.163 32.1978 109.828 31.147 113.329C30.7158 114.756 30.7427 116.534 31.9014 117.503C32.8714 118.311 34.5688 118.526 34.7843 119.765C35.0807 121.462 32.0631 122.458 32.4671 124.128C32.9252 126.093 36.9396 124.989 37.3439 126.955C37.5324 127.844 36.751 128.598 36.4008 129.406C35.7004 130.941 36.7241 132.987 38.3676 133.391C39.0142 133.553 39.7418 133.472 40.3343 133.795C41.7892 134.603 41.2236 136.892 40.0917 138.104C38.9071 139.343 37.3444 140.447 37.2365 142.116Z" fill="url(#paint3_linear_3799_4068)"/>
<path d="M47.3683 139.504C46.4253 139.289 45.4554 139.1 44.6202 138.589C42.8689 137.484 42.357 135.249 41.7104 133.311C41.0638 131.372 39.7165 129.217 37.6688 129.217C35.9444 129.217 34.1931 130.752 32.7113 129.917C32.1454 129.594 31.7952 129.029 31.3372 128.598C29.3704 126.713 25.8138 127.871 24.332 130.16C22.8502 132.449 22.8502 135.384 22.8771 138.131C22.904 139.127 23.2273 140.447 24.2244 140.447C25.1674 140.447 25.7602 139.1 26.7032 139.208C27.4577 139.289 27.781 140.259 27.727 141.012C27.6732 141.766 27.4575 142.574 27.8079 143.247C28.4814 144.54 30.4484 144.082 31.6879 143.328C32.9273 142.574 34.5976 141.739 35.7023 142.709C35.5945 145.698 35.7833 149.252 38.3159 150.868C41.2257 152.726 45.2673 151.353 48.6623 150.76C54.9939 149.629 60.679 153.157 65.5558 157.358C63.319 148.687 56.0441 141.524 47.3683 139.504Z" fill="url(#paint4_linear_3799_4068)"/>
<path d="M66.2274 158.624C64.0719 152.996 62.3475 147.206 61.0273 141.336" stroke="#428DFC" stroke-width="3.08417" stroke-miterlimit="10" stroke-linecap="round"/>
<path d="M63.9707 140.055C63.8277 139.431 62.3715 139.233 60.7181 139.612C59.0647 139.991 57.8403 140.804 57.9833 141.427C58.1263 142.05 59.5825 142.248 61.2359 141.869C62.8893 141.49 64.1137 140.678 63.9707 140.055Z" fill="#23286B"/>
<path d="M60.868 140.635C60.1405 137.296 59.5479 133.957 59.0898 130.564" stroke="#428DFC" stroke-width="3.08417" stroke-miterlimit="10" stroke-linecap="round"/>
<path d="M62.479 128.612C62.2381 127.893 60.4756 127.834 58.5423 128.481C56.609 129.128 55.237 130.235 55.4779 130.954C55.7188 131.674 57.4813 131.733 59.4146 131.086C61.3479 130.439 62.7198 129.332 62.479 128.612Z" fill="#23286B"/>
<path d="M58.9528 129.675C58.6026 126.875 58.3331 124.074 58.1445 121.274" stroke="#428DFC" stroke-width="3.08417" stroke-miterlimit="10" stroke-linecap="round"/>
<path d="M62.0232 120.266C62.0152 119.508 60.3563 118.91 58.3179 118.932C56.2795 118.954 54.6336 119.586 54.6417 120.344C54.6497 121.102 56.3087 121.7 58.347 121.678C60.3854 121.657 62.0313 121.024 62.0232 120.266Z" fill="#23286B"/>
<path d="M58.0948 120.089C57.987 117.961 57.9332 115.807 57.9062 113.653" stroke="#428DFC" stroke-width="3.08417" stroke-miterlimit="10" stroke-linecap="round"/>
<path d="M62.8825 112.497C62.8716 111.471 60.6435 110.663 57.9058 110.692C55.1682 110.721 52.9577 111.576 52.9686 112.602C52.9795 113.628 55.2076 114.436 57.9453 114.407C60.6829 114.378 62.8934 113.523 62.8825 112.497Z" fill="#23286B"/>
<path d="M57.9062 112.198C57.9332 110.771 57.9601 109.344 58.0141 107.917" stroke="#428DFC" stroke-width="3.08417" stroke-miterlimit="10" stroke-linecap="round"/>
<path d="M54.8561 150.653L55.9339 147.691C56.311 147.664 56.7152 147.717 57.0924 147.852L55.9339 151.03C55.8801 151.218 55.9608 151.407 56.1493 151.461C56.3379 151.515 56.5264 151.434 56.5805 151.245L57.739 148.121C58.0892 148.337 58.3856 148.633 58.6282 148.956L57.6583 151.595C57.6045 151.784 57.6852 151.972 57.8737 152.026C58.0623 152.08 58.2508 151.999 58.3049 151.811L59.0594 149.737C59.4905 150.815 59.5174 152.188 59.0324 153.534C59.0324 153.561 59.0055 153.588 59.0055 153.615C59.2482 153.75 59.5174 153.911 59.7331 154.1C60.4066 154.585 61.269 155.419 61.5654 156.604L61.242 156.685C60.9725 155.608 60.1643 154.827 59.5446 154.396C59.3291 154.235 59.1134 154.1 58.871 153.965C58.3592 155.096 57.5238 156.012 56.6079 156.497L57.3355 154.531C57.3893 154.342 57.3086 154.154 57.12 154.1C56.9314 154.046 56.7429 154.127 56.6888 154.315L55.7458 156.847C55.3416 156.954 54.9375 156.981 54.5333 156.9L55.6111 153.938C55.6649 153.75 55.5842 153.561 55.3956 153.507C55.2071 153.453 55.0185 153.534 54.9644 153.723L53.8598 156.712C53.5096 156.55 53.1863 156.308 52.9167 156.038L53.9136 153.346C53.9674 153.157 53.8867 152.969 53.6981 152.915C53.5096 152.861 53.321 152.942 53.267 153.13L52.4049 155.446C52.1354 155.042 51.893 154.611 51.6773 154.153L52.2161 152.699C52.2699 152.511 52.1892 152.322 52.0006 152.268C51.8121 152.214 51.6235 152.295 51.5695 152.484L51.2731 153.265C50.7343 151.972 50.3838 150.707 49.9258 150.303C50.6802 150.141 51.7309 149.441 52.8896 148.794L52.5125 149.791C52.4587 149.979 52.5394 150.168 52.7279 150.222C52.9165 150.276 53.1051 150.195 53.1591 150.006L53.7788 148.31C54.2369 148.094 54.6949 147.933 55.153 147.825L54.21 150.437C54.1562 150.626 54.2369 150.814 54.4254 150.868C54.5866 150.922 54.7752 150.841 54.8561 150.653Z" fill="white"/>
<path d="M49.1196 64.5883L47.0988 64.3458C46.9102 64.3727 46.7217 64.3727 46.5329 64.4267L49.6852 64.7768C49.4698 64.723 49.3081 64.6421 49.1196 64.5883ZM50.3588 65.1539L45.7784 64.6423C45.6705 64.6692 45.5898 64.7232 45.482 64.7501L50.6011 65.3426C50.5204 65.2615 50.4397 65.2077 50.3588 65.1539ZM50.9785 65.6386L44.997 64.9655C44.9161 64.9923 44.8623 65.0464 44.7816 65.0732L51.0863 65.8004C51.0594 65.7193 51.0054 65.6924 50.9785 65.6386ZM51.2749 66.0964L44.4042 65.3155C44.3504 65.3424 44.2964 65.3964 44.2426 65.4233L51.3287 66.2311C51.3289 66.1771 51.3018 66.1233 51.2749 66.0964ZM51.4365 66.5271L43.9464 65.6655C43.8926 65.6924 43.8655 65.7464 43.8117 65.8002L51.4637 66.6618C51.4365 66.608 51.4365 66.5542 51.4365 66.5271ZM51.4906 66.9311L43.5424 66.0155C43.5155 66.0693 43.4614 66.0964 43.4345 66.1502L51.4906 67.0658C51.4906 67.0389 51.4906 66.9849 51.4906 66.9311ZM51.4906 67.3621L43.2191 66.4196C43.1922 66.4733 43.1653 66.5005 43.1112 66.5542L51.4637 67.5236C51.4906 67.4427 51.4906 67.4158 51.4906 67.3621ZM51.4634 67.7659L42.9493 66.7965C42.9224 66.8502 42.8955 66.8774 42.8684 66.9311L51.4632 67.9005C51.4634 67.8737 51.4634 67.8199 51.4634 67.7659ZM51.3289 68.2237C51.3289 68.1968 51.3558 68.1968 51.3558 68.1699L42.707 67.1736C42.6801 67.2274 42.6532 67.2545 42.626 67.3083L51.248 68.3046C51.2749 68.2777 51.3018 68.2506 51.3289 68.2237ZM50.7092 68.5737C50.7361 68.5737 50.763 68.5468 50.7902 68.5468L42.4915 67.6043C42.4646 67.6581 42.4646 67.6852 42.4377 67.739L50.5207 68.6546C50.6014 68.6277 50.6552 68.6008 50.7092 68.5737ZM50.1433 68.87L42.3837 67.9812C42.3568 68.035 42.3568 68.0621 42.3568 68.1159L50.0088 68.9775C50.0354 68.9509 50.0895 68.924 50.1433 68.87ZM49.7121 69.2471L42.2489 68.3855C42.2489 68.4393 42.222 68.4664 42.222 68.5202L49.5776 69.3549C49.6583 69.3278 49.6852 69.274 49.7121 69.2471ZM49.4157 69.624L42.1949 68.7893C42.1949 68.8431 42.1949 68.8702 42.168 68.924L49.3079 69.7318C49.3619 69.7049 49.3888 69.6778 49.4157 69.624ZM49.2003 70.0281L42.168 69.2202C42.168 69.274 42.168 69.3011 42.168 69.3549L49.1462 70.1627C49.1465 70.1087 49.1734 70.0549 49.2003 70.0281ZM49.0386 70.4318L42.1951 69.6509C42.1951 69.7047 42.1951 69.7318 42.1951 69.7856L48.9848 70.5665C49.0117 70.5128 49.0386 70.4587 49.0386 70.4318ZM48.9577 70.8359L42.2758 70.0818C42.2758 70.1356 42.3027 70.1896 42.3027 70.2165L48.9577 70.9706C48.9577 70.9165 48.9577 70.8628 48.9577 70.8359ZM42.4644 70.6474L48.9577 71.4015C48.9577 71.3477 48.9577 71.3206 48.9577 71.2668L42.4103 70.5128C42.4106 70.5396 42.4375 70.5934 42.4644 70.6474ZM42.6801 71.0781L49.0117 71.8053C49.0117 71.7515 48.9848 71.6975 48.9848 71.6706L42.5994 70.9434C42.626 70.9706 42.6532 71.0243 42.6801 71.0781ZM43.0034 71.5359L49.0386 72.236C49.0386 72.1822 49.0386 72.1551 49.0386 72.1013L42.8686 71.4012C42.9224 71.4284 42.9493 71.4822 43.0034 71.5359ZM43.4614 71.9937C43.4883 71.9937 43.4883 72.0206 43.5152 72.0206L48.8501 72.64C48.877 72.6131 48.9039 72.5591 48.931 72.5053L43.2998 71.8591C43.3536 71.886 43.4074 71.94 43.4614 71.9937ZM44.6199 72.5594L48.0687 72.9634C48.2035 72.9365 48.3382 72.9096 48.473 72.8825L44.1081 72.3709C44.2697 72.4247 44.4583 72.5053 44.6199 72.5594Z" fill="#B3C9EE"/>
<path d="M191.651 153.696L194.803 153.83C195.1 153.777 195.396 153.749 195.665 153.642L190.735 153.48C191.085 153.534 191.354 153.642 191.651 153.696ZM189.657 152.969L196.824 153.211C196.985 153.157 197.093 153.077 197.282 152.996L189.279 152.7C189.414 152.834 189.522 152.915 189.657 152.969ZM188.66 152.295L198.009 152.619C198.144 152.565 198.198 152.484 198.333 152.43L188.471 152.053C188.525 152.188 188.606 152.215 188.66 152.295ZM188.121 151.622L198.872 151.999C198.952 151.945 199.033 151.864 199.114 151.811L188.041 151.407C188.04 151.514 188.094 151.595 188.121 151.622ZM187.825 150.976L199.545 151.407C199.626 151.353 199.653 151.272 199.734 151.192L187.771 150.761C187.825 150.841 187.825 150.922 187.825 150.976ZM187.69 150.357L200.111 150.814C200.138 150.733 200.219 150.68 200.273 150.599L187.663 150.141C187.69 150.195 187.69 150.276 187.69 150.357ZM187.636 149.683L200.569 150.168C200.596 150.087 200.65 150.033 200.731 149.953L187.663 149.441C187.636 149.576 187.636 149.603 187.636 149.683ZM187.636 149.064L200.946 149.549C200.973 149.468 201.027 149.414 201.054 149.333L187.609 148.849C187.636 148.902 187.636 148.983 187.636 149.064ZM187.798 148.337C187.798 148.391 187.771 148.391 187.771 148.418L201.297 148.929C201.324 148.849 201.378 148.795 201.405 148.714L187.933 148.202C187.879 148.256 187.825 148.283 187.798 148.337ZM188.714 147.717C188.66 147.717 188.633 147.771 188.579 147.771L201.566 148.229C201.593 148.148 201.593 148.094 201.647 148.014L189.01 147.556C188.875 147.61 188.795 147.664 188.714 147.717ZM189.549 147.179L201.674 147.637C201.701 147.556 201.701 147.502 201.701 147.421L189.738 146.991C189.711 147.044 189.63 147.098 189.549 147.179ZM190.169 146.56L201.835 146.991C201.835 146.91 201.862 146.856 201.862 146.775L190.358 146.371C190.25 146.425 190.223 146.506 190.169 146.56ZM190.6 145.94L201.889 146.371C201.889 146.291 201.889 146.236 201.916 146.156L190.762 145.752C190.654 145.806 190.627 145.86 190.6 145.94ZM190.869 145.294L201.862 145.698C201.862 145.617 201.862 145.563 201.835 145.483L190.923 145.052C190.95 145.159 190.923 145.24 190.869 145.294ZM191.085 144.648L201.781 145.052C201.781 144.971 201.781 144.917 201.755 144.836L191.139 144.432C191.112 144.513 191.085 144.594 191.085 144.648ZM191.166 144.001L201.62 144.378C201.62 144.298 201.566 144.217 201.566 144.163L191.166 143.786C191.139 143.867 191.166 143.947 191.166 144.001ZM201.243 143.517L191.085 143.113C191.085 143.194 191.085 143.247 191.112 143.328L201.351 143.705C201.351 143.678 201.296 143.597 201.243 143.517ZM200.865 142.87L190.977 142.494C190.977 142.574 191.031 142.655 191.031 142.709L201.027 143.086C200.946 143.032 200.919 142.951 200.865 142.87ZM200.3 142.197L190.869 141.82C190.869 141.901 190.869 141.955 190.896 142.035L200.542 142.386C200.434 142.359 200.38 142.278 200.3 142.197ZM199.545 141.551C199.491 141.551 199.491 141.524 199.464 141.524L191.112 141.201C191.085 141.255 191.031 141.335 191.004 141.416L199.814 141.739C199.707 141.712 199.626 141.632 199.545 141.551ZM197.686 140.824L192.297 140.609C192.082 140.662 191.893 140.716 191.678 140.77L198.494 141.039C198.225 140.985 197.929 140.878 197.686 140.824Z" fill="#B3C9EE"/>
<path d="M178.24 44.96H83.5195V102.24H178.24V44.96Z" fill="#EEEEEE"/>
<path d="M176.976 54.9377H84.3281V49.0896C84.3281 47.0434 85.984 45.3846 88.0265 45.3846H176.976V54.9377Z" fill="url(#paint5_linear_3799_4068)"/>
<path d="M95.2542 55.9773H85.168V50.1009C85.168 48.0704 86.8111 46.4243 88.8381 46.4243H95.2542V55.9773Z" fill="#78A9EF"/>
<path d="M92.8113 48.5972H87.6133V53.8044H92.8113V48.5972Z" fill="#89B3F4"/>
<path d="M102.241 60.0032H85.0586V64.0533H102.241V60.0032Z" fill="url(#paint6_linear_3799_4068)"/>
<path d="M117.788 60.0032H100.605V64.0533H117.788V60.0032Z" fill="#F2F2F2"/>
<path d="M133.331 60.0032H116.148V64.0533H133.331V60.0032Z" fill="url(#paint7_linear_3799_4068)"/>
<path d="M148.882 60.0032H131.699V64.0533H148.882V60.0032Z" fill="#F2F2F2"/>
<path d="M164.425 60.0032H147.242V64.0533H164.425V60.0032Z" fill="url(#paint8_linear_3799_4068)"/>
<path d="M176.796 60.0032H159.613V64.0533H176.796V60.0032Z" fill="#F2F2F2"/>
<path d="M168.997 58.0745H101.807C100.854 58.0745 100.074 57.2934 100.074 56.3387V55.5672C100.074 54.6125 100.854 53.8314 101.807 53.8314H168.997C169.95 53.8314 170.729 54.6125 170.729 55.5672V56.3387C170.729 57.2934 169.95 58.0745 168.997 58.0745Z" fill="#F7F7F7"/>
<path d="M105.019 57.3237C105.258 57.3237 105.452 57.1294 105.452 56.8898C105.452 56.6501 105.258 56.4558 105.019 56.4558C104.78 56.4558 104.586 56.6501 104.586 56.8898C104.586 57.1294 104.78 57.3237 105.019 57.3237Z" fill="#23286B"/>
<path d="M107.332 57.3237C107.571 57.3237 107.765 57.1294 107.765 56.8898C107.765 56.6501 107.571 56.4558 107.332 56.4558C107.092 56.4558 106.898 56.6501 106.898 56.8898C106.898 57.1294 107.092 57.3237 107.332 57.3237Z" fill="#23286B"/>
<path d="M109.644 57.3238C109.883 57.3238 110.077 57.1295 110.077 56.8899C110.077 56.6502 109.883 56.4559 109.644 56.4559C109.405 56.4559 109.211 56.6502 109.211 56.8899C109.211 57.1295 109.405 57.3238 109.644 57.3238Z" fill="#23286B"/>
<path d="M195.195 126.77C194.539 126.536 192.801 127.929 192.09 128.213C191.052 128.628 189.735 129.021 189.066 129.942C188.2 131.135 188.767 132.253 189.238 133.494C189.671 134.634 189.626 135.076 190.024 136.221C190.265 136.914 190.764 137.603 191.52 137.608C192.055 137.612 195.371 137.788 195.838 137.632C196.66 137.358 197.538 135.508 198.059 134.763C199.089 133.293 197.256 133.262 196.28 133.827C195.65 134.192 195.09 134.984 194.445 135.205C193.814 135.422 193.466 135.232 192.798 135.198C192.632 134.532 192.458 133.616 192.534 132.924C192.616 132.181 193.501 131.708 194.182 131.528C195.632 131.144 197.184 131.007 198.66 130.806C198.384 130.07 197.17 129.29 196.653 128.675C196.087 128.002 195.619 127.231 195.017 126.574C195.104 126.742 195.121 126.596 195.195 126.77Z" fill="#F2A19C"/>
<path d="M191.111 131.89C191.509 133.014 192.805 133.07 193.716 133.52C194.671 133.991 196.228 134.23 196.445 135.172C196.856 136.951 194.837 136.184 194.123 135.914C193.143 135.542 192.255 134.943 191.23 134.813C190.351 134.701 189.713 134.153 189.708 133.249C189.704 132.583 190.339 131.986 191.111 131.89Z" fill="url(#paint9_linear_3799_4068)"/>
<path d="M203.966 198.879C204.532 201.176 205.782 205.805 204.965 206.018C203.063 206.087 186.832 206.087 183.29 206.072C182.956 205.536 183.033 205.07 183.219 204.545C183.726 203.121 185.449 201.949 186.885 201.437C188.32 200.925 189.232 200.839 190.635 200.265C192.238 199.609 193.212 198.915 194.979 198.649C195.693 198.541 197.44 198.576 198.184 198.61C200.112 198.7 202.038 198.79 203.966 198.879Z" fill="url(#paint10_linear_3799_4068)"/>
<path d="M153.306 95.8998C153.499 95.8998 153.693 95.8337 153.852 95.6987C154.206 95.3965 154.249 94.864 153.947 94.509L143.269 81.9438C142.967 81.5886 142.435 81.5461 142.081 81.8479C141.726 82.15 141.683 82.6826 141.985 83.0376L152.663 95.6027C152.83 95.7991 153.067 95.8998 153.306 95.8998Z" fill="#23286B"/>
<path d="M156.487 95.2436C155.895 94.7777 154.627 94.4196 154.253 93.7481C153.867 93.0553 154.086 92.3244 153.771 91.6803C153.46 91.0456 149.989 88.3766 149.621 88.7479C149.167 89.2073 149.834 90.539 150.12 90.93C150.685 91.7028 151.582 92.136 151.897 92.9928C152.232 93.9051 151.902 94.3636 152.642 95.142C153.431 95.9716 154.676 96.8788 155.644 97.4915C155.781 97.5784 155.97 97.8423 156.092 97.9531C156.266 97.3576 156.93 95.5918 156.487 95.2436Z" fill="#FFBEB6"/>
<path d="M150.176 91.8855C149.62 91.5392 147.668 89.9394 146.982 90.0868C145.773 90.3465 146.733 92.1111 146.882 92.685C147.301 94.2961 146.68 95.7099 147.306 97.2791C148.073 99.2026 149.258 98.7022 151.075 99.0806C152.032 99.28 153.526 99.8497 154.369 100.38C155.335 100.987 156.07 101.766 157.151 102.243C156.881 100.506 157.697 98.9309 158.324 97.3044C157.605 96.8292 156.662 96.6045 155.866 96.2076C155.351 95.9504 154.795 95.4823 154.286 95.3763C154.28 95.4784 151.882 92.9472 150.176 91.8855Z" fill="#FFBEB6"/>
<path d="M200.809 97.7021C200.363 99.918 197.828 101.729 197.178 103.896C195.765 104.025 191.698 103.673 191.185 102.305C190.884 101.501 191.334 100.152 191.512 99.4046C191.893 97.8076 193.062 96.2258 193.343 94.713C194.224 95.2874 195.649 95.3481 196.67 95.6497C197.273 95.8281 197.436 96.0075 197.964 96.3111C198.704 96.7367 200.049 97.4597 200.809 97.7021Z" fill="#F2A19C"/>
<path d="M209.819 90.3983C208.655 88.3686 203.937 81.0583 200.266 83.6283C197.244 85.744 191.461 88.2972 191.974 88.9762C193.292 90.598 193.164 90.596 192.234 92.3291C191.488 93.7188 190.768 94.8204 191.598 96.2556C192.774 98.2875 196.442 99.5385 198.618 99.9934C204.241 101.169 209.625 97.1899 209.863 91.3671C209.722 91.1558 210.1 90.3085 209.819 90.3983Z" fill="url(#paint11_linear_3799_4068)"/>
<path d="M192.7 91.3162C193.761 91.867 195.419 92.4242 195.294 94.1458C195.188 95.6168 193.511 96.6019 192.366 96.4413C187.695 95.7861 190.14 93.3776 192.7 91.3162Z" fill="#23286B"/>
<path d="M207.265 84.1032C205.334 80.1399 196.822 80.9306 195.102 85.033C198.033 88.2826 200.599 90.3165 204.322 93.9189C205.001 92.5312 207.679 84.3263 207.265 84.1032Z" fill="#23286B"/>
<path d="M214.345 100.96C214.422 100.96 214.485 100.898 214.486 100.821C214.489 100.523 214.502 100.194 214.516 99.8387C214.622 97.0909 214.781 92.9385 211.603 88.208C210.852 87.0907 209.18 85.7876 208.065 85.7165C207.989 85.7128 207.921 85.7702 207.916 85.8478C207.911 85.9252 207.97 85.9922 208.047 85.9972C208.977 86.0566 210.592 87.2074 211.37 88.365C214.497 93.0192 214.339 97.1165 214.235 99.8277C214.221 100.186 214.208 100.517 214.205 100.818C214.204 100.895 214.266 100.959 214.344 100.96C214.344 100.96 214.345 100.96 214.345 100.96Z" fill="#23286B"/>
<path d="M214.105 91.1284C214.111 91.1284 214.116 91.1281 214.122 91.1275C214.199 91.1182 214.254 91.0482 214.245 90.9708C214.077 89.5713 212.487 87.857 211.67 87.1461C210.514 86.1393 209.169 86.0004 207.889 86.0004C207.811 86.0004 207.748 86.0634 207.748 86.141C207.748 86.2187 207.811 86.2817 207.889 86.2817C209.115 86.2817 210.399 86.4122 211.486 87.3585C212.274 88.0449 213.808 89.6903 213.966 91.0046C213.974 91.0758 214.035 91.1284 214.105 91.1284Z" fill="#23286B"/>
<path d="M186.352 198.879C186.919 201.176 188.169 205.805 187.352 206.018C185.449 206.087 169.219 206.087 165.677 206.072C165.343 205.536 165.42 205.07 165.606 204.545C166.112 203.121 167.836 201.949 169.272 201.437C170.707 200.925 171.619 200.839 173.022 200.265C174.624 199.609 175.599 198.915 177.366 198.649C178.08 198.541 179.827 198.576 180.571 198.61C182.498 198.7 184.425 198.79 186.352 198.879Z" fill="url(#paint12_linear_3799_4068)"/>
<path d="M167.88 140.871H179.277V170.376H167.88V140.871Z" fill="#428DFC"/>
<path d="M184.861 145.873C185.516 145.632 191.78 167.534 193.169 170.472C194.853 174.037 197.968 175.922 198.627 180.048C199.24 183.884 200.978 186.276 202.596 189.741C203.983 192.712 203.264 195.927 204.148 199.001C200.907 200.117 195.741 199.336 192.162 199.154C192.318 196.146 189.977 192.196 188.644 189.545C186.861 185.998 184.492 182.8 182.317 179.474C181.129 177.657 179.258 175.881 178.371 174.004C177.379 171.903 177.39 168.815 177.207 166.524C176.964 163.474 177.335 160.424 177.153 157.337C176.994 154.627 176.41 151.859 176.029 149.168C175.695 146.816 174.01 142.4 176.324 141.186C178.599 139.992 183.047 140.458 185.574 140.591C185.128 142.333 184.818 143.931 184.831 145.735C184.584 145.787 184.856 146.227 184.861 145.873Z" fill="#151A4F"/>
<path d="M172.286 130.726C170.232 133.313 170.788 139.225 171.26 142.375C172.029 147.509 172.599 152.86 173.082 158.07C173.669 164.403 173.858 170.957 173.858 177.344C173.858 183.088 174.485 188.816 174.457 194.468C174.449 196.002 174.432 198.658 174.08 200.11C176.258 200.081 184.643 200.024 186.799 200.138C187.693 196.443 188.097 193.383 186.971 189.741C185.866 186.174 185.546 183.813 186.441 180.102C187.474 175.814 185.962 173.705 184.47 169.883C183.798 168.161 184.304 167.076 184.474 165.353C184.692 163.148 184.351 160.874 184.47 158.66C184.649 155.306 185.34 147.848 186.652 146.16C187.896 144.559 189.586 142.724 189.743 139.221C189.791 138.15 189.758 133.712 189.087 132.751C188.161 131.423 184.221 133.994 182.843 133.883C179.752 133.634 175.382 129.864 172.444 130.874C172.216 130.982 172.208 130.546 172.286 130.726Z" fill="url(#paint13_linear_3799_4068)"/>
<path d="M197.329 105.183C198.58 104.676 203.877 116.028 205.029 117.525C206.508 119.446 210.32 123.76 210.887 126.03C211.189 127.241 208.891 128.452 206.841 129.323C205.186 130.027 203.003 130.338 201.366 131.121C200.303 131.63 196.254 132.862 196.254 132.862C196.254 132.862 193.821 128.082 193.488 127.219C194.705 126.424 196.005 126.146 197.595 125.159C199.318 124.088 199.347 123.782 201.279 124.183C200.577 123.244 199.694 123.559 198.97 122.999C198.236 122.431 197.62 121.204 197.01 120.472C195.721 118.921 194.062 117.863 192.692 116.34C188.683 111.883 192.79 107.864 195.174 105.933C194.998 105.591 196.298 105.464 197.329 105.183Z" fill="#89B3F4"/>
<path d="M201.347 100.057C198.763 99.6432 194.58 98.8291 190.151 97.8085C189.915 97.7539 189.688 97.9314 189.683 98.1742C189.662 99.1574 189.647 99.704 189.579 100.538C189.538 101.031 188.831 101.297 188.196 101.556C186.192 102.371 184.363 103.111 182.742 104.874C179.78 108.095 177.64 109.887 176.064 114.005C174.758 117.414 174.111 120.979 173.077 124.431C172.502 126.35 172.035 128.251 171.549 130.18C171.257 131.339 170.102 134.19 170.468 135.265C170.482 135.305 170.349 136.348 170.345 136.365C176.91 136.596 183.842 136.784 189.769 136.805C189.772 135.166 189.789 131.553 189.743 130.689C189.665 129.239 190.494 128.602 190.189 127.446C190.849 127.279 192.038 127.45 192.119 126.777C192.163 126.403 192.182 126.131 191.831 125.869C194.4 123.352 195.84 118.331 197.581 115.179C198.502 113.514 199.089 111.821 199.207 109.884C199.321 108.016 198.995 105.623 198.36 104.152C199.11 103.214 201.585 99.7855 201.347 100.057Z" fill="url(#paint14_linear_3799_4068)"/>
<path d="M155.496 95.3965C154.815 96.9097 154.351 98.6293 153.838 100.235C153.492 100.3 153.413 100.058 153.601 99.5079" stroke="black" stroke-width="1.75725" stroke-miterlimit="10"/>
<path d="M176.664 107.73C175.802 106.042 174.808 103.794 173.122 102.861C171.201 104.157 166.609 103.731 165.607 105.2" stroke="black" stroke-width="1.75725" stroke-miterlimit="10"/>
<path d="M182.833 105.088L182.99 105C183.815 104.535 184.604 103.911 185.367 103.309C186.941 102.064 188.569 100.778 190.581 100.848C192.23 100.906 197.531 103.648 198.412 104.588C198.519 104.701 198.697 104.707 198.81 104.6C198.923 104.494 198.928 104.316 198.822 104.203C197.874 103.192 192.388 100.349 190.601 100.285C188.381 100.208 186.672 101.559 185.018 102.867C184.429 103.333 183.865 103.779 183.285 104.16C183.205 104.084 183.084 104.061 182.978 104.109C182.765 104.204 182.519 104.346 182.493 104.596C182.484 104.682 182.498 104.846 182.688 104.983L182.833 105.088Z" fill="#D6D7D8"/>
<path d="M206.831 83.4612C208 84.1852 208.89 86.1353 208.89 86.1353C208.89 86.1353 210.223 87.0642 210.56 87.3052C212.355 88.5903 212.852 91.6647 213.382 93.781C213.783 95.3799 213.944 98.1787 213.409 99.8401C212.795 101.747 212.448 101.648 210.604 101.765C208.395 101.904 202.959 101.755 200.299 101.669C199.457 101.641 198.794 100.946 198.804 100.103C198.829 98.0591 198.86 94.4361 198.803 92.3989C198.727 89.7068 198.183 86.5842 200.778 85.0874C201.782 84.5085 202.788 83.8125 203.937 83.684C204.699 83.599 206.923 83.4091 206.831 83.4612Z" fill="#23286B"/>
<path d="M207.862 120.943C206.11 120.605 207.759 124.487 207.634 125.25C207.482 126.178 205.123 129.723 206.713 129.239C208.668 128.643 210.349 127.89 210.887 126.998C211.813 125.464 210.516 124.597 209.716 123.353C209.199 122.55 208.476 121.852 207.862 120.943Z" fill="url(#paint15_linear_3799_4068)"/>
<path d="M183.089 128.063H190.77C190.925 128.063 191.051 127.937 191.051 127.781C191.051 127.626 190.925 127.5 190.77 127.5H183.089C182.934 127.5 182.808 127.626 182.808 127.781C182.808 127.937 182.933 128.063 183.089 128.063Z" fill="#D6D7D8"/>
<path d="M140.256 82.1216C139.399 81.0068 138.504 77.1709 140.021 79.088C140.591 79.8084 142.033 78.9763 142.891 80.0911C143.748 81.206 143.853 82.5641 143.126 83.1248C142.398 83.6854 141.113 83.2364 140.256 82.1216Z" fill="url(#paint16_linear_3799_4068)"/>
<path opacity="0.51" d="M180.425 138.724C180.401 138.734 180.374 138.722 180.365 138.697C180.355 138.673 180.367 138.646 180.391 138.636C180.415 138.627 180.443 138.639 180.452 138.663C180.461 138.688 180.449 138.715 180.425 138.724ZM180.018 137.648C179.993 137.656 179.965 137.644 179.954 137.62C179.946 137.595 179.959 137.568 179.984 137.56C180.006 137.55 180.032 137.559 180.043 137.581C180.044 137.583 180.044 137.585 180.045 137.587C180.054 137.611 180.042 137.638 180.018 137.648ZM175.615 138.554C175.605 138.578 175.576 138.59 175.552 138.579C175.529 138.57 175.518 138.544 175.527 138.522C175.528 138.52 175.529 138.518 175.53 138.516C175.54 138.493 175.566 138.481 175.59 138.49C175.615 138.501 175.626 138.529 175.615 138.554ZM182.138 136.915C182.12 136.932 182.091 136.932 182.073 136.913C182.055 136.895 182.056 136.866 182.074 136.848C182.093 136.83 182.122 136.831 182.139 136.849C182.157 136.866 182.158 136.894 182.141 136.912C182.14 136.913 182.139 136.914 182.138 136.915ZM178.057 138.483C178.054 138.509 178.032 138.529 178.006 138.53C177.979 138.529 177.958 138.506 177.959 138.479C177.96 138.452 177.983 138.431 178.01 138.432C178.036 138.435 178.056 138.457 178.057 138.483ZM178.091 137.332C178.089 137.358 178.066 137.377 178.041 137.376C178.016 137.377 177.994 137.357 177.993 137.332C177.993 137.331 177.993 137.329 177.993 137.328C177.995 137.301 178.017 137.281 178.044 137.281C178.07 137.284 178.09 137.305 178.091 137.332ZM186.674 139.215C186.641 139.252 186.585 139.255 186.548 139.221C186.547 139.221 186.547 139.22 186.546 139.219C186.51 139.186 186.508 139.13 186.54 139.094C186.54 139.094 186.541 139.094 186.541 139.094C186.574 139.058 186.63 139.055 186.667 139.088C186.668 139.088 186.668 139.089 186.669 139.09C186.705 139.123 186.707 139.179 186.674 139.215C186.674 139.215 186.674 139.215 186.674 139.215H186.674ZM185.078 137.73C185.044 137.767 184.987 137.769 184.95 137.735C184.913 137.701 184.911 137.644 184.945 137.606C184.945 137.606 184.945 137.606 184.946 137.605C184.979 137.57 185.034 137.567 185.07 137.6L185.07 137.6C185.107 137.635 185.11 137.692 185.078 137.73ZM179.96 144.47C179.961 144.52 179.922 144.561 179.873 144.563C179.825 144.567 179.783 144.531 179.78 144.483C179.78 144.481 179.779 144.48 179.779 144.478C179.779 144.429 179.818 144.387 179.867 144.385C179.916 144.383 179.958 144.421 179.96 144.47ZM179.796 140.105C179.798 140.154 179.761 140.195 179.711 140.197C179.711 140.197 179.71 140.197 179.708 140.197C179.66 140.201 179.619 140.165 179.615 140.117C179.615 140.115 179.615 140.114 179.615 140.112C179.615 140.062 179.653 140.02 179.703 140.016C179.753 140.016 179.795 140.055 179.796 140.105ZM179.715 137.923C179.717 137.973 179.677 138.015 179.628 138.016C179.578 138.018 179.536 137.978 179.535 137.928C179.532 137.879 179.57 137.837 179.62 137.835C179.669 137.832 179.712 137.87 179.715 137.92C179.715 137.921 179.715 137.922 179.715 137.923ZM184.168 142.471C184.122 142.491 184.07 142.469 184.051 142.424C184.031 142.378 184.053 142.325 184.098 142.306C184.143 142.287 184.194 142.308 184.214 142.352C184.234 142.398 184.213 142.451 184.168 142.471ZM183.259 140.485C183.213 140.505 183.161 140.483 183.142 140.438C183.123 140.392 183.144 140.339 183.19 140.32C183.235 140.301 183.286 140.322 183.306 140.366C183.325 140.412 183.304 140.465 183.259 140.485ZM182.35 138.502C182.303 138.522 182.249 138.5 182.23 138.453C182.211 138.409 182.23 138.356 182.274 138.335C182.319 138.313 182.374 138.331 182.396 138.377C182.418 138.423 182.4 138.477 182.354 138.5C182.352 138.501 182.351 138.502 182.35 138.502ZM175.888 142.804C175.869 142.851 175.817 142.874 175.771 142.856C175.725 142.84 175.702 142.789 175.718 142.743C175.718 142.743 175.718 142.743 175.718 142.742C175.732 142.696 175.78 142.671 175.826 142.684C175.828 142.685 175.83 142.686 175.833 142.687C175.878 142.705 175.902 142.757 175.888 142.804ZM177.4 138.708C177.385 138.753 177.336 138.777 177.291 138.762C177.289 138.761 177.288 138.761 177.287 138.76C177.24 138.744 177.215 138.693 177.23 138.646C177.23 138.645 177.231 138.644 177.231 138.642C177.249 138.595 177.301 138.572 177.348 138.59C177.395 138.608 177.418 138.66 177.4 138.706C177.4 138.707 177.4 138.707 177.4 138.708ZM186.085 141.527C186.047 141.549 185.998 141.536 185.975 141.498C185.953 141.46 185.966 141.411 186.004 141.388C186.042 141.366 186.091 141.379 186.113 141.417C186.135 141.455 186.123 141.504 186.085 141.527ZM185.109 139.841C185.071 139.863 185.022 139.85 184.999 139.812C184.976 139.775 184.987 139.725 185.024 139.701C185.062 139.677 185.111 139.689 185.135 139.726C185.136 139.728 185.136 139.729 185.137 139.731C185.16 139.768 185.148 139.816 185.112 139.839C185.111 139.84 185.11 139.84 185.109 139.841ZM184.167 138.107C184.163 138.127 184.15 138.144 184.132 138.154C184.094 138.176 184.045 138.163 184.023 138.125C184 138.086 184.012 138.036 184.051 138.012L184.052 138.012C184.075 137.999 184.103 137.997 184.128 138.009L184.131 138.009C184.145 138.015 184.156 138.026 184.162 138.041C184.175 138.061 184.177 138.086 184.167 138.107ZM178.011 142.564C177.998 142.607 177.954 142.632 177.91 142.622C177.868 142.611 177.844 142.568 177.854 142.527C177.854 142.526 177.855 142.525 177.855 142.523C177.865 142.48 177.909 142.454 177.952 142.465C177.952 142.465 177.953 142.465 177.953 142.465C177.995 142.478 178.021 142.521 178.011 142.564ZM179.007 138.794C178.997 138.838 178.954 138.864 178.91 138.854C178.91 138.854 178.909 138.853 178.909 138.853C178.868 138.844 178.842 138.803 178.852 138.762C178.852 138.76 178.853 138.757 178.854 138.755C178.864 138.712 178.907 138.686 178.951 138.696C178.951 138.696 178.952 138.696 178.952 138.697C178.993 138.71 179.018 138.753 179.007 138.794ZM179.506 136.914C179.493 136.957 179.448 136.981 179.405 136.968C179.364 136.956 179.339 136.913 179.35 136.87C179.363 136.828 179.405 136.803 179.448 136.812C179.491 136.825 179.517 136.869 179.506 136.914ZM182.207 141.812C182.212 141.856 182.18 141.896 182.137 141.902C182.093 141.907 182.053 141.877 182.047 141.833C182.042 141.789 182.072 141.748 182.115 141.74C182.16 141.735 182.202 141.767 182.207 141.812ZM181.947 139.879C181.955 139.921 181.926 139.961 181.884 139.968C181.883 139.968 181.881 139.968 181.88 139.969C181.836 139.975 181.796 139.944 181.79 139.901C181.785 139.857 181.815 139.816 181.858 139.808C181.902 139.803 181.942 139.835 181.947 139.879ZM181.69 137.946C181.695 137.99 181.665 138.029 181.621 138.035C181.578 138.041 181.539 138.011 181.532 137.968C181.526 137.925 181.556 137.884 181.6 137.877C181.643 137.871 181.683 137.9 181.69 137.944C181.69 137.945 181.69 137.945 181.69 137.946ZM176.164 138.465C176.136 138.5 176.086 138.508 176.05 138.481C176.015 138.453 176.009 138.401 176.037 138.366C176.064 138.333 176.113 138.326 176.147 138.351C176.183 138.376 176.192 138.425 176.167 138.461C176.165 138.462 176.165 138.464 176.164 138.465ZM181.557 138.208C181.555 138.234 181.532 138.254 181.507 138.252C181.481 138.251 181.461 138.228 181.463 138.202C181.464 138.176 181.487 138.156 181.513 138.158C181.539 138.16 181.558 138.182 181.557 138.208ZM181.636 137.061C181.632 137.087 181.609 137.106 181.582 137.104C181.556 137.103 181.537 137.08 181.538 137.054C181.539 137.03 181.56 137.01 181.585 137.01C181.586 137.01 181.587 137.01 181.589 137.011C181.615 137.012 181.636 137.033 181.636 137.06C181.636 137.06 181.636 137.06 181.636 137.061ZM183.813 137.328C183.788 137.335 183.763 137.322 183.753 137.298C183.744 137.275 183.756 137.248 183.781 137.239C183.781 137.238 183.782 137.238 183.783 137.238C183.806 137.229 183.833 137.24 183.842 137.264C183.842 137.265 183.843 137.266 183.843 137.268C183.851 137.293 183.838 137.32 183.813 137.328ZM179.458 137.043C179.446 137.066 179.419 137.076 179.395 137.065C179.372 137.053 179.362 137.025 179.374 137.002C179.383 136.979 179.408 136.968 179.43 136.977C179.432 136.977 179.434 136.979 179.436 136.98C179.459 136.99 179.469 137.018 179.459 137.041C179.458 137.042 179.458 137.042 179.458 137.043ZM186.897 137.861C186.872 137.875 186.84 137.867 186.826 137.843C186.825 137.843 186.825 137.842 186.825 137.841C186.809 137.817 186.816 137.784 186.841 137.768C186.842 137.768 186.843 137.767 186.844 137.766C186.869 137.751 186.901 137.759 186.915 137.784C186.916 137.784 186.916 137.785 186.916 137.785C186.931 137.811 186.922 137.844 186.897 137.861ZM181.467 138.619C181.461 138.646 181.435 138.664 181.408 138.659C181.406 138.658 181.403 138.657 181.401 138.657C181.373 138.649 181.356 138.62 181.364 138.591C181.372 138.563 181.4 138.546 181.43 138.55C181.459 138.559 181.475 138.589 181.467 138.619C181.467 138.619 181.467 138.619 181.467 138.619ZM181.792 137.347C181.784 137.377 181.754 137.394 181.724 137.385C181.696 137.377 181.679 137.348 181.686 137.32C181.695 137.291 181.723 137.274 181.752 137.278C181.781 137.287 181.799 137.317 181.792 137.347ZM184.167 138.107C184.16 138.111 184.153 138.115 184.146 138.117C184.117 138.121 184.089 138.101 184.085 138.072C184.085 138.071 184.085 138.071 184.085 138.07C184.081 138.041 184.1 138.015 184.128 138.009L184.131 138.009C184.16 138.005 184.187 138.025 184.191 138.054C184.191 138.055 184.192 138.055 184.192 138.056C184.195 138.077 184.185 138.097 184.167 138.107ZM179.316 136.897C179.298 136.921 179.264 136.926 179.24 136.908C179.24 136.907 179.239 136.907 179.239 136.907C179.216 136.889 179.212 136.856 179.229 136.833C179.245 136.809 179.276 136.802 179.301 136.817C179.302 136.818 179.302 136.819 179.304 136.819C179.328 136.838 179.334 136.872 179.316 136.897ZM186.057 143.598C186.062 143.649 186.025 143.694 185.974 143.702C185.923 143.708 185.877 143.672 185.87 143.622C185.865 143.57 185.902 143.524 185.953 143.518C186.004 143.511 186.051 143.547 186.057 143.598ZM185.78 141.363C185.786 141.414 185.751 141.46 185.7 141.467C185.65 141.474 185.603 141.438 185.596 141.387C185.59 141.336 185.625 141.29 185.676 141.283C185.727 141.276 185.773 141.312 185.78 141.363ZM185.506 139.129C185.51 139.18 185.474 139.226 185.423 139.233C185.372 139.237 185.327 139.2 185.322 139.149C185.317 139.098 185.355 139.053 185.406 139.048C185.455 139.043 185.5 139.079 185.506 139.129ZM178.308 139.366C178.276 139.405 178.218 139.413 178.177 139.382C178.137 139.351 178.129 139.293 178.161 139.252C178.192 139.211 178.25 139.203 178.291 139.235C178.331 139.267 178.338 139.325 178.308 139.366ZM179.688 137.591C179.656 137.631 179.598 137.639 179.557 137.607C179.517 137.574 179.51 137.515 179.541 137.473C179.575 137.433 179.634 137.429 179.673 137.462C179.711 137.494 179.717 137.551 179.688 137.591ZM182.28 140.13C182.266 140.18 182.214 140.209 182.164 140.195C182.116 140.181 182.088 140.131 182.102 140.083C182.114 140.033 182.165 140.004 182.214 140.016C182.263 140.029 182.293 140.079 182.28 140.128L182.28 140.13ZM182.877 137.96C182.865 138.009 182.816 138.039 182.767 138.027C182.766 138.027 182.766 138.026 182.765 138.026C182.715 138.014 182.684 137.963 182.696 137.912C182.708 137.862 182.759 137.831 182.81 137.843C182.86 137.856 182.891 137.907 182.878 137.957C182.878 137.959 182.878 137.96 182.877 137.96ZM183.524 140.885C183.512 140.935 183.461 140.966 183.411 140.954C183.362 140.942 183.332 140.893 183.341 140.844C183.355 140.793 183.404 140.762 183.455 140.771C183.505 140.785 183.535 140.835 183.524 140.885ZM184.029 138.7C184.017 138.751 183.966 138.781 183.916 138.769C183.867 138.758 183.835 138.708 183.847 138.659C183.858 138.609 183.907 138.578 183.957 138.589C184.006 138.601 184.039 138.65 184.029 138.7ZM187.343 139.76C187.35 139.81 187.316 139.857 187.267 139.865C187.267 139.865 187.267 139.865 187.266 139.865C187.216 139.874 187.168 139.841 187.158 139.791C187.15 139.74 187.185 139.692 187.235 139.683C187.286 139.676 187.333 139.71 187.343 139.76ZM186.974 137.546C186.983 137.596 186.95 137.644 186.9 137.653C186.85 137.663 186.801 137.629 186.792 137.579C186.792 137.579 186.792 137.578 186.792 137.577C186.785 137.526 186.819 137.478 186.869 137.468C186.919 137.46 186.966 137.495 186.974 137.545C186.973 137.545 186.973 137.545 186.974 137.546ZM179.34 140.173C179.309 140.215 179.25 140.224 179.209 140.193C179.168 140.164 179.158 140.106 179.188 140.065C179.215 140.023 179.272 140.012 179.313 140.039C179.314 140.04 179.316 140.04 179.317 140.042C179.359 140.07 179.371 140.128 179.341 140.171C179.341 140.172 179.341 140.173 179.34 140.173ZM180.64 138.348C180.609 138.389 180.551 138.399 180.509 138.368C180.468 138.338 180.459 138.281 180.488 138.24C180.516 138.198 180.572 138.187 180.614 138.214C180.615 138.215 180.616 138.215 180.617 138.216C180.66 138.245 180.671 138.303 180.642 138.346C180.641 138.347 180.641 138.347 180.64 138.348ZM183.097 139.198C183.08 139.233 183.039 139.248 183.004 139.231C182.97 139.215 182.955 139.175 182.97 139.14C182.984 139.106 183.023 139.09 183.057 139.104C183.059 139.105 183.061 139.106 183.063 139.107C183.097 139.124 183.112 139.164 183.097 139.198ZM183.81 137.669C183.794 137.704 183.751 137.719 183.716 137.702C183.682 137.686 183.667 137.643 183.684 137.608C183.7 137.573 183.741 137.558 183.775 137.574C183.776 137.574 183.777 137.574 183.777 137.575C183.812 137.592 183.826 137.634 183.81 137.669ZM186.676 139.147C186.674 139.185 186.641 139.214 186.603 139.212C186.565 139.208 186.537 139.177 186.537 139.139C186.539 139.101 186.571 139.071 186.61 139.073C186.647 139.074 186.677 139.104 186.676 139.141C186.676 139.144 186.676 139.145 186.676 139.147ZM186.753 137.455C186.751 137.495 186.718 137.525 186.679 137.524C186.641 137.523 186.611 137.49 186.613 137.451C186.613 137.451 186.613 137.451 186.613 137.451C186.614 137.414 186.644 137.384 186.681 137.384C186.681 137.384 186.683 137.385 186.684 137.385C186.722 137.385 186.753 137.416 186.753 137.454C186.754 137.454 186.753 137.455 186.753 137.455Z" fill="white"/>
<path d="M179.947 109.874C177.688 111.996 177.668 116.917 178.326 119.71C179.152 123.221 181.509 126.359 184.984 127.673C180.804 128.874 178.286 129.788 175.973 133.873C174.203 136.999 172.662 140.333 171.349 143.714C168.818 150.234 169.264 158.588 169.532 165.556C169.601 167.363 169.768 168.773 169.703 170.398C169.012 170.292 167.259 170.454 166.483 170.463C164.665 170.483 165.404 169.91 165.331 168.041C165.27 166.501 165.358 165.591 165.405 163.971C165.52 159.979 165.393 155.818 165.798 151.818C166.6 143.911 167.982 135.523 170.122 127.971C171.175 124.254 173.069 120.372 174.691 116.753C176.276 113.214 177.607 109.048 181.494 106.205C181.028 107.472 180.9 108.978 179.947 109.874Z" fill="url(#paint17_linear_3799_4068)"/>
<path d="M190.561 100.625C194.684 102.02 194.265 105.692 191.502 108.683C188.876 111.526 185.115 110.993 181.716 110.262C178.442 109.558 175.162 108.923 171.89 108.256C167.873 107.437 164.659 105.859 160.881 104.021C158.269 102.75 155.464 101.405 152.701 100.839C153.921 98.8502 154.66 96.485 155.369 94.4016C158.101 95.5707 161.527 96.638 164.423 97.0968C165.879 97.3278 176.281 98.8257 176.607 98.8572C178.141 99.0055 179.565 99.156 181.126 99.2508C184.241 99.4398 187.209 99.6719 190.195 100.519C190.271 100.567 190.416 100.625 190.561 100.625Z" fill="url(#paint18_linear_3799_4068)"/>
<path d="M175.23 126.201C173.82 126.201 172.676 125.056 172.676 123.644C172.676 122.231 173.82 121.086 175.23 121.086C176.641 121.086 177.785 122.231 177.785 123.644C177.785 125.056 176.641 126.201 175.23 126.201Z" fill="#F7931E"/>
<path d="M172.775 129.152C171.852 129.152 171.105 128.403 171.105 127.48C171.105 126.556 171.852 125.808 172.775 125.808C173.697 125.808 174.445 126.556 174.445 127.48C174.445 128.403 173.697 129.152 172.775 129.152Z" fill="#22B573"/>
<path d="M174.567 108.465C176.922 108.06 174.284 105.311 173.35 104.808C172.057 104.113 170.014 103.799 168.568 103.767C167.773 103.749 163.689 103.715 163.922 105.183C164.063 106.068 167.736 106.981 168.479 107.223C170.275 107.809 172.605 108.562 174.459 108.625C174.341 108.576 174.689 108.398 174.567 108.465Z" fill="url(#paint19_linear_3799_4068)"/>
<path d="M174.64 116.869C175.471 116.965 176.117 117.671 176.117 118.529C176.117 119.453 175.369 120.201 174.447 120.201C174.015 120.201 173.623 120.036 173.327 119.767C173.769 118.788 174.214 117.82 174.64 116.869Z" fill="#22B573"/>
<path d="M170.409 127.024C170.919 125.417 171.565 123.787 172.262 122.166C173.031 122.628 173.547 123.468 173.547 124.431C173.547 125.89 172.365 127.072 170.908 127.072C170.737 127.072 170.57 127.055 170.409 127.024Z" fill="#ED1E79"/>
<path d="M169.8 129.154C170.938 129.446 171.781 130.478 171.781 131.709C171.781 133.168 170.6 134.351 169.142 134.351C168.938 134.351 168.739 134.325 168.548 134.281C168.931 132.544 169.347 130.83 169.8 129.154Z" fill="#ED1E79"/>
<path d="M52.3518 210.934C53.3025 211.159 54.2532 211.383 55.204 211.607C59.5166 212.625 64.028 213.643 68.3304 212.583C68.8572 212.454 69.4383 212.24 69.6524 211.743C69.9442 211.065 69.3231 210.289 68.6117 210.085C67.9003 209.882 67.1445 210.055 66.4075 210.122C63.8818 210.351 61.3397 209.262 59.5086 207.512C57.6776 205.761 56.5105 203.404 55.8664 200.958C54.4356 201.586 53.7796 203.21 53.2606 204.681C52.7172 206.22 52.1742 207.759 51.6308 209.299C51.4779 209.732 51.3422 210.266 51.6494 210.609C51.8241 210.805 52.0964 210.874 52.3518 210.934Z" fill="#151A4F"/>
<path d="M80.9265 142.398C83.3242 148.765 74.8647 170.927 72.7552 177.453C70.0122 185.939 64.6902 193.505 62.1203 202.14C61.5174 204.165 61.5417 206.469 61.2524 208.489C61.1078 209.499 58.7427 209.369 56.4022 208.445C52.9413 207.078 54.4006 203.17 54.5481 199.648C54.8934 191.396 58.2671 183.093 56.4278 175.114C55.1996 169.784 53.2028 164.367 52.6697 158.967C52.15 153.703 51.7413 143.251 55.3612 139.062C63.7843 129.315 77.2688 123.917 80.9265 142.398Z" fill="#1D72D8"/>
<path d="M86.5139 93.4844C87.2829 92.2995 88.5962 89.5651 87.6819 88.4588C86.5437 88.4259 84.928 88.3477 83.7782 88.5229C82.3834 88.6455 84.7002 92.1849 83.6371 93.4965C82.7005 94.652 81.647 95.7268 81.0938 97.145C83.2202 96.1759 84.471 94.3641 86.5139 93.4844Z" fill="#885944"/>
<path d="M81.1803 93.8511C80.9413 93.8511 80.7083 93.7278 80.5794 93.5073C80.3858 93.1763 80.4975 92.7517 80.829 92.5583L94.67 84.4935C95.0021 84.3007 95.4277 84.4121 95.621 84.7425C95.8146 85.0735 95.7029 85.498 95.3714 85.6915L81.5304 93.7563C81.42 93.8204 81.2994 93.8511 81.1803 93.8511Z" fill="#23286B"/>
<path d="M82.5797 101.28C82.3148 99.752 82.2946 98.0564 83.4661 97.0869C84.8236 95.9636 85.751 95.6709 86.8601 94.2399C87.3167 93.7439 86.8098 90.5681 86.2086 88.9874C85.9103 88.5382 85.477 88.3684 84.8652 88.8163C84.4719 89.1042 83.2828 90.1592 82.9951 90.5639C82.1033 91.8181 83.0146 92.1877 83.293 93.1613C84.0735 93.2641 84.6002 92.973 84.3935 91.6754C84.326 91.2505 84.5858 90.8231 85.1135 90.8244C85.1586 91.217 85.4284 91.9052 85.0783 92.3349C83.8217 93.876 80.5237 95.5866 79.597 96.6994C77.6523 99.0334 79.6844 100.911 79.894 103.575C80.7212 103.082 81.7727 102.939 82.5641 102.328C82.4354 101.943 82.6959 101.764 82.5797 101.28Z" fill="#99644C"/>
<path d="M50.6174 214.542C51.5681 214.766 52.5189 214.991 53.4696 215.215C57.7822 216.232 62.2936 217.251 66.596 216.191C67.1228 216.061 67.7039 215.848 67.918 215.351C68.2098 214.672 67.5887 213.896 66.8773 213.693C66.166 213.49 65.4101 213.663 64.6732 213.729C62.1474 213.958 59.6053 212.87 57.7742 211.119C55.9432 209.369 54.7761 207.012 54.132 204.565C52.7013 205.194 52.0453 206.818 51.5262 208.289C50.9828 209.828 50.4398 211.367 49.8964 212.906C49.7435 213.34 49.6078 213.874 49.915 214.216C50.0894 214.412 50.3617 214.482 50.6174 214.542Z" fill="#23286B"/>
<path d="M81.4056 131.452C79.74 130.895 78.9451 129.05 78.3448 127.403C77.2254 124.332 76.0897 121.164 76.2168 117.898C76.3621 114.158 78.1477 110.678 78.7442 106.984C79.1387 104.538 79.0018 102.009 78.3451 99.6208C79.819 99.7797 81.3234 99.654 82.7502 99.2531C83.3227 103.704 86.2555 107.454 87.8946 111.632C88.9502 114.323 89.469 117.223 89.4114 120.112C89.3435 123.521 88.4082 127.028 86.1451 129.583C84.9518 130.93 83.1141 132.024 81.4056 131.452Z" fill="#151A4F"/>
<path d="M56.328 209.706C54.8323 202.071 56.5494 193.163 61.9997 187.298C63.4483 185.739 66.2336 181.966 67.6183 180.35C69.7287 177.887 70.9918 174.505 71.8135 172.557C74.6097 165.933 78.034 159.57 81.435 142.772C81.5294 142.306 83.8533 133.389 83.3768 133.356C79.1169 133.062 74.6663 132.175 74.018 132.137C64.7936 131.596 63.1277 133.525 53.9798 134.824C52.7433 135 51.3276 135.294 50.7388 136.393C49.2153 142.053 48.1935 147.847 47.6892 153.686C47.294 158.262 47.2243 162.937 48.3964 167.379C49.2467 170.601 50.7315 173.628 51.5817 176.85C52.432 180.071 51.2147 182.067 49.9916 186.773C49.4131 188.999 45.4479 195.664 49.1177 209.784C50.4444 210.794 55.0963 210.496 56.328 209.706Z" fill="url(#paint20_linear_3799_4068)"/>
<path d="M57.4703 104.223C50.8072 112.997 46.3035 123.391 44.4616 134.244C44.0206 136.843 43.7332 139.535 44.372 142.093C58.6344 147.469 75.0464 146.897 88.898 140.542C91.4365 128.663 87.1972 115.578 78.1696 107.427C74.0019 103.664 68.3907 100.841 62.8783 101.941C59.3759 102.641 59.6271 101.383 57.4703 104.223Z" fill="url(#paint21_linear_3799_4068)"/>
<path d="M82.1156 128.437L95.9219 123.15L88.8409 104.75L75.0346 110.037L82.1156 128.437Z" fill="#A1C3FC"/>
<path d="M55.8853 87.6289C56.8472 87.1861 57.3801 86.1722 56.3256 84.923C55.271 83.6737 53.4052 85.2523 53.4052 85.2523C53.4052 85.2523 51.9165 84.923 50.8462 86.0702C49.7759 87.2174 50.2542 88.5798 50.2542 88.5798C50.2542 88.5798 48.6373 89.7667 49.8187 91.3834C51 93 52.5972 92.2018 53.7336 91.3419C54.8699 90.4819 55.5192 89.1435 56.1275 87.8568C56.5733 88.8728 55.4401 86.6128 55.8853 87.6289Z" fill="#23286B"/>
<path d="M64.6621 101.625C64.6547 101.813 64.6461 102.008 64.5645 102.179C64.368 102.588 63.8448 102.704 63.391 102.74C61.0476 102.928 58.6464 102.296 56.7011 100.979C57.0371 99.0143 56.9897 96.9847 56.5625 95.0372C57.4156 95.5358 58.4787 95.4321 59.4601 95.3127C61.2841 95.0909 63.1085 94.8687 64.9325 94.6469C64.8422 96.9729 64.752 99.2987 64.6621 101.625Z" fill="#885944"/>
<path d="M54.0903 92.2542C54.1396 91.7977 54.2417 91.3492 54.3435 90.9014C54.45 90.4328 54.5566 89.9642 54.6631 89.4953C54.7809 88.9781 54.9044 88.447 55.2055 88.01C55.5857 87.4587 56.2071 87.12 56.8398 86.8969C58.9816 86.141 61.5019 86.5665 63.275 87.9835C65.0481 89.4005 66.0145 91.761 65.7425 94.0111C65.6833 94.5004 65.5694 94.9847 65.3822 95.4408C65.0657 96.2124 64.5422 96.8923 63.9061 97.4327C62.0984 98.9681 59.3364 99.2707 57.2375 98.1634C55.1387 97.056 53.8353 94.609 54.0903 92.2542Z" fill="#99644C"/>
<path d="M58.7682 95.0558C57.1944 95.0558 55.9141 93.7787 55.9141 92.2088C55.9141 90.639 57.1944 89.3618 58.7682 89.3618C60.3422 89.3618 61.6226 90.639 61.6226 92.2088C61.6226 93.7787 60.3422 95.0558 58.7682 95.0558ZM58.7682 89.8403C57.459 89.8403 56.3941 90.9026 56.3941 92.2085C56.3941 93.5144 57.459 94.5767 58.7682 94.5767C60.0776 94.5767 61.1426 93.5144 61.1426 92.2085C61.1426 90.9026 60.0776 89.8403 58.7682 89.8403Z" fill="#23286B"/>
<path d="M64.2174 92.4482C62.6436 92.4482 61.3633 91.1711 61.3633 89.6012C61.3633 88.0313 62.6436 86.7542 64.2174 86.7542C65.7915 86.7542 67.0718 88.0313 67.0718 89.6012C67.0718 91.1711 65.7915 92.4482 64.2174 92.4482ZM64.2174 87.2326C62.9082 87.2326 61.8433 88.295 61.8433 89.6009C61.8433 90.9068 62.9082 91.9691 64.2174 91.9691C65.5268 91.9691 66.5918 90.9068 66.5918 89.6009C66.5918 88.295 65.5265 87.2326 64.2174 87.2326Z" fill="#23286B"/>
<path d="M53.2701 87.6643C54.2068 86.7073 56.0836 86.0954 57.4244 86.1021C58.7652 86.1091 60.4071 86.4536 61.2999 86.8807C58.8794 87.2107 56.7172 88.2319 55.8925 90.5257C55.4343 91.8006 54.5 95 54.5 95C54.5 95 54.5674 99.1375 51.5245 97.3187C48.4817 95.5 51.9994 92 51.9994 92C51.9255 90.3274 52.0976 88.8623 53.2701 87.6643Z" fill="#23286B"/>
<path d="M88.6589 112.65C90.7114 111.425 89.1542 108.394 89.6298 107.98C90.7491 107.006 90.9926 108.689 91.2595 109.999C91.327 110.332 91.4928 111.036 91.5814 111.087C92.6714 111.704 96.0259 112.275 95.4455 113.434C95.3011 113.722 94.7824 113.946 94.7024 114.249C94.3709 115.504 94.8458 116.922 93.9347 118.079C92.3363 116.1 89.2614 117.948 87 117.194C87.2525 116.184 87.3216 114.62 87.6682 113.483C87.7213 113.309 88.0688 112.664 88.015 112.841L88.6589 112.65Z" fill="#99644C"/>
<path d="M66.3996 124.758C61.501 123.582 56.2562 122.198 53.0165 118.348C51.7445 116.837 50.8696 115.03 50.1835 113.179C49.2571 110.678 48.6603 107.876 49.5813 105.374C51.1064 101.228 56.421 99.4944 60.7023 100.616C64.9836 101.737 68.367 104.962 71.2726 108.294C72.5724 109.784 73.8969 111.769 73.1232 113.587C78.1747 110.975 84.1472 111.334 88.7543 112.619C89.4973 114.521 89.2487 117.034 88.8839 117.538C88.7901 117.668 87.8672 118.344 87.2727 118.623C83.5962 120.353 80.9623 123.944 77.1197 125.266C73.6889 126.446 69.928 125.606 66.3996 124.758Z" fill="url(#paint22_linear_3799_4068)"/>
<path d="M60.3958 90.3136C60.3555 90.3136 60.3148 90.3034 60.2774 90.2823C60.1622 90.2169 60.1222 90.0707 60.1878 89.9558C60.2284 89.8843 60.2662 89.8067 60.3043 89.7282C60.5033 89.3196 60.8057 88.7029 61.6726 88.9267C61.8009 88.9599 61.8784 89.0904 61.8451 89.2184C61.8118 89.3464 61.6793 89.4224 61.5526 89.3901C61.0841 89.2698 60.9513 89.4948 60.736 89.9372C60.6928 90.0253 60.6502 90.1125 60.6044 90.1926C60.5606 90.2702 60.4793 90.3136 60.3958 90.3136Z" fill="#23286B"/>
<path d="M94.1211 84.8226C94.2763 85.1118 94.4622 85.4821 94.6648 85.7483C94.8481 85.9893 94.8894 85.9794 94.8894 85.9794C94.8894 85.9794 95.5137 85.627 95.6152 85.5536C96.2629 85.085 96.5384 84.7559 97.0741 84.2404C97.3253 83.9985 97.5944 83.4466 97.0641 83.52C96.7822 83.5589 96.4747 83.61 96.2117 83.7073C95.5486 83.9525 94.9496 84.3333 94.3221 84.6659C94.2136 84.7231 94.1211 84.7799 94.1211 84.8226Z" fill="#E94A47"/>
<path d="M49.831 155.353C49.8531 155.315 49.8399 155.267 49.8022 155.245C49.7647 155.223 49.7161 155.236 49.6943 155.274C49.6723 155.311 49.6854 155.36 49.7231 155.382C49.7606 155.403 49.8089 155.391 49.831 155.353ZM50.7977 147.332C50.8409 147.321 50.8668 147.277 50.8553 147.233C50.8463 147.194 50.8063 147.169 50.767 147.178C50.7638 147.178 50.7603 147.179 50.7571 147.181C50.7151 147.19 50.6895 147.232 50.6988 147.274C50.7107 147.317 50.7548 147.343 50.7977 147.332ZM50.0463 151.363C50.0905 151.365 50.1299 151.334 50.1379 151.291C50.1433 151.246 50.1113 151.205 50.0659 151.2C50.0211 151.194 49.9798 151.226 49.9743 151.271C49.9724 151.316 50.0025 151.355 50.0463 151.363ZM59.479 156.066C59.5613 156.08 59.64 156.026 59.6563 155.944C59.6746 155.866 59.6259 155.788 59.5478 155.769C59.545 155.769 59.5427 155.768 59.5398 155.767C59.4576 155.753 59.3789 155.807 59.3626 155.889C59.3459 155.97 59.3981 156.049 59.479 156.066ZM55.8835 155.368C55.9667 155.382 56.0451 155.327 56.0589 155.244C56.0729 155.163 56.0195 155.086 55.9385 155.07C55.8576 155.053 55.7782 155.105 55.7616 155.186C55.7488 155.27 55.8022 155.349 55.8835 155.368ZM52.2825 154.666C52.3635 154.682 52.4419 154.631 52.4582 154.55C52.4585 154.548 52.4585 154.547 52.4592 154.545C52.4774 154.467 52.4288 154.388 52.3507 154.37C52.3478 154.369 52.3456 154.368 52.3427 154.368C52.2595 154.355 52.1798 154.408 52.16 154.49C52.1465 154.572 52.2006 154.651 52.2825 154.666ZM55.0717 162.528C55.1155 162.457 55.0937 162.365 55.0227 162.321C54.952 162.278 54.8595 162.299 54.816 162.37C54.7734 162.44 54.7936 162.53 54.8617 162.575C54.9325 162.618 55.0256 162.598 55.0717 162.528ZM52.0147 160.508C52.0582 160.437 52.0368 160.345 51.9657 160.302C51.895 160.258 51.8025 160.28 51.759 160.351C51.7164 160.42 51.7366 160.51 51.8047 160.555C51.8748 160.598 51.9686 160.578 52.0147 160.508ZM57.7744 148.88C57.8563 148.862 57.9082 148.782 57.8909 148.7C57.8755 148.619 57.7974 148.567 57.7174 148.583C57.7174 148.583 57.7162 148.583 57.7158 148.583C57.6362 148.595 57.5808 148.668 57.592 148.747C57.5923 148.751 57.5933 148.754 57.5936 148.759C57.6131 148.84 57.6915 148.893 57.7744 148.88ZM54.1788 149.606C54.2601 149.587 54.3136 149.509 54.3008 149.426C54.2822 149.344 54.2019 149.293 54.12 149.31C54.0387 149.326 53.9859 149.406 54.0028 149.487C54.0028 149.488 54.0032 149.49 54.0032 149.49C54.0188 149.57 54.0966 149.622 54.1763 149.607C54.1782 149.606 54.1785 149.606 54.1788 149.606ZM50.5894 150.332C50.6684 150.318 50.7215 150.243 50.7071 150.165C50.7068 150.162 50.7062 150.16 50.7055 150.158C50.6921 150.076 50.6143 150.021 50.5324 150.035C50.5299 150.035 50.5273 150.036 50.5247 150.036C50.4425 150.053 50.3897 150.134 50.407 150.215C50.4243 150.298 50.5055 150.35 50.5868 150.333C50.5881 150.332 50.5887 150.332 50.5894 150.332ZM53.0073 165.464C53.0537 165.407 53.0454 165.322 52.9881 165.275C52.9308 165.228 52.8457 165.237 52.7984 165.294C52.751 165.352 52.76 165.436 52.8176 165.483C52.8752 165.529 52.9596 165.521 53.0073 165.464ZM56.8243 152.341C56.8995 152.33 56.9529 152.264 56.9465 152.188C56.9398 152.116 56.8758 152.063 56.8041 152.07C56.8019 152.071 56.8003 152.071 56.7984 152.071C56.7241 152.077 56.6691 152.143 56.6761 152.217C56.6761 152.218 56.6765 152.218 56.6765 152.219C56.6861 152.292 56.7504 152.345 56.8243 152.341ZM53.5753 152.678C53.6489 152.669 53.7008 152.602 53.6928 152.53C53.686 152.459 53.622 152.406 53.5504 152.413C53.5481 152.413 53.5465 152.413 53.5446 152.414C53.4704 152.42 53.4153 152.485 53.4214 152.559C53.4214 152.56 53.4217 152.561 53.4217 152.562C53.4329 152.634 53.5011 152.686 53.5753 152.678ZM50.3158 153.02C50.39 153.014 50.4451 152.948 50.439 152.874L50.4387 152.872C50.4342 152.802 50.3731 152.749 50.303 152.754C50.2988 152.754 50.294 152.755 50.2899 152.755C50.2156 152.761 50.1606 152.827 50.1667 152.901C50.1667 152.902 50.167 152.902 50.167 152.903C50.1779 152.975 50.2431 153.026 50.3158 153.02ZM54.4873 159.107C54.5596 159.126 54.6333 159.084 54.6537 159.012C54.6752 158.941 54.6349 158.867 54.5644 158.846C54.4928 158.826 54.4172 158.865 54.3926 158.935C54.3721 159.008 54.4144 159.085 54.4873 159.107ZM51.3494 158.175C51.4175 158.198 51.4911 158.161 51.5139 158.094C51.5148 158.092 51.5151 158.089 51.5164 158.086C51.5379 158.016 51.4975 157.942 51.4271 157.92C51.3555 157.9 51.2799 157.94 51.2553 158.01C51.2358 158.081 51.2777 158.155 51.3494 158.175ZM53.3856 146.659C53.4486 146.627 53.4732 146.55 53.4412 146.487C53.44 146.485 53.4387 146.482 53.4374 146.48C53.4038 146.414 53.3225 146.388 53.2563 146.421C53.255 146.422 53.2534 146.423 53.2521 146.423C53.1884 146.462 53.1657 146.542 53.2009 146.608C53.2355 146.673 53.3161 146.697 53.3808 146.662C53.3824 146.661 53.3836 146.66 53.3856 146.659ZM50.5078 148.218C50.5737 148.182 50.599 148.1 50.5644 148.033C50.5267 147.968 50.4428 147.945 50.3775 147.983C50.3151 148.018 50.2911 148.097 50.3228 148.161C50.3551 148.227 50.4355 148.254 50.5011 148.221C50.5033 148.221 50.5059 148.219 50.5078 148.218ZM56.447 165.953C56.5312 165.973 56.6163 165.924 56.6406 165.841C56.6643 165.759 56.6173 165.672 56.535 165.649C56.4509 165.627 56.3651 165.677 56.3414 165.76C56.3177 165.842 56.3648 165.928 56.447 165.953ZM52.814 164.915C52.8969 164.94 52.9833 164.892 53.0073 164.81C53.0313 164.728 52.984 164.641 52.9017 164.617C52.8188 164.593 52.7324 164.64 52.7084 164.722C52.6841 164.805 52.7318 164.891 52.814 164.915ZM54.7465 150.177C54.8217 150.132 54.8493 150.036 54.8083 149.959C54.7638 149.885 54.6662 149.861 54.5916 149.906C54.5196 149.949 54.4944 150.041 54.534 150.115C54.5772 150.189 54.6704 150.216 54.7465 150.177ZM51.4444 152.007C51.5183 151.964 51.5459 151.871 51.5062 151.795C51.4646 151.72 51.3695 151.692 51.2937 151.734C51.2179 151.775 51.1903 151.87 51.2319 151.946C51.2745 152.02 51.3689 152.046 51.4444 152.007ZM55.4361 158.362C55.5206 158.348 55.5805 158.272 55.5747 158.187C55.5619 158.102 55.4838 158.043 55.399 158.054C55.3145 158.062 55.2521 158.136 55.2605 158.221C55.2605 158.221 55.2608 158.223 55.2608 158.224C55.2707 158.311 55.3488 158.372 55.4361 158.362C55.4355 158.362 55.4361 158.362 55.4361 158.362ZM51.6793 158.793C51.766 158.782 51.8278 158.704 51.8179 158.618V158.617C51.8079 158.534 51.7315 158.474 51.6479 158.485C51.5628 158.495 51.5011 158.571 51.511 158.656C51.5193 158.739 51.5948 158.8 51.6793 158.793ZM56.3625 160.777C56.4473 160.768 56.5094 160.692 56.5008 160.607C56.4921 160.521 56.4163 160.46 56.3305 160.469C56.248 160.478 56.1862 160.55 56.192 160.632C56.1997 160.72 56.2758 160.783 56.3625 160.777ZM52.6086 161.051C52.695 161.043 52.7596 160.967 52.7523 160.881C52.7443 160.797 52.6713 160.734 52.5875 160.737C52.5008 160.746 52.4358 160.82 52.4384 160.907C52.4473 160.993 52.5225 161.055 52.6086 161.051ZM52.5152 153.927C52.5916 153.886 52.6214 153.792 52.5824 153.715C52.5436 153.64 52.4508 153.61 52.3753 153.648C52.2988 153.683 52.2646 153.772 52.2992 153.848C52.3001 153.851 52.3008 153.853 52.3027 153.854C52.3395 153.932 52.4323 153.966 52.5107 153.929C52.5123 153.929 52.5139 153.928 52.5152 153.927Z" fill="white"/>
<path d="M97.0628 83.52C96.7812 83.5589 96.4733 83.61 96.2103 83.7073C96.1588 83.7265 96.1095 83.7511 96.0586 83.7715L96.5712 84.7342C96.7245 84.5832 96.882 84.424 97.0727 84.2404C97.3239 83.9985 97.5927 83.4466 97.0628 83.52Z" fill="#23286B"/>
<defs>
<linearGradient id="paint0_linear_3799_4068" x1="169.136" y1="97.8766" x2="203.581" y2="97.8766" gradientUnits="userSpaceOnUse">
<stop stop-color="#B9D3FD"/>
<stop offset="1" stop-color="#89B3F4"/>
</linearGradient>
<linearGradient id="paint1_linear_3799_4068" x1="180.379" y1="105.907" x2="216.309" y2="105.907" gradientUnits="userSpaceOnUse">
<stop stop-color="#DEEAFE"/>
<stop offset="1" stop-color="#E9F1FE"/>
</linearGradient>
<linearGradient id="paint2_linear_3799_4068" x1="55.6954" y1="103.851" x2="187.772" y2="103.851" gradientUnits="userSpaceOnUse">
<stop stop-color="#EEEEEE"/>
<stop offset="1" stop-color="#D6D7D8"/>
</linearGradient>
<linearGradient id="paint3_linear_3799_4068" x1="69.1574" y1="127.947" x2="35.7151" y2="137.145" gradientUnits="userSpaceOnUse">
<stop stop-color="#B9D3FD"/>
<stop offset="1" stop-color="#89B3F4"/>
</linearGradient>
<linearGradient id="paint4_linear_3799_4068" x1="60.4084" y1="138.753" x2="25.5203" y2="148.349" gradientUnits="userSpaceOnUse">
<stop stop-color="#DEEAFE"/>
<stop offset="1" stop-color="#E9F1FE"/>
</linearGradient>
<linearGradient id="paint5_linear_3799_4068" x1="84.3281" y1="50.161" x2="176.976" y2="50.161" gradientUnits="userSpaceOnUse">
<stop stop-color="#B0CDFC"/>
<stop offset="1" stop-color="#81AEF2"/>
</linearGradient>
<linearGradient id="paint6_linear_3799_4068" x1="85.0587" y1="62.0282" x2="102.241" y2="62.0282" gradientUnits="userSpaceOnUse">
<stop stop-color="#EEEEEE"/>
<stop offset="1" stop-color="#D6D7D8"/>
</linearGradient>
<linearGradient id="paint7_linear_3799_4068" x1="116.148" y1="62.0282" x2="133.331" y2="62.0282" gradientUnits="userSpaceOnUse">
<stop stop-color="#EEEEEE"/>
<stop offset="1" stop-color="#D6D7D8"/>
</linearGradient>
<linearGradient id="paint8_linear_3799_4068" x1="147.242" y1="62.0282" x2="164.424" y2="62.0282" gradientUnits="userSpaceOnUse">
<stop stop-color="#EEEEEE"/>
<stop offset="1" stop-color="#D6D7D8"/>
</linearGradient>
<linearGradient id="paint9_linear_3799_4068" x1="193.087" y1="134.172" x2="190.806" y2="133.247" gradientUnits="userSpaceOnUse">
<stop stop-color="#FFBEB6"/>
<stop offset="1" stop-color="#F2A19C"/>
</linearGradient>
<linearGradient id="paint10_linear_3799_4068" x1="204.852" y1="202.328" x2="183.121" y2="205.801" gradientUnits="userSpaceOnUse">
<stop stop-color="#428DFC"/>
<stop offset="1" stop-color="#1D72D8"/>
</linearGradient>
<linearGradient id="paint11_linear_3799_4068" x1="192.94" y1="94.9321" x2="200.95" y2="91.9839" gradientUnits="userSpaceOnUse">
<stop stop-color="#FFBEB6"/>
<stop offset="1" stop-color="#F2A19C"/>
</linearGradient>
<linearGradient id="paint12_linear_3799_4068" x1="187.239" y1="202.328" x2="165.508" y2="205.801" gradientUnits="userSpaceOnUse">
<stop stop-color="#428DFC"/>
<stop offset="1" stop-color="#1D72D8"/>
</linearGradient>
<linearGradient id="paint13_linear_3799_4068" x1="189.758" y1="165.41" x2="170.817" y2="165.41" gradientUnits="userSpaceOnUse">
<stop stop-color="#23286B"/>
<stop offset="1" stop-color="#151A4F"/>
</linearGradient>
<linearGradient id="paint14_linear_3799_4068" x1="194.295" y1="103.281" x2="184.161" y2="122.824" gradientUnits="userSpaceOnUse">
<stop stop-color="#A1C3FC"/>
<stop offset="1" stop-color="#81AEF2"/>
</linearGradient>
<linearGradient id="paint15_linear_3799_4068" x1="211.207" y1="125.103" x2="206.165" y2="125.103" gradientUnits="userSpaceOnUse">
<stop stop-color="#428DFC"/>
<stop offset="1" stop-color="#1D72D8"/>
</linearGradient>
<linearGradient id="paint16_linear_3799_4068" x1="143.609" y1="80.9631" x2="139.201" y2="80.9631" gradientUnits="userSpaceOnUse">
<stop stop-color="#EEEEEE"/>
<stop offset="1" stop-color="#D6D7D8"/>
</linearGradient>
<linearGradient id="paint17_linear_3799_4068" x1="184.984" y1="138.334" x2="165.242" y2="138.334" gradientUnits="userSpaceOnUse">
<stop stop-color="#EEEEEE"/>
<stop offset="1" stop-color="#D6D7D8"/>
</linearGradient>
<linearGradient id="paint18_linear_3799_4068" x1="187.919" y1="95.2007" x2="176.472" y2="100.424" gradientUnits="userSpaceOnUse">
<stop stop-color="#A1C3FC"/>
<stop offset="1" stop-color="#81AEF2"/>
</linearGradient>
<linearGradient id="paint19_linear_3799_4068" x1="175.52" y1="106.193" x2="163.912" y2="106.193" gradientUnits="userSpaceOnUse">
<stop stop-color="#428DFC"/>
<stop offset="1" stop-color="#1D72D8"/>
</linearGradient>
<linearGradient id="paint20_linear_3799_4068" x1="42.1324" y1="184.983" x2="77.0292" y2="148.108" gradientUnits="userSpaceOnUse">
<stop stop-color="#428DFC"/>
<stop offset="1" stop-color="#1D72D8"/>
</linearGradient>
<linearGradient id="paint21_linear_3799_4068" x1="66.8125" y1="146.154" x2="66.8125" y2="110.782" gradientUnits="userSpaceOnUse">
<stop stop-color="#23286B"/>
<stop offset="1" stop-color="#151A4F"/>
</linearGradient>
<linearGradient id="paint22_linear_3799_4068" x1="54.8929" y1="118.246" x2="82.6796" y2="105.014" gradientUnits="userSpaceOnUse">
<stop stop-color="#23286B"/>
<stop offset="1" stop-color="#151A4F"/>
</linearGradient>
</defs>
</svg>
