<svg width="240" height="240" viewBox="0 0 240 240" fill="none" xmlns="http://www.w3.org/2000/svg">
<path d="M156.708 114.153H134.461V138.885H156.708V114.153Z" fill="#D6D7D8"/>
<path d="M154 138H137V140H154V138Z" fill="#428DFC"/>
<path d="M193.6 66.88H95.8398V130.119H193.6V66.88Z" fill="url(#paint0_linear_3799_3963)"/>
<path d="M191.876 68.4568H97.5625V120.537H191.876V68.4568Z" fill="white"/>
<path d="M186.408 128.014C187.947 128.014 189.194 126.768 189.194 125.23C189.194 123.693 187.947 122.446 186.408 122.446C184.869 122.446 183.621 123.693 183.621 125.23C183.621 126.768 184.869 128.014 186.408 128.014Z" fill="#EEEEEE"/>
<path d="M204.798 143.17H201.27V216.32H204.798V143.17Z" fill="url(#paint1_linear_3799_3963)"/>
<path d="M85.2865 143.17H81.7578V216.32H85.2865V143.17Z" fill="url(#paint2_linear_3799_3963)"/>
<path d="M127.243 143.17H123.715V216.32H127.243V143.17Z" fill="url(#paint3_linear_3799_3963)"/>
<path d="M204.796 139.68H81.7578V143.686H204.796V139.68Z" fill="url(#paint4_linear_3799_3963)"/>
<path d="M127.244 139.68H81.7891V143.686H127.244V139.68Z" fill="url(#paint5_linear_3799_3963)"/>
<path d="M58.482 215.84C60.8431 215.84 62.757 213.929 62.757 211.571C62.757 209.213 60.8431 207.301 58.482 207.301C56.121 207.301 54.207 209.213 54.207 211.571C54.207 213.929 56.121 215.84 58.482 215.84Z" fill="url(#paint6_linear_3799_3963)"/>
<path d="M75.2115 150.074H18.9375V160.46H75.2115V150.074Z" fill="url(#paint7_linear_3799_3963)"/>
<path d="M36.8242 160.46H57.2538C57.2538 162.267 55.774 163.704 54.0065 163.704H40.1127C38.2629 163.704 36.8242 162.267 36.8242 160.46Z" fill="url(#paint8_linear_3799_3963)"/>
<path d="M49.5227 163.662H44.5078V172.817H49.5227V163.662Z" fill="url(#paint9_linear_3799_3963)"/>
<path d="M46.4807 171.832H47.5906C49.3992 171.832 50.879 173.31 50.879 175.116V201.882H43.1922V175.116C43.1511 173.31 44.6309 171.832 46.4807 171.832Z" fill="url(#paint10_linear_3799_3963)"/>
<path d="M47.0547 201.882H65.9634C68.3064 201.882 70.1562 203.771 70.1562 206.07V207.424H68.7997V207.137V206.562C68.7997 204.715 67.3199 203.237 65.4701 203.237H47.0547V201.882Z" fill="url(#paint11_linear_3799_3963)"/>
<path d="M47.0547 201.882H55.0292C57.3723 201.882 59.222 203.771 59.222 206.07V207.424H57.8656V207.137V206.562C57.8656 204.715 56.3857 203.237 54.536 203.237H47.0547V201.882Z" fill="#23286B"/>
<path d="M47.1406 201.882H28.2319C25.8888 201.882 24.0391 203.771 24.0391 206.07V207.424H25.3956V207.137V206.562C25.3956 204.715 26.8754 203.237 28.7251 203.237H47.1406V201.882Z" fill="url(#paint12_linear_3799_3963)"/>
<path d="M47.14 201.882H39.1655C36.8224 201.882 34.9727 203.771 34.9727 206.07V207.424H36.3292V207.137V206.562C36.3292 204.715 37.809 203.237 39.6587 203.237H47.14V201.882Z" fill="#23286B"/>
<path d="M35.6305 215.84C37.9915 215.84 39.9055 213.929 39.9055 211.571C39.9055 209.213 37.9915 207.301 35.6305 207.301C33.2695 207.301 31.3555 209.213 31.3555 211.571C31.3555 213.929 33.2695 215.84 35.6305 215.84Z" fill="url(#paint13_linear_3799_3963)"/>
<path d="M69.5016 215.84C71.8626 215.84 73.7766 213.929 73.7766 211.571C73.7766 209.213 71.8626 207.301 69.5016 207.301C67.1405 207.301 65.2266 209.213 65.2266 211.571C65.2266 213.929 67.1405 215.84 69.5016 215.84Z" fill="url(#paint14_linear_3799_3963)"/>
<path d="M63.253 202.047L58.3203 215.799H93.1781C93.1781 215.799 91.3695 212.351 85.4091 209.805C79.4488 207.26 73.8995 202.047 73.8995 202.047H63.253Z" fill="url(#paint15_linear_3799_3963)"/>
<path d="M38.5469 138.744C38.5469 138.744 43.1096 149.253 56.7979 150.69C70.4862 152.127 64.9369 166.044 63.7448 168.219C62.5527 170.395 61.0729 172.284 60.2097 175.65C59.3465 179.016 60.5796 183.368 59.2231 185.831C57.8667 188.294 52.1529 196.587 53.9205 202.046H73.9391C73.9391 202.046 85.4898 156.643 84.7088 152.168C83.9278 147.693 85.2021 144.081 73.158 138.497C61.114 132.914 53.0162 129.425 53.0162 129.425L38.5469 138.744Z" fill="url(#paint16_linear_3799_3963)"/>
<path d="M24.6969 215.84C27.0579 215.84 28.9719 213.929 28.9719 211.571C28.9719 209.213 27.0579 207.301 24.6969 207.301C22.3359 207.301 20.4219 209.213 20.4219 211.571C20.4219 213.929 22.3359 215.84 24.6969 215.84Z" fill="url(#paint17_linear_3799_3963)"/>
<path d="M46.7697 98.0198L40.4805 94.7356L42.618 89.8093C44.3444 90.7946 46.112 91.9851 48.0851 91.8209C47.7562 92.7241 46.3997 96.7472 46.7697 98.0198Z" fill="url(#paint18_linear_3799_3963)"/>
<path d="M73.9385 202.088L69.0469 215.881H103.905C103.905 215.881 102.096 212.433 96.1357 209.887C90.1753 207.342 84.626 202.129 84.626 202.129" fill="#428DFC"/>
<path d="M42.5363 136.322C42.5363 136.322 41.2621 148.104 57.0467 150.649C72.8314 153.194 73.5302 155.124 73.6535 159.147C73.7768 163.17 72.5847 165.551 71.1049 169.697C69.6251 173.843 69.584 179.55 70.365 182.875C71.146 186.2 67.6931 190.347 66.09 194.246C65.1035 196.751 64.6102 199.378 64.8979 202.046L86.643 202.129C86.643 202.129 92.4389 163.17 92.8499 157.423C93.261 151.675 95.1108 145.805 87.6295 141.946C80.1482 138.087 64.1169 131.026 64.1169 131.026L42.5363 136.322Z" fill="url(#paint19_linear_3799_3963)"/>
<path opacity="0.86" d="M54.6215 138.497C54.5804 138.538 54.5804 138.58 54.6215 138.621C54.6626 138.662 54.7037 138.662 54.7448 138.621C54.7859 138.58 54.7859 138.538 54.7448 138.497C54.7037 138.456 54.6626 138.456 54.6215 138.497ZM53.3472 139.852C53.3061 139.893 53.3061 139.934 53.3472 139.975C53.3883 140.016 53.4294 140.016 53.4706 139.975C53.5117 139.934 53.5117 139.893 53.4706 139.852C53.4294 139.811 53.3883 139.852 53.3472 139.852ZM60.4997 142.931C60.4586 142.931 60.4175 142.972 60.4175 143.013C60.4175 143.054 60.4586 143.095 60.4997 143.095C60.5408 143.095 60.5819 143.054 60.5819 143.013C60.5819 142.931 60.5408 142.931 60.4997 142.931ZM58.6088 142.972C58.5677 142.972 58.5266 143.013 58.5266 143.054C58.5266 143.095 58.5677 143.136 58.6088 143.136C58.6499 143.136 58.691 143.095 58.691 143.054C58.691 143.013 58.6499 142.972 58.6088 142.972ZM56.759 143.054C56.7179 143.054 56.6768 143.095 56.6768 143.136C56.6768 143.177 56.7179 143.218 56.759 143.218C56.8001 143.218 56.8412 143.177 56.8412 143.136C56.8412 143.054 56.8001 143.054 56.759 143.054ZM54.8682 143.095C54.8271 143.095 54.7859 143.136 54.7859 143.177C54.7859 143.218 54.8271 143.259 54.8682 143.259C54.9093 143.259 54.9504 143.218 54.9504 143.177C54.9504 143.136 54.9093 143.095 54.8682 143.095ZM57.6634 150.279C57.6223 150.321 57.6223 150.362 57.6634 150.403C57.7045 150.444 57.7456 150.444 57.7456 150.403C57.7867 150.362 57.7867 150.321 57.7456 150.279C57.7045 150.238 57.7045 150.279 57.6634 150.279ZM58.6088 139.36C58.5677 139.36 58.5677 139.442 58.5677 139.442L58.6499 139.483C58.691 139.483 58.691 139.401 58.691 139.401C58.691 139.36 58.6499 139.36 58.6088 139.36ZM56.8824 140.14C56.8412 140.14 56.8412 140.222 56.8412 140.222C56.8412 140.222 56.8412 140.263 56.8824 140.263C56.9235 140.263 56.9235 140.263 56.9646 140.263C57.0057 140.263 57.0057 140.222 57.0057 140.181C56.9646 140.14 56.9235 140.098 56.8824 140.14ZM55.197 140.92C55.1559 140.92 55.1559 140.961 55.1559 141.002C55.1559 141.043 55.197 141.043 55.2381 141.043C55.2792 141.043 55.2792 141.002 55.2792 140.961C55.2792 140.92 55.2381 140.878 55.197 140.92ZM53.4706 141.658C53.4294 141.658 53.4294 141.741 53.4294 141.741C53.4294 141.782 53.4706 141.782 53.5117 141.782C53.5528 141.782 53.5528 141.741 53.5528 141.7C53.5528 141.658 53.5117 141.658 53.4706 141.658ZM58.8554 146.544C58.8554 146.585 58.8554 146.626 58.8965 146.626C58.9376 146.626 58.9788 146.626 58.9788 146.585C58.9788 146.544 58.9788 146.503 58.9376 146.503C58.8965 146.503 58.8554 146.503 58.8554 146.544ZM57.0879 145.887C57.0879 145.928 57.0879 145.969 57.129 145.969C57.1701 145.969 57.2112 145.969 57.2112 145.928C57.2112 145.887 57.2112 145.846 57.1701 145.846C57.1701 145.846 57.129 145.846 57.0879 145.887ZM55.0326 138.621C54.9504 138.662 54.9504 138.744 54.9504 138.826C54.9915 138.867 55.0326 138.908 55.0737 138.908C55.1148 138.908 55.1148 138.908 55.1559 138.908L55.197 138.867C55.2381 138.826 55.2381 138.703 55.197 138.662C55.1559 138.58 55.1148 138.58 55.0326 138.621ZM68.9675 146.831C68.9264 146.913 68.9675 146.995 69.0497 146.995C69.1319 147.036 69.2141 146.995 69.2141 146.913C69.2552 146.831 69.2141 146.749 69.1319 146.749C69.0908 146.708 69.0086 146.749 68.9675 146.831ZM65.5557 145.805C65.5146 145.887 65.5968 145.969 65.6379 145.969C65.7201 146.01 65.8023 145.969 65.8023 145.887C65.8434 145.805 65.8023 145.723 65.7201 145.723C65.679 145.682 65.5968 145.723 65.5557 145.805ZM62.185 144.778C62.185 144.861 62.2261 144.943 62.2672 144.984C62.3494 145.025 62.4317 144.984 62.4317 144.902C62.4728 144.819 62.4317 144.737 62.3494 144.737C62.2672 144.655 62.185 144.696 62.185 144.778ZM58.7732 143.752C58.7321 143.834 58.8143 143.916 58.8554 143.916C58.9376 143.957 59.0199 143.916 59.0199 143.834C59.061 143.752 59.0199 143.67 58.9376 143.67C58.8965 143.629 58.8143 143.67 58.7732 143.752ZM55.4025 142.726C55.3614 142.808 55.4436 142.89 55.5259 142.89C55.6081 142.931 55.6903 142.849 55.6903 142.808C55.7314 142.726 55.6903 142.644 55.6081 142.644C55.4847 142.603 55.4025 142.644 55.4025 142.726ZM68.1454 139.072C68.0632 139.072 67.981 139.154 68.0221 139.236C68.0632 139.318 68.1043 139.401 68.1865 139.36C68.2687 139.318 68.3509 139.277 68.3098 139.195C68.2687 139.113 68.2276 139.072 68.1454 139.072ZM64.6103 139.401C64.5281 139.401 64.4458 139.483 64.487 139.565C64.487 139.647 64.5692 139.729 64.6514 139.688C64.7336 139.688 64.8158 139.606 64.7747 139.524C64.7747 139.483 64.6925 139.401 64.6103 139.401ZM61.0752 139.77C60.9929 139.77 60.9518 139.852 60.9518 139.934C60.9518 140.016 61.0341 140.057 61.1163 140.057C61.1985 140.057 61.2396 139.975 61.2396 139.893C61.2396 139.811 61.1574 139.77 61.0752 139.77ZM57.54 140.14C57.4578 140.14 57.4167 140.222 57.4167 140.304C57.4167 140.386 57.4989 140.427 57.5812 140.427C57.6634 140.427 57.7045 140.345 57.7045 140.263C57.7045 140.181 57.6223 140.14 57.54 140.14ZM54.0049 140.468C53.9227 140.468 53.8816 140.55 53.8816 140.632C53.8816 140.714 53.9638 140.755 54.046 140.755C54.1283 140.755 54.1694 140.673 54.1694 140.591C54.1694 140.55 54.0871 140.468 54.0049 140.468C54.046 140.468 54.0049 140.468 54.0049 140.468ZM61.4862 149.869C61.4451 149.91 61.4451 150.033 61.4862 150.074C61.5684 150.115 61.6506 150.115 61.6917 150.074C61.7329 149.992 61.7329 149.91 61.6506 149.869C61.6506 149.828 61.5273 149.828 61.4862 149.869ZM58.7321 147.652C58.691 147.734 58.691 147.816 58.7321 147.857C58.7732 147.898 58.8965 147.898 58.9376 147.857C58.9788 147.816 58.9788 147.693 58.9376 147.652C58.8965 147.57 58.8143 147.57 58.7321 147.652ZM55.978 145.394C55.9369 145.476 55.9369 145.558 56.0191 145.599C56.0602 145.641 56.1835 145.641 56.2247 145.599C56.2658 145.517 56.2658 145.435 56.2247 145.394C56.1424 145.353 56.0602 145.353 55.978 145.394ZM67.6932 135.665C67.611 135.665 67.5699 135.747 67.5699 135.829C67.5699 135.911 67.6521 135.952 67.7343 135.952C67.8165 135.952 67.8576 135.87 67.8165 135.788C67.8576 135.665 67.7754 135.624 67.6932 135.665ZM64.6103 136.281C64.5281 136.281 64.487 136.363 64.5281 136.445C64.5281 136.527 64.6103 136.568 64.6925 136.527C64.7747 136.527 64.8158 136.445 64.7747 136.363C64.7336 136.281 64.6925 136.24 64.6103 136.281ZM61.4862 136.896C61.4451 136.896 61.4451 136.896 61.404 136.937C61.3629 136.978 61.3629 137.02 61.3629 137.061C61.3629 137.143 61.4451 137.184 61.5273 137.184C61.6095 137.184 61.6506 137.102 61.6095 137.02C61.6095 136.978 61.5684 136.978 61.5684 136.937C61.5684 136.896 61.5273 136.855 61.4862 136.896ZM58.4033 137.512C58.3211 137.512 58.28 137.594 58.3211 137.676C58.3211 137.758 58.4033 137.8 58.4855 137.8C58.5677 137.8 58.6088 137.717 58.6088 137.635C58.5266 137.512 58.4444 137.471 58.4033 137.512ZM65.0213 148.761C64.9802 148.802 64.9802 148.884 65.0624 148.925C65.1035 148.966 65.1858 148.966 65.2269 148.884C65.268 148.802 65.268 148.761 65.1858 148.678C65.1446 148.678 65.0624 148.678 65.0213 148.761ZM62.3905 146.995C62.3494 147.036 62.3494 147.118 62.4317 147.159C62.4728 147.201 62.555 147.201 62.5961 147.118C62.6372 147.077 62.6372 146.995 62.555 146.954C62.5139 146.913 62.4317 146.954 62.3905 146.995ZM59.7598 145.23C59.7187 145.271 59.7187 145.353 59.8009 145.394C59.842 145.435 59.9242 145.435 59.9653 145.353C60.0064 145.312 60.0064 145.23 59.9242 145.189C59.8831 145.148 59.8009 145.189 59.7598 145.23ZM57.129 143.465C57.0879 143.506 57.129 143.588 57.1701 143.629C57.2112 143.67 57.2934 143.67 57.3345 143.588C57.3756 143.547 57.3756 143.465 57.2934 143.424C57.2523 143.424 57.1701 143.424 57.129 143.465ZM54.4982 141.741C54.4571 141.823 54.4571 141.864 54.5393 141.946C54.5804 141.987 54.6626 141.987 54.7037 141.905C54.7448 141.864 54.7448 141.782 54.6626 141.741C54.6215 141.658 54.5393 141.658 54.4982 141.741ZM66.0901 141.987C66.0901 142.069 66.1312 142.11 66.2134 142.151C66.2956 142.151 66.3367 142.11 66.3778 142.069C66.3778 141.987 66.3367 141.946 66.2956 141.905C66.1723 141.864 66.0901 141.905 66.0901 141.987ZM63.0071 141.371C63.0071 141.453 63.0482 141.494 63.1305 141.535C63.2127 141.535 63.2538 141.494 63.2949 141.453C63.2949 141.371 63.2538 141.33 63.2127 141.289C63.0893 141.248 63.0071 141.289 63.0071 141.371ZM59.8831 140.714C59.8831 140.796 59.9242 140.837 59.9653 140.878C60.0475 140.878 60.0886 140.837 60.1297 140.755C60.1297 140.673 60.0886 140.632 60.0475 140.591C59.9653 140.632 59.9242 140.673 59.8831 140.714ZM56.8001 140.098C56.8001 140.181 56.8412 140.222 56.8824 140.263C56.9235 140.263 56.9235 140.263 56.9646 140.263C57.0057 140.263 57.0468 140.222 57.0468 140.181C57.0468 140.098 57.0057 140.057 56.9235 140.016C56.8824 140.016 56.8001 140.057 56.8001 140.098ZM53.6761 139.483C53.6761 139.524 53.6761 139.524 53.6761 139.565C53.7172 139.565 53.7172 139.606 53.7172 139.647H53.7583C53.8405 139.647 53.8816 139.606 53.9227 139.565C53.9227 139.483 53.8816 139.442 53.7994 139.401C53.7583 139.36 53.6761 139.442 53.6761 139.483ZM57.7456 149.376C57.7045 149.417 57.6634 149.499 57.7045 149.582C57.7456 149.623 57.8278 149.664 57.8689 149.623C57.91 149.582 57.9511 149.499 57.91 149.458C57.8689 149.335 57.7867 149.335 57.7456 149.376ZM60.2941 141.002C60.2941 141.043 60.2941 141.084 60.3352 141.084C60.3764 141.084 60.4175 141.084 60.4175 141.043C60.4175 141.002 60.4175 140.961 60.3764 140.961C60.3353 140.961 60.2941 140.961 60.2941 141.002ZM58.5677 140.304C58.5677 140.345 58.5677 140.386 58.6088 140.386C58.6499 140.386 58.691 140.386 58.691 140.345C58.691 140.304 58.691 140.263 58.6499 140.222C58.6088 140.222 58.5677 140.263 58.5677 140.304ZM56.8412 139.565C56.8412 139.606 56.8412 139.647 56.8824 139.647C56.9235 139.647 56.9646 139.647 56.9646 139.606C56.9646 139.565 56.9646 139.524 56.9235 139.524C56.8824 139.524 56.8412 139.524 56.8412 139.565ZM55.1148 138.867C55.1148 138.908 55.1148 138.949 55.1559 138.949C55.197 138.949 55.2381 138.949 55.2381 138.908C55.2381 138.867 55.2381 138.826 55.197 138.826C55.1559 138.785 55.1148 138.826 55.1148 138.867ZM60.1297 136.978C60.0886 136.978 60.0475 137.02 60.0475 137.061C60.0475 137.102 60.0886 137.143 60.1297 137.143C60.1708 137.143 60.2119 137.102 60.2119 137.061C60.2119 137.02 60.1708 136.978 60.1297 136.978ZM57.3756 143.588C57.3345 143.629 57.3345 143.67 57.3756 143.67C57.4167 143.711 57.4578 143.711 57.4989 143.67C57.54 143.629 57.54 143.588 57.4989 143.547C57.4578 143.547 57.4167 143.547 57.3756 143.588ZM56.0602 142.274C56.0191 142.315 56.0191 142.356 56.0602 142.356C56.1013 142.397 56.1424 142.397 56.1835 142.356C56.2247 142.315 56.2247 142.274 56.1835 142.233C56.1424 142.233 56.1013 142.233 56.0602 142.274ZM54.7448 140.961C54.7037 141.002 54.7037 141.043 54.7448 141.084C54.7859 141.125 54.8271 141.125 54.8682 141.084C54.9093 141.043 54.9093 141.002 54.8682 140.961C54.8271 140.92 54.7859 140.92 54.7448 140.961ZM53.4706 139.606C53.4294 139.606 53.4294 139.606 53.4706 139.606C53.3883 139.647 53.3883 139.688 53.4294 139.729H53.4706C53.5117 139.729 53.5117 139.729 53.5528 139.729C53.5939 139.688 53.5939 139.647 53.5528 139.606C53.5117 139.606 53.5117 139.606 53.4706 139.606ZM60.8285 141.33C60.7874 141.371 60.8285 141.412 60.8696 141.453C60.9107 141.494 60.9518 141.453 60.9929 141.412C61.0341 141.371 61.0341 141.33 60.9929 141.289C60.9107 141.289 60.8696 141.289 60.8285 141.33ZM59.061 140.181C59.0199 140.222 59.061 140.263 59.1021 140.304C59.1432 140.345 59.1843 140.304 59.2254 140.263C59.2665 140.222 59.2254 140.181 59.1843 140.14C59.1432 140.14 59.061 140.14 59.061 140.181ZM57.2523 139.031C57.2112 139.072 57.2523 139.113 57.2934 139.154C57.3345 139.195 57.3756 139.154 57.4167 139.113C57.4578 139.072 57.4167 139.031 57.4167 138.99C57.3345 138.99 57.2934 138.99 57.2523 139.031ZM61.5273 136.855C61.4862 136.855 61.4451 136.855 61.404 136.937C61.404 136.978 61.4451 137.02 61.4862 137.02C61.5273 137.02 61.5684 137.02 61.6095 136.937V136.896C61.6095 136.855 61.5684 136.855 61.5273 136.855ZM57.0468 143.711C57.0057 143.752 57.0057 143.793 57.0057 143.834C57.0468 143.875 57.0879 143.875 57.129 143.875C57.1701 143.834 57.1701 143.793 57.1701 143.752C57.1701 143.711 57.0879 143.67 57.0468 143.711ZM55.8547 141.946C55.8136 141.987 55.8136 142.028 55.8136 142.069C55.8547 142.11 55.8958 142.11 55.9369 142.11C55.978 142.069 55.978 142.028 55.978 141.987C55.9369 141.946 55.8958 141.905 55.8547 141.946ZM54.6626 140.181C54.6215 140.222 54.6215 140.263 54.6215 140.304C54.6626 140.345 54.7037 140.345 54.7448 140.304C54.7859 140.263 54.7859 140.222 54.7859 140.181C54.7448 140.181 54.7037 140.181 54.6626 140.181ZM70.8584 137.02C70.8584 137.102 70.8995 137.184 70.9817 137.184C71.0639 137.184 71.1461 137.143 71.1461 137.061C71.1461 136.978 71.105 136.896 71.0228 136.896C70.9406 136.855 70.8584 136.937 70.8584 137.02ZM67.2822 136.24C67.2822 136.322 67.3233 136.404 67.4055 136.404C67.4877 136.404 67.5699 136.363 67.5699 136.281C67.5699 136.198 67.5288 136.116 67.4466 136.116C67.3644 136.116 67.2822 136.157 67.2822 136.24ZM63.7059 135.501C63.7059 135.583 63.747 135.665 63.8293 135.665C63.9115 135.665 63.9937 135.624 63.9937 135.542C63.9937 135.46 63.9526 135.377 63.8704 135.377C63.7882 135.377 63.7059 135.418 63.7059 135.501ZM62.2261 149.582C62.1439 149.623 62.1439 149.705 62.185 149.787C62.2261 149.869 62.3083 149.869 62.3905 149.828C62.4728 149.787 62.4728 149.705 62.4317 149.623C62.3906 149.582 62.3083 149.541 62.2261 149.582ZM60.2119 146.544C60.1297 146.585 60.1297 146.667 60.1708 146.749C60.2119 146.831 60.2941 146.831 60.3764 146.79C60.4586 146.749 60.4586 146.667 60.4175 146.585C60.3764 146.503 60.2941 146.503 60.2119 146.544ZM58.2388 143.465C58.1566 143.506 58.1566 143.588 58.1977 143.67C58.2388 143.752 58.3211 143.752 58.4033 143.711C58.4855 143.67 58.4855 143.588 58.4444 143.506C58.4033 143.465 58.3211 143.424 58.2388 143.465ZM56.2247 140.427C56.1424 140.468 56.1424 140.55 56.1835 140.632C56.2247 140.714 56.3069 140.714 56.3891 140.673C56.4713 140.632 56.4713 140.55 56.4302 140.468C56.3891 140.386 56.3069 140.386 56.2247 140.427ZM66.5011 142.972C66.46 143.054 66.46 143.136 66.5423 143.177C66.6245 143.218 66.7067 143.218 66.7478 143.136C66.7889 143.054 66.7889 142.972 66.7067 142.931C66.6656 142.89 66.5422 142.89 66.5011 142.972ZM63.5004 140.92C63.4593 141.002 63.4593 141.084 63.5415 141.125C63.6237 141.166 63.7059 141.166 63.747 141.084C63.7882 141.002 63.7881 140.92 63.7059 140.878C63.6237 140.837 63.5415 140.837 63.5004 140.92ZM60.4586 138.867C60.4175 138.949 60.4175 139.031 60.4997 139.072C60.5819 139.113 60.6641 139.113 60.7052 139.031C60.7463 138.949 60.7463 138.867 60.6641 138.826C60.623 138.785 60.5408 138.785 60.4586 138.867ZM68.392 141.33C68.3509 141.412 68.3509 141.494 68.4331 141.535C68.5153 141.576 68.5975 141.576 68.6387 141.494C68.6798 141.412 68.6798 141.33 68.5976 141.289C68.5564 141.248 68.4331 141.248 68.392 141.33ZM65.3091 139.401C65.268 139.483 65.3091 139.565 65.3502 139.606C65.4324 139.647 65.5146 139.606 65.5557 139.565C65.5968 139.483 65.5968 139.401 65.5146 139.36C65.4324 139.318 65.3502 139.318 65.3091 139.401ZM62.2261 137.471C62.185 137.553 62.185 137.635 62.2672 137.676C62.3494 137.717 62.4317 137.717 62.4728 137.635C62.5139 137.553 62.5139 137.471 62.4317 137.43C62.3494 137.389 62.2672 137.43 62.2261 137.471ZM54.3749 143.095C54.2927 143.095 54.2516 143.177 54.2516 143.259C54.2516 143.342 54.3338 143.383 54.416 143.383C54.4982 143.383 54.5393 143.301 54.5393 143.218C54.5393 143.095 54.4571 143.054 54.3749 143.095ZM53.5528 139.524C53.5117 139.524 53.4706 139.565 53.4706 139.606C53.4294 139.647 53.4294 139.688 53.4294 139.729V139.77C53.4706 139.852 53.5528 139.893 53.635 139.852C53.7172 139.811 53.7583 139.729 53.7172 139.688C53.7172 139.647 53.6761 139.647 53.6761 139.606C53.635 139.524 53.5939 139.524 53.5528 139.524ZM62.0206 145.394C61.9384 145.435 61.9384 145.517 61.9795 145.599C62.0206 145.682 62.1028 145.682 62.185 145.641C62.2672 145.599 62.2672 145.517 62.2261 145.435C62.185 145.353 62.0617 145.312 62.0206 145.394ZM59.8831 142.438C59.8009 142.479 59.8009 142.562 59.842 142.644C59.8831 142.726 59.9653 142.726 60.0475 142.685C60.1297 142.644 60.1297 142.562 60.0886 142.48C60.0475 142.397 59.9653 142.356 59.8831 142.438ZM57.7867 139.483C57.7045 139.524 57.7045 139.606 57.7456 139.688C57.7867 139.77 57.8689 139.77 57.9511 139.729C58.0333 139.688 58.0333 139.606 57.9922 139.524C57.9511 139.442 57.8278 139.401 57.7867 139.483ZM62.555 139.113C62.5139 139.154 62.5139 139.236 62.555 139.277C62.5961 139.318 62.6783 139.318 62.7194 139.277C62.7605 139.236 62.7605 139.154 62.7194 139.113C62.6783 139.072 62.5961 139.072 62.555 139.113ZM60.5819 137.225C60.5408 137.266 60.5408 137.348 60.5819 137.389C60.623 137.43 60.7052 137.43 60.7463 137.389C60.7874 137.348 60.7874 137.266 60.7463 137.225C60.7052 137.184 60.623 137.184 60.5819 137.225ZM57.2112 141.207C57.1701 141.248 57.129 141.289 57.129 141.33C57.1701 141.371 57.2112 141.412 57.2934 141.412C57.3345 141.371 57.3756 141.33 57.3345 141.248C57.3345 141.207 57.2523 141.166 57.2112 141.207ZM56.1013 138.703C56.0602 138.744 56.0191 138.785 56.0602 138.867C56.1013 138.908 56.1424 138.949 56.2247 138.908C56.2658 138.867 56.3069 138.826 56.2658 138.744C56.2247 138.703 56.1424 138.662 56.1013 138.703Z" fill="white"/>
<path d="M40.4804 94.7356C40.4804 94.7356 26.34 114.974 31.026 135.624C31.026 135.624 46.3585 143.054 60.0879 129.794C60.0879 129.794 47.4273 105.04 46.7285 98.0198L40.4804 94.7356Z" fill="url(#paint20_linear_3799_3963)"/>
<path d="M76.8575 100.196H85.5309V106.518C85.5309 108.899 83.5989 110.869 81.1736 110.869C78.7895 110.869 76.8164 108.94 76.8164 106.518L76.8575 100.196Z" fill="url(#paint21_linear_3799_3963)"/>
<path d="M80.7215 102.823H81.9958C82.5302 102.823 82.9824 103.275 82.9824 103.808V110.294H79.776V103.808C79.7349 103.275 80.1871 102.823 80.7215 102.823Z" fill="url(#paint22_linear_3799_3963)"/>
<path d="M75.8281 111.896C75.8281 111.896 78.2945 107.133 79.7332 106.23C79.7332 106.23 79.7332 109.514 81.213 109.473C82.9394 109.432 83.0216 106.436 82.9394 104.999C82.8983 103.972 82.775 104.055 83.7204 104.342C84.337 104.547 87.8721 106.271 87.1733 111.033C86.4745 115.795 79.4454 115.837 78.5 116.411C78.0889 116.658 77.6779 116.904 77.2668 117.15L75.8281 111.896Z" fill="url(#paint23_linear_3799_3963)"/>
<path d="M40.4785 94.7356C40.4785 94.7356 47.4665 95.1872 50.2617 104.013C53.0569 112.84 53.7146 119.572 59.6339 118.423C65.5531 117.273 72.1301 114.153 75.7063 111.362L79.6525 126.428C79.6525 126.428 76.0351 131.847 70.7736 132.34C65.512 132.832 61.5659 135.952 58.4829 137.266C55.4 138.58 48.3298 140.714 44.8769 135.788C41.424 130.862 35.8336 115.139 36.6557 101.345C37.7655 99.0871 39.0398 96.8703 40.4785 94.7356Z" fill="url(#paint24_linear_3799_3963)"/>
<path d="M56.7985 160.46H18.94L9.40342 109.638C8.70462 105.861 11.171 102.207 14.9938 101.509C15.4049 101.427 15.8571 101.386 16.2681 101.386H39.904C43.2747 101.386 46.1521 103.767 46.7687 107.051L56.7985 160.46Z" fill="url(#paint25_linear_3799_3963)"/>
<path d="M53.8814 87.0998C53.8814 87.0998 52.9359 90.7945 49.1131 91.6566C46.0301 92.3545 43.3583 91.0408 42.4128 90.5072C42.495 90.384 43.9337 87.9619 42.4128 86.9767C40.8508 85.9504 40.8508 85.4167 40.8097 84.6778C40.7686 83.9388 41.8785 82.9125 43.7282 83.5283C45.578 84.1851 47.4277 82.5841 47.5511 80.3673C49.4419 80.6957 51.3328 80.5725 53.1415 79.9978C53.3881 80.5725 54.7446 84.103 55.3201 85.0883C55.9778 86.1556 54.4158 87.0177 53.8814 87.0998Z" fill="#FFBEB6"/>
<path d="M56.6761 79.9567C56.4706 79.8336 56.2239 79.7515 55.9773 79.7515C55.3196 79.7515 54.6208 80.2851 54.2919 81.1883C54.2508 81.3115 54.2097 81.4757 54.1686 81.6399C54.0453 81.5988 53.922 81.5578 53.7576 81.5578C53.3054 81.5578 52.8943 81.6809 52.5244 81.9272C52.5244 81.8451 52.5244 81.763 52.4833 81.6809C52.4011 81.1883 52.1955 80.7367 51.8667 80.3673C51.7845 80.2441 51.6612 80.162 51.5379 80.0799C50.7979 79.6283 49.9347 79.8336 49.3181 80.5725C49.0715 80.8599 48.9071 81.1473 48.7427 81.5167C48.496 82.1736 48.4138 82.9125 48.5371 83.6515C48.6193 84.1441 48.866 84.6367 49.1948 85.0062C49.277 85.0883 49.3592 85.1704 49.4826 85.2525C49.9347 85.5399 50.5513 85.5809 51.0446 85.2936C51.6201 84.9651 52.0311 84.4315 52.2367 83.8157C52.4011 83.323 52.5244 82.8304 52.4833 82.3378C52.8532 82.0504 53.3465 81.8862 53.7987 81.9272C53.8398 81.9272 53.922 81.9683 53.922 81.9683L53.9631 82.0504L54.0042 82.1325L54.0864 82.3378C54.0864 82.3378 54.703 83.8157 54.9496 84.3494C55.7718 84.883 56.7172 84.3494 57.2105 83.1178C57.7859 81.9273 57.4982 80.4904 56.6761 79.9567ZM52.0311 83.6104C51.8256 84.1441 51.4556 84.6367 50.9624 84.9241C50.5513 85.1704 50.058 85.1293 49.6881 84.883C49.277 84.5546 48.9893 84.103 48.9071 83.5694C48.7838 82.9536 48.866 82.2967 49.0715 81.6809C49.2359 81.2704 49.4826 80.8599 49.8525 80.5725C50.2636 80.162 50.9213 80.0799 51.4556 80.4083L51.4967 80.4494C51.579 80.4904 51.6201 80.5315 51.7023 80.6136C51.99 80.942 52.1955 81.3115 52.2778 81.722C52.3189 82.3378 52.2778 82.9946 52.0311 83.6104ZM57.046 82.9536C56.635 83.9799 55.7718 84.4725 55.073 84.0209C54.3742 83.5694 54.1686 82.3788 54.5797 81.3525C54.9907 80.3262 55.854 79.8336 56.5528 80.2851C57.2105 80.6957 57.4571 81.9272 57.046 82.9536Z" fill="#EEEEEE"/>
<path d="M58.6452 71.2947C58.6041 71.2126 58.5219 71.1716 58.4397 71.2126C58.3575 71.2537 58.3164 71.3358 58.3164 71.3768C59.8784 76.5905 55.8089 79.9568 51.2873 80.4494C53.3015 80.162 55.6445 79.2589 57.1654 76.7547C60.2073 71.7053 55.7678 69.7758 53.2193 71.1305C50.6707 72.4853 48.862 75.1126 48.862 75.1126C48.862 75.1126 44.8748 71.9926 38.4211 74.5789C31.9675 77.1652 34.3516 85.0062 36.6536 87.2641C38.9555 89.522 42.4084 90.5072 42.4084 90.5072C42.4084 90.5072 43.9704 88.003 42.4084 86.9767C40.8464 85.9504 40.8464 85.4167 40.8053 84.6778C40.7642 83.9388 41.874 82.9125 43.7238 83.5283C45.5325 84.1441 47.3411 82.6252 47.5466 80.4905C50.5474 81.2294 53.7947 80.9831 56.2611 78.9305C58.563 77.1652 59.5085 74.0863 58.6452 71.2947Z" fill="#428DFC"/>
<path d="M206.55 128.16C210.506 131.586 213.477 149.355 213.477 166.704C213.477 184.053 210.506 198.535 206.55 201.961C202.594 198.535 199.623 184.053 199.623 166.704C199.623 149.355 202.594 131.586 206.55 128.16Z" fill="#A1C3FC"/>
<path d="M217.992 139.688C221.519 143.567 222.391 161.569 220.363 178.795C218.335 196.021 213.691 210.042 209.363 212.965C205.836 209.086 204.58 194.346 206.608 177.121C208.637 159.895 213.664 142.611 217.992 139.688Z" fill="url(#paint26_linear_3799_3963)"/>
<path d="M198.043 216.96H221.79C223.539 216.96 224.957 215.519 224.957 213.741V186.382H194.877V213.742C194.877 215.519 196.295 216.96 198.043 216.96Z" fill="url(#paint27_linear_3799_3963)"/>
<path d="M137.935 88.1271H153.449V89.0277H137.935V88.1271Z" fill="#428DFC"/>
<path d="M145.776 103.963C149.667 103.963 152.832 100.779 152.832 96.866V87.2347H150.907V96.8656C150.907 99.7113 148.605 102.026 145.776 102.026C142.946 102.026 140.644 99.7113 140.644 96.8656V87.2347H138.719V96.8656C138.72 100.779 141.886 103.963 145.776 103.963Z" fill="#428DFC"/>
<path d="M141.542 79.6229H149.73V97.6204H141.542V79.6229Z" fill="#428DFC"/>
<path d="M147.107 79.6229H148.207V82.0296H147.107V79.6229Z" fill="#A1C3FC"/>
<path d="M144.935 79.6229H146.035V82.0296H144.935V79.6229Z" fill="#A1C3FC"/>
<path d="M142.763 79.6229H143.863V82.0296H142.763V79.6229Z" fill="#A1C3FC"/>
<path d="M141.542 83.7518H149.703V84.8584H141.542V83.7518Z" fill="#A1C3FC"/>
<path d="M141.542 85.9377H149.703V87.0443H141.542V85.9377Z" fill="#A1C3FC"/>
<path d="M141.542 88.1235H149.703V89.2302H141.542V88.1235Z" fill="#A1C3FC"/>
<path d="M141.542 90.3724H149.703V91.479H141.542V90.3724Z" fill="#A1C3FC"/>
<path d="M141.542 92.5583H149.703V93.665H141.542V92.5583Z" fill="#A1C3FC"/>
<path d="M143.249 83.0046H147.973V98.8221H143.249V83.0046Z" fill="#428DFC"/>
<path d="M154.547 110.733L155.727 114.549L159.52 113.363L158.341 109.548L154.547 110.733Z" fill="#E94A47"/>
<path d="M136.48 74.7683L139.551 77.3015L142.07 74.2126L138.999 71.6793L136.48 74.7683Z" fill="#A1C3FC"/>
<path d="M144.466 102.819V139.445H146.391V102.819H144.466Z" fill="#428DFC"/>
<path d="M127.437 103.648L126.293 104.8C123.595 101.982 122.081 98.1934 122.074 94.2448C122.068 90.2962 123.57 86.5021 126.258 83.6753L127.403 84.8231C125.007 87.3424 123.669 90.7237 123.676 94.2425C123.682 97.7612 125.033 101.137 127.437 103.648Z" fill="#A1C3FC"/>
<path d="M130.242 100.814L129.097 101.967C127.123 99.9023 126.016 97.1276 126.012 94.2365C126.007 91.3454 127.107 88.5673 129.074 86.4966L130.219 87.6444C128.544 89.4074 127.608 91.7727 127.612 94.2342C127.617 96.6956 128.56 99.0575 130.242 100.814Z" fill="#A1C3FC"/>
<path d="M133.278 97.7631L132.134 98.9156C130.936 97.6666 130.264 95.9861 130.262 94.2347C130.259 92.4833 130.926 90.8007 132.12 89.548L133.264 90.6958C132.364 91.6413 131.862 92.911 131.864 94.2323C131.867 95.5536 132.374 96.8213 133.278 97.7631Z" fill="#A1C3FC"/>
<path d="M163.121 103.328L164.266 104.48C166.964 101.663 168.478 97.8736 168.484 93.925C168.491 89.9764 166.989 86.1822 164.3 83.3555L163.156 84.5032C165.551 87.0226 166.889 90.4039 166.883 93.9227C166.876 97.4414 165.526 100.818 163.121 103.328Z" fill="#A1C3FC"/>
<path d="M160.317 100.495L161.461 101.647C163.435 99.5824 164.543 96.8078 164.547 93.9167C164.551 91.0256 163.452 88.2475 161.484 86.1768L160.34 87.3245C162.015 89.0876 162.95 91.4529 162.946 93.9143C162.942 96.3758 161.998 98.7377 160.317 100.495Z" fill="#A1C3FC"/>
<path d="M157.28 97.4433L158.425 98.5958C159.622 97.3468 160.294 95.6662 160.297 93.9148C160.299 92.1635 159.632 90.4808 158.439 89.2281L157.294 90.3759C158.194 91.3215 158.697 92.5912 158.694 93.9125C158.692 95.2338 158.184 96.5014 157.28 97.4433Z" fill="#A1C3FC"/>
<path d="M81.4959 34.24H48.4048C47.1813 34.24 46.0078 34.725 45.1426 35.5882C44.2774 36.4515 43.7914 37.6223 43.7914 38.8431V45.8502C43.7914 45.8502 43.635 67.219 43.7914 67.0323C43.9477 66.8456 50.5962 58.8694 52.0622 57.468L77.7821 57.4143H81.4959C82.7195 57.4143 83.8929 56.9293 84.7581 56.0661C85.6233 55.2028 86.1094 54.032 86.1094 52.8111V38.8176C86.1026 37.6012 85.6136 36.4369 84.7491 35.5792C83.8847 34.7214 82.7151 34.24 81.4959 34.24V34.24Z" fill="#EEEEEE"/>
<path d="M72.1207 46.9192C71.4172 46.9192 70.8469 46.3501 70.8469 45.6482C70.8469 44.9462 71.4172 44.3772 72.1207 44.3772C72.8242 44.3772 73.3945 44.9462 73.3945 45.6482C73.3945 46.3501 72.8242 46.9192 72.1207 46.9192Z" fill="#E94A47"/>
<path d="M64.7184 46.9192C64.0149 46.9192 63.4446 46.3501 63.4446 45.6482C63.4446 44.9462 64.0149 44.3772 64.7184 44.3772C65.4219 44.3772 65.9922 44.9462 65.9922 45.6482C65.9922 46.3501 65.4219 46.9192 64.7184 46.9192Z" fill="#E94A47"/>
<path d="M57.3199 46.9192C56.6164 46.9192 56.0461 46.3501 56.0461 45.6482C56.0461 44.9462 56.6164 44.3772 57.3199 44.3772C58.0234 44.3772 58.5938 44.9462 58.5938 45.6482C58.5938 46.3501 58.0234 46.9192 57.3199 46.9192Z" fill="#E94A47"/>
<path d="M165.633 37.92H188.609C189.459 37.92 190.274 38.2536 190.874 38.8474C191.475 39.4411 191.813 40.2464 191.813 41.0861V45.9056C191.813 45.9056 191.921 60.6032 191.813 60.4748C191.704 60.3464 187.088 54.8603 186.07 53.8964L168.212 53.8594H165.633C164.783 53.8594 163.969 53.5259 163.368 52.9321C162.767 52.3384 162.43 51.5331 162.43 50.6934V41.0685C162.434 40.2319 162.774 39.4311 163.374 38.8411C163.974 38.2512 164.786 37.92 165.633 37.92V37.92Z" fill="#E94A47"/>
<path d="M172.142 46.6408C172.631 46.6408 173.027 46.2494 173.027 45.7666C173.027 45.2838 172.631 44.8925 172.142 44.8925C171.654 44.8925 171.258 45.2838 171.258 45.7666C171.258 46.2494 171.654 46.6408 172.142 46.6408Z" fill="white"/>
<path d="M177.283 46.6408C177.771 46.6408 178.167 46.2494 178.167 45.7666C178.167 45.2838 177.771 44.8925 177.283 44.8925C176.794 44.8925 176.398 45.2838 176.398 45.7666C176.398 46.2494 176.794 46.6408 177.283 46.6408Z" fill="white"/>
<path d="M182.42 46.6408C182.908 46.6408 183.304 46.2494 183.304 45.7666C183.304 45.2838 182.908 44.8925 182.42 44.8925C181.931 44.8925 181.535 45.2838 181.535 45.7666C181.535 46.2494 181.931 46.6408 182.42 46.6408Z" fill="white"/>
<defs>
<linearGradient id="paint0_linear_3799_3963" x1="95.8398" y1="98.4994" x2="193.6" y2="98.4994" gradientUnits="userSpaceOnUse">
<stop stop-color="#EEEEEE"/>
<stop offset="1" stop-color="#D6D7D8"/>
</linearGradient>
<linearGradient id="paint1_linear_3799_3963" x1="203.04" y1="177.906" x2="203.236" y2="120.308" gradientUnits="userSpaceOnUse">
<stop stop-color="#EEEEEE"/>
<stop offset="1" stop-color="#DCE3EA"/>
</linearGradient>
<linearGradient id="paint2_linear_3799_3963" x1="83.4585" y1="198.461" x2="83.6544" y2="140.863" gradientUnits="userSpaceOnUse">
<stop stop-color="#EEEEEE"/>
<stop offset="1" stop-color="#DCE3EA"/>
</linearGradient>
<linearGradient id="paint3_linear_3799_3963" x1="125.387" y1="206.833" x2="125.583" y2="149.235" gradientUnits="userSpaceOnUse">
<stop stop-color="#EEEEEE"/>
<stop offset="1" stop-color="#DCE3EA"/>
</linearGradient>
<linearGradient id="paint4_linear_3799_3963" x1="133.669" y1="142.039" x2="113.221" y2="142.796" gradientUnits="userSpaceOnUse">
<stop stop-color="#EEEEEE"/>
<stop offset="1" stop-color="#DCE3EA"/>
</linearGradient>
<linearGradient id="paint5_linear_3799_3963" x1="67.6447" y1="142.052" x2="105.462" y2="141.674" gradientUnits="userSpaceOnUse">
<stop stop-color="#EEEEEE"/>
<stop offset="1" stop-color="#DCE3EA"/>
</linearGradient>
<linearGradient id="paint6_linear_3799_3963" x1="60.5991" y1="208.576" x2="52.9977" y2="219.367" gradientUnits="userSpaceOnUse">
<stop offset="0.0898" stop-color="#EEEEEE"/>
<stop offset="0.8178" stop-color="#D6D7D8"/>
</linearGradient>
<linearGradient id="paint7_linear_3799_3963" x1="78.7908" y1="151.883" x2="48.1899" y2="155.166" gradientUnits="userSpaceOnUse">
<stop offset="0.14" stop-color="#E94A47"/>
<stop offset="1" stop-color="#C63030"/>
</linearGradient>
<linearGradient id="paint8_linear_3799_3963" x1="46.4859" y1="166.207" x2="47.5301" y2="155.403" gradientUnits="userSpaceOnUse">
<stop stop-color="#23286B"/>
<stop offset="1" stop-color="#151A4F"/>
</linearGradient>
<linearGradient id="paint9_linear_3799_3963" x1="29.822" y1="158.576" x2="50.3977" y2="170.186" gradientUnits="userSpaceOnUse">
<stop stop-color="#23286B"/>
<stop offset="1" stop-color="#151A4F"/>
</linearGradient>
<linearGradient id="paint10_linear_3799_3963" x1="47.1781" y1="183.371" x2="46.322" y2="212.859" gradientUnits="userSpaceOnUse">
<stop stop-color="#23286B"/>
<stop offset="1" stop-color="#151A4F"/>
</linearGradient>
<linearGradient id="paint11_linear_3799_3963" x1="60.1889" y1="203.559" x2="45.858" y2="199.349" gradientUnits="userSpaceOnUse">
<stop stop-color="#23286B"/>
<stop offset="1" stop-color="#151A4F"/>
</linearGradient>
<linearGradient id="paint12_linear_3799_3963" x1="22.3988" y1="192.772" x2="33.8867" y2="203.159" gradientUnits="userSpaceOnUse">
<stop stop-color="#23286B"/>
<stop offset="1" stop-color="#151A4F"/>
</linearGradient>
<linearGradient id="paint13_linear_3799_3963" x1="38.2563" y1="209.467" x2="24.9683" y2="220.169" gradientUnits="userSpaceOnUse">
<stop offset="0.0898" stop-color="#EEEEEE"/>
<stop offset="0.8178" stop-color="#D6D7D8"/>
</linearGradient>
<linearGradient id="paint14_linear_3799_3963" x1="72.9562" y1="207.897" x2="62.7533" y2="218.788" gradientUnits="userSpaceOnUse">
<stop offset="0.0898" stop-color="#EEEEEE"/>
<stop offset="0.8178" stop-color="#D6D7D8"/>
</linearGradient>
<linearGradient id="paint15_linear_3799_3963" x1="43.0019" y1="200.021" x2="72.1016" y2="211.275" gradientUnits="userSpaceOnUse">
<stop offset="0.1291" stop-color="#428DFC"/>
<stop offset="0.9987" stop-color="#1D72D8"/>
</linearGradient>
<linearGradient id="paint16_linear_3799_3963" x1="15.4367" y1="171.327" x2="81.385" y2="163.644" gradientUnits="userSpaceOnUse">
<stop stop-color="#23286B"/>
<stop offset="1" stop-color="#151A4F"/>
</linearGradient>
<linearGradient id="paint17_linear_3799_3963" x1="27.4729" y1="207.679" x2="19.3903" y2="219.048" gradientUnits="userSpaceOnUse">
<stop offset="0.0898" stop-color="#EEEEEE"/>
<stop offset="0.8178" stop-color="#D6D7D8"/>
</linearGradient>
<linearGradient id="paint18_linear_3799_3963" x1="41.6618" y1="99.5837" x2="47.1204" y2="89.3442" gradientUnits="userSpaceOnUse">
<stop stop-color="#FFBEB6"/>
<stop offset="1" stop-color="#F2A19C"/>
</linearGradient>
<linearGradient id="paint19_linear_3799_3963" x1="77.9795" y1="173.138" x2="24.7273" y2="134.754" gradientUnits="userSpaceOnUse">
<stop stop-color="#23286B"/>
<stop offset="1" stop-color="#151A4F"/>
</linearGradient>
<linearGradient id="paint20_linear_3799_3963" x1="30.0693" y1="116.227" x2="60.083" y2="116.227" gradientUnits="userSpaceOnUse">
<stop stop-color="#A1C3FC"/>
<stop offset="0.6955" stop-color="#81AEF2"/>
<stop offset="1" stop-color="#78A9EF"/>
</linearGradient>
<linearGradient id="paint21_linear_3799_3963" x1="77.7033" y1="93.6544" x2="83.0618" y2="109.278" gradientUnits="userSpaceOnUse">
<stop offset="0.14" stop-color="#E94A47"/>
<stop offset="1" stop-color="#C63030"/>
</linearGradient>
<linearGradient id="paint22_linear_3799_3963" x1="81.5335" y1="103.313" x2="81.0059" y2="115.523" gradientUnits="userSpaceOnUse">
<stop offset="0.14" stop-color="#E94A47"/>
<stop offset="1" stop-color="#C63030"/>
</linearGradient>
<linearGradient id="paint23_linear_3799_3963" x1="84.8139" y1="116.057" x2="73.7751" y2="100.583" gradientUnits="userSpaceOnUse">
<stop stop-color="#FFBEB6"/>
<stop offset="1" stop-color="#F2A19C"/>
</linearGradient>
<linearGradient id="paint24_linear_3799_3963" x1="62.3905" y1="125.482" x2="35.8958" y2="103.718" gradientUnits="userSpaceOnUse">
<stop stop-color="#A1C3FC"/>
<stop offset="0.6955" stop-color="#81AEF2"/>
<stop offset="1" stop-color="#78A9EF"/>
</linearGradient>
<linearGradient id="paint25_linear_3799_3963" x1="42.579" y1="113.842" x2="11.2071" y2="179.039" gradientUnits="userSpaceOnUse">
<stop offset="0.14" stop-color="#E94A47"/>
<stop offset="1" stop-color="#C63030"/>
</linearGradient>
<linearGradient id="paint26_linear_3799_3963" x1="221.438" y1="176.326" x2="205.637" y2="176.326" gradientUnits="userSpaceOnUse">
<stop stop-color="#C6DAFD"/>
<stop offset="1" stop-color="#B8D1FD"/>
</linearGradient>
<linearGradient id="paint27_linear_3799_3963" x1="224.957" y1="201.671" x2="194.877" y2="201.671" gradientUnits="userSpaceOnUse">
<stop stop-color="#23286B"/>
<stop offset="1" stop-color="#000D47"/>
</linearGradient>
</defs>
</svg>
