<svg width="1500" height="1500" viewBox="0 0 1500 1500" fill="none" xmlns="http://www.w3.org/2000/svg">
<path d="M1133.74 1313.81L1133.78 1313.74C1133.74 1313.75 1133.7 1313.75 1133.66 1313.76L1133.74 1313.81Z" fill="#151A4F"/>
<path d="M1066.4 1308.77C1066.89 1308.97 1067.39 1309.17 1067.88 1309.36L1066.51 1308.59L1066.4 1308.77Z" fill="#151A4F"/>
<path d="M1043.96 1295.9L1043.75 1296.26C1046.3 1298.1 1048.92 1299.79 1051.59 1301.39L1052.11 1300.49L1043.96 1295.9Z" fill="#151A4F"/>
<path d="M1108.02 1316.87C1111.14 1316.87 1114.27 1316.71 1117.39 1316.43L1110.47 1312.54L1108.02 1316.87Z" fill="#151A4F"/>
<path d="M1096.06 1304.43L1091.45 1312.59L1083.3 1308L1087.91 1299.85L1096.06 1304.43Z" fill="#151A4F"/>
<path d="M1073.52 1291.75L1068.91 1299.91L1060.76 1295.32L1065.37 1287.17L1073.52 1291.75Z" fill="#151A4F"/>
<path d="M1050.97 1279.07L1046.36 1287.22L1038.21 1282.64L1042.82 1274.48L1050.97 1279.07Z" fill="#151A4F"/>
<path d="M1028.42 1266.39L1020.27 1261.8L1016.71 1268.1C1016.92 1268.42 1017.12 1268.75 1017.34 1269.08C1018.04 1270.12 1018.79 1271.12 1019.53 1272.13L1023.81 1274.54L1028.42 1266.39Z" fill="#151A4F"/>
<path d="M1130.2 1301.07L1125.59 1309.22L1133.66 1313.76C1133.7 1313.75 1133.74 1313.75 1133.78 1313.74L1138.35 1305.65L1130.2 1301.07Z" fill="#151A4F"/>
<path d="M1115.8 1292.96L1111.19 1301.12L1103.04 1296.53L1107.65 1288.38L1115.8 1292.96Z" fill="#151A4F"/>
<path d="M1093.26 1280.28L1088.64 1288.43L1080.49 1283.85L1085.11 1275.69L1093.26 1280.28Z" fill="#151A4F"/>
<path d="M1070.7 1267.59L1066.09 1275.75L1057.94 1271.16L1062.55 1263.01L1070.7 1267.59Z" fill="#151A4F"/>
<path d="M1048.16 1254.91L1043.55 1263.07L1035.4 1258.48L1040.01 1250.33L1048.16 1254.91Z" fill="#151A4F"/>
<path d="M1147 1300.49L1151.61 1292.34L1159.76 1296.92L1155.15 1305.08L1147 1300.49Z" fill="#151A4F"/>
<path d="M1137.21 1284.23L1132.6 1292.38L1124.45 1287.8L1129.06 1279.64L1137.21 1284.23Z" fill="#151A4F"/>
<path d="M1114.67 1271.55L1110.05 1279.7L1101.9 1275.12L1106.52 1266.96L1114.67 1271.55Z" fill="#151A4F"/>
<path d="M1092.12 1258.86L1087.51 1267.01L1079.36 1262.43L1083.97 1254.27L1092.12 1258.86Z" fill="#151A4F"/>
<path d="M1069.57 1246.18L1064.96 1254.33L1056.81 1249.75L1061.42 1241.59L1069.57 1246.18Z" fill="#151A4F"/>
<path d="M1047.02 1233.49L1042.41 1241.65L1034.26 1237.06L1038.87 1228.91L1047.02 1233.49Z" fill="#151A4F"/>
<path d="M1166.74 1289.03L1171.35 1280.87L1179.5 1285.46L1174.89 1293.61L1166.74 1289.03Z" fill="#151A4F"/>
<path d="M1148.8 1268.18L1156.95 1272.77L1152.33 1280.92L1144.18 1276.34L1148.8 1268.18Z" fill="#151A4F"/>
<path d="M1134.4 1260.07L1129.79 1268.23L1121.64 1263.64L1126.25 1255.49L1134.4 1260.07Z" fill="#151A4F"/>
<path d="M1111.86 1247.39L1107.25 1255.55L1099.09 1250.96L1103.71 1242.81L1111.86 1247.39Z" fill="#151A4F"/>
<path d="M1089.31 1234.71L1084.69 1242.87L1076.54 1238.28L1081.16 1230.13L1089.31 1234.71Z" fill="#151A4F"/>
<path d="M1066.76 1222.03L1062.15 1230.18L1054 1225.6L1058.61 1217.44L1066.76 1222.03Z" fill="#151A4F"/>
<path d="M1188.15 1280.29L1189.07 1280.8C1191.22 1278.44 1193.24 1275.99 1195.15 1273.48L1192.76 1272.13L1188.15 1280.29Z" fill="#151A4F"/>
<path d="M1165.6 1267.61L1170.21 1259.45L1178.36 1264.04L1173.75 1272.19L1165.6 1267.61Z" fill="#151A4F"/>
<path d="M1143.05 1254.92L1147.66 1246.77L1155.81 1251.35L1151.2 1259.51L1143.05 1254.92Z" fill="#151A4F"/>
<path d="M1120.51 1242.24L1125.12 1234.08L1133.27 1238.67L1128.66 1246.82L1120.51 1242.24Z" fill="#151A4F"/>
<path d="M1102.57 1221.4L1110.72 1225.98L1106.11 1234.14L1097.95 1229.55L1102.57 1221.4Z" fill="#151A4F"/>
<path d="M1083.57 1221.45L1075.42 1216.87L1080.03 1208.71L1088.18 1213.3L1083.57 1221.45Z" fill="#151A4F"/>
<path d="M1065.62 1200.61L1061.01 1208.76L1052.86 1204.18L1057.47 1196.02L1065.62 1200.61Z" fill="#151A4F"/>
<path d="M1185.34 1256.14L1189.95 1247.99L1198.1 1252.57L1193.49 1260.73L1185.34 1256.14Z" fill="#151A4F"/>
<path d="M1162.79 1243.46L1167.4 1235.3L1175.55 1239.89L1170.94 1248.04L1162.79 1243.46Z" fill="#151A4F"/>
<path d="M1144.85 1222.61L1153 1227.2L1148.39 1235.35L1140.24 1230.77L1144.85 1222.61Z" fill="#151A4F"/>
<path d="M1125.85 1222.67L1117.7 1218.08L1122.32 1209.93L1130.47 1214.51L1125.85 1222.67Z" fill="#151A4F"/>
<path d="M1099.75 1197.25L1107.9 1201.83L1103.28 1209.99L1095.13 1205.4L1099.75 1197.25Z" fill="#151A4F"/>
<path d="M1085.36 1189.14L1080.75 1197.29L1072.59 1192.71L1077.21 1184.55L1085.36 1189.14Z" fill="#151A4F"/>
<path d="M1210.32 1246.14C1211.39 1243.34 1212.36 1240.51 1213.19 1237.63L1208.85 1245.31L1210.32 1246.14Z" fill="#151A4F"/>
<path d="M1186.3 1232.63L1190.91 1224.48L1199.06 1229.06L1194.45 1237.22L1186.3 1232.63Z" fill="#151A4F"/>
<path d="M1163.75 1219.95L1168.36 1211.8L1176.51 1216.38L1171.9 1224.54L1163.75 1219.95Z" fill="#151A4F"/>
<path d="M1141.2 1207.27L1145.82 1199.11L1153.97 1203.7L1149.35 1211.85L1141.2 1207.27Z" fill="#151A4F"/>
<path d="M1123.26 1186.42L1131.41 1191.01L1126.8 1199.16L1118.65 1194.58L1123.26 1186.42Z" fill="#151A4F"/>
<path d="M1100.71 1173.74L1108.87 1178.32L1104.25 1186.48L1096.1 1181.89L1100.71 1173.74Z" fill="#151A4F"/>
<path d="M1086.32 1165.64L1081.71 1173.79L1073.56 1169.21L1078.17 1161.05L1086.32 1165.64Z" fill="#151A4F"/>
<path d="M1206.04 1221.16L1214.19 1225.74L1216.56 1221.55C1216.77 1219.92 1216.96 1218.28 1217.1 1216.64L1210.65 1213.01L1206.04 1221.16Z" fill="#151A4F"/>
<path d="M1183.48 1208.48L1188.1 1200.33L1196.25 1204.91L1191.64 1213.07L1183.48 1208.48Z" fill="#151A4F"/>
<path d="M1160.94 1195.8L1165.55 1187.64L1173.7 1192.23L1169.09 1200.38L1160.94 1195.8Z" fill="#151A4F"/>
<path d="M1146.55 1187.69L1138.4 1183.11L1143.01 1174.95L1151.16 1179.54L1146.55 1187.69Z" fill="#151A4F"/>
<path d="M1124 1175.01L1115.85 1170.42L1120.46 1162.27L1128.61 1166.85L1124 1175.01Z" fill="#151A4F"/>
<path d="M1106.06 1154.16L1101.45 1162.32L1093.29 1157.73L1097.91 1149.58L1106.06 1154.16Z" fill="#151A4F"/>
<path d="M1204.9 1199.74L1213.05 1204.33L1217.07 1197.21C1217.03 1196.73 1216.99 1196.25 1216.93 1195.77L1209.51 1191.59L1204.9 1199.74Z" fill="#151A4F"/>
<path d="M1182.35 1187.06L1186.96 1178.91L1195.11 1183.5L1190.5 1191.65L1182.35 1187.06Z" fill="#151A4F"/>
<path d="M1159.8 1174.39L1164.41 1166.23L1172.56 1170.82L1167.95 1178.97L1159.8 1174.39Z" fill="#151A4F"/>
<path d="M1137.26 1161.7L1141.87 1153.54L1150.02 1158.13L1145.41 1166.28L1137.26 1161.7Z" fill="#151A4F"/>
<path d="M1114.71 1149.02L1119.32 1140.86L1127.47 1145.45L1122.86 1153.6L1114.71 1149.02Z" fill="#151A4F"/>
<path d="M1092.16 1136.33L1096.77 1128.18L1104.92 1132.76L1100.31 1140.92L1092.16 1136.33Z" fill="#151A4F"/>
<path d="M1202.09 1175.59L1210.24 1180.17L1212.87 1175.52C1212.29 1173.61 1211.65 1171.72 1210.96 1169.83L1206.7 1167.44L1202.09 1175.59Z" fill="#151A4F"/>
<path d="M1179.54 1162.91L1184.15 1154.76L1192.3 1159.34L1187.69 1167.5L1179.54 1162.91Z" fill="#151A4F"/>
<path d="M1156.99 1150.23L1161.6 1142.07L1169.75 1146.66L1165.14 1154.81L1156.99 1150.23Z" fill="#151A4F"/>
<path d="M1134.44 1137.55L1139.05 1129.4L1147.21 1133.98L1142.59 1142.14L1134.44 1137.55Z" fill="#151A4F"/>
<path d="M1111.9 1124.86L1116.51 1116.71L1124.66 1121.29L1120.05 1129.45L1111.9 1124.86Z" fill="#151A4F"/>
<path d="M1205.02 1156.46C1204.17 1154.86 1203.28 1153.27 1202.35 1151.69L1200.95 1154.17L1205.02 1156.46Z" fill="#151A4F"/>
<path d="M1178.4 1141.5L1183.02 1133.34L1191.17 1137.93L1186.55 1146.08L1178.4 1141.5Z" fill="#151A4F"/>
<path d="M1155.86 1128.81L1160.47 1120.66L1168.62 1125.24L1164.01 1133.4L1155.86 1128.81Z" fill="#151A4F"/>
<path d="M1133.31 1116.13L1137.92 1107.97L1146.07 1112.56L1141.46 1120.71L1133.31 1116.13Z" fill="#151A4F"/>
<path d="M1110.76 1103.44L1118.91 1108.02L1123.52 1099.87L1121.85 1098.93C1119.16 1098.59 1116.44 1098.34 1113.72 1098.21L1110.76 1103.44Z" fill="#151A4F"/>
<path d="M620.514 1198.25L433.593 1065.11C427.254 1069.27 421.215 1074.06 415.566 1079.51C410.772 1084.14 406.439 1089.08 402.56 1094.26L603.169 1237.14C611.308 1225.1 617.088 1211.93 620.514 1198.25Z" fill="#A1C3FC"/>
<path d="M590.763 1083.88L551.218 1055.71C525.546 1044.26 496.767 1042 469.851 1049.01L623.857 1158.7C621.781 1131.64 610.745 1105.14 590.763 1083.88Z" fill="#A1C3FC"/>
<path d="M488.409 1290.52L389.647 1220.17C395.271 1232.19 402.917 1243.5 412.644 1253.57C433.599 1275.28 460.598 1287.61 488.409 1290.52Z" fill="#A1C3FC"/>
<path d="M580.07 1262.64L385.986 1124.4C380.459 1139.04 377.812 1154.54 378.073 1170.02L539.67 1285.13C554.109 1280.38 567.835 1272.88 580.07 1262.64Z" fill="#A1C3FC"/>
<path d="M873.434 794.73H804.723V987.485H873.434V794.73Z" fill="#F2A19C"/>
<path d="M784.319 734.346C779.625 723.592 778.139 711.664 778.31 699.925C779.127 643.554 820.065 591.132 873.324 572.944C926.582 554.755 988.673 569.699 1030.77 607.11C1055.15 628.774 1072.99 656.796 1095.49 680.404C1117.99 704.02 1148.05 723.988 1180.57 721.931C1228.88 718.883 1268.4 668.714 1316.15 676.69C1339.12 680.527 1357.45 697.264 1377.78 708.648C1398.11 720.032 1426.65 724.937 1442.47 707.808C1439.15 741.954 1445.11 754.723 1448.32 778.666C1451.52 802.61 1443.74 831.442 1420.83 852.099C1395.71 874.746 1383.4 897.733 1370.03 928.829C1359.25 953.911 1363.32 982.486 1363.52 1009.8C1363.71 1037.11 1357.66 1068 1334.65 1082.63C1300.01 1090.9 1271.74 1054.56 1237.75 1043.89C1213.02 1036.12 1186.31 1042.49 1160.4 1041.6C1110.41 1039.87 1062.58 1008.37 1041.17 963.084C1032.34 944.41 1027.82 923.988 1020.08 904.83C1000.59 856.567 959.797 817.402 910.836 799.951C864.494 783.439 804.014 779.493 784.319 734.346Z" fill="#E94A47"/>
<path d="M927.318 629.186C903.727 612.601 892.604 610.74 865.121 612.707C862.548 612.89 847.979 615.967 845.486 616.64C815.066 624.831 800.537 639.412 786.753 663.883C772.97 688.348 768.598 717.737 769.515 746.959C770.303 771.942 776.293 799.842 796.783 816.9C807.707 825.993 821.612 830.847 835.267 832.517C866.633 836.351 896.998 823.952 917.81 803.253C938.618 782.554 950.555 754.275 956.03 724.796C962.184 691.654 957.339 650.297 927.318 629.186Z" fill="#FFBEB6"/>
<path d="M812.306 667.646C809.157 670.671 804.914 676.967 804.914 676.967C804.914 676.967 810.46 682.969 813.01 684.679C848.307 708.284 887.386 727.773 928.823 742.437C943.568 697.614 947.901 650.326 941.503 604.1C928.746 600.418 914.654 596.752 902.16 601.036C898.043 602.446 894.386 604.647 890.799 606.874C862.174 624.641 835.804 645.057 812.306 667.646Z" fill="#E94A47"/>
<path d="M799.082 668.37C798.596 668.37 798.11 668.173 797.757 667.784C797.084 667.053 797.139 665.914 797.869 665.245L820.267 644.716C827.508 638.079 834.996 631.22 843.266 625.504C857.368 615.761 873.792 609.385 890.757 607.058C891.725 606.926 892.642 607.612 892.777 608.6C892.912 609.581 892.23 610.489 891.239 610.624C874.831 612.877 858.947 619.044 845.302 628.468C837.235 634.04 829.84 640.815 822.686 647.368L800.288 667.897C799.944 668.212 799.51 668.37 799.082 668.37Z" fill="#E94A47"/>
<path d="M808.679 719.636C790.363 719.636 772.363 710.103 762.185 694.798C761.098 693.16 760.095 691.47 759.101 689.777C758.599 688.921 758.879 687.82 759.731 687.315C760.587 686.819 761.687 687.093 762.189 687.946C763.157 689.584 764.119 691.216 765.17 692.802C775.203 707.888 793.377 716.955 811.426 715.961C812.443 715.899 813.263 716.662 813.321 717.654C813.379 718.645 812.619 719.495 811.629 719.549C810.648 719.607 809.663 719.636 808.679 719.636Z" fill="#23286B"/>
<path d="M1188.2 693.878C1166.28 693.878 1145.45 687.247 1130.32 671.456C1092.72 632.208 1050.11 587.727 994.88 566.4C944.118 546.792 874.194 551.659 838.775 598.889C838.177 599.684 837.051 599.842 836.26 599.25C835.465 598.654 835.311 597.524 835.899 596.729C872.392 548.076 944.147 542.956 996.163 563.043C1052.14 584.656 1096.92 631.404 1132.9 668.962C1163.03 700.408 1217.19 693.71 1255.13 670.848L1255.83 670.433C1275.23 658.733 1299.38 644.166 1317.94 657.877C1351.23 682.467 1399.66 685.445 1435.7 665.122C1436.5 664.675 1437.31 664.269 1438.14 663.912C1439.04 663.516 1440.11 663.931 1440.5 664.845C1440.9 665.753 1440.48 666.815 1439.57 667.211C1438.85 667.523 1438.15 667.874 1437.47 668.264C1400.23 689.259 1350.2 686.182 1315.81 660.78C1299.18 648.498 1276.17 662.373 1257.68 673.52L1256.98 673.938C1236.68 686.175 1211.82 693.874 1188.2 693.878Z" fill="#E94A47"/>
<path d="M1230.56 997.44L1202.67 988.808L1226.15 1011.76L1230.56 997.44Z" fill="#A1C3FC"/>
<path d="M1105.11 958.62L1210.71 1061.86L1218.83 1035.49L1156.46 974.507L1105.11 958.62Z" fill="#A1C3FC"/>
<path d="M1007.54 928.429L1195.27 1111.96L1203.39 1085.59L1058.89 944.317L1007.54 928.429Z" fill="#A1C3FC"/>
<path d="M983.816 970.433L1179.83 1162.05L1187.95 1135.69L991.942 944.065L983.816 970.433Z" fill="#A1C3FC"/>
<path d="M968.371 1020.53L1164.38 1212.15L1172.51 1185.79L976.503 994.164L968.371 1020.53Z" fill="#A1C3FC"/>
<path d="M952.93 1070.63L1093.89 1208.43L1145.24 1224.32L961.055 1044.26L952.93 1070.63Z" fill="#A1C3FC"/>
<path d="M937.488 1120.72L996.321 1178.24L1047.67 1194.13L945.617 1094.36L937.488 1120.72Z" fill="#A1C3FC"/>
<path d="M926.426 1156.61L950.104 1163.94L930.176 1144.45L926.426 1156.61Z" fill="#A1C3FC"/>
<path d="M1058.48 1410.48C1057.96 1405.27 1137.46 1459.04 1148.23 1356.53C1162.62 1219.59 1088.01 1084.5 1042.28 954.658C1029.07 917.129 1013.14 870.465 973.81 864.877C943.859 860.619 901.287 884.743 878.021 904.112C854.758 923.479 844.239 936.431 815.035 925.529C805.546 921.986 804.726 910.611 804.726 910.611C804.726 910.611 729.173 917.08 708.216 939.038C687.253 960.995 676.728 972.351 668.021 1001.45C634.87 1112.3 601.725 1223.13 568.574 1333.98H1072.83L1058.48 1410.48Z" fill="url(#paint0_linear)"/>
<path d="M714.163 985.74C724.025 995.464 736.847 1006 750.096 1002.02C752.67 999.835 743.261 981.428 735.145 974.89C731.99 972.351 728.036 971.08 724.315 969.477C717.405 966.493 709.039 953.213 705.726 956.889C698.45 967.591 688.381 975.412 677.004 981.476C677.654 971.669 683.357 959.28 688.976 952.337C697.896 941.326 698.675 935.955 707.591 924.947C713.761 917.332 726.393 901.757 721.391 893.324C716.887 885.725 686.204 919.723 672.98 945.923C668.647 954.51 664.546 966.905 653.693 981.286C658.148 968.36 658.489 961.514 661.638 954.082C666.588 942.398 665.701 936.338 670.654 924.651C674.524 915.523 679.725 899.89 671.507 894.354C667.274 891.502 663.71 900.392 662.043 905.217C651.534 935.633 647.134 957.468 636.622 987.884C633.068 965.431 627.963 967.211 624.408 944.761C623.878 941.417 618.67 922.176 616.267 919.794C613.861 917.418 609.071 917.264 607.614 920.318C606.784 922.063 606.376 926.981 607.83 932.517C613.845 955.431 622.797 979.786 626.091 1000.95C624.141 1003.04 623.411 1005.99 622.623 1008.76C618.229 1024.29 608.933 1037.55 599.605 1050.88C595.5 1054.13 591.595 1057.62 588.61 1061.9C583.737 1068.87 581.614 1077.33 579.494 1085.57C558.383 1167.68 528.77 1247.59 491.293 1323.61C523.981 1325.99 556.672 1328.38 589.363 1330.76C592.621 1330.99 596.269 1331.11 598.717 1328.94C601.091 1326.83 601.483 1323.33 601.715 1320.16C605.977 1261.92 610.242 1203.51 607.482 1145.18C606.916 1133.31 606.118 1121.06 610.081 1109.85C610.303 1109.23 610.589 1108.64 610.837 1108.03C610.918 1108.06 610.992 1108.1 611.072 1108.12C630.668 1094.87 650.261 1081.62 669.853 1068.38C671.867 1067.01 673.913 1065.63 676.213 1064.84C678.513 1064.04 680.973 1063.86 683.405 1063.74C705.738 1062.71 748.72 1081.19 748.308 1074.72C746.696 1063.81 738.478 1057.12 728.696 1052.07C718.911 1047.02 707.797 1045.29 696.873 1043.91C694.551 1043.62 692.071 1043.28 690.311 1041.73C688.481 1040.1 687.86 1037.54 687.333 1035.15C686.027 1029.21 684.718 1023.26 683.412 1017.32C682.64 1013.8 681.864 1010.13 682.72 1006.64C685.834 993.974 704.764 994.759 714.163 985.74Z" fill="#FFBEB6"/>
<path d="M573.661 1449.42C531.236 1454.91 506.191 1420.35 486.106 1382.9C481.114 1373.59 485.575 1319.83 493.424 1292.23C511.402 1228.99 535.254 1180.29 559.726 1119.12C575.825 1120.56 602.015 1122.13 618.115 1123.57C624.587 1161.59 620.962 1199.5 627.434 1237.52C631.126 1259.24 627.974 1329.73 620.026 1363.75C612.611 1395.49 604.177 1445.47 573.661 1449.42Z" fill="#428DFC"/>
<path d="M1095.67 1241.77C1092.88 1231.16 1082.3 1224.95 1072.97 1219.21C1022.32 1188.04 984.763 1139.91 948.649 1092.61C940.277 1081.64 931.736 1070.54 920.951 1062.01C909.496 1044.73 895.909 1028.59 890.296 1008.76C889.511 1005.99 888.778 1003.04 886.828 1000.95C890.122 979.786 899.071 955.434 905.089 932.514C906.543 926.978 906.138 922.06 905.305 920.315C903.851 917.257 899.055 917.409 896.652 919.79C894.246 922.166 889.038 941.407 888.511 944.757C884.956 967.211 879.851 965.431 876.297 987.881C865.788 957.465 861.388 935.629 850.876 905.213C849.206 900.388 845.639 891.499 841.412 894.35C833.197 899.886 838.398 915.519 842.265 924.647C847.215 936.331 846.327 942.392 851.281 954.079C854.43 961.51 854.771 968.356 859.226 981.286C848.373 966.902 844.275 954.507 839.939 945.923C826.712 919.72 796.032 885.724 791.528 893.324C786.526 901.753 799.161 917.331 805.328 924.947C814.247 935.958 815.026 941.33 823.939 952.337C829.559 959.28 835.265 971.672 835.912 981.476C824.531 975.412 814.466 967.59 807.19 956.888C803.871 953.206 795.51 966.496 788.601 969.477C784.879 971.079 780.926 972.351 777.771 974.89C769.652 981.427 760.246 999.832 762.819 1002.02C776.072 1006 788.894 995.464 798.753 985.74C808.152 994.753 827.082 993.97 830.189 1006.63C831.045 1010.13 830.276 1013.8 829.498 1017.32C828.192 1023.26 826.883 1029.21 825.577 1035.15C825.052 1037.54 824.431 1040.1 822.598 1041.72C820.845 1043.28 818.362 1043.62 816.036 1043.91C805.112 1045.29 794.002 1047.02 784.213 1052.06C774.428 1057.11 766.213 1063.81 764.601 1074.72C764.19 1081.18 807.164 1062.71 829.504 1063.74C831.936 1063.86 834.393 1064.04 836.697 1064.84C838.997 1065.64 841.042 1067.01 843.056 1068.38C860.111 1079.91 854.044 1076.74 865.093 1084.45C867.335 1086.34 869.761 1088.02 872.386 1089.38C882.209 1094.46 893.677 1095.62 903.513 1100.66C920.848 1109.54 930.089 1128.56 938.154 1146.31C961.809 1198.37 985.464 1250.42 1009.13 1302.47C1026.61 1295.38 1044.08 1288.3 1061.56 1281.21C1079.25 1274.04 1100.53 1260.24 1095.67 1241.77Z" fill="#FFBEB6"/>
<path d="M1130.94 1418.06C1141.93 1406.48 1145.58 1385.66 1144.39 1364.24C1143.19 1342.81 1137.65 1320.53 1132.12 1298.54C1124.14 1266.79 1074.48 1209.11 1040.53 1183.86C1033.63 1178.73 965.133 1111.92 965.133 1111.92C965.133 1111.92 940.046 1158.74 925.867 1169.72C941.796 1240.68 969.35 1311.6 1005.89 1375.72C1011.87 1386.21 1018.27 1396.76 1026.29 1404.53C1038.46 1416.3 1052.55 1420.05 1065.86 1423.35C1089.45 1429.19 1115.35 1434.48 1130.94 1418.06Z" fill="url(#paint1_linear)"/>
<path d="M1033.49 1278.3C1033.45 1278.91 1033.78 1279.43 1034.39 1279.47C1035 1279.51 1035.51 1279.18 1035.56 1278.57C1035.6 1277.96 1035.27 1277.45 1034.66 1277.4C1034.05 1277.36 1033.54 1277.69 1033.49 1278.3ZM1039.77 1380.72C1039.26 1381.04 1039.21 1381.66 1039.55 1382.17C1039.87 1382.69 1040.48 1382.73 1041 1382.4C1041.51 1382.07 1041.56 1381.46 1041.22 1380.94C1041.04 1380.19 1040.29 1380.38 1039.77 1380.72ZM1059.84 1363.95C1059.32 1364.28 1059.28 1364.9 1059.61 1365.41C1059.94 1365.93 1060.55 1365.97 1061.07 1365.64C1061.58 1365.31 1061.63 1364.69 1061.29 1364.18C1061.19 1363.8 1060.35 1363.62 1059.84 1363.95ZM1024.19 1326.91C1024.52 1327.42 1024.99 1327.7 1025.6 1327.75C1026.12 1327.42 1026.4 1326.95 1026.44 1326.34C1026.11 1325.82 1025.64 1325.54 1025.26 1325.64C1024.28 1325.69 1024 1326.16 1024.19 1326.91ZM1049.38 1319.23C1049.7 1319.74 1050.18 1320.02 1050.79 1320.07C1051.3 1319.74 1051.58 1319.27 1051.62 1318.66C1051.3 1318.14 1050.82 1317.86 1050.45 1317.96C1049.46 1318.01 1049.05 1318.71 1049.38 1319.23ZM1087.06 1403.96C1086.78 1404.44 1086.98 1405.19 1087.45 1405.46C1087.92 1405.74 1088.67 1405.55 1088.95 1405.08C1089.23 1404.6 1089.03 1403.86 1088.56 1403.58C1088.09 1403.3 1087.34 1403.49 1087.06 1403.96ZM1099.48 1380.76C1099.2 1381.23 1099.4 1381.98 1099.87 1382.26C1100.34 1382.54 1101.09 1382.35 1101.37 1381.87C1101.65 1381.4 1101.46 1380.65 1100.98 1380.37C1100.52 1380.09 1099.77 1380.29 1099.48 1380.76ZM1017.46 1302.23C1017.56 1302.6 1018.13 1303.26 1018.64 1302.93C1019.01 1302.83 1019.67 1302.26 1019.34 1301.75C1019.24 1301.38 1018.67 1300.72 1018.16 1301.05C1017.55 1301.01 1017.27 1301.48 1017.46 1302.23ZM1040.37 1297.34C1040.47 1297.71 1041.04 1298.37 1041.55 1298.04C1041.92 1297.94 1042.44 1297.61 1042.25 1296.86C1042.15 1296.48 1041.82 1295.97 1041.07 1296.16C1040.56 1296.49 1040.28 1296.96 1040.37 1297.34ZM1072.48 1382.9C1072.2 1383.38 1072.16 1383.99 1072.63 1384.27C1073.1 1384.55 1073.47 1384.45 1073.99 1384.12C1074.27 1383.64 1074.31 1383.04 1073.84 1382.75C1073.37 1382.48 1072.76 1382.43 1072.48 1382.9ZM1085.26 1363.42C1084.98 1363.89 1084.94 1364.5 1085.41 1364.78C1085.88 1365.06 1086.25 1364.96 1086.77 1364.63C1087.05 1364.16 1087.09 1363.55 1086.62 1363.26C1086.15 1362.98 1085.54 1362.94 1085.26 1363.42ZM1045.75 1339.37C1045.24 1339.69 1045.19 1340.31 1045.53 1340.82C1045.85 1341.34 1046.46 1341.38 1046.98 1341.05C1047.49 1340.72 1047.54 1340.11 1047.2 1339.59C1046.87 1339.08 1046.26 1339.03 1045.75 1339.37ZM999.134 1318.75C998.62 1319.08 998.575 1319.69 998.909 1320.21C999.237 1320.72 999.849 1320.77 1000.36 1320.43C1000.88 1320.1 1000.92 1319.49 1000.59 1318.97C1000.26 1318.46 999.649 1318.42 999.134 1318.75ZM1021.41 1303.61C1020.9 1303.94 1020.86 1304.56 1021.19 1305.07C1021.52 1305.59 1022.13 1305.63 1022.64 1305.3C1023.16 1304.96 1023.2 1304.35 1022.87 1303.84C1022.54 1303.33 1021.93 1303.28 1021.41 1303.61ZM1043.6 1288.11C1043.08 1288.44 1043.04 1289.05 1043.37 1289.57C1043.7 1290.08 1044.31 1290.13 1044.82 1289.79C1045.34 1289.46 1045.38 1288.85 1045.05 1288.33C1044.58 1288.05 1043.97 1288.01 1043.6 1288.11ZM1093.68 1381.46C1093.63 1382.07 1093.96 1382.58 1094.57 1382.62C1095.18 1382.67 1095.7 1382.34 1095.74 1381.73C1095.78 1381.11 1095.45 1380.6 1094.84 1380.56C1094.37 1380.27 1093.72 1380.84 1093.68 1381.46ZM1041.35 1250.47C1040.6 1250.67 1040.32 1251.14 1040.51 1251.89L1041.35 1250.47ZM1045.53 1347.83C1045.25 1348.3 1045.44 1349.05 1045.91 1349.33C1046.38 1349.61 1047.13 1349.41 1047.41 1348.94C1047.69 1348.47 1047.5 1347.72 1047.02 1347.44C1046.55 1347.16 1045.8 1347.35 1045.53 1347.83ZM1028.04 1341.92C1027.76 1342.4 1027.95 1343.15 1028.42 1343.42C1028.9 1343.7 1029.64 1343.51 1029.92 1343.04C1030.2 1342.57 1030.24 1341.96 1029.54 1341.54C1029.06 1341.26 1028.31 1341.45 1028.04 1341.92ZM1043.56 1319.92C1043.28 1320.4 1043.48 1321.15 1043.95 1321.42C1044.42 1321.7 1045.03 1321.74 1045.45 1321.04C1045.73 1320.56 1045.53 1319.81 1045.21 1319.3C1044.59 1319.26 1043.84 1319.46 1043.56 1319.92ZM1023.31 1276.72C1022.79 1277.05 1022.75 1277.66 1023.08 1278.18C1023.41 1278.69 1024.02 1278.74 1024.77 1278.54C1025.29 1278.21 1025.33 1277.6 1025.14 1276.85C1024.43 1276.43 1023.82 1276.39 1023.31 1276.72ZM1034.15 1277.73C1033.87 1278.21 1033.97 1278.58 1034.06 1278.96C1034.54 1279.24 1034.91 1279.14 1035.28 1279.04C1035.56 1278.57 1035.47 1278.19 1035.37 1277.82C1034.9 1277.54 1034.29 1277.5 1034.15 1277.73Z" fill="white"/>
<path d="M568.619 364.002L728.341 186.447C724.787 179.402 720.55 172.593 715.575 166.108C711.353 160.606 706.756 155.542 701.861 150.92L530.46 341.48C541.949 351.315 554.882 358.845 568.619 364.002Z" fill="#D9E8FF"/>
<path d="M690.377 346.733L724.174 309.171C739.043 283.978 744.779 254.49 740.703 225.833L609.117 372.123C637.336 373.168 666.043 364.886 690.377 346.733Z" fill="#D9E8FF"/>
<path d="M488.811 216.526L573.202 122.712C560.106 127.109 547.512 133.68 535.951 142.549C511.028 161.653 495.099 188.114 488.811 216.526Z" fill="#D9E8FF"/>
<path d="M506.825 314.587L672.653 130.226C658.163 122.784 642.452 118.218 626.412 116.661L488.331 270.161C491.54 285.651 497.678 300.727 506.825 314.587Z" fill="#D9E8FF"/>
<path d="M286.997 287L256.52 302.6H295.001L286.997 287Z" fill="#A1C3FC"/>
<path d="M149.914 357.153H323.001L308.265 328.442H206.025L149.914 357.153Z" fill="#A1C3FC"/>
<path d="M43.3125 411.707H350.998L336.262 382.995H99.4171L43.3125 411.707Z" fill="#A1C3FC"/>
<path d="M57.7359 466.26H379.002L364.263 437.549H43L57.7359 466.26Z" fill="#A1C3FC"/>
<path d="M85.7402 520.813H407L392.264 492.102H71.0039L85.7402 520.813Z" fill="#A1C3FC"/>
<path d="M113.736 575.367H344.762L400.867 546.655H99L113.736 575.367Z" fill="#A1C3FC"/>
<path d="M141.736 629.917H238.161L294.268 601.208H127L141.736 629.917Z" fill="#A1C3FC"/>
<path d="M161.796 669L187.67 655.759H155L161.796 669Z" fill="#A1C3FC"/>
<path d="M634.394 397.85L634.445 397.864C634.433 397.841 634.422 397.817 634.411 397.793L634.394 397.85Z" fill="#151A4F"/>
<path d="M627.111 354.035C627.06 354.382 627.01 354.728 626.964 355.076L627.246 354.073L627.111 354.035Z" fill="#151A4F"/>
<path d="M631.836 337.678L631.575 337.604C630.8 339.518 630.124 341.459 629.522 343.418L630.178 343.603L631.836 337.678Z" fill="#151A4F"/>
<path d="M628.426 381.892C628.916 383.887 629.506 385.861 630.167 387.815L631.577 382.781L628.426 381.892Z" fill="#151A4F"/>
<path d="M634.511 372.309L628.58 370.639L630.239 364.713L636.169 366.383L634.511 372.309Z" fill="#151A4F"/>
<path d="M639.096 355.917L633.166 354.247L634.825 348.321L640.755 349.991L639.096 355.917Z" fill="#151A4F"/>
<path d="M643.686 339.524L637.756 337.853L639.414 331.928L645.345 333.597L643.686 339.524Z" fill="#151A4F"/>
<path d="M648.275 323.131L649.934 317.205L645.354 315.915C645.181 316.103 645 316.278 644.828 316.468C644.272 317.084 643.747 317.718 643.217 318.348L642.345 321.461L648.275 323.131Z" fill="#151A4F"/>
<path d="M641.985 393.593L636.055 391.923L634.413 397.793C634.425 397.816 634.435 397.84 634.447 397.864L640.326 399.519L641.985 393.593Z" fill="#151A4F"/>
<path d="M644.917 383.126L638.987 381.455L640.645 375.529L646.575 377.2L644.917 383.126Z" fill="#151A4F"/>
<path d="M649.507 366.731L643.576 365.061L645.235 359.135L651.166 360.805L649.507 366.731Z" fill="#151A4F"/>
<path d="M654.097 350.336L648.166 348.667L649.825 342.74L655.756 344.411L654.097 350.336Z" fill="#151A4F"/>
<path d="M658.686 333.945L652.756 332.275L654.414 326.349L660.345 328.019L658.686 333.945Z" fill="#151A4F"/>
<path d="M644.973 404.239L650.903 405.909L649.244 411.835L643.314 410.165L644.973 404.239Z" fill="#151A4F"/>
<path d="M653.838 395.438L647.908 393.768L649.567 387.843L655.497 389.513L653.838 395.438Z" fill="#151A4F"/>
<path d="M658.424 379.045L652.494 377.375L654.153 371.449L660.084 373.119L658.424 379.045Z" fill="#151A4F"/>
<path d="M663.018 362.65L657.088 360.981L658.747 355.055L664.677 356.725L663.018 362.65Z" fill="#151A4F"/>
<path d="M667.605 346.258L661.673 344.588L663.333 338.662L669.263 340.332L667.605 346.258Z" fill="#151A4F"/>
<path d="M672.195 329.864L666.263 328.194L667.923 322.267L673.853 323.938L672.195 329.864Z" fill="#151A4F"/>
<path d="M655.379 415.055L661.309 416.725L659.651 422.651L653.72 420.98L655.379 415.055Z" fill="#151A4F"/>
<path d="M665.899 400.327L664.241 406.253L658.31 404.583L659.969 398.657L665.899 400.327Z" fill="#151A4F"/>
<path d="M668.838 389.859L662.908 388.189L664.567 382.263L670.497 383.933L668.838 389.859Z" fill="#151A4F"/>
<path d="M673.425 373.467L667.494 371.798L669.153 365.871L675.084 367.542L673.425 373.467Z" fill="#151A4F"/>
<path d="M678.01 357.073L672.08 355.403L673.739 349.477L679.669 351.147L678.01 357.073Z" fill="#151A4F"/>
<path d="M682.601 340.68L676.67 339.01L678.329 333.084L684.259 334.754L682.601 340.68Z" fill="#151A4F"/>
<path d="M664.303 427.368L664.116 428.036C665.962 429.038 667.839 429.95 669.744 430.778L670.231 429.037L664.303 427.368Z" fill="#151A4F"/>
<path d="M668.887 410.974L674.818 412.644L673.158 418.57L667.228 416.9L668.887 410.974Z" fill="#151A4F"/>
<path d="M673.477 394.581L679.407 396.251L677.749 402.178L671.818 400.507L673.477 394.581Z" fill="#151A4F"/>
<path d="M678.067 378.188L683.997 379.858L682.338 385.784L676.408 384.114L678.067 378.188Z" fill="#151A4F"/>
<path d="M688.587 363.461L686.928 369.386L680.998 367.716L682.657 361.79L688.587 363.461Z" fill="#151A4F"/>
<path d="M685.591 351.329L687.25 345.404L693.181 347.073L691.522 353L685.591 351.329Z" fill="#151A4F"/>
<path d="M696.111 336.601L690.181 334.931L691.84 329.005L697.77 330.675L696.111 336.601Z" fill="#151A4F"/>
<path d="M679.293 421.79L685.224 423.46L683.565 429.386L677.635 427.716L679.293 421.79Z" fill="#151A4F"/>
<path d="M683.884 405.396L689.814 407.067L688.155 412.992L682.225 411.323L683.884 405.396Z" fill="#151A4F"/>
<path d="M694.407 390.668L692.748 396.594L686.818 394.924L688.477 388.998L694.407 390.668Z" fill="#151A4F"/>
<path d="M691.408 378.541L693.067 372.614L698.997 374.284L697.338 380.21L691.408 378.541Z" fill="#151A4F"/>
<path d="M703.583 357.878L701.924 363.805L695.994 362.134L697.653 356.209L703.583 357.878Z" fill="#151A4F"/>
<path d="M706.522 347.414L700.591 345.744L702.25 339.818L708.18 341.488L706.522 347.414Z" fill="#151A4F"/>
<path d="M689.58 436.19C691.537 436.432 693.498 436.608 695.464 436.688L689.881 435.115L689.58 436.19Z" fill="#151A4F"/>
<path d="M694.465 418.724L700.395 420.394L698.737 426.32L692.806 424.65L694.465 418.724Z" fill="#151A4F"/>
<path d="M699.055 402.331L704.985 404.001L703.326 409.926L697.396 408.256L699.055 402.331Z" fill="#151A4F"/>
<path d="M703.645 385.937L709.575 387.607L707.917 393.533L701.986 391.863L703.645 385.937Z" fill="#151A4F"/>
<path d="M714.166 371.206L712.506 377.133L706.576 375.463L708.235 369.536L714.166 371.206Z" fill="#151A4F"/>
<path d="M718.756 354.815L717.096 360.741L711.166 359.071L712.825 353.145L718.756 354.815Z" fill="#151A4F"/>
<path d="M721.69 344.351L715.76 342.681L717.418 336.754L723.349 338.424L721.69 344.351Z" fill="#151A4F"/>
<path d="M704.879 429.538L703.22 435.463L706.267 436.321C707.345 436.204 708.421 436.066 709.495 435.901L710.809 431.208L704.879 429.538Z" fill="#151A4F"/>
<path d="M709.462 413.145L715.392 414.815L713.734 420.742L707.802 419.072L709.462 413.145Z" fill="#151A4F"/>
<path d="M714.051 396.752L719.981 398.422L718.322 404.348L712.392 402.678L714.051 396.752Z" fill="#151A4F"/>
<path d="M716.987 386.289L718.645 380.363L724.575 382.033L722.917 387.959L716.987 386.289Z" fill="#151A4F"/>
<path d="M721.576 369.893L723.235 363.967L729.165 365.637L727.506 371.562L721.576 369.893Z" fill="#151A4F"/>
<path d="M732.101 355.163L726.17 353.493L727.829 347.567L733.76 349.237L732.101 355.163Z" fill="#151A4F"/>
<path d="M718.387 425.459L716.728 431.384L721.903 432.841C722.205 432.737 722.505 432.634 722.806 432.526L724.317 427.127L718.387 425.459Z" fill="#151A4F"/>
<path d="M722.973 409.066L728.904 410.735L727.244 416.662L721.314 414.992L722.973 409.066Z" fill="#151A4F"/>
<path d="M727.559 392.673L733.489 394.342L731.831 400.269L725.9 398.598L727.559 392.673Z" fill="#151A4F"/>
<path d="M732.153 376.278L738.083 377.948L736.424 383.874L730.494 382.204L732.153 376.278Z" fill="#151A4F"/>
<path d="M736.739 359.887L742.669 361.557L741.01 367.483L735.08 365.813L736.739 359.887Z" fill="#151A4F"/>
<path d="M741.324 343.493L747.255 345.164L745.596 351.09L739.666 349.419L741.324 343.493Z" fill="#151A4F"/>
<path d="M733.383 419.88L731.724 425.806L735.109 426.759C736.238 426.091 737.349 425.381 738.446 424.646L739.312 421.55L733.383 419.88Z" fill="#151A4F"/>
<path d="M737.97 403.487L743.9 405.157L742.241 411.083L736.311 409.413L737.97 403.487Z" fill="#151A4F"/>
<path d="M742.559 387.094L748.489 388.764L746.831 394.69L740.901 393.02L742.559 387.094Z" fill="#151A4F"/>
<path d="M747.141 370.702L753.072 372.372L751.413 378.298L745.483 376.628L747.141 370.702Z" fill="#151A4F"/>
<path d="M751.735 354.308L757.665 355.978L756.006 361.904L750.076 360.234L751.735 354.308Z" fill="#151A4F"/>
<path d="M746.065 418.757C746.958 417.966 747.834 417.15 748.695 416.307L746.893 415.799L746.065 418.757Z" fill="#151A4F"/>
<path d="M751.477 399.408L757.407 401.079L755.749 407.004L749.819 405.334L751.477 399.408Z" fill="#151A4F"/>
<path d="M756.067 383.015L761.998 384.685L760.339 390.611L754.408 388.941L756.067 383.015Z" fill="#151A4F"/>
<path d="M760.657 366.621L766.587 368.291L764.928 374.218L758.998 372.547L760.657 366.621Z" fill="#151A4F"/>
<path d="M765.25 350.227L763.591 356.152L769.522 357.823L769.861 356.611C769.656 354.833 769.393 353.06 769.055 351.298L765.25 350.227Z" fill="#151A4F"/>
<path d="M219.311 534.208L654.336 481.248C684.368 477.591 705.743 450.221 702.078 420.116L680.359 241.713C676.694 211.608 649.376 190.165 619.344 193.821L184.32 246.782C154.288 250.438 132.913 277.809 136.578 307.914L158.297 486.317C161.962 516.422 189.28 537.865 219.311 534.208Z" fill="#BCD6FF"/>
<path d="M763.05 650.941C683 650.941 631.284 666 593.779 662.468C556.275 658.935 516.167 622.671 510.815 615.799C430.287 636.981 361.123 641.693 283.342 618.767C230.524 603.198 181.428 568.278 148.643 522.964C113.462 474.329 101.195 419.696 114.105 369.131C140.606 265.331 254.423 217.03 319.911 197.476C470.056 152.64 611.397 168.168 707.675 240.072C709.33 241.307 709.674 243.654 708.441 245.313C707.208 246.971 704.866 247.309 703.214 246.077C608.848 175.599 469.918 160.505 322.044 204.651C258.073 223.752 146.929 270.764 121.342 370.99C94.4476 476.34 186.243 582.337 285.449 611.578C360.845 633.806 428.254 629.472 506.495 609.182C504.594 605.614 503.286 601.923 502.598 598.14C496.811 566.306 541.238 537.869 565.537 527.282C579.267 521.295 631.419 505.27 646.901 510.117C660.626 514.416 663.578 522.183 663.642 527.944C663.895 551.592 617.101 582.452 584.778 593.307C561.737 601.043 539.843 607.895 518.767 613.662C524.217 619.73 560.943 651.191 597.403 655.911C633.864 660.632 686 644.13 766.45 644.13L763.05 650.941ZM631.284 517.206C612.4 519.505 581.815 528.358 568.518 534.148C542.461 545.503 505.356 571.557 509.947 596.802C510.626 600.547 512.04 604.016 513.951 607.208C535.762 601.326 558.442 594.253 582.398 586.207C618.423 574.111 656.343 544.201 656.169 528.021C656.151 526.246 656.093 520.844 644.676 517.265C641.946 516.411 637.184 516.487 631.284 517.206Z" fill="#BCD6FF"/>
<path d="M441.191 1234.31L373.899 1261.85L348.808 1199.69L416.1 1172.15L441.191 1234.31Z" fill="#D9E021"/>
<path d="M797 288.509L779.275 315L755 298.491L772.725 272L797 288.509Z" fill="#D9E021"/>
<path d="M353.875 609.945L312.057 590.873L331.128 549.055L372.947 568.127L353.875 609.945Z" fill="#008EFF"/>
<path d="M343.647 1159.8L319.2 1148.65L330.349 1124.2L354.797 1135.35L343.647 1159.8Z" fill="#008EFF"/>
<path d="M280.345 659.299C274.884 663.043 269.315 666.392 263.639 669.351C259.824 663.577 256.405 657.978 253.587 652.645C259.012 649.055 264.581 645.705 270.293 642.592C273.856 647.796 277.192 653.391 280.345 659.299Z" fill="#23286B"/>
<g clip-path="url(#clip0)">
<path d="M507.907 165.644L343.556 298.789L472.649 493.227L627.779 390.542L507.907 165.644Z" fill="url(#paint2_linear)"/>
<path d="M204.854 366.241L343.553 298.789L472.647 493.227L360.03 567.771L204.854 366.241Z" fill="url(#paint3_linear)"/>
<path d="M364.741 281.619L333.426 303.765L457.556 503.278L488.09 482.634L364.741 281.619Z" fill="url(#paint4_linear)"/>
<path d="M509.021 209.392L352.682 312.537L457.001 469.659L588.566 382.571L509.021 209.392Z" fill="#D6D7D8"/>
<path d="M244.834 355.602L352.684 312.537L457.003 469.659L346.127 529.024L244.834 355.602Z" fill="#D6D7D8"/>
<path d="M255.66 364.946L352.679 312.537L456.997 469.659L361.412 523.952L255.66 364.946Z" fill="url(#paint5_linear)"/>
<path d="M377.841 304.999L368.275 313.6C345.015 287.783 336.228 252.663 345.887 224.126C347.587 219.103 350.416 215.78 354.296 214.25C360.93 211.633 367.759 215.28 373.786 218.502C376.817 220.121 380.252 221.956 382.209 222.109C383.77 222.232 385.538 222.371 386.487 222.036C388.722 221.255 389.661 216.03 388.739 209.626C385.341 185.98 378.606 162.957 368.72 141.193L380.445 135.891C390.835 158.765 397.914 182.964 401.487 207.818C403.447 221.473 399.55 231.077 390.79 234.17C387.27 235.411 383.775 235.138 381.222 234.938C376.573 234.574 372.076 232.17 367.725 229.846C365.241 228.518 360.671 226.076 359.091 226.221C358.904 226.432 358.5 227.042 358.086 228.266C350.022 252.096 357.96 282.933 377.841 304.999Z" fill="#23286B"/>
<path d="M368.903 302.022L367.904 302.832C366.957 301.667 366.025 300.454 365.136 299.227L366.178 298.474C367.054 299.683 367.972 300.878 368.903 302.022Z" fill="#E94A47"/>
<path d="M360.957 290.313L359.834 290.942C358.242 288.105 356.79 285.133 355.514 282.106L356.702 281.609C357.958 284.589 359.389 287.519 360.957 290.313ZM353.432 272.486L352.198 272.852C351.267 269.725 350.496 266.509 349.905 263.295L351.172 263.066C351.754 266.233 352.515 269.404 353.432 272.486ZM349.939 253.455L348.656 253.547C348.415 250.279 348.353 246.974 348.472 243.724L349.758 243.772C349.642 246.975 349.704 250.232 349.939 253.455ZM350.65 234.132L349.375 233.939C349.862 230.688 350.541 227.453 351.394 224.322L352.637 224.662C351.8 227.745 351.13 230.931 350.65 234.132Z" fill="#E94A47"/>
<path d="M359.921 214.926C358.724 214.636 357.558 215.045 356.458 216.143L355.546 215.232C356.965 213.815 358.582 213.278 360.223 213.675L359.921 214.926Z" fill="#E94A47"/>
<path d="M473.375 220.838L352.682 312.537L457.001 469.659L578.825 380.043L473.375 220.838Z" fill="#EEEEEE"/>
<path d="M393.322 223.869L392.177 223.279C392.832 222.007 393.371 220.64 393.776 219.213L395.014 219.568C394.586 221.075 394.016 222.523 393.322 223.869Z" fill="#E94A47"/>
<path d="M396.123 210.392L394.836 210.406C394.803 207.768 394.528 204.926 393.97 201.459L395.242 201.258C395.808 204.787 396.089 207.689 396.123 210.392ZM393.561 192.298L392.3 192.549C391.654 189.34 391.036 186.436 390.408 183.672L391.664 183.389C392.294 186.163 392.914 189.078 393.561 192.298ZM389.503 174.532L388.258 174.858C387.459 171.826 386.617 168.894 385.757 166.147L386.985 165.764C387.852 168.531 388.7 171.481 389.503 174.532ZM384.017 157.129L382.813 157.581C381.721 154.69 380.554 151.879 379.338 149.227L380.509 148.694C381.735 151.371 382.916 154.211 384.017 157.129Z" fill="#E94A47"/>
<path d="M376.37 140.528L375.246 141.154C374.511 139.843 373.748 138.545 372.974 137.294L374.07 136.619C374.853 137.884 375.628 139.198 376.37 140.528Z" fill="#E94A47"/>
<path d="M292.942 368.55L288.359 376.306L296.129 380.897L300.712 373.14L292.942 368.55Z" fill="white"/>
<path d="M527.446 319.677L522.863 327.434L530.633 332.024L535.215 324.268L527.446 319.677Z" fill="white"/>
<path d="M350.192 369.751L345.609 377.508L353.379 382.098L357.962 374.342L350.192 369.751Z" fill="white"/>
<path d="M457.016 331.92L452.434 339.677L460.203 344.267L464.786 336.511L457.016 331.92Z" fill="white"/>
<path d="M367.829 367.554L363.246 375.311L371.016 379.901L375.598 372.145L367.829 367.554Z" fill="white"/>
<path d="M327.676 413.076L323.094 420.833L330.863 425.423L335.446 417.667L327.676 413.076Z" fill="white"/>
<path d="M447.559 260.782L442.977 268.539L450.746 273.129L455.329 265.373L447.559 260.782Z" fill="white"/>
</g>
<defs>
<linearGradient id="paint0_linear" x1="568.57" y1="1142.19" x2="1150.04" y2="1142.19" gradientUnits="userSpaceOnUse">
<stop stop-color="#428DFC"/>
<stop offset="1" stop-color="#1D72D8"/>
</linearGradient>
<linearGradient id="paint1_linear" x1="968.497" y1="1111.07" x2="1108.42" y2="1431.35" gradientUnits="userSpaceOnUse">
<stop stop-color="#428DFC"/>
<stop offset="1" stop-color="#1D72D8"/>
</linearGradient>
<linearGradient id="paint2_linear" x1="417.238" y1="460.49" x2="569.822" y2="202.223" gradientUnits="userSpaceOnUse">
<stop stop-color="#E94A47"/>
<stop offset="1" stop-color="#D62929"/>
</linearGradient>
<linearGradient id="paint3_linear" x1="257.892" y1="482.86" x2="385.496" y2="400.457" gradientUnits="userSpaceOnUse">
<stop stop-color="#E94A47"/>
<stop offset="1" stop-color="#D62929"/>
</linearGradient>
<linearGradient id="paint4_linear" x1="394.491" y1="401.537" x2="431.39" y2="381.403" gradientUnits="userSpaceOnUse">
<stop stop-color="#E94A47"/>
<stop offset="1" stop-color="#D62929"/>
</linearGradient>
<linearGradient id="paint5_linear" x1="305.503" y1="469.218" x2="406.913" y2="365.633" gradientUnits="userSpaceOnUse">
<stop stop-color="#EEEEEE"/>
<stop offset="1" stop-color="#D6D7D8"/>
</linearGradient>
<clipPath id="clip0">
<rect width="421.436" height="376.483" fill="white" transform="translate(156.746 447.67) rotate(-59.4254)"/>
</clipPath>
</defs>
</svg>
