<svg fill="none" height="160" viewBox="0 0 176 160" width="176" xmlns="http://www.w3.org/2000/svg" xmlns:xlink="http://www.w3.org/1999/xlink"><linearGradient id="a"><stop offset="0" stop-color="#eee"/><stop offset="1" stop-color="#dce3ea"/></linearGradient><linearGradient id="b" gradientUnits="userSpaceOnUse" x1="79.1492" x2="76.0608" xlink:href="#a" y1="114.223" y2="83.6676"/><linearGradient id="c" gradientUnits="userSpaceOnUse" x1="55.1778" x2="56.8129" xlink:href="#a" y1="120.482" y2="96.1103"/><linearGradient id="d" gradientUnits="userSpaceOnUse" x1="46.1758" x2="48.0653" xlink:href="#a" y1="112.561" y2="89.9789"/><linearGradient id="e" gradientUnits="userSpaceOnUse" x1="63.5299" x2="54.4446" xlink:href="#a" y1="62.2207" y2="-14.0006"/><linearGradient id="f"><stop offset="0" stop-color="#28306d"/><stop offset=".51" stop-color="#1f275f"/><stop offset="1" stop-color="#171f51"/></linearGradient><linearGradient id="g" gradientUnits="userSpaceOnUse" x1="79.9415" x2="53.4875" xlink:href="#f" y1="68.5224" y2="68.5224"/><linearGradient id="h" gradientUnits="userSpaceOnUse" x1="58.3751" x2="59.6278" xlink:href="#f" y1="17.3724" y2="22.9117"/><linearGradient id="i"><stop offset="0" stop-color="#ffbeb6"/><stop offset="1" stop-color="#f2a19c"/></linearGradient><linearGradient id="j" gradientUnits="userSpaceOnUse" x1="113.682" x2="111.629" xlink:href="#i" y1="82.5998" y2="81.7663"/><linearGradient id="k"><stop offset="0" stop-color="#428dfc"/><stop offset="1" stop-color="#1d72d8"/></linearGradient><linearGradient id="l" gradientUnits="userSpaceOnUse" x1="124.273" x2="104.713" xlink:href="#k" y1="143.829" y2="146.962"/><linearGradient id="m" gradientUnits="userSpaceOnUse" x1="113.549" x2="120.757" xlink:href="#i" y1="47.3482" y2="44.6901"/><linearGradient id="n" gradientUnits="userSpaceOnUse" x1="108.421" x2="88.8614" xlink:href="#k" y1="143.829" y2="146.962"/><linearGradient id="o" gradientUnits="userSpaceOnUse" x1="110.683" x2="93.6327" y1="110.663" y2="110.663"><stop offset="0" stop-color="#23286b"/><stop offset="1" stop-color="#151a4f"/></linearGradient><linearGradient id="p"><stop offset="0" stop-color="#a1c3fc"/><stop offset="1" stop-color="#81aef2"/></linearGradient><linearGradient id="q" gradientUnits="userSpaceOnUse" x1="114.769" x2="105.677" xlink:href="#p" y1="54.8489" y2="72.4202"/><linearGradient id="r" gradientUnits="userSpaceOnUse" x1="129.996" x2="125.457" xlink:href="#k" y1="74.4529" y2="74.4529"/><linearGradient id="s"><stop offset="0" stop-color="#eee"/><stop offset="1" stop-color="#d6d7d8"/></linearGradient><linearGradient id="t" gradientUnits="userSpaceOnUse" x1="69.1404" x2="65.1722" xlink:href="#s" y1="34.7989" y2="34.7989"/><linearGradient id="u" gradientUnits="userSpaceOnUse" x1="106.391" x2="88.6187" xlink:href="#s" y1="86.3394" y2="86.3394"/><linearGradient id="v" gradientUnits="userSpaceOnUse" x1="109.031" x2="98.7329" xlink:href="#p" y1="47.5895" y2="52.2981"/><linearGradient id="w" gradientUnits="userSpaceOnUse" x1="97.8672" x2="87.4181" xlink:href="#k" y1="57.4648" y2="57.4648"/><clipPath id="x"><path d="m0 0h160v160h-160z" transform="matrix(-1 0 0 1 160 0)"/></clipPath><g clip-path="url(#x)"><path d="m60.2136 85.6534c-19.1753 0-34.72-15.5447-34.72-34.72s15.5447-34.72 34.72-34.72 34.72 15.5447 34.72 34.72-15.5447 34.72-34.72 34.72z" fill="#b7d3ff"/><g fill="#fbb03b"><path d="m75.4897 18.3916c-.0423.0614-.1272.076-.1883.0337-.0614-.0423-.0759-.127-.0334-.1883.0424-.0615.1271-.076.1882-.0338.0613.0422.0768.1266.0335.1884zm-11.7964 7.3159c.0138.0754-.0363.1476-.1114.1611-.0683.0148-.1358-.0288-.1503-.097-.0015-.0053-.0025-.0117-.0023-.0177-.0148-.0722.0309-.142.1029-.1579.0746-.0124.1472.0363.1611.1115zm5.7365-4.0893c.0356.0669.0157.1501-.0463.1938-.0655.041-.1528.0204-.1938-.0461-.0409-.0654-.0202-.1527.0463-.1938.0673-.0348.15-.0157.1938.0461zm14.1305 11.239c.0817.1175.0547.2789-.0616.3635-.109.0852-.2659.0664-.351-.0417-.003-.0039-.0059-.0072-.008-.0111-.0817-.1175-.0546-.279.0616-.3635.1132-.0844.2745-.0612.359.0528zm-3.6799-5.0781c.0821.1187.052.2806-.0669.3621-.1162.0806-.2756.054-.3584-.0605-.0846-.1138-.0609-.2744.0531-.3593.1213-.0802.283-.0549.3722.0577zm-3.691-5.0827c.0838.1141.0597.2735-.0545.3575-.0024.0016-.0049.0031-.0071.0049-.109.0852-.2659.0664-.351-.0417-.003-.0039-.0059-.0072-.008-.0112-.0805-.1198-.0552-.2817.058-.3721.1169-.0805.2785-.0533.3626.0626zm14.2568-1.368c-.0784.1189-.2378.1522-.357.0732-.119-.0779-.1517-.2378-.0728-.357.0769-.1165.2326-.1506.351-.0773.1191.0792.154.2391.0788.3611zm-5.3517-3.283c-.0784.1189-.2378.1522-.3571.0731-.1189-.0778-.1516-.2377-.0727-.3569.0769-.1165.2325-.1506.351-.0773.1189.0783.1542.2392.0788.3611zm-13.9564 17.3736c.0302.1402-.0567.2792-.1973.3114-.1361.0341-.273-.0493-.3072-.1853-.0003-.0008-.0004-.0016-.0006-.0026-.0402-.1315.034-.2703.1654-.3111.0062-.0018.0123-.0037.0196-.0058.1411-.0275.2798.0553.3201.1934zm-1.4628-6.1097c.0285.1405-.0554.2797-.1928.3198-.1402.0304-.2789-.0574-.3111-.197-.0328-.1385.0531-.2779.1914-.3107.0016-.0004.0038-.0009.0046-.0013.1361-.0341.273.0493.3067.1844.0005.0029.0009.0041.0012.0048zm-1.4594-6.1006c.0352.133-.0431.2693-.1759.3043-.0038.001-.008.0023-.0118.0025-.1369.0382-.2788-.0428-.317-.1797-.0013-.0046-.0024-.0081-.0036-.0123-.0323-.1404.0554-.2806.1949-.3128.1404-.0325.2804.0551.3125.1945.0005.0019.0005.0027.0009.0035zm25.3148-7.2146c-.0564.1136-.1937.1615-.3085.1076-.1141-.0552-.1626-.1931-.1073-.3084.055-.1153.1933-.1628.3086-.1076.1136.0564.1615.1934.1072.3084zm-17.687 15.4408c.0376.1247-.0284.2564-.1508.3013-.1168.041-.2442-.0202-.2853-.1365-.001-.0039-.0018-.0062-.0028-.0099-.0439-.1198.018-.2525.1378-.2954.0016-.0004.0027-.0007.0046-.0013.1195-.0376.2493.0238.2965.1418zm-1.8203-5.2891c.0392.1202-.0266.2491-.1457.2889-.1167.041-.2442-.0201-.2853-.1365-.0009-.0038-.0017-.0062-.0027-.0098-.0439-.1198.0179-.2525.1374-.2965.0016-.0004.0027-.0007.0046-.0013.1226-.0346.2521.0333.2917.1552zm-1.8186-5.3098c.0439.1198-.0179.2525-.1374.2964-.0016.0005-.0027.0008-.0046.0014-.1123.0437-.2386-.0128-.2822-.125-.003-.0069-.0049-.0141-.0068-.0213-.0439-.1198.0179-.2524.1374-.2964.0016-.0004.0027-.0007.0046-.0013.1196-.0352.2473.0287.289.1462zm12.4915 2.0653c.0813.0984.0696.244-.0274.3273-.0949.0842-.2392.0762-.3232-.0184-.0828-.0972-.0769-.2425.0145-.3318.0994-.085.2483-.0745.3361.0229zm-3.715-4.1976c.0841.0889.081.2298-.0079.3142-.0032.0028-.0069.0059-.0097.0095-.095.0842-.2392.0762-.3233-.0185-.0828-.0972-.0768-.2425.0145-.3317.0974-.0819.2427-.0705.3264.0265zm-16.469 11.5101c-.0051.1213-.1068.2151-.2278.2111-.0049-.0005-.0098.0001-.0138-.0008-.1267-.0043-.2268-.111-.2226-.2385.0001-.0028 0-.0059.0005-.0079.0133-.1265.1235-.2208.251-.2138.1255.0064.221.1143.2143.2398-.0006.003-.0018.0063-.0016.0101zm.3516-5.5988c-.0089.128-.1179.227-.2469.2221-.129-.0113-.2253-.1249-.2134-.2538.0102-.1228.115-.2165.2385-.2139.1256.0027.2259.1073.2229.2327.0001.0036-.0001.0087-.0011.0129zm31.9093-3.6331c.092.1156.078.2829-.0333.3815-.1115.0965-.2797.086-.3768-.0244-.0939-.1151-.0792-.2844.0332-.3814.1114-.0966.2798-.0861.3769.0243zm-4.237-4.8895c.0973.1113.0858.2797-.0247.3769s-.2798.0861-.3769-.0243c-.0973-.1113-.0857-.2797.0248-.3769.1111-.0975.2798-.086.3768.0243zm-21.5632 13.6847c-.0155.1493-.1442.2605-.2942.2531-.1484-.0154-.2561-.1491-.2396-.2975.0153-.1434.1407-.2488.284-.2406.1461.0131.2564.1383.2498.285zm.4691-6.4543c-.0136.146-.1386.2561-.2853.2499-.1477-.0098-.2594-.1373-.2494-.2852.01-.1478.1376-.2595.2853-.2499.1461.0122.2568.139.2494.2852zm12.778 1.5918c.0394.1412-.0364.2895-.1731.3422-.1409.0413-.2888-.0372-.3335-.1769-.0487-.1366.0223-.2875.16-.3364.0016-.0005.0038-.001.0053-.0015.1416-.0475.2939.0296.3413.1726 0 0-.0001-.0009 0 0zm-2.0395-6.1466c.0465.1422-.0309.2947-.172.3418 0 0 0 0-.0008.0004-.1369.0451-.2851-.0304-.3289-.1676-.0465-.1392.0283-.2901.1669-.3366.1366-.0481.286.0252.3348.162zm6.469 5.8345c.0479.1379-.0258.2895-.1646.3378-.1389.0485-.2894-.0254-.3377-.1641-.0461-.1348.0219-.2825.1548-.3341.1413-.0511.296.0205.3475.1604zm-2.2813-6.0283c.0506.14-.0213.2949-.161.3464-.1362.0478-.2869-.0194-.3429-.1518-.0489-.1415.0198-.2964.1566-.3551.1408-.0478.2927.0238.3473.1605zm-11.1627 5.0193c-.0082.1481-.1336.2633-.282.2583-.1455-.0056-.2597-.1276-.2538-.273-.0014-.1436.1138-.2616.2575-.263.0039-.0001.0076-.0003.0119.0006.1477 0 .2673.1205.266.2687.0007.0025.0005.0053.0004.0084z"/><path d="m78.9546 26.9035c.0126.0129.029.0225.048.0264.0509.0107.101-.0219.1117-.073.0116-.0546 1.1332-5.5062-.781-8.9101-.0255-.0452-.083-.0616-.1282-.0359-.0454.0257-.0617.083-.0361.1282 1.88 3.3426.7724 8.7248.7611 8.7787-.007.0325.0033.0639.0245.0857z"/><path d="m75.1515 27.0522c.0187.0193.0456.0303.0744.0283.0519-.0037.0909-.0488.0872-.1009-.006-.0843-.6592-8.5101-5.6153-14.3313-.0355-.0382-.0934-.0445-.1329-.0106-.0398.0337-.0445.0933-.0108.1329 4.9154 5.7731 5.5649 14.1388 5.571 14.2227.0018.0232.0115.0436.0264.0589z"/><path d="m89.339 41.6448c.0294.0302.0766.0379.1149.0155 1.6132-.9379 4.3099-.3366 4.337-.3304.0508.0116.1013-.0201.113-.0709.0118-.0506-.0199-.1011-.0709-.1127-.1133-.026-2.7958-.6242-4.474.3515-.045.0262-.0603.0838-.0342.1289.004.0065.0089.0126.0142.0181z"/></g><path d="m77.0683 16.4698-.4628-2.2657 2.2663-.4654.4629 2.2657z" fill="#23286b"/><path d="m96.4005 44.0803-2.0411-1.0866 1.089-2.0423 2.0411 1.0866z" fill="#23286b"/><path d="m66.1424 11.8157-.619-3.03006 3.0309-.62241.619 3.03007z" fill="#e94a47"/><path d="m54.8789 107.413c-14.6982 0-26.6134-11.9149-26.6134-26.613 0-14.6982 11.9152-26.6134 26.6134-26.6134 14.6981 0 26.6133 11.9152 26.6133 26.6134 0 14.6981-11.9152 26.613-26.6133 26.613z" fill="#b7d3ff"/><path d="m41.8434 24.6604c.0133-.0575.0713-.093.1287-.0795.0575.0135.0927.0717.0793.1294-.0133.0576-.0713.0931-.1287.0796-.0575-.0135-.0933-.0714-.0793-.1295zm6.5486-8.8167c-.0319-.0515-.0161-.1196.0352-.1513.046-.0307.1081-.0181.1385.028.0027.0036.0052.008.0068.0125.0318.0489.0185.1139-.0299.1463-.051.0308-.1187.0159-.1506-.0355zm-3.0304 4.6798c-.0455-.0391-.0552-.1062-.0221-.1564.0362-.0491.1061-.0594.1557-.022.049.0364.0593.1067.0222.1564-.0394.0452-.1056.055-.1558.022zm-13.6467-4.2067c-.0942-.063-.121-.1902-.0601-.2862.0554-.0945.1761-.126.2701-.0709.0034.002.0064.0036.0092.0059.0942.063.121.1902.0602.2862-.0589.0952-.1842.1245-.2794.065zm4.178 2.6837c-.0946-.0638-.1196-.1921-.056-.2868.062-.0932.187-.1196.281-.0591.0953.0595.1243.1848.0651.2806-.0658.0946-.192.1227-.2901.0653zm4.1875 2.684c-.0948-.0599-.1233-.1847-.0636-.2796.0012-.0019.0025-.0039.0038-.0058.0554-.0945.1761-.126.2701-.0709.0034.002.0064.0036.0092.0059.0941.0652.1225.1919.0653.2915-.0627.0935-.1894.1202-.2848.0589zm-10.0826 5.1378c.0229-.1104.1307-.1812.2412-.1573.11.0231.1806.1315.1569.2424-.0226.1083-.1272.1785-.2355.1587-.1104-.0239-.1825-.132-.1626-.2438zm4.886.8743c.0229-.1104.1307-.1812.2411-.1573.1101.0231.1806.1315.157.2424-.0226.1083-.1272.1785-.2355.1587-.1101-.0233-.1825-.132-.1626-.2438zm5.2188-16.8678c-.0629-.0948-.0393-.2225.0546-.287.0902-.0646.2151-.0426.2795.048.0005.0005.0009.0011.0013.0016.0677.0855.0535.2095-.0312.2777-.0041.0031-.0082.0062-.0129.0099-.0956.0611-.2215.04-.2913-.0502zm2.8476 4.0875c-.0617-.0955-.0404-.2224.0488-.2921.0942-.063.2216-.0385.2858.0553.0643.0928.0417.2206-.0506.2849-.0011.0008-.0025.0019-.003.0022-.0902.0646-.2151.0427-.279-.0474-.0011-.0018-.0015-.0024-.002-.0029zm2.8423 4.0814c-.0643-.088-.0466-.2113.041-.2756.0025-.002.0052-.004.0079-.0053.0897-.0679.2173-.0491.2852.041.0023.003.0041.0052.0062.0081.0645.0944.0406.2232-.0524.2873-.0938.0647-.2222.0406-.2861-.0529-.0008-.0013-.0015-.002-.0018-.0026zm-16.5145 12.656c.0083-.1002.0954-.1753.1955-.1687.1.0076.1753.0955.1683.1966-.007.101-.0949.1759-.1956.1688-.0998-.0088-.1747-.0961-.1682-.1967zm8.5216-16.5209c-.0636-.0812-.0533-.1975.0235-.266.0738-.0642.1853-.056.2494.0181.0019.0025.0031.0041.0049.0065.0671.0757.0601.1915-.0156.258-.0011.0008-.0017.0012-.0031.0022-.0771.0623-.1902.0546-.2591-.0188zm2.8722 3.3779c-.0637-.0774-.0528-.1916.0232-.2555.0738-.0642.1853-.056.2494.0181.0019.0025.0031.0041.0049.0065.0671.0757.0601.1915-.0151.2585-.0011.0009-.0016.0013-.003.0023-.08.0614-.195.0485-.2594-.0299zm2.8768 3.3938c-.067-.0757-.06-.1915.0152-.2586.001-.0008.0016-.0012.003-.0022.0698-.0648.179-.0596.2437.0105.0041.0043.0078.009.0113.0136.067.0757.06.1915-.0152.2585-.001.0009-.0016.0013-.003.0023-.0777.0608-.1899.0505-.255-.0241zm-9.7806 2.0916c-.0883-.0491-.1218-.1598-.0749-.2496.0454-.0896.1537-.1255.243-.08.0891.0477.1269.1569.0854.2491-.0484.0918-.1606.127-.2535.0805zm3.9482 2.0239c-.0876-.0414-.1262-.1462-.0853-.2344.0015-.003.0033-.0064.0044-.0099.0454-.0896.1537-.1254.243-.0799.0891.0476.1269.1568.0854.249-.0476.0887-.1578.1223-.2475.0752zm8.7666-13.2663c-.0314-.0909.0162-.1896.1062-.2217.0038-.0011.0071-.0028.0104-.0033.0945-.0336.1988.0163.2329.1115.0007.0021.0016.0043.0019.0059.0268.0972-.0267.1988-.1225.2307-.0942.0314-.1958-.0205-.2273-.1151-.0003-.0027-.0005-.0055-.0016-.008zm1.3657 4.2353c-.0306-.0972.0207-.2019.1169-.2355.0979-.029.2016.0271.2305.1257.028.0936-.0218.1931-.1133.2271-.0931.0343-.1971-.0138-.2314-.1073-.0011-.0028-.0022-.0066-.0027-.01zm-22.4008 11.921c-.1011-.059-.1394-.1864-.0863-.2913.054-.1036.1809-.1446.2843-.0912.1023.0579.1407.1871.0862.2913-.0539.1035-.1808.1444-.2842.0912zm4.5327 2.3833c-.1039-.0539-.1441-.1818-.0911-.2856s.1809-.1445.2843-.0911c.1039.0538.1441.1818.0911.2856-.0536.104-.181.1444-.2843.0911zm11.8801-16.3469c-.032-.1146.0303-.2341.1427-.2721.1136-.0316.2314.0359.2624.1505.0305.1103-.0313.2246-.1389.26-.1111.0323-.2282-.0281-.2662-.1384zm1.5276 4.9014c-.0325-.1117.0276-.2293.1373-.267.1115-.0355.2306.0264.266.1382.0355.112-.0259.2316-.1373.267-.1109.0334-.2291-.0283-.266-.1382zm-9.8541 2.5242c-.0699-.0927-.0572-.2243.0278-.3026.0917-.0713.2231-.0563.2965.034.0755.0868.067.2187-.02.2947-.0011.0008-.0025.0019-.0036.0026-.0901.0758-.2243.063-.3007-.0287 0 0 .0004.0006 0 0zm3.2821 3.9477c-.0754-.0916-.0628-.2267.0273-.3023 0 0 0 0 .0005-.0004.0875-.0728.2184-.0601.2905.0284.0744.0892.0634.2223-.0251.2968-.0866.0753-.2177.0642-.2932-.0225zm-6.4474-2.435c-.0752-.0879-.0651-.2212.0228-.2969.088-.076.2202-.0651.2959.0232.0729.086.066.2149-.0168.2916-.089.0786-.2236.0705-.3019-.0179zm3.4255 3.7904c-.0779-.0887-.0699-.2239.018-.3024.0861-.0748.2164-.0687.2961.0128.077.0903.0715.2245-.0123.3074-.0896.0762-.222.0675-.3018-.0178zm6.7491-6.9376c-.037-.1118.0217-.2332.1323-.2724.1087-.0381.2279.0189.2659.1281.0425.1057-.0079.2261-.1129.2689-.0028.0013-.0055.0024-.0088.0029-.1086.0428-.2314-.0115-.2736-.1212-.0014-.0019-.0023-.004-.0029-.0063z" fill="#428dfc"/><path d="m27.2775 14.3039-1.6669-.7539-.7484 1.6731 1.6668.7538z" fill="#428dfc"/><path d="m60.9957 12.0337-1.6397.808.8067 1.6479 1.6397-.808z" fill="#a1c3fc"/><path d="m52.7989 17.7659-2.2292-1.0082-1.0008 2.2376 2.2291 1.0082z" fill="#e94a47"/><path d="m58.2206 24.643c.0237-.0035.0454-.0185.0565-.0419 1.5798-3.3445 4.8149-5.8306 8.4431-6.4883.0405-.0072.0673-.0462.0598-.0869-.0074-.0407-.0501-.0661-.0866-.0602-3.6746.6659-6.951 3.184-8.5511 6.5712-.0176.0373-.0017.0819.0354.0998.0141.0065.0289.0084.0429.0063z" fill="#428dfc"/><path d="m59.4666 31.7114c.0146-.0021.0287-.0086.0401-.0195 2.0369-1.931 5.1884-2.6179 7.8421-1.7094.0394.0134.0814-.0075.0945-.0466.0132-.039-.0077-.0816-.0465-.0949-2.7046-.9263-5.9164-.2258-7.9923 1.7418-.0301.0283-.0313.0757-.003.1057.0173.0188.0418.0264.0651.0229z" fill="#428dfc"/><path d="m40.5743 25.3516c.0172-.0025.0335-.011.0457-.0252.0266-.0312.0232-.0786-.0081-.1055-2.6382-2.2769-6.2566-3.2801-9.6814-2.6781-.0403.007-.0717.0162-.0647.057.0071.0399.04.0373.0799.0314.0006-.0001.0013-.0002.0022-.0004 3.3926-.5013 6.9578.4257 9.5627 2.6736.0171.015.0433.0502.0637.0472z" fill="#428dfc"/><path d="m73.8626 69.9459 6.0961 67.3341h1.0218l-4.7904-67.3341z" fill="url(#b)"/><path d="m52.7533 137.28h1.0217l6.0961-67.3341h-2.3274z" fill="url(#c)"/><path d="m43.7939 137.28h1.0194l6.1437-67.8114-2.3358.0138z" fill="url(#d)"/><path d="m48.5249 69.4812h35.3149l-9.0583-45.938h-35.315z" fill="url(#e)"/><path d="m54.1746 69.9454h25.7668l-.6871-2.8459h-25.7668z" fill="url(#g)"/><path d="m58.1515 23.4789h3.1493l-1.1454-5.3456h-3.1495z" fill="url(#h)"/><path d="m115.58 75.9503c-.591-.2105-2.155 1.0412-2.795 1.2967-.934.3728-2.121.7253-2.723 1.553-.779 1.0717-.269 2.0763.155 3.1913.39 1.024.35 1.4213.708 2.4493.217.6224.666 1.2414 1.346 1.2462.482.0035 3.467.1617 3.887.0217.741-.2467 1.531-1.9085 2-2.5772.927-1.3207-.723-1.3488-1.602-.8408-.567.3278-1.07 1.0392-1.651 1.2378-.569.1943-.881.0238-1.483-.0068-.149-.5982-.306-1.4211-.238-2.043.074-.6674.871-1.0922 1.484-1.254 1.306-.3447 2.702-.468 4.031-.6482-.249-.6616-1.341-1.3621-1.807-1.9146-.509-.6045-.93-1.2972-1.473-1.8878.079.1509.094.0197.161.1764z" fill="#f2a19c"/><path d="m111.903 80.5503c.358 1.0093 1.525 1.0596 2.345 1.4637.859.4236 2.261.6382 2.457 1.484.369 1.5989-1.448.9098-2.091.6667-.882-.3339-1.681-.8719-2.604-.9892-.791-.1006-1.365-.5923-1.37-1.4043-.004-.599.568-1.135 1.263-1.2209z" fill="url(#j)"/><path d="m123.475 140.731c.51 2.063 1.635 6.222.9 6.414-1.713.061-16.324.061-19.513.048-.3-.481-.231-.9-.063-1.372.456-1.279 2.007-2.332 3.3-2.792 1.292-.46 2.113-.537 3.376-1.053 1.442-.59 2.319-1.213 3.91-1.452.643-.097 2.216-.066 2.886-.035 1.735.081 3.469.162 5.204.242z" fill="url(#l)"/><path d="m77.8704 48.2175c.1741 0 .3486-.0594.4913-.1807.3192-.2714.358-.7498.0863-1.0688l-9.6129-11.2881c-.2717-.3192-.7508-.3574-1.0698-.0862-.3193.2714-.358.7498-.0863 1.0688l9.6129 11.2881c.1502.1764.3638.2669.5785.2669z" fill="#23286b"/><path d="m80.7364 47.6278c-.533-.4185-1.6749-.7402-2.0114-1.3434-.347-.6225-.1502-1.279-.4341-1.8578-.2795-.5701-3.4039-2.9679-3.7351-2.6343-.4095.4127.1915 1.6091.4488 1.9603.5085.6943 1.3165 1.0834 1.5998 1.8532.3015.8196.0045 1.2315.6706 1.9308.7099.7453 1.8308 1.5603 2.7023 2.1107.1234.0781.2934.3151.4032.4147.1571-.535.7543-2.1213.3559-2.4342z" fill="#ffbeb6"/><path d="m75.0557 44.6112c-.5006-.3111-2.2582-1.7483-2.8757-1.6159-1.0878.2332-.2242 1.8186-.0898 2.3341.3771 1.4473-.1817 2.7175.3817 4.1271.6906 1.7281 1.7571 1.2785 3.3926 1.6185.8616.1791 2.2064.6909 2.9656 1.167.8699.5459 1.5312 1.2452 2.5046 1.674-.2433-1.5603.4913-2.9755 1.0559-4.4367-.6476-.4269-1.4966-.6288-2.2127-.9854-.464-.2309-.9646-.6515-1.4227-.7467-.0051.0917-2.1637-2.1823-3.6995-3.136z" fill="#ffbeb6"/><path d="m120.637 49.8366c-.401 1.9907-2.684 3.6175-3.268 5.5647-1.272.1152-4.934-.2007-5.395-1.4297-.271-.722.133-1.934.294-2.6055.343-1.4347 1.395-2.8557 1.649-4.2149.793.5161 2.075.5707 2.994.8416.543.1602.69.3215 1.165.5941.666.3824 1.877 1.0319 2.561 1.2497z" fill="#f2a19c"/><path d="m128.744 43.2751c-1.049-1.8233-5.296-8.3907-8.6-6.0819-2.72 1.9007-7.926 4.1944-7.465 4.8044 1.187 1.457 1.072 1.4552.234 3.0122-.671 1.2484-1.319 2.2381-.572 3.5274 1.058 1.8254 4.36 2.9493 6.32 3.3579 5.062 1.0559 9.908-2.5186 10.122-7.7496-.127-.1898.213-.951-.039-.8704z" fill="url(#m)"/><path d="m113.33 44.0997c.956.4949 2.448.9955 2.336 2.5421-.096 1.3215-1.606 2.2065-2.636 2.0622-4.205-.5886-2.004-2.7523.3-4.6043z" fill="#23286b"/><path d="m126.446 37.6198c-1.739-3.5606-9.402-2.8502-10.95.8352 2.638 2.9194 4.949 4.7466 8.3 7.9829.611-1.2467 3.022-8.6177 2.65-8.8181z" fill="#23286b"/><path d="m132.82 52.7634c.069 0 .125-.0556.126-.1249.003-.2681.015-.563.027-.8824.095-2.4686.239-6.199-2.622-10.4487-.676-1.0038-2.181-2.1743-3.184-2.2383-.069-.0033-.13.0483-.135.118-.004.0695.049.1297.118.1342.837.0534 2.291 1.0872 2.991 2.1272 2.816 4.1812 2.673 7.862 2.579 10.2977-.012.322-.023.6192-.027.8893-.001.0698.055.1269.125.1279z" fill="#23286b"/><path d="m132.604 43.9309c.005 0 .01-.0003.015-.0008.069-.0083.119-.0712.111-.1407-.152-1.2573-1.583-2.7974-2.318-3.436-1.042-.9045-2.252-1.0293-3.404-1.0293-.07 0-.127.0566-.127.1264 0 .0697.057.1263.127.1263 1.103 0 2.259.1173 3.238.9674.71.6167 2.09 2.0948 2.232 3.2755.008.0639.062.1112.126.1112z" fill="#23286b"/><path d="m107.623 140.731c.511 2.063 1.636 6.222.9 6.414-1.712.061-16.3234.061-19.5121.048-.3003-.481-.2312-.9-.0635-1.372.4558-1.279 2.0073-2.332 3.2997-2.792 1.2925-.46 2.1134-.537 3.3762-1.053 1.4424-.59 2.3195-1.213 3.9102-1.452.6435-.097 2.2155-.066 2.8855-.035 1.735.081 3.47.162 5.204.242z" fill="url(#n)"/><path d="m90.9897 88.6178h10.2603v26.5072h-10.2603z" fill="#428dfc"/><path d="m106.278 93.1119c.589-.2164 6.229 19.4591 7.479 22.0991 1.516 3.202 4.32 4.896 4.913 8.603.552 3.446 2.116 5.595 3.573 8.708 1.249 2.669.601 5.557 1.398 8.319-2.918 1.002-7.569.3-10.791.137.141-2.703-1.967-6.251-3.167-8.633-1.605-3.186-3.738-6.06-5.695-9.047-1.07-1.632-2.754-3.228-3.552-4.914-.8932-1.888-.8836-4.662-1.048-6.72-.2188-2.74.1151-5.48-.0486-8.253-.1437-2.435-.6688-4.9213-1.0124-7.3388-.3002-2.113-1.817-6.0801.2654-7.1709 2.0486-1.073 6.0526-.6538 8.3266-.5342-.401 1.5648-.68 3.0002-.668 4.6209-.222.0468.023.4415.027.1239z" fill="#151a4f"/><path d="m94.9551 79.504c-1.8492 2.3246-1.3486 7.6354-.9238 10.4656.6921 4.6116 1.2059 9.4188 1.6405 14.0994.5284 5.69.6984 11.577.6984 17.315 0 5.161.5649 10.307.5394 15.384-.0068 1.378-.0228 3.764-.3398 5.069 1.9613-.026 9.5092-.078 11.4502.025.805-3.319 1.169-6.069.154-9.34-.994-3.205-1.282-5.326-.477-8.66.93-3.852-.431-5.747-1.774-9.181-.605-1.546-.149-2.521.004-4.069.196-1.981-.11-4.024-.004-6.013.161-3.013.784-9.713 1.965-11.2293 1.119-1.4385 2.641-3.0872 2.782-6.2338.043-.9619.014-4.9492-.59-5.8125-.834-1.1926-4.381 1.1165-5.621 1.0169-2.783-.2234-6.7169-3.6106-9.3612-2.7028-.2057.0968-.2133-.2947-.1427-.1335z" fill="url(#o)"/><path d="m117.501 56.5573c1.127-.4557 5.895 9.7428 6.932 11.0873 1.331 1.7263 4.763 5.6015 5.273 7.6407.272 1.0879-1.797 2.1759-3.642 2.9588-1.49.632-3.455.912-4.928 1.6154-.958.4571-4.603 1.5638-4.603 1.5638s-2.19-4.2945-2.489-5.0696c1.095-.7144 2.265-.9638 3.696-1.8509 1.552-.9618 1.578-1.2365 3.317-.8761-.632-.8439-1.427-.5608-2.078-1.064-.661-.5105-1.216-1.6126-1.765-2.2707-1.161-1.3924-2.654-2.3432-3.887-3.7119-3.609-4.0041.088-7.6139 2.234-9.3488-.159-.3076 1.012-.4213 1.94-.674z" fill="#89b3f4"/><path d="m121.118 51.9521c-2.326-.3717-6.091-1.1031-10.079-2.02-.212-.049-.417.1105-.421.3286-.018.8832-.032 1.3742-.094 2.1233-.036.4428-.672.6818-1.245.9143-1.804.7327-3.45 1.3976-4.909 2.9811-2.667 2.8936-4.593 4.504-6.0122 8.203-1.1751 3.0629-1.7579 6.2651-2.6886 9.3665-.5173 1.7243-.9377 3.4319-1.3756 5.1651-.2631 1.0412-1.3026 3.6017-.973 4.5681.0124.0359-.1072.9727-.1105.9879 5.9094.2077 12.1499.3763 17.4849.3952.003-1.4723.019-4.7182-.023-5.4946-.07-1.3022.676-1.8746.401-2.9133.595-.1494 1.665.0035 1.738-.601.04-.3353.057-.5805-.26-.8158 2.314-2.2613 3.61-6.7718 5.177-9.6033.829-1.4961 1.358-3.0164 1.464-4.7569.103-1.6783-.192-3.8277-.762-5.1494.674-.8428 2.903-3.9227 2.688-3.6788z" fill="url(#q)"/><path d="m79.8398 47.7654c-.6129 1.3593-1.0309 2.9042-1.4928 4.3467-.3109.0584-.382-.1594-.2135-.6533" stroke="#000" stroke-miterlimit="10" stroke-width="2.37042"/><path d="m98.8984 58.8458c-.7763-1.517-1.6711-3.5367-3.1882-4.3745-1.73 1.164-5.8636.7812-6.7657 2.1016" stroke="#000" stroke-miterlimit="10" stroke-width="2.37042"/><path d="m104.452 56.4718.141-.0791c.743-.4175 1.453-.9778 2.14-1.5193 1.417-1.1183 2.883-2.2735 4.694-2.2108 1.484.0525 6.256 2.5158 7.05 3.3601.095.1019.255.1067.357.0111.102-.0955.107-.2555.011-.3573-.853-.908-5.791-3.4622-7.4-3.5194-1.999-.0695-3.537 1.1444-5.026 2.3192-.53.4185-1.038.8193-1.56 1.162-.072-.068-.181-.0894-.277-.0462-.191.0857-.413.2128-.436.4377-.008.0771.004.2244.175.3475z" fill="#d6d7d8"/><path d="m126.057 37.043c1.052.6505 1.853 2.4024 1.853 2.4024s1.2.8344 1.503 1.051c1.616 1.1544 2.064 3.9164 2.541 5.8176.361 1.4364.506 3.9507.024 5.4433-.552 1.7132-.865 1.6244-2.525 1.7291-1.989.1253-6.882-.0086-9.277-.0865-.757-.0245-1.354-.6489-1.345-1.4061.022-1.8365.05-5.0912-.002-6.9214-.068-2.4185-.557-5.2237 1.779-6.5684.903-.5201 1.809-1.1453 2.843-1.2608.686-.0763 2.689-.2469 2.606-.2002z" fill="#23286b"/><path d="m126.985 70.7154c-1.577-.3035-.093 3.1843-.205 3.8689-.137.8342-2.261 4.0192-.83 3.584 1.761-.5355 3.273-1.2117 3.758-2.0128.833-1.3784-.334-2.157-1.054-3.2748-.465-.7212-1.116-1.3485-1.669-2.1653z" fill="url(#r)"/><path d="m104.684 77.1115h6.915c.139 0 .253-.1132.253-.2527s-.114-.2527-.253-.2527h-6.915c-.14 0-.253.1132-.253.2527s.113.2527.253.2527z" fill="#d6d7d8"/><path d="m66.1218 35.8396c-.7718-1.0015-1.5772-4.4476-.2114-2.7253.5132.6472 1.8115-.1003 2.5833.9012s.8664 2.2216.2115 2.7253c-.655.5037-1.8118.1003-2.5834-.9012z" fill="url(#t)"/><path d="m102.284 86.6898c-.022.0086-.047-.0025-.055-.0242-.008-.0218.003-.0463.024-.0549.022-.0086.046.0025.055.0243.008.022-.003.0462-.024.0548zm-.367-.9674c-.023.0078-.047-.003-.058-.0248-.007-.0225.005-.0465.027-.054.02-.0091.044-.0008.053.0194.001.0013.002.0028.002.0048.008.0217-.002.0463-.024.0546zm-3.9635.8143c-.0093.022-.0349.0321-.0569.0225-.0202-.0081-.0303-.0311-.0222-.0513.0005-.0018.0012-.0036.0025-.0051.0088-.0212.0326-.0316.0541-.0232.022.0096.0321.0351.0225.0571zm5.8715-1.4726c-.016.0156-.042.0151-.058-.0013-.016-.0167-.015-.0427.001-.0586.017-.0162.043-.0152.059.0012.016.0147.016.04.002.0559-.002.0012-.002.002-.004.0028zm-3.674 1.4089c-.002.0235-.022.0417-.045.0422-.024-.0008-.043-.0212-.042-.0458 0-.0242.021-.0432.045-.0422.024.0028.042.0225.042.0458zm.031-1.0344c-.001.0232-.022.0409-.045.0394-.023.001-.042-.0164-.043-.0392 0-.0012 0-.0022 0-.0035.002-.024.022-.0424.046-.0422.023.0023.041.022.042.0455zm7.727 1.6922c-.03.0326-.081.0354-.114.0056 0-.0005-.001-.0013-.002-.002-.032-.0296-.034-.0802-.004-.1123v-.0002c.03-.0326.08-.0354.113-.0056.001.0005.002.0013.002.0021.033.0295.035.0801.005.1122zm-1.437-1.3343c-.03.0331-.082.0353-.115.0048-.034-.0306-.036-.0822-.005-.1158 0 0 0-.0008.001-.001.03-.0321.08-.0344.112-.0048v.0002c.033.0316.036.0824.007.1166zm-4.607 6.0551c.001.0448-.034.0819-.079.0837-.043.003-.08-.0291-.083-.072 0-.0018-.001-.0031-.001-.0043 0-.0448.035-.0819.079-.0837.045-.002.082.0321.084.0763zm-.148-3.9219c.002.0444-.032.0813-.076.0834 0 0-.002 0-.003 0-.043.003-.08-.0291-.083-.0721 0-.0017-.001-.003-.001-.0043 0-.0452.035-.0829.08-.0866.045-.0003.082.0348.083.0796zm-.072-1.9596c.001.0447-.035.0824-.079.0836-.045.0015-.083-.0341-.084-.0791-.002-.0442.032-.0819.076-.0841.045-.0026.084.0313.087.0763zm4.007 4.086c-.041.0174-.088-.0021-.105-.043-.017-.041.002-.0882.043-.1054.04-.0169.087.0013.104.0412.018.0409-.001.0887-.042.1072zm-.817-1.7843c-.041.0175-.088-.002-.106-.0429-.017-.041.002-.0882.043-.1054.041-.0169.087.0013.105.0412.017.0409-.002.0884-.042.1071zm-.819-1.7816c-.042.0177-.09-.0021-.108-.044-.017-.0402 0-.0872.04-.1064.041-.02.09-.003.11.0379s.003.0902-.038.1104c-.001.0011-.003.0016-.004.0021zm-5.8171 3.8648c-.0164.0417-.0632.0627-.1052.0465-.0413-.0146-.0623-.0604-.0476-.1013 0 0 0-.0005.0003-.0008.0124-.0412.0556-.0642.0969-.052.002.0005.0038.0012.006.002.0413.0169.0625.0629.0496.1056zm1.3615-3.6803c-.0139.0404-.0579.0624-.0987.0485-.001-.0003-.0022-.0008-.0035-.0015-.0422-.0139-.0648-.0597-.0511-.1019.0005-.0015.0008-.0025.0013-.0038.0162-.0422.063-.0632.105-.0472.0419.0161.0632.0631.0473.1048 0 .0005-.0003.0008-.0003.0011zm7.8176 2.533c-.034.0197-.078.0083-.098-.0258s-.009-.0784.025-.0988c.035-.0205.079-.0086.099.0258.02.0341.009.078-.026.0988zm-.878-1.5151c-.035.0197-.079.0084-.099-.0258-.021-.0336-.011-.0783.023-.0995.033-.0213.078-.0112.099.0227.001.0013.002.0025.002.0038.021.0331.01.0766-.023.0973 0 .0005-.001.0008-.002.0015zm-.848-1.5573c-.004.0177-.015.0332-.031.042-.035.0197-.079.0083-.099-.0258-.021-.0351-.009-.0801.026-.1013v-.0003c.021-.0121.047-.0134.069-.003l.003.0005c.012.0053.022.0154.027.0283.012.0179.014.0407.005.0596zm-5.541 4.0036c-.012.039-.052.0615-.092.0521-.0371-.0096-.0594-.0478-.05-.0852.0002-.001.0005-.002.001-.003.0093-.0389.048-.0624.087-.0528 0 0 .001.0002.001.0002.038.0114.061.0503.053.0887zm.896-3.3862c-.009.039-.048.0625-.087.0531 0 0-.001-.0002-.002-.0005-.036-.0081-.059-.045-.051-.0814 0-.0022.001-.0045.002-.0065.009-.039.048-.0625.087-.0531.001.0002.001.0002.002.0005.037.0116.059.0503.049.0879zm.449-1.6896c-.011.0386-.052.0606-.091.049-.037-.0111-.059-.0501-.049-.0882.011-.0377.049-.0607.088-.0526.039.0119.062.0521.052.0918zm2.432 4.4006c.004.0397-.024.0753-.064.0803-.039.0053-.075-.0219-.08-.0611-.005-.0397.022-.0763.061-.0837.04-.0045.078.0238.083.0645zm-.234-1.737c.006.0377-.019.0738-.057.0804-.001.0002-.003.0002-.004.0008-.039.0053-.075-.022-.08-.0612-.005-.0397.022-.0763.061-.0837.039-.004.075.0243.08.0637zm-.232-1.7362c.005.0392-.023.0748-.062.0802-.038.0048-.074-.0218-.08-.0604-.005-.039.021-.0756.061-.0817.039-.0058.075.021.081.0604zm-4.9747.4661c-.0245.0315-.0698.0384-.1027.0146-.0313-.0255-.0364-.0715-.0108-.1031.0242-.0298.0675-.0361.0989-.0141.0321.0227.0399.0672.0174.0993-.0012.001-.002.0025-.0028.0033zm4.8547-.2305c-.001.0232-.022.0409-.045.0394-.023-.0013-.041-.0217-.039-.045.001-.0232.021-.0409.045-.0394.023.0013.041.0217.039.045zm.071-1.0306c-.003.0237-.024.0407-.048.0389-.023-.0013-.041-.0217-.039-.045 0-.0222.019-.0402.042-.0394.001 0 .002 0 .003.0002.024.0008.043.0205.042.0445zm1.96.2401c-.022.0058-.045-.0056-.054-.0268-.008-.0215.003-.0458.025-.0536.001-.0005.002-.0005.002-.0008.021-.008.045.0021.053.023.001.0016.001.0026.002.0038.006.0225-.006.0468-.028.0544zm-3.92-.2565c-.01.0212-.036.0298-.057.0197-.021-.0104-.029-.0354-.019-.0566.008-.0205.031-.0304.051-.0223.002.0005.004.0015.005.0025.021.0094.03.0344.02.0551zm6.696.7346c-.022.0132-.051.0061-.064-.0159 0-.0003 0-.0008 0-.0013-.015-.0222-.008-.0515.014-.0657.001-.0005.002-.0012.003-.002.022-.0131.051-.0061.064.0159 0 .0003.001.0008.001.0013.013.0235.005.0533-.018.0677zm-4.888.6816c-.005.0245-.029.0404-.053.0354-.002-.0003-.004-.001-.006-.0018-.025-.0068-.04-.0331-.034-.0586.008-.0253.033-.0412.06-.0369.026.0076.041.0351.033.0619 0-.0005 0-.0005 0 0zm.293-1.1425c-.007.0265-.035.0414-.061.0336-.026-.0069-.041-.0331-.034-.0587.008-.0252.033-.0412.059-.0369.026.0079.042.0349.036.062zm2.138.6825c-.006.0038-.013.0069-.019.0084-.026.004-.051-.0139-.055-.0402 0-.0005 0-.0008 0-.0015-.003-.026.013-.0498.039-.0551l.003.0005c.026-.004.05.0139.054.0402v.0015c.003.019-.006.0374-.022.0462zm-4.367-1.0872c-.016.0215-.046.0258-.068.0099 0-.0005-.001-.0008-.001-.001-.021-.0159-.025-.0455-.009-.0665.014-.0215.042-.0278.064-.0139.001.0008.002.001.003.0018.022.0164.027.0473.011.0697zm6.069 6.0196c.003.046-.029.0869-.075.0935-.046.0056-.088-.0263-.094-.0718-.004-.0462.029-.0877.075-.0935.046-.006.088.026.094.0718zm-.25-2.0076c.006.0457-.026.0874-.072.0937-.045.0064-.087-.0262-.093-.072-.006-.0457.026-.0874.071-.0937.046-.0059.088.0262.094.072zm-.247-2.0071c.004.0462-.029.0877-.075.0935-.046.004-.086-.0296-.09-.0753-.004-.0455.03-.0862.075-.0905.044-.0046.085.0275.09.0723zm-6.479.213c-.029.0357-.081.0425-.118.0149-.037-.0283-.043-.0806-.015-.1172.028-.0367.081-.0435.117-.0149.036.0285.043.0803.016.1172zm1.242-1.5946c-.029.0358-.081.0429-.118.0149-.036-.0299-.042-.0827-.014-.1203.03-.0359.083-.0402.119-.0106.034.0293.039.0801.013.116zm2.333 2.2808c-.012.0449-.059.0712-.104.0588-.043-.0123-.068-.0576-.056-.1008.011-.0445.057-.071.101-.0599s.071.0564.059.1008zm.538-1.9488c-.011.044-.056.0705-.1.0597 0 0-.001-.0003-.001-.0005-.045-.0112-.073-.0569-.062-.1024.011-.0452.057-.073.102-.0619s.073.0569.062.1023c0 .0013 0 .0023-.001.0028zm.582 2.6276c-.011.0452-.057.0727-.102.0619-.044-.0111-.071-.0551-.062-.0991.012-.0452.056-.0735.102-.0649.045.0123.072.0568.062.1021zm.455-1.9629c-.011.0452-.057.0728-.102.0619-.044-.0101-.073-.0546-.062-.0991.01-.0444.054-.0727.099-.0626.044.0106.073.0545.065.0998zm2.983.9522c.007.045-.024.087-.069.0943 0 0 0 .0002 0 0-.046.0083-.089-.0215-.097-.0667-.007-.046.024-.0887.069-.0973.046-.0061.088.0245.097.0697zm-.332-1.9894c.008.0453-.022.0885-.067.0968-.045.0086-.088-.0217-.097-.0667 0-.0005 0-.0013 0-.0023-.006-.0455.024-.0884.07-.0973.044-.0071.086.0238.094.0685-.001.0005-.001.0005 0 .001zm-6.873 2.3607c-.027.0369-.08.0452-.117.0179-.037-.0268-.046-.0783-.019-.1152.025-.0377.075-.048.113-.0235.001.0007.002.001.003.0023.038.0257.048.0778.022.1162 0 .001-.001.0015-.002.0023zm1.171-1.6397c-.028.0369-.081.0453-.118.018-.037-.0268-.045-.0784-.018-.1153.024-.0376.075-.048.112-.0235.001.0008.002.001.003.0023.039.0258.048.0781.022.1163 0 .0007-.001.0015-.001.0022zm2.212.7635c-.015.0313-.053.0447-.084.0298-.031-.0146-.044-.0508-.031-.0819.013-.0305.048-.0452.079-.0326.002.0008.004.0018.006.0028.03.0149.043.0513.03.0819zm.642-1.3738c-.015.0316-.053.0447-.085.0298-.031-.0149-.044-.0533-.029-.0846.014-.0314.051-.045.082-.0309.001.0003.002.0008.002.001.031.0157.044.0531.03.0847zm2.58 1.3275c-.003.0344-.032.0607-.066.0592-.034-.0038-.06-.0321-.06-.0662.002-.0344.031-.0612.066-.0594.034.0007.06.028.06.0614zm.069-1.5193c-.002.0351-.031.0622-.066.0619-.035-.0015-.061-.0308-.06-.0654 0 0 0 0 0-.0005.001-.0337.028-.0602.061-.0599 0 0 .002.0002.003.0002.034.0003.062.0281.062.0627.001 0 0 .0005 0 .001z" fill="#fff" opacity=".51"/><path d="m101.856 60.771c-2.0338 1.907-2.0512 6.3276-1.46 8.8368.744 3.1545 2.866 5.9735 5.995 7.1535-3.764 1.0791-6.03 1.9002-8.1127 5.5701-1.5934 2.8083-2.9802 5.8032-4.1621 8.8411-2.2788 5.8573-1.8773 13.3625-1.6362 19.6215.0625 1.624.2122 2.891.1543 4.35-.6226-.095-2.2001.051-2.8985.059-1.6373.018-.9717-.497-1.0377-2.176-.0544-1.384.025-2.201.067-3.656.1035-3.587-.0111-7.325.3539-10.9181.7215-7.104 1.9659-14.639 3.892-21.4232.9481-3.34 2.6534-6.8272 4.113-10.0787 1.4273-3.1789 2.6251-6.9214 6.125-9.4754-.42 1.1377-.536 2.491-1.393 3.2954z" fill="url(#u)"/><path d="m111.409 52.4622c3.711 1.2535 3.334 4.5525.847 7.2394-2.363 2.554-5.75 2.0751-8.81 1.4183-2.946-.6326-5.8995-1.2027-8.8448-1.8019-3.6165-.7357-6.5092-2.1534-9.9107-3.805-2.3508-1.1412-4.8762-2.35-7.3637-2.8582 1.0984-1.7867 1.7635-3.9116 2.402-5.7832 2.4596 1.0503 5.5438 2.0091 8.1502 2.4213 1.3111.2075 10.6746 1.5532 10.968 1.5815 1.381.1332 2.664.2684 4.069.3535 2.803.1699 5.475.3784 8.164 1.1393.068.043.199.095.329.095z" fill="url(#v)"/><path d="m97.6104 75.4393c-1.2701 0-2.2997-1.0286-2.2997-2.2975 0-1.2688 1.0296-2.2974 2.2997-2.2974s2.2998 1.0286 2.2998 2.2974c0 1.2689-1.0297 2.2975-2.2998 2.2975z" fill="#f7931e"/><path d="m95.3987 78.0901c-.8305 0-1.5037-.6725-1.5037-1.5021s.6732-1.5022 1.5037-1.5022c.8304 0 1.5036.6726 1.5036 1.5022s-.6732 1.5021-1.5036 1.5021z" fill="#22b573"/><path d="m97.0098 59.5057c2.1197-.3634-.2547-2.8337-1.0961-3.2854-1.1639-.6247-3.0025-.9065-4.3048-.9353-.7152-.0159-4.3916-.047-4.1819 1.272.1265.7953 3.4336 1.6153 4.102 1.8329 1.6172.5264 3.7141 1.2027 5.3837 1.2591-.1068-.0435.2069-.2035.0971-.1433z" fill="url(#w)"/><path d="m97.0766 67.0557c.7483.0864 1.3296.7205 1.3296 1.4913 0 .8296-.6731 1.5021-1.5036 1.5021-.3886 0-.7415-.1486-1.0083-.3902.3984-.8792.7983-1.749 1.1823-2.6032z" fill="#22b573"/><path d="m93.2688 76.1782c.4591-1.4435 1.0407-2.908 1.6684-4.3636.6918.4147 1.1566 1.1693 1.1566 2.0341 0 1.3106-1.0635 2.3733-2.3757 2.3733-.1538 0-.3038-.016-.4493-.0438z" fill="#ed1e79"/><path d="m92.7161 78.0916c1.025.263 1.7839 1.1898 1.7839 2.2959 0 1.3106-1.0635 2.3733-2.3756 2.3733-.1842 0-.3628-.023-.5348-.0627.3443-1.5605.7187-3.1001 1.1265-4.6065z" fill="#ed1e79"/><path d="m91.9514 24.8954c1.4044-.1533 2.7712-.3856 4.1009-.6959-.1854-1.4646-.4105-2.846-.6959-4.1008-1.377.1734-2.7439.4054-4.1009.6959.147 1.3374.385 2.7064.6959 4.1008z" fill="#e94a47"/><path d="m33.1301 37.3148c.7304.7179 1.4879 1.3786 2.2721 1.9827.7371-.7761 1.4093-1.5362 1.9827-2.2722-.7291-.6934-1.4865-1.3543-2.2721-1.9827-.6834.6961-1.3427 1.4578-1.9827 2.2722z" fill="#e94a47"/><path d="m75.5356 26.9449c.3384.1011.6758.1805 1.0122.2382.0996-.3553.182-.6954.2382-1.0122-.334-.0938-.6714-.1733-1.0122-.2382-.0961.3223-.1743.6608-.2382 1.0122z" fill="#23286b"/><path d="m84.742 30.2342c.5354.1806 1.0705.3262 1.6052.4373.1791-.5627.3298-1.1019.4373-1.6053-.5288-.1687-1.0639-.3144-1.6052-.4373-.1717.5101-.3156 1.0469-.4373 1.6053z" fill="#a1c3fc"/><path d="m26.9564 47.4431c1.7779 1.3958 3.6011 2.6593 5.4691 3.7921 1.4266-1.8827 2.7147-3.7145 3.7921-5.4691-1.769-1.3422-3.592-2.6062-5.4691-3.7921-1.3283 1.6942-2.5877 3.5263-3.7921 5.4691z" fill="#23286b"/></g></svg>