<svg fill="none" height="160" viewBox="0 0 176 160" width="176" xmlns="http://www.w3.org/2000/svg" xmlns:xlink="http://www.w3.org/1999/xlink"><linearGradient id="a" gradientUnits="userSpaceOnUse" x1="47.7043" x2="50.8709" y1="41.7012" y2="70.7896"><stop offset="0" stop-color="#a1c3fc"/><stop offset=".6955" stop-color="#81aef2"/><stop offset="1" stop-color="#78a9ef"/></linearGradient><linearGradient id="b" gradientUnits="userSpaceOnUse" x1="61.5274" x2="35.7448" y1="136.041" y2="136.041"><stop offset=".1291" stop-color="#428dfc"/><stop offset=".9987" stop-color="#1d72d8"/></linearGradient><linearGradient id="c" gradientUnits="userSpaceOnUse" x1="72.5113" x2="18.6544" y1="112.502" y2="87.6526"><stop offset="0" stop-color="#23286b"/><stop offset="1" stop-color="#151a4f"/></linearGradient><linearGradient id="d" gradientUnits="userSpaceOnUse" x1="27.6887" x2="44.7549" y1="40.0674" y2="95.5604"><stop offset="0" stop-color="#a1c3fc"/><stop offset=".323" stop-color="#92b9f7"/><stop offset=".6955" stop-color="#81aef2"/><stop offset="1" stop-color="#78a9ef"/></linearGradient><linearGradient id="e"><stop offset="0" stop-color="#ffbeb6"/><stop offset="1" stop-color="#f2a19c"/></linearGradient><linearGradient id="f" gradientUnits="userSpaceOnUse" x1="60.0766" x2="71.0885" xlink:href="#e" y1="65.3826" y2="80.2973"/><linearGradient id="g" gradientUnits="userSpaceOnUse" x1="39.2172" x2="41.6327" xlink:href="#e" y1="39.773" y2="28.982"/><path d="m124.411 120.717c9.654.527 19.146.525 28.475 0 .427-9.294.49-18.113 0-26.2089-5.718 3.8601-24.418 21.3579-28.475 26.2089z" fill="#eee"/><path d="m42.6887 34.8683s2.3179 10.9049 4.9868 14.2212c3.1425 3.9048 5.5954 4.6773 8.0422 4.7452 3.3009.0915 5.3728.0333 5.3728.0333l3.8469 13.4593s-4.529 1.2993-8.1499-.8864c-4.0722-2.4579-9.4639-2.7598-10.9978-3.8615-1.8434-1.3242-3.2972-3.762-3.9648-4.7441-4.2735-6.2868-4.8221-9.2421-5.3827-17.2311" fill="url(#a)"/><path d="m63.0952 60.8918c1.4592-.4982 2.6018-.8977 3.1389-1.0591 2.0232-.6037 5.1685.8252 8.7664.6828 3.5981-.1462 4.5811-5.4359 4.345-5.8899-.2377-.4557-3.909 1.3191-4.3001 1.2833s1.955-1.1628 3.2237-1.7166c1.2688-.5538 1.0204-1.3246.5441-1.7221-.4781-.3994-3.5045 1.3353-5.6486 1.9663-2.1424.6329-2.5399-.2318-1.1815-2.2754 1.36-2.0419-.457-2.4446-.457-2.4446s-.5335.6994-2.1572 3.5071c-1.5982 2.7634-2.4456 3.4961-7.4407 3.5908z" fill="#ffbeb6"/><path d="m99.6796 50.5333-6.0238 2.2366-4.7633-12.829-36.0292 13.3773 13.3625 35.9894 12.8536-4.7724-2.2341-6.0172c-1.0577-2.8486.3984-6.0198 3.2501-7.0786 2.8518-1.0589 6.0247.3937 7.0823 3.2423l2.2341 6.0171 12.8532-4.7724-4.7667-12.8393 6.0237-2.2366c2.852-1.0588 4.308-4.2301 3.246-7.089-1.068-2.8448-4.237-4.287-7.0884-3.2282z" fill="#e94a47"/><path d="m164.945 141.745v-35.97h-12.865v6.014c0 2.847-2.318 5.158-5.175 5.158s-5.175-2.311-5.175-5.158v-6.014h-12.876v12.822h-6.034c-2.856 0-5.175 2.311-5.175 5.158s2.319 5.158 5.175 5.158h6.034v12.832z" fill="#ddd"/><path d="m135.345 92.8418h-5.975v12.8192h12.75v6.013c0 2.846 2.296 5.156 5.125 5.156 2.828 0 5.124-2.31 5.124-5.156v-6.013h12.74v-35.9618h-12.75v-6.0126c0-2.8464-2.296-5.1565-5.125-5.1565-2.828 0-5.124 2.3101-5.124 5.1565v6.0126h-12.751v12.8192h5.976c2.829 0 5.135 2.3101 5.135 5.1565s-2.296 5.1669-5.125 5.1669z" fill="#eee"/><path d="m129.473 141.69v-12.846h-6.019c-2.849 0-5.162-2.313-5.162-5.163s2.313-5.163 5.162-5.163h6.019v-12.835h-12.843v-6.02c0-2.85-2.313-5.163-5.162-5.163s-5.162 2.313-5.162 5.163v6.02h-12.8427v12.835h-6.0188c-2.8493 0-5.1618 2.313-5.1618 5.163s2.3125 5.163 5.1618 5.163h6.0188v12.846z" fill="#eee"/><path d="m39.397 130.943-3.6523 10.196 25.7826.001s-1.3222-2.552-5.729-4.443c-4.407-1.89-8.5207-5.755-8.5207-5.755z" fill="url(#b)"/><path d="m20.9752 130.937-3.6523 10.196 25.7826.001s-1.3223-2.552-5.729-4.443c-4.407-1.89-8.5208-5.754-8.5208-5.754z" fill="#428dfc"/><path d="m28.3879 58.8796c.3084 1.0034.7846 1.9475 1.408 2.7912.9578 1.2657 2.3058 2.1788 3.8353 2.5987 0 0 0 .0671 1.6921.4141 2.3208.3889 2.5886.456 2.5886.456l4.5506-.2495 2.2158 8.7346c1.0988 5.0873 3.0035 11.3157 3.1024 17.4625.1402 8.7852-.4986 39.8678-.4986 39.8678h-7.8803c-6.4588-6.434-5.846-11.467-6.3237-21.662-.4781-10.1932-2.0342-6.917-1.5532-16.6247.4782-9.7077.2366-7.7653-2.8708-21.601-.9486-3.9976-1.0388-8.152-.2662-12.1877z" fill="url(#c)"/><path d="m20.6981 116.81c.9958-5.578 2.8518-4.434 2.4786-8.751-.367-4.315.4961-7.107 2.1117-11.6715 1.6066-4.5677 5.0134-3.8527.0558-18.9473-2.0102-6.0227-2.2166-12.502-.5935-18.6401.3385.076.703.1517 1.0887.2265l-.0136-.2556s.684.2149 1.7529.5557c.3254.0498.662.0978 1.0131.1442.0274.071.0559.1383.0844.2068 4.3159 1.3852 11.9725 3.8962 11.5873 4.1563-.5346.3618 1.3683 13.3469 1.3683 13.3469l.0003.0003c.5433 5.5095.7547 11.5518.2642 16.7959-.6197 6.5969-13.0431 36.9709-13.0431 36.9709h-7.8828c.0009 0-1.2619-8.555-.2723-14.138z" fill="#23286b"/><path d="m26.4453 63.8465c.0276-.0109.0589.0025.0695.0302.012.0257.0006.0564-.0251.0684-.0006.0003-.0008.0006-.0017.0006-.0276.0109-.0589-.0025-.0695-.0302-.0106-.0265.0014-.0567.0268-.069zm1.1904-.4887c.0277-.0109.059.0028.0696.0305.0109.0277-.0028.0589-.0305.0696-.0276.0109-.0589-.0028-.0695-.0305-.0101-.0277.0033-.0581.0304-.0696zm2.5946 4.3564c.0114-.0268.0421-.0391.069-.0276.0268.0114.0391.0422.0276.069-.0114.0268-.0422.0391-.069.0277-.0265-.0115-.0388-.0425-.0276-.0691zm.4941-1.1855c.0092-.0257.0374-.0394.0637-.0301.0019.0005.0039.0016.0053.0022.0273.0106.0413.0411.0315.0685-.0134.0268-.0447.0391-.0726.0282-.0268-.0115-.0391-.0422-.0279-.0688zm-2.313-.8988c.0204-.0201.053-.0198.0729.0009.0201.0203.0198.053-.0009.0729-.0204.0201-.053.0198-.0729-.0009-.0201-.0184-.0212-.0491-.0028-.0692.0012-.0012.0026-.0023.0037-.0037zm.9108-.9086c.0204-.0198.0528-.0193.0729.0008.0078.0087.0134.019.0151.0305.0028.0168-.0034.0341-.0156.0458-.0026.0034-.0065.0051-.0101.0051l-.0034.0005c-.0187.0123-.0435.0098-.0592-.0064-.0209-.0201-.022-.0534-.0016-.0743.0005-.0003.0011-.0012.0019-.002zm-6.053 3.2402c.0408-.0372.1036-.0341.1408.0067.0008.0008.0017.002.0022.0028.036.0411.0319.1034-.0092.1391-.0003.0003-.0003.0003-.0006.0006-.0407.0372-.1036.0341-.1407-.0067-.0009-.0008-.0017-.002-.0023-.0028-.036-.0411-.0318-.1034.0092-.1391.0003.0002.0003-.0003.0006-.0006zm1.8401-1.6012c.0411-.0361.1031-.0319.1388.0092.0003.0003.0003.0003.0006.0005.0369.0422.0327.1062-.0092.1437-.0419.0371-.1059.0326-.1433-.0093-.0344-.0441-.0288-.1075.0131-.1441zm1.8371-1.5974c.0422-.0368.1058-.0327.1433.0093.0368.0421.0326.1061-.0093.1433-.0421.0369-.1058.0327-.1432-.0092-.0372-.0408-.0341-.1037.0067-.1408.0005-.0009.0016-.0014.0025-.0026zm3.7291 9.3524c.0556.0039.0975.0514.095.1073-.0028.0533-.0486.0947-.1017.0919-.002 0-.0034-.0003-.0053-.0003-.0556-.0039-.0975-.0514-.0944-.1073.0036-.055.0516-.0961.1064-.0916zm.1726-2.433c.055.0044.0955.0525.0911.1075-.0034.0556-.0512.0984-.107.0953-.0556-.0033-.0981-.0511-.095-.1073.007-.0559.055-.0972.1109-.0955zm.169-2.4322c.0556.0064.0969.0545.095.1106-.0028.0534-.0486.0948-.1017.092-.002 0-.0034-.0003-.0053-.0003-.0548-.0023-.0969-.0486-.095-.1034 0-.0014 0-.0022.0003-.0033.0039-.0562.0511-.0984.1067-.0956zm.1729-2.4294c.055.0045.0955.0525.0913.1076v.0003c-.0039.0556-.0522.0978-.1075.0941-.0556-.0039-.0975-.0522-.0939-.1078.0039-.0556.0523-.0978.1076-.0942zm-8.9794-3.0466c.0528-.0178.1098.0098.1285.0624.0184.0528-.0095.1103-.0623.1288-.0528.0184-.11-.0095-.1285-.0624-.0187-.0528.0095-.11.0623-.1288zm2.3111-.7711c.0502-.0182.1053.0078.1234.0581.0006.0017.0008.0034.0017.0045.019.0511-.0073.1084-.0584.1274s-.1081-.0073-.1271-.0584c-.0005-.0022-.0017-.0042-.0022-.0064-.0182-.0503.0078-.1056.0584-.1238.0008-.0003.0025-.0008.0042-.0014zm1.3719 8.6849c.0238-.0515.0849-.0738.1363-.0498.0512.0238.0738.085.0498.1364-.0243.0514-.0849.0737-.1363.0497-.0006-.0003-.0014-.0006-.002-.0008-.05-.0246-.0712-.0844-.0478-.1355zm1.0871-2.1808c.0238-.0511.0849-.0737.1358-.0497.0514.0238.0737.0849.0497.1361-.0238.0514-.0849.0737-.1363.0497-.0006-.0003-.0014-.0005-.002-.0008-.0494-.0246-.0704-.0847-.0472-.1353zm1.0871-2.1812c.0274-.0492.0886-.069.1388-.0447.0503.0262.0693.0885.0431.1385-.0255.0484-.0844.0682-.1336.0453-.05-.0268-.0709-.0872-.0483-.1391zm1.0919-2.1779c.0231-.0503.0824-.0721.1323-.0492.0503.0229.0721.0824.0492.1327-.0006.0017-.0017.0033-.0022.0045-.0243.0491-.0835.0701-.133.0458-.0008-.0003-.0019-.0009-.0025-.0014-.0478-.0221-.0687-.0788-.0466-.1266.0002-.0019.0014-.0039.0028-.0058zm6.0842 7.2208c.0503-.0179.1053.0086.1232.0589.0009.0025.0017.005.0023.0073.0176.0514-.0101.1075-.0618.1249-.0003 0-.0005.0002-.0008.0002-.0528.0179-.1098-.0097-.1285-.0623-.0145-.0533.014-.1095.0656-.129zm-.7737-2.309c.0523-.0187.1093.0084.128.0603.0002.0006.0002.0014.0005.002.0179.0528-.0097.1101-.0623.1288-.0536.0151-.1095-.0137-.129-.0659-.0176-.0514.0101-.1076.0617-.1249.0003 0 .0009 0 .0011-.0003zm-.7703-2.3134c.0528-.0179.1098.0097.1285.0623.0184.0522-.009.1095-.0612.1279-.0017.0006-.0033.0009-.0047.0017-.0503.0182-.1053-.0078-.1235-.0581-.0006-.0017-.0008-.0034-.0017-.0045-.0176-.0528.0101-.1103.0626-.1293zm-9.8944 2.83c.0262-.0419.0818-.0548.1232-.0282.0419.0263.0547.0819.0282.1235v.0003c-.0263.0419-.0819.0544-.1235.0276-.0419-.0262-.0542-.0816-.0279-.1232zm1.1522-1.8443c.0262-.0419.0818-.0545.1234-.028.0419.0263.0545.0819.0279.1238-.0262.0419-.0818.0545-.1234.028-.0416-.0249-.055-.0788-.0302-.1202.0006-.0014.0014-.0025.0023-.0036zm1.1513-1.848c.0067-.0156.0193-.0276.0355-.034l.0033-.0006c.0277-.012.0592-.0095.0846.0064.0431.0268.0559.0833.0291.1263-.0003.0003-.0003.0006-.0006.0009-.0268.0413-.0818.0539-.1234.0279-.0196-.0115-.033-.0307-.0366-.0531-.0098-.0243-.0073-.0522.0081-.0738zm1.1519-1.8443c.0268-.0416.0818-.0539.1234-.0279.0431.0262.0565.0824.0302.1249-.0263.043-.0824.0564-.1246.0302-.043-.0271-.0558-.0833-.029-.1263-.0003-.0003-.0003-.0006 0-.0009zm5.6226 7.0049c.0483-.0112.096.019.1072.067 0 .0006.0003.0008.0003.0017.0126.0464-.0151.0941-.0615.1064-.0013.0003-.0025.0006-.0039.0009-.0491.0106-.098-.0199-.1111-.0685-.0084-.048.0212-.0953.069-.1075zm-.4894-2.1193c.0483-.0112.0961.019.1073.0671 0 .0005.0002.0008.0002.0016.0126.0464-.015.0942-.0614.1065-.0014.0003-.0025.0005-.0039.0008-.0478.0115-.095-.0179-.1073-.0651-.0114-.0486.0171-.0975.0651-.1109zm-.4894-2.1192c.0484-.0112.0961.019.1073.067 0 .0006.0003.0009.0003.0017.0134.0447-.012.0919-.057.1053-.0028.0009-.0053.0017-.0084.002-.0483.0112-.0961-.019-.1072-.0671 0-.0005-.0003-.0008-.0003-.0017-.0101-.0472.0184-.0947.0653-.1072zm-8.9612-2.4378c.04-.0288.0958-.0201.1246.0198.0006.0009.0014.0017.002.0026.029.0371.0223.0905-.0151.1195-.0017.0014-.0028.0023-.0045.0034-.0385.0299-.0938.0229-.1237-.0157-.0009-.0008-.0017-.0022-.0025-.0033-.028-.0402-.0199-.0956.0192-.1263zm1.7703-1.2643c.0416-.0268.0967-.0167.1265.0226.0288.0414.0185.0978-.0226.1269-.0422.0274-.0986.0151-.1259-.0271-.0255-.04-.016-.0933.022-.1224zm3.5465 6.9797c.0483.0109.0804.0573.0731.1065-.0086.0483-.0544.0807-.1025.0726-.0488-.0076-.0826-.0531-.0759-.1025.0081-.0501.055-.0839.1053-.0766zm.3578-2.1455c.0483.0109.0804.0573.0731.1064-.0086.0484-.0544.0808-.1025.0727-.0472-.0067-.0801-.0503-.0734-.0978.0003-.002.0005-.0034.0008-.0053.0076-.0489.0531-.0827.102-.076zm.3586-2.1419c.0472.0067.0802.0503.0735.0978-.0003.002-.0006.0034-.0009.0053-.0084.0483-.0544.0808-.1025.0727-.0483-.0084-.0807-.0545-.0726-.1029.0067-.0472.0503-.0802.0975-.0735.0011-.0002.003.0001.005.0006zm7.3331 2.4992c.0405-.0287.0958-.0204.1263.0188.029.0399.0201.0961-.0199.1249-.0008.0005-.0017.0013-.0025.0019-.0371.0291-.0905.0224-.1193-.0151-.0014-.0017-.0022-.0028-.0033-.0045-.0299-.0385-.0229-.0941.0156-.124.0009-.0006.0017-.0011.0031-.002zm-12.3378-4.0624c.0201-.0221.0539-.0232.0759-.0034.0218.0201.0232.0539.0034.076-.0201.0221-.0539.0232-.076.0034-.0212-.0204-.0223-.0537-.0033-.076zm.8739-.936c.0201-.0221.0539-.0232.076-.0034.0218.0201.0232.054.0034.076-.0199.0221-.054.0232-.076.0034-.021-.0207-.0226-.0539-.0034-.076zm.8774-.9402c.0192-.0207.0514-.0221.0726-.0028.0215.0165.0257.0478.0092.0696-.002.0022-.0039.0044-.0059.0064-.0192.0207-.0514.0221-.0726.0028-.0215-.017-.0254-.0483-.0087-.0704.0017-.002.0034-.0039.0054-.0056zm3.34 3.7549c.029-.0009.0533.0215.0545.0508.0008.0288-.0216.0534-.0509.0545-.029.0008-.0533-.0215-.0544-.0509-.0009-.0293.022-.0536.0508-.0544zm-.0425-1.2825c.028-.0022.0523.0187.0545.0467v.0042c.0008.029-.0215.0533-.0506.0544-.0296.0017-.0553-.0206-.0578-.0503-.0005-.0298.0232-.0544.0531-.0547 0-.0003.0003-.0003.0008-.0003zm-.0461-1.2819c.028-.0022.0523.0187.0545.0467v.0042c.0009.029-.0215.0533-.0505.0545-.0291.0008-.0534-.0216-.0545-.0509-.0014-.0291.0212-.0531.0505-.0545zm-2.4817 1.4861c.0087-.0268.0369-.0416.064-.0329.0017.0005.0034.0008.0048.0019.0271.0093.0416.0386.0324.066-.0003.0008-.0006.0019-.0009.0028-.0117.0262-.041.0394-.0684.0315-.0279-.0109-.0419-.0416-.0319-.0693zm.4514-1.2047c.0101-.0263.0394-.0391.0659-.0294.0009.0003.0023.0009.0034.0014.0271.0109.0408.0411.0315.0685-.0117.0263-.041.0394-.0684.0316-.0279-.0098-.043-.0408-.0329-.0688 0-.0011.0002-.0022.0005-.0033zm.4483-1.2009c.0117-.0262.0411-.0394.0684-.0316.0274.0107.0414.0411.0316.0685-.0086.0268-.0369.0416-.0637.033-.0016-.0006-.0033-.0009-.0047-.002-.0271-.0092-.0416-.0385-.0324-.0659 0-.0006.0005-.0011.0008-.002zm-4.3514 2.8695c.0165-.0274.0522-.0364.0793-.0193.0006.0003.0008.0005.0017.0008.0282.0165.038.0525.0215.0808-.0006.0014-.0017.0025-.0025.0039-.0165.0274-.0522.0363-.0796.0195-.0006-.0002-.0009-.0005-.0017-.0008-.0279-.0184-.0363-.0559-.0187-.0849zm.7893-1.2336c.0165-.0274.0523-.0363.0794-.0193.0005.0003.0008.0006.0016.0009.0288.0181.0372.0558.019.0849-.0181.0291-.0558.0372-.0849.019-.0274-.0176-.0355-.0539-.0181-.0813.0011-.0017.0022-.0031.003-.0042zm.786-1.2335c.0182-.0288.0559-.0372.0849-.019.0288.0181.0372.0558.019.0849.0006.0033-.0033.0042-.0058.0084-.0207.0209-.0531.0254-.0785.0109-.0288-.0187-.0375-.0562-.0196-.0852zm4.526 3.5215c.0327-.0042.0637.0165.0721.0483.0072.0322-.0126.064-.0447.0718-.0299.009-.0615-.0078-.0701-.038-.0006-.0022-.0014-.0044-.0017-.0069-.0087-.0327.0109-.0665.0439-.0752zm-.3142-1.4305c.0327-.0042.0637.0165.0721.0483.0072.0321-.0126.064-.0447.0718-.0327.0087-.0665-.0109-.0752-.0438v-.0003c-.0053-.0336.0151-.0665.0478-.076zm-.314-1.43c.0327-.0042.0637.0165.0721.0483.0073.0322-.0126.064-.0447.0719-.0302.0086-.0617-.009-.0704-.0392-.0008-.0028-.0017-.0058-.0019-.0092-.0067-.0324.0128-.064.0449-.0718zm-.3142-1.4302c.033-.0059.0648.0156.0721.0483.0072.0321-.0126.064-.0447.0718-.0302.0087-.0617-.0089-.0701-.0391-.0009-.0028-.0017-.0059-.002-.0092-.007-.0322.0129-.0643.0447-.0718zm-6.7932.5409c.0268-.0201.0645-.0145.0847.012.0002.0006.0008.0008.0014.0017.0181.0276.012.0648-.0137.0855-.0274.0192-.0651.0125-.0847-.0146-.0005-.0008-.0014-.0016-.0016-.0025-.0188-.0268-.0123-.0634.0139-.0821zm1.2005-.8396c.0277-.0193.0657-.0134.0855.0137.0193.0274.0126.0651-.0145.0846-.0009.0006-.0017.0014-.0026.0017-.0268.0185-.0634.0123-.0821-.014-.0195-.0279-.0134-.0659.0137-.086zm3.4674 3.9373c.0048-.0324.0349-.0551.0676-.05.0006 0 .0014.0003.0022.0003l.0034-.0006c.0313.0078.0511.038.0461.0701-.0048.0324-.0349.0551-.0676.05-.0006 0-.0014-.0002-.002-.0002-.0083-.0023-.0162-.0065-.0234-.0115-.0201-.0117-.0308-.0349-.0263-.0581zm.3279-1.4934c.033.0078.0545.0394.0503.0732-.0089.0321-.0408.0525-.0737.0467-.0319-.0065-.0525-.0372-.0464-.0693 0-.0003 0-.0006.0003-.0009.0056-.0329.0366-.0553.0695-.0497zm.2553-1.4403c.033.0053.0553.0366.0497.0696-.0053.0329-.0366.0553-.0695.0497-.033-.0059-.0553-.0366-.0497-.0696.0047-.0324.0354-.0547.0676-.05.0005.0003.0011.0003.0019.0003zm-5.7558-.9751c.0466-.0327.1112-.0224.145.0235.0335.0472.0223.1128-.0252.1461-.0458.0324-.1086.0232-.1433-.021-.0324-.0475-.0223-.1126.0235-.1486zm3.006 9.9329c.057.009.0963.0615.0894.1188-.0095.0564-.0626.0947-.119.0855-.0564-.0095-.0958-.0618-.0894-.1188.0092-.0561.0626-.0947.119-.0855zm.3913-2.4816c.0564.0092.095.0626.0855.1193-.0092.0564-.0626.0953-.119.0855-.0564-.0092-.095-.0626-.0855-.1193.0095-.0562.0626-.0942.119-.0855zm.3877-2.4805c.0564.007.0963.0589.0894.1154-.007.0564-.059.0967-.1151.0897-.0017-.0003-.0028-.0003-.0045-.0006-.057-.0089-.0963-.0615-.0894-.1187.0101-.0568.0632-.095.1196-.0858zm.3913-2.4816c.0559.0086.0944.0609.086.117 0 .0006-.0002.0017-.0002.0023-.0093.0564-.0626.0952-.119.0855-.0565-.0095-.095-.0626-.0855-.1193.0087-.0559.0612-.0945.1167-.0861.0006.0003.0012.0006.002.0006zm.388-2.4808c.0564.0089.0944.062.086.1182-.0089.0553-.0601.0936-.1154.086-.0569-.0089-.0963-.0615-.0893-.1187.0092-.0562.062-.0945.1187-.0855zm8.6338 7.4611c.0472-.0336.1126-.0224.1461.0251.0324.0458.0232.109-.0209.1428-.0481.0329-.1129.0229-.1486-.0232-.0324-.0467-.0218-.1104.0234-.1447zm-1.4767-2.0296c.0466-.0338.1114-.0229.145.0235.0338.0463.0229.1117-.0235.1453-.0464.0338-.1114.0229-.145-.0235-.0335-.0464-.0231-.1121.0235-.1453zm-10.7452-2.6417c.0304-.0492.095-.0648.1441-.0347.0492.0302.0648.0953.0347.1442-.0302.0489-.095.0648-.1442.0346-.0486-.0307-.0639-.0947-.0346-.1441zm1.3069-2.1425c.0296-.0491.0933-.0651.1425-.0354.0005.0002.0014.0005.0019.0008.0486.0313.064.0947.0347.1442-.0319.0486-.0964.0623-.145.0307-.0472-.0305-.0623-.0919-.0341-.1403zm5.6153 7.9518c.0551-.0132.1098.0206.1229.0757.0003.0005.0003.0014.0003.0019.014.0553-.0187.1115-.0734.1266-.0559.0109-.1107-.0226-.1271-.0768-.0137-.0565.0206-.1135.0773-.1274-.0002 0-.0002 0 0 0zm-.5885-2.4403c.0534-.014.1078.0179.1218.0709.0006.0023.0008.0045.0017.0067.0137.0545-.0193.1096-.0738.1233-.0564.0139-.1128-.0204-.1271-.0769v-.0002c-.0139-.0534.0176-.1082.071-.1221.002-.0009.0042-.0014.0064-.0017zm-.5891-2.4437c.0565-.012.1123.0244.1241.0811.0117.0556-.0229.1103-.078.1237-.055.0132-.1097-.0206-.1229-.0754 0-.0005-.0002-.0014-.0002-.0019-.0135-.0568.0209-.1138.077-.1275zm-.5879-2.4399c.0553-.0123.1103.0223.1235.0776.0125.0556-.0227.1109-.0783.1238-.0539.012-.1078-.0204-.122-.074-.014-.0573.0204-.114.0768-.1274-.0003 0-.0003 0 0 0zm-5.9583-.1249c.0296-.0461.091-.0598.1371-.0302.0017.0008.0034.0022.0048.0033.0472.0322.0611.0961.0307.1448-.0344.0452-.0967.057-.1455.0273-.0478-.0318-.0604-.0961-.0288-.1436.0011-.0002.0014-.0011.0017-.0016zm6.2069 8.2596c.0564-.0118.112.0246.1237.081.0118.0564-.0246.1123-.081.1241-.0564.0117-.1117-.0246-.1237-.0811-.012-.0567.024-.1123.081-.124-.0003 0 0 0 0 0zm-.4846-2.4548c.0572-.009.1114.0282.1243.0846.0089.0553-.0271.1082-.0819.1207-.0564.0118-.112-.0246-.1237-.081-.0103-.057.0254-.1112.0813-.1243zm-.4813-2.4518c.0559-.0109.1095.0257.1204.0819.0109.0559-.0257.1098-.0818.1207-.0565.0117-.112-.0246-.1238-.081-.0081-.0573.0296-.1104.0852-.1216zm-.4846-2.4542c.055-.0112.1087.0243.1198.0793 0 .0009.0003.0017.0003.0025.0101.0556-.0262.1096-.0818.1208-.0537.012-.107-.0216-.119-.0752-.0006-.0022-.0009-.0042-.0014-.0064-.0112-.0551.0243-.109.0793-.1202.0011-.0005.002-.0008.0028-.0008zm-3.2171 3.5528c.0564.0118.093.0665.0827.1235-.0126.0559-.0676.0914-.1235.0794-.0556-.0101-.0922-.0634-.0824-.119 0-.0003 0-.0006 0-.0009.0123-.0561.0668-.0925.1232-.083zm.4893-2.4548c.0559.0126.0919.0668.0827.1235-.01.0559-.064.0933-.1198.083-.0559-.0101-.093-.064-.083-.1201.0003-.0014.0006-.0026.0009-.0042.01-.0556.0634-.0922.1187-.0825.0003.0003.0005.0003.0005.0003zm.4936-2.4517c.0564.0117.093.0665.0827.1235-.0132.0564-.0693.0919-.1257.0785-.0539-.0126-.0891-.0648-.0802-.1193.012-.0564.067-.0933.1232-.0827zm7.8492 5.5972c.0464-.0313.1087-.0187.14.0274.0008.0014.0017.0025.0025.0039.0316.0472.019.1106-.0277.1422-.048.0321-.1125.0201-.1455-.0271-.0321-.0478-.0198-.1123.028-.1442.0008-.0008.0016-.0016.0027-.0022zm-1.3859-2.0821c.0464-.0313.1086-.0187.1399.0274.0009.0014.0017.0025.0025.0039.0316.0472.019.1107-.0276.1419-.0478.0322-.1126.0202-.1452-.0271-.0322-.0477-.0199-.1123.0279-.1441.0005-.0009.0017-.0014.0025-.002zm-1.386-2.0823c.0481-.0302.1115-.0165.1425.0312.0316.0473.019.1107-.0277.142-.048.0321-.1125.0201-.1455-.0271-.0321-.0478-.0198-.1123.0279-.1442.0009-.0005.0017-.0011.0028-.0019zm-1.3859-2.0824c.0483-.0288.1103-.0151.1424.0313.0316.0472.019.1106-.0276.1419-.0481.0319-.1123.0199-.1453-.0271-.0321-.0483-.0187-.1134.0299-.1453 0-.0002.0003-.0005.0006-.0008zm-5.8639-.0503c.0151-.0391.0595-.0584.0986-.0433.0003 0 .0005.0003.0008.0003.0411.0151.0623.0603.0478.1014-.0151.0411-.0604.0623-.1011.0478-.0411-.0151-.0623-.0604-.0478-.1015.0003-.0016.0008-.003.0017-.0047zm5.8703 5.1183c.0369-.0187.0821-.0039.1003.033.0014.0022.0022.0047.0033.0073.0171.0396-.0008.086-.0407.1031-.0397.017-.0861-.0009-.1028-.0408-.0171-.0392.0008-.085.0399-.1026zm-.7416-1.7351c.0389-.0178.0849-.0008.1025.0375.0003.0008.0006.0017.0014.0025.0176.0397-.0002.0861-.0405.1039-.0396.0176-.086-.0002-.1036-.0405-.0176-.0391.0003-.0855.0402-.1034zm-.7415-1.7347c.0396-.0176.086.0002.1036.0405.0179.0399-.0003.086-.0405.1039s-.0861-.0003-.1036-.0405c-.0168-.04.0011-.0858.0405-.1039zm-.7416-1.7351c.041-.0159.0871.0033.1039.0439.0156.0396-.0039.0849-.0436.1005-.0003 0-.0003.0003-.0005.0003-.038.0168-.0824-.0003-.0989-.0385-.0003-.0009-.0006-.0017-.0009-.0026-.0178-.0388-.0008-.0849.038-.1028.0003 0 .0009-.0005.002-.0008zm-1.7357 5.0367c.043-.0014.0785.0327.0799.0757v.0006c-.0008.0422-.0341.0768-.0762.0799-.0431.0003-.0783-.0335-.0799-.0763-.0025-.0416.0293-.0774.0706-.0793.0017-.0006.0037-.0006.0056-.0006zm-.0212-1.8859c.0413-.0006.0757.0324.0762.074v.0028c.0014.043-.0326.0785-.0756.0799-.0003 0-.0006 0-.0006 0-.0436-.0017-.0785-.0366-.0802-.0799.0006-.043.0363-.0774.0794-.0768zm-.0246-1.8885c.0436.0017.0785.0366.0802.0799.0008.0411-.0319.0755-.0729.0763-.0014 0-.0025 0-.0042 0-.0416.0025-.0774-.0293-.0793-.0707 0-.0019 0-.0039 0-.0059-.0014-.043.0326-.0785.0757-.0799 0 .0003 0 .0003.0005.0003zm5.2947-.3076c.0318-.0293.0804-.0299.1123-.0008.0301.0318.029.0824-.0028.1128-.0305.0291-.078.0294-.1087.0009-.029-.0322-.0299-.0808-.0008-.1129zm-5.7653-.0458c.0232-.0053.0463.0095.0519.0327.0053.0232-.0095.0463-.0327.0519-.0014.0003-.0022.0003-.0033.0006-.0235.0028-.0453-.0134-.0489-.0369-.0033-.0221.0109-.0433.033-.0483zm1.1938 1.6141c.0301-.0202.0712-.0118.091.0184.0009.0017.002.0034.0028.0048.021.0287.0145.069-.014.0899-.0019.0014-.0039.0025-.0058.0039-.0321.0215-.0757.0132-.0969-.0192-.021-.0316-.0126-.0741.0187-.0953.0014-.0009.003-.0014.0042-.0025zm-.9089-1.4462c.0335-.0204.0768-.0101.0975.0229.0209.0316.0125.074-.0188.0953-.0014.0008-.0028.0017-.0042.0025-.0301.0201-.0712.0117-.091-.0185-.0008-.0016-.002-.0033-.0028-.0047-.0221-.0307-.0145-.0735.0162-.0953.0008-.0005.002-.0011.0031-.0022z" fill="#fff" opacity=".86"/><path d="m38.1703 33.1941c-3.7722 1.6501-7.1594 4.07-9.9439 7.1043-4.717 5.0988-4.1749 7.4136-6.7859 10.4496-2.611 3.0359-6.1304 6.717-3.3987 11.9275 0 0 10.5458.9531 15.8181-.7351l8.9878-27.1101c-.0003-.0012-2.5264.7337-4.6774-1.6362z" fill="url(#d)"/><path d="m52.3279 61.9986s3.5967 2.2707 6.4859 3.0974c2.8892.8265 3.1026.5954 4.1478-.6445.9475-1.1691 1.7851-2.423 2.5021-3.7462.3006-.6111 1.2737-.667 1.1131.8974-.1603 1.5644-2.2605 2.521-1.3575 3.2896.903.7687 3.9671.8352 6.2519.6413 2.2845-.1939 3.5316-.2263 1.6278 2.6573-1.9038 2.8837-4.264 4.621-10.7759 2.1578-6.5119-2.4629-11.0399-1.8532-13.2923-1.5693z" fill="url(#f)"/><path d="m42.9495 35.2739s-2.6805 8.3719-1.4334 13.692c1.1251 4.7979 2.6563 6.3644 7.1848 7.6108 4.5285 1.2465 4.4866 1.1651 4.4866 1.1651l-3.2976 17.5866s-4.7589 1.167-8.483-2.3939c-3.7244-3.5607-5.1441-4.4419-7.6152-5.1588-2.4714-.7167-7.5591-3.7351-6.5024-12.0095 1.0566-8.2744 3.1422-13.9711 10.882-22.5719" fill="#a1c3fc"/><path d="m43.3594 30.7005c-.3696 1.3442-.543 2.735-.5148 4.1287 0 0-1.9921 1.3106-4.6771-1.6354l1.9507-4.8674z" fill="url(#g)"/><path d="m48.4076 21.2447c.0115.0346.019.0606.0252.0757.0042.0045.0039.0087.0059.0151.0463.1386.0885.2813.1276.43.4251 1.6015 1.7787 2.7023 1.837 3.1511.0584.4484-.7767.8678-1.1901.9642-.4137.0964-.6402 2.2517-2.1831 3.6889-1.4474 1.3481-3.8657 1.5286-5.5679.8647-1.0912-3.4045-.7709-5.1225 2.3907-7.1428 3.4501-2.2065 2.9356-4.5962 2.9356-4.5962.7231.7181 1.2764 1.589 1.6191 2.5493z" fill="#ffbeb6"/><path d="m32.2387 25.5394c.6036-1.7924.7003-3.9873.7888-4.8076.1207-1.1207 1.9368-4.7518 6.008-5.2083 4.0713-.4566 9.2838.2651 9.4059 5.8137-.3413-.9955-.9064-1.8993-1.6516-2.642 0 0 .5162 2.3892-2.9347 4.5953-.3598.2277-.707.4741-1.041.7382-1.4742 2.288-2.0278 4.8942.3349 7.2607.1377.1381-.0844.3431-.221.206-2.2015-2.2051-1.9895-4.6247-.8251-6.8283-1.6571 1.7102-1.4563 3.5366-.3052 6.7456 0 0-5.9368 2.1167-11.817-.7064.0506-1.2712.5333-2.4869 1.3681-3.4464.2886-.3626.5229-.765.6947-1.1958-1.3301 1.3347-2.8208 2.587-2.4228 4.5992.0157.0821-.0385.1609-.1204.1766-.0782.0145-.1539-.0338-.1743-.1107-.4631-2.3332 1.4935-3.657 2.9127-5.1898z" fill="#e94a47"/><path d="m46.9031 23.4313c.5002.4856 1.2996.4733 1.7845-.0274.1754-.1813.293-.4113.3369-.6602.0346-.1889-.2542-.2786-.2891-.0872-.0726.5261-.5573.8944-1.0829.8217-.1981-.0274-.3832-.1162-.5288-.2531-.1424-.1299-.3645.0746-.2206.2062z" fill="#1c2868"/></svg>