<svg width="176" height="160" viewBox="0 0 176 160" fill="none" xmlns="http://www.w3.org/2000/svg">
<path d="M118.198 72.1722C114.288 72.1891 110.746 73.5093 108.133 75.6419C105.653 70.5926 104.108 63.6963 104.073 56.0856C104.002 40.5672 117.996 27.9261 117.996 27.9261C117.996 27.9261 132.104 40.4456 132.175 55.9642C132.21 63.575 130.728 70.4842 128.293 75.555C125.662 73.4449 122.108 72.1553 118.198 72.1722Z" fill="url(#paint0_linear)"/>
<path d="M114.453 49.6916C113.417 49.696 112.437 49.9368 111.565 50.3623C112.631 48.1258 114.908 46.5758 117.553 46.5644C121.233 46.5486 124.23 49.5185 124.247 53.1982C124.259 55.8422 122.729 58.1327 120.502 59.219C120.919 58.3427 121.151 57.3614 121.147 56.3255C121.13 52.6458 118.132 49.6758 114.453 49.6916Z" fill="#EFEFEF"/>
<path d="M110.919 53.2558C110.914 52.2199 111.146 51.2384 111.564 50.3623C112.436 49.9367 113.416 49.6961 114.452 49.6916C118.132 49.6759 121.129 52.6459 121.146 56.3255C121.15 57.3614 120.919 58.3428 120.501 59.219C119.628 59.6445 118.649 59.8851 117.613 59.8896C113.932 59.9055 110.935 56.9353 110.919 53.2558Z" fill="white"/>
<path d="M106.689 57.9087L109.376 75.2781L100.713 81.3988C99.8275 70.9997 101.961 63.2958 106.689 57.9087Z" fill="#FF4945"/>
<path d="M128.82 57.8131L126.292 75.2048L135.012 81.2506C135.801 70.8445 133.597 63.1589 128.82 57.8131Z" fill="#FF4945"/>
<path d="M117.733 29.7975C117.786 29.8285 117.847 29.8461 117.913 29.8459C118.109 29.8451 118.267 29.6857 118.266 29.49L118.213 17.9029C118.212 17.7071 118.052 17.549 117.857 17.5498C117.661 17.5507 117.503 17.7101 117.504 17.9057L117.557 29.4928C117.558 29.6233 117.628 29.7365 117.733 29.7975Z" fill="#FF4945"/>
<path d="M106.784 97.9106C106.793 97.9162 106.804 97.9205 106.815 97.9231C106.879 97.9388 106.943 97.9004 106.958 97.8369C108.239 92.6614 109.686 88.0324 111.647 82.8281C111.67 82.7673 111.639 82.6993 111.578 82.6759C111.517 82.6531 111.449 82.6837 111.426 82.7446C109.461 87.958 108.012 92.5951 106.729 97.7797C106.716 97.832 106.739 97.8847 106.784 97.9106Z" fill="#5BABF2"/>
<path d="M128.315 97.8175C128.341 97.8326 128.372 97.838 128.404 97.8299C128.467 97.8136 128.505 97.7493 128.489 97.6861C127.158 92.5118 125.667 87.8873 123.654 82.6923C123.631 82.6309 123.562 82.601 123.501 82.6246C123.44 82.6481 123.41 82.7165 123.434 82.7775C125.442 87.9638 126.931 92.58 128.26 97.745C128.268 97.7766 128.289 97.8022 128.315 97.8175Z" fill="#5BABF2"/>
<path d="M108.005 101.402L105.875 103.148L104.128 101.018L106.258 99.2717L108.005 101.402Z" fill="#FF4945"/>
<path d="M120.885 105.89L121.723 108.515L119.098 109.351L118.261 106.727L120.885 105.89Z" fill="#1B236D"/>
<path d="M130.417 90.7064L128.965 91.8964L127.774 90.4446L129.226 89.2547L130.417 90.7064Z" fill="#5BABF2"/>
<path d="M119.377 104.068C119.395 104.078 119.415 104.084 119.437 104.084C119.502 104.084 119.555 104.031 119.555 103.965L119.479 87.4381C119.479 87.3727 119.425 87.3204 119.361 87.3203C119.295 87.3208 119.243 87.3737 119.243 87.4389L119.318 103.966C119.319 104.01 119.343 104.048 119.377 104.068Z" fill="#5BABF2"/>
<path d="M112.755 97.0303C112.767 97.0373 112.78 97.0424 112.795 97.0447C112.859 97.0558 112.92 97.0126 112.931 96.9482L113.631 92.8729C113.642 92.8087 113.599 92.7469 113.535 92.7365C113.47 92.7253 113.409 92.7686 113.398 92.833L112.698 96.9083C112.69 96.958 112.714 97.0062 112.755 97.0303Z" fill="#5BABF2"/>
<path d="M113.631 60.0035C114.836 60.7078 116.215 61.077 117.618 61.0707C119.714 61.0617 121.68 60.2372 123.155 58.7492C124.63 57.2614 125.437 55.2881 125.427 53.1928C125.415 50.4295 123.923 47.8456 121.534 46.45C120.328 45.7457 118.95 45.3765 117.547 45.3825C113.221 45.4011 109.718 48.9351 109.737 53.2602C109.75 56.0243 111.242 58.6078 113.631 60.0035ZM120.342 48.4903C122.012 49.4663 123.055 51.2721 123.064 53.2033C123.071 54.6674 122.507 56.0463 121.476 57.0862C120.445 58.1259 119.071 58.702 117.607 58.7085C116.626 58.7127 115.663 58.4551 114.822 57.9637C113.151 56.9878 112.108 55.1816 112.099 53.2504C112.086 50.228 114.534 47.7586 117.556 47.7456C118.538 47.7414 119.501 47.999 120.342 48.4903Z" fill="#FF4945"/>
<path d="M125.473 42.2711C117.623 42.3051 110.456 44.8456 104.972 49.0172C108.055 36.9044 117.994 27.9259 117.994 27.9259C117.994 27.9259 124.571 33.7637 128.766 42.4064C127.684 42.313 126.585 42.2666 125.473 42.2711Z" fill="#5BABF2"/>
<path d="M108.566 39.361C112.634 31.9946 117.992 27.1536 117.992 27.1536C117.992 27.1536 123.393 31.9481 127.528 39.2791L108.566 39.361Z" fill="url(#paint1_linear)"/>
<path d="M95.6319 85.0917L95.0573 83.85L93.8125 84.4232L94.3871 85.6649L95.6319 85.0917Z" fill="#A1C3FC"/>
<path d="M97.204 94.5468L95.6394 91.1658L92.25 92.7265L93.8146 96.1076L97.204 94.5468Z" fill="#E94A47"/>
<path d="M92.3055 106.09L90.741 102.709L87.3516 104.269L88.9162 107.651L92.3055 106.09Z" fill="#1D72D8"/>
<path d="M93.8508 100.39C93.8508 100.341 93.8265 100.293 93.7822 100.265C90.3925 98.1064 88.7431 93.5916 89.9444 89.763C89.9691 89.6845 89.9255 89.6019 89.8471 89.5777C89.7688 89.5531 89.6857 89.5966 89.6614 89.6748C88.4208 93.6263 90.124 98.2866 93.6226 100.515C93.6917 100.559 93.7834 100.539 93.8273 100.47C93.8433 100.445 93.8508 100.417 93.8508 100.39Z" fill="#23286B"/>
<path d="M107.454 84.8388C107.454 84.8355 107.454 84.8326 107.453 84.8293C107.448 84.7479 107.378 84.6857 107.296 84.6911C104.314 84.8799 101.653 87.5534 101.486 90.5289C101.475 90.6121 101.544 90.6805 101.625 90.6849C101.707 90.6897 101.777 90.6271 101.782 90.5455C101.942 87.712 104.476 85.1662 107.315 84.9862C107.393 84.9812 107.454 84.916 107.454 84.8388Z" fill="#23286B"/>
<path d="M141.469 86.6683L142.108 85.671L143.108 86.3089L142.47 87.3061L141.469 86.6683Z" fill="#A1C3FC"/>
<path d="M139.014 94.5923L140.753 91.8769L143.477 93.6138L141.737 96.3292L139.014 94.5923Z" fill="#E94A47"/>
<path d="M141.854 105.066L143.593 102.351L146.317 104.087L144.577 106.803L141.854 105.066Z" fill="#1D72D8"/>
<path d="M141.199 99.9965C141.205 99.9549 141.231 99.9166 141.273 99.8975C144.434 98.4449 146.379 94.7673 145.799 91.3429C145.787 91.2727 145.834 91.207 145.904 91.1954C145.974 91.1835 146.04 91.2306 146.052 91.3005C146.651 94.8349 144.643 98.631 141.38 100.131C141.316 100.16 141.24 100.132 141.21 100.068C141.199 100.045 141.196 100.02 141.199 99.9965Z" fill="#23286B"/>
<path d="M131.363 85.0623C131.363 85.0595 131.364 85.057 131.364 85.0542C131.379 84.9851 131.446 84.94 131.515 84.9542C134.051 85.4667 136.018 88.0721 135.813 90.6434C135.812 90.716 135.745 90.7665 135.675 90.7607C135.604 90.7552 135.551 90.6934 135.557 90.6228C135.752 88.1742 133.879 85.6932 131.465 85.2051C131.398 85.1915 131.354 85.1286 131.363 85.0623Z" fill="#23286B"/>
<path d="M128.302 109.7L130.398 112.004L128.095 114.1L125.999 111.796L128.302 109.7Z" fill="#EEEEEE"/>
<path d="M133.932 103.638L135.961 104.932L134.667 106.962L132.638 105.667L133.932 103.638Z" fill="#EEEEEE"/>
<path d="M149.22 91.9002L150.602 93.4185L149.083 94.8L147.702 93.2817L149.22 91.9002Z" fill="#EEEEEE"/>
<path d="M58.3751 41.442C58.1903 41.4135 57.9623 41.5596 57.8938 41.7696C57.8483 41.9091 57.8916 42.0548 57.9568 42.1674C58.1834 42.5605 58.631 42.6854 59.0451 42.7859C60.1433 43.0525 61.242 43.3192 62.3403 43.5858C62.8526 43.7101 63.38 43.8348 63.9199 43.7239C63.9672 43.4799 64.0143 43.2363 64.0616 42.9923C64.0721 42.938 64.0823 42.8797 64.0631 42.8333C64.0374 42.7709 63.9701 42.7521 63.9097 42.7392C62.9981 42.5438 62.0789 42.3669 61.2014 42.0615C60.2855 41.7432 59.393 41.5996 58.3751 41.442Z" fill="#885944"/>
<path d="M38.6619 37.6044C38.6099 37.6044 38.5616 37.5713 38.5449 37.5192C38.5243 37.4546 38.5599 37.3858 38.6246 37.3651C40.018 36.9211 41.2539 36.0241 42.106 34.8393C42.4547 34.3541 42.7441 33.8154 43.0238 33.294C43.1945 32.976 43.371 32.6477 43.5601 32.332C44.187 31.2867 44.8628 30.6023 45.6269 30.2397C46.1052 30.0124 46.724 29.9676 47.0296 30.3787C47.07 30.4333 47.0586 30.5099 47.0039 30.5504C46.949 30.5909 46.8724 30.5794 46.8317 30.5249C46.6103 30.2273 46.1066 30.2835 45.7325 30.4611C45.0036 30.8073 44.3803 31.4417 43.771 32.458C43.5848 32.7686 43.4098 33.0945 43.2404 33.41C42.9567 33.938 42.6635 34.4841 42.3053 34.9821C41.423 36.2096 40.1421 37.1387 38.6988 37.5987C38.6872 37.6027 38.6743 37.6044 38.6619 37.6044Z" fill="#23286B"/>
<path d="M50.5239 130.044C52.2486 126.544 51.0271 122.326 51.7965 118.503C52.5268 114.873 55.0066 111.811 55.9778 108.238C56.4518 106.494 56.5536 104.674 56.653 102.871C56.8739 98.864 57.0946 94.8438 56.7897 90.8424C56.5469 87.6527 55.9707 84.4819 55.9999 81.2828C56.0292 78.0837 56.7319 74.7621 58.751 72.275C61.3433 73.9184 64.5005 74.6568 67.5558 74.335C64.906 97.5922 60.7187 120.675 55.0304 143.385C51.9834 143.412 48.9362 143.439 45.8895 143.466C45.2757 140.179 45.9992 136.664 47.862 133.884C48.7301 132.588 49.835 131.443 50.5239 130.044Z" fill="#D62929"/>
<path d="M53.1003 44.8779C53.3001 46.1463 52.9612 47.2519 51.6484 47.2519C50.3357 47.2519 48.1211 45.7262 48.1211 44.7556C48.1211 44.2704 48.1518 43.9609 48.6631 43.5941C49.0614 43.3082 49.9316 43.3451 50.588 43.3451C51.9003 43.3451 52.9493 43.9193 53.1003 44.8779Z" fill="#1D72D8"/>
<path d="M46.8651 120.691C46.4872 122.709 46.7046 124.818 46.3605 126.844C45.3799 132.622 39.9731 137.61 41.5587 143.22C44.7671 143.525 47.9724 143.871 51.1739 144.258C59.1413 120.74 68.1718 83.1589 67.3832 71.4582C64.3583 71.0142 62.1205 70.9137 59.0704 70.8228C58.2129 70.7973 57.3113 70.7971 56.5584 71.2537C55.686 71.7827 55.394 71.8617 54.8399 72.7985C52.1949 77.2681 53.2299 79.5602 54.0351 82.998C54.965 86.9696 53.9497 92.7374 53.4603 96.9794C52.8161 102.562 52.2743 108.192 50.2269 112.807C49.0649 115.425 47.4002 117.832 46.8651 120.691Z" fill="url(#paint2_linear)"/>
<path d="M64.6006 63.2301C62.9962 62.0862 60.9343 61.8503 58.9716 61.6508C56.602 61.4096 54.2326 61.1685 51.8629 60.9273C51.8147 58.2894 51.3528 55.6776 51.139 53.0477C50.9252 50.4178 49.8598 47.967 53.3096 45.3695C56.2612 48.0053 57.2051 48.8133 59.481 51.8255C61.7574 54.8377 64.0683 59.4971 64.6006 63.2301Z" fill="#1D72D8"/>
<path d="M51.1976 39.9296C52.0342 40.1472 52.922 40.1667 53.7672 39.9857C52.9232 41.8929 52.395 43.9381 52.2109 46.0142C51.1372 45.2919 49.8423 44.9013 48.5469 44.9089C49.8425 44.138 50.4399 42.6123 50.9491 41.1965C51.0963 40.7875 51.2456 40.3612 51.1976 39.9296Z" fill="#885944"/>
<path d="M64.1372 42.386C65.3472 42.7421 65.4528 43.1794 65.7798 44.3943C66.9387 48.6994 68.3706 54.1089 70.0463 58.2414C68.471 59.002 67.2816 59.3622 65.5796 59.7712C65.3389 54.5757 65.0923 49.3372 63.7947 44.2998C63.6197 43.6191 63.5153 42.7157 64.1372 42.386Z" fill="#99644C"/>
<path d="M67.1465 48.7134L63.8789 49.3766L64.3819 51.8434L67.699 51.5965L67.1465 48.7134Z" fill="#428DFC"/>
<path d="M65.2124 43.4003C64.956 44.0395 64.2708 44.2314 63.1543 43.9338C62.9012 43.8664 62.2299 43.3784 62.0591 43.0932C61.4555 42.0848 60.5552 41.6113 60.1533 40.6614C59.9751 40.2408 60.2175 39.9846 60.6065 39.6861C60.69 39.5928 60.9645 39.5271 61.0629 39.6049C61.8803 40.2536 62.6977 40.9023 63.5153 41.551C64.0501 41.9755 64.5855 42.4002 65.0873 42.8623C65.1596 42.9289 65.2347 43.0016 65.2594 43.0963C65.2863 43.197 65.2514 43.3034 65.2124 43.4003Z" fill="#99644C"/>
<path d="M54.6707 38.1079C54.548 38.4569 54.958 38.8069 55.2836 38.9642C56.6282 39.6148 57.9892 40.2709 59.3857 40.5345C60.0568 40.6611 60.8162 40.7463 61.2906 41.3748C61.1855 40.7873 61.0804 40.1998 60.9753 39.6122C59.1429 39.5765 57.2636 39.0499 55.5183 38.0829C55.2174 37.9165 54.786 37.7799 54.6707 38.1079Z" fill="#885944"/>
<path d="M67.568 49.7988C68.2448 53.2424 69.4862 55.7918 70.5949 59.1223C71.7036 62.4528 70.2881 68.4434 69.3683 69.2073C67.9606 69.6104 66.4112 67.7759 65.2281 66.9153C62.745 65.1088 63.6675 64.9151 61.6574 62.5971C62.1298 60.1793 61.2662 57.8149 61.1328 55.3557C62.8408 57.9041 63.6737 57.4906 65.3817 60.0393C65.2687 56.2515 64.0454 50.2838 64.0454 50.2838C64.0454 50.2838 66.5996 49.771 67.568 49.7988Z" fill="#D62929"/>
<path d="M51.8874 33.8015C52.3866 33.87 52.8653 33.4994 53.3669 33.4503C54.0095 33.3872 53.9641 34.603 53.8749 35.2401C53.7377 36.2207 54.1236 37.2555 54.3298 38.2239C54.5741 39.3721 54.6585 39.5923 54.0376 40.3653C53.3569 41.2126 51.0924 41.8806 50.0127 41.7406C48.933 41.6006 48.3689 41.3847 47.4072 40.8755C46.2493 40.2625 45.0359 39.5664 44.4361 38.4044C43.5179 36.6254 44.4359 34.3433 45.9936 33.0813C46.3936 32.7573 46.8452 32.4745 47.3511 32.375C48.4776 32.1529 49.5473 32.8578 50.607 33.2989C51.194 33.5432 51.2567 33.7146 51.8874 33.8015Z" fill="#99644C"/>
<path d="M46.912 37.8309C47.0068 37.4219 47.2956 37.0836 47.6601 36.8739C48.3046 36.503 49.0528 36.5199 49.7663 36.6063C48.8005 35.4657 48.5099 33.9833 49.1712 32.644C48.5363 31.6029 47.0734 29.8975 46.404 30.2355C44.1109 31.3934 43.4272 34.4128 41.9387 36.5013C41.322 37.3667 40.6909 37.5823 39.4642 38.2956C38.3629 38.936 40.7998 39.9403 41.6659 40.2324C42.9085 40.6517 49.8362 41.7982 49.8362 41.7982C50.0738 41.4985 49.9729 41.0357 49.7192 40.7495C49.4654 40.4631 49.0985 40.3082 48.7486 40.152C47.7664 39.7135 46.6627 38.9036 46.912 37.8309Z" fill="url(#paint3_linear)"/>
<path d="M51.3536 35.483C51.0664 35.483 50.7641 35.414 50.4782 35.2833C49.6739 34.9148 49.2321 34.1546 49.4929 33.5883C49.6542 33.2388 50.0494 33.03 50.5501 33.03C50.8371 33.03 51.1396 33.0991 51.4252 33.2298C51.8072 33.4047 52.1209 33.6721 52.308 33.982C52.5042 34.3072 52.5408 34.6417 52.4103 34.9243C52.2493 35.274 51.8545 35.483 51.3536 35.483ZM50.5503 33.2752C50.1484 33.2752 49.8368 33.4304 49.7167 33.6906C49.5122 34.1339 49.9003 34.7481 50.5814 35.0602C50.8347 35.1761 51.102 35.2378 51.3541 35.2378C51.756 35.2378 52.0673 35.0824 52.1874 34.8224C52.2826 34.6158 52.2509 34.3625 52.0978 34.1087C51.9356 33.8402 51.6607 33.6071 51.323 33.4523C51.069 33.3364 50.8021 33.2752 50.5503 33.2752Z" fill="#5E9EFC"/>
<path d="M58.1974 52.4303C58.1974 52.4303 54.4962 46.0771 55.4152 47.0891C56.2551 48.0143 60.7435 51.6352 63.3046 57.6896C66.3144 64.8046 68.7168 72.3123 67.3834 78.7931C66.0956 77.8875 62.7395 77.3959 60.6365 76.8722C56.7332 75.8997 57.116 77.0622 53.3452 75.6635C54.4185 73.1422 54.9191 72.0017 54.15 70.2771C53.3813 68.5526 51.0602 65.8713 49.8459 64.4234C47.985 62.2052 46.7576 59.5396 45.5526 56.9097C44.5129 54.641 43.7637 48.4028 44.1359 47.9147C45.7564 45.7896 45.8844 45.9598 47.5907 44.9821C50.4895 47.7836 58.1974 52.4303 58.1974 52.4303Z" fill="url(#paint4_linear)"/>
<path d="M60.5568 40.9876C60.8776 41.3416 61.1984 41.6953 61.5187 42.0493C61.7316 42.2843 61.9673 42.5324 62.2788 42.5919C62.5903 42.6514 62.9723 42.405 62.915 42.0939C62.894 41.9803 62.8215 41.8836 62.7511 41.792C62.4013 41.3366 62.0517 40.8812 61.7019 40.4257C61.5996 40.2924 61.4935 40.1558 61.3485 40.0708C61.2046 39.9863 61.0345 39.9601 60.8688 39.9387C60.3913 39.8772 59.9101 39.8446 59.429 39.8411C59.4761 40.2758 59.4133 40.7219 59.2485 41.1271C59.2031 41.2387 59.1491 41.359 59.182 41.4747C59.1967 41.5265 59.2276 41.572 59.2585 41.6165C59.6785 42.2257 60.0985 42.8349 60.5185 43.4441C60.5668 43.5139 60.62 43.5879 60.7004 43.6163C60.7856 43.6463 60.8812 43.616 60.9565 43.5667C61.2139 43.3984 61.279 43.0352 61.1925 42.7409C61.1059 42.4467 60.9014 42.2036 60.7066 41.966C60.5118 41.7284 60.3161 41.4754 60.2526 41.1752C60.3542 41.1126 60.4555 41.0502 60.5568 40.9876Z" fill="#99644C"/>
<path d="M51.1081 49.1943C51.0556 48.927 48.9521 46.0319 46.9102 45.3217C47.3285 45.0025 48.2253 43.8114 48.6324 43.5929C50.168 44.3199 51.0206 45.3424 53.1557 46.1718C52.3952 47.7157 51.9674 48.3113 51.1081 49.1943Z" fill="#428DFC"/>
<path d="M53.1154 46.1719C54.2156 47.0427 55.3284 47.7122 56.4504 48.2347L54.6872 46.0574L52.6172 43.9946C53.0048 44.8376 53.2217 45.5903 53.1154 46.1719Z" fill="#428DFC"/>
<path d="M52.3807 78.2874C52.7057 79.466 53.0308 80.6447 53.3559 81.8233C53.4211 82.06 53.6377 82.359 53.8399 82.2185C53.9381 82.1502 53.9507 82.0123 53.9526 81.8928C53.9607 81.3289 53.9286 80.7644 53.8568 80.205C53.7514 79.3846 53.5605 78.5723 53.5457 77.7455C53.5177 76.1829 54.1184 74.6121 53.7909 73.0835C53.7674 72.9735 53.7364 72.8598 53.6601 72.7769C53.5826 72.6929 53.4694 72.6531 53.3609 72.616C52.9212 72.4665 53.1902 73.2678 52.7505 73.1183C53.4582 74.3829 52.9222 74.9826 52.51 76.3709C52.3964 76.7542 52.2387 77.1349 52.2422 77.5344C52.2441 77.7908 52.3126 78.0407 52.3807 78.2874Z" fill="#885944"/>
<path d="M57.4175 71.1841C57.358 71.1437 57.2817 71.1394 57.2098 71.1391C56.508 71.1356 55.8131 71.3929 55.117 71.3053C54.7974 71.2651 54.493 70.9994 54.079 71.0789C54.0197 71.0901 53.4687 71.0532 53.3441 71.0489C51.8116 70.997 50.3 70.4471 49.094 69.5029C48.8315 69.9862 48.5694 70.4692 48.3069 70.9523C48.2598 71.0391 48.2112 71.1334 48.225 71.231C48.2455 71.3755 48.3894 71.4646 48.519 71.5324C49.1511 71.8617 49.7996 72.1599 50.4613 72.4256C51.033 72.6554 51.6206 72.8637 52.1307 73.2084C52.6409 73.5531 53.0749 74.0604 53.1771 74.6663C53.2647 75.1852 53.1027 75.7114 52.9253 76.207C52.3448 77.8277 51.5747 79.3809 50.636 80.8254C50.4651 81.0885 50.344 81.5353 50.6429 81.6329C50.8199 81.6908 50.9949 81.5491 51.1219 81.4132C52.5367 79.8986 53.1322 77.8201 54.1344 76.008C54.3781 75.5671 54.6531 75.1241 54.7154 74.6246C54.7487 74.358 54.7192 74.0878 54.6894 73.8204C54.6371 73.3474 54.5846 72.8741 54.5325 72.4009C54.966 72.2837 55.4226 72.2371 55.8723 72.1959C56.4098 72.1466 56.9991 72.0747 57.367 71.681C57.4971 71.5419 57.5749 71.2908 57.4175 71.1841Z" fill="#99644C"/>
<path d="M50.3716 73.7074L51.5158 70.7388L49.0356 69.5146L47.582 72.3669L50.3716 73.7074Z" fill="#428DFC"/>
<path d="M39.8725 63.755C39.1657 63.6426 37.1426 62.493 38.1854 62.6413C39.2204 62.8836 39.7326 63.3557 40.7676 63.5981C42.1042 61.6371 43.9634 59.4467 45.2997 57.4858C47.3726 54.445 48.9379 52.0225 47.7195 48.5944C47.3371 47.5181 46.5438 47.0451 45.3402 47.186C44.5634 47.277 43.9829 48.1333 43.7532 48.5097C39.5343 55.4137 36.5711 59.0623 32.3524 65.9663C32.1051 66.3708 31.8556 66.8667 32.1003 67.2764C32.2373 67.5056 32.5001 67.6458 32.7536 67.7677C37.6836 70.1357 44.137 71.4187 48.4874 73.7564C49.3357 72.3014 49.7082 71.6563 50.5562 70.2012C47.4824 68.2029 44.2502 66.4079 40.8939 64.8353C40.4142 64.6105 39.9017 64.3844 39.3662 64.418C38.075 64.4989 37.2622 66.0168 35.9687 65.9463C36.9728 64.8677 38.3592 64.0897 39.8725 63.755Z" fill="url(#paint5_linear)"/>
<path d="M64.256 66.0244C64.2006 66.0244 64.1506 65.9872 64.1366 65.9318C63.661 64.0454 62.8538 62.2221 62.1342 60.6606C61.2813 58.8102 60.3134 56.9057 58.6903 55.7382C57.0482 54.5569 55.8665 54.3924 53.909 54.1201C53.8676 54.1144 53.8322 54.0882 53.8146 54.0506C53.7972 54.013 53.7996 53.9689 53.8217 53.9339L55.0662 51.9464C53.4521 51.1384 51.7529 50.4837 50.013 50L49.7369 49.9243C48.8962 49.6943 48.0265 49.4567 47.3195 48.9237C46.0776 47.9871 45.6029 46.1441 46.2386 44.7269C46.2662 44.6652 46.3387 44.6374 46.4013 44.6652C46.4634 44.6928 46.4912 44.7655 46.4634 44.8274C45.8724 46.1443 46.3138 47.8579 47.4679 48.7285C48.1374 49.2332 48.9835 49.4643 49.8019 49.6883L50.0787 49.7645C51.8773 50.2649 53.6331 50.9458 55.2969 51.789C55.3276 51.8045 55.3504 51.8323 55.3597 51.8654C55.3689 51.8985 55.3639 51.934 55.3454 51.963L54.1301 53.9044C56.0144 54.1677 57.1954 54.3622 58.8337 55.5406C60.5051 56.7428 61.4906 58.6792 62.3568 60.5594C63.0807 62.1306 63.8935 63.9666 64.3744 65.873C64.3906 65.9387 64.3509 66.0053 64.2852 66.0218C64.2757 66.023 64.2657 66.0244 64.256 66.0244Z" fill="#428DFC"/>
<path d="M66.2929 149.045C67.4031 148.566 63.457 145.401 60.4466 144.252C58.6295 143.558 57.8551 143.084 56.0741 143.039C54.0584 142.988 49.8761 143.071 47.8606 143.02C47.8054 145.087 47.4589 149.046 47.755 149.009C49.815 149.211 66.034 149.008 66.2929 149.045Z" fill="url(#paint6_linear)"/>
<path d="M59.8516 149.045C60.9618 148.566 57.0156 145.401 54.0053 144.252C52.1882 143.558 51.4138 143.084 49.6328 143.039C47.617 142.988 43.4348 143.071 41.4192 143.02C41.3641 145.087 41.0176 149.046 41.3134 149.009C43.3734 149.211 59.5924 149.008 59.8516 149.045Z" fill="url(#paint7_linear)"/>
<path d="M49.1053 47.7731C49.062 47.7914 49.0382 47.8319 49.0565 47.875C49.0751 47.918 49.1155 47.9418 49.1588 47.9235C49.2021 47.9052 49.2259 47.8647 49.2075 47.8216C49.1895 47.7783 49.1486 47.755 49.1053 47.7731ZM42.3096 51.7568C42.2692 51.7335 42.2256 51.7515 42.2019 51.7923C42.1783 51.8327 42.1964 51.8761 42.2373 51.8996C42.278 51.9232 42.3215 51.9051 42.345 51.8644C42.39 51.8251 42.3505 51.7804 42.3096 51.7568ZM44.1582 52.5469C44.1175 52.5233 44.074 52.5414 44.0504 52.5821C44.0269 52.6226 44.045 52.6659 44.0859 52.6895C44.1265 52.7131 44.1701 52.695 44.1936 52.6543C44.216 52.6348 44.1988 52.5707 44.1582 52.5469ZM45.4512 48.8234C45.4276 48.8639 45.4248 48.9058 45.4431 48.9491C45.4838 48.9727 45.5259 48.9753 45.5694 48.9572C45.5929 48.9167 45.5958 48.8748 45.576 48.8524C45.5382 48.787 45.4961 48.7843 45.4512 48.8234ZM46.8562 50.2794C46.8327 50.3198 46.8298 50.3617 46.8481 50.4051C46.8888 50.4286 46.9309 50.4313 46.9744 50.4132C46.998 50.3727 47.0008 50.3308 46.9811 50.3084C46.943 50.2429 46.8798 50.2389 46.8562 50.2794ZM42.3679 55.7974C42.3258 55.7948 42.2811 55.8338 42.2787 55.876C42.2761 55.9179 42.3153 55.9626 42.3574 55.965C42.3995 55.9676 42.4442 55.9286 42.4466 55.8864C42.4492 55.8448 42.4097 55.8 42.3679 55.7974ZM44.3903 55.8419C44.3482 55.8393 44.3035 55.8783 44.3011 55.9205C44.2985 55.9624 44.3377 56.0071 44.3798 56.0095C44.4219 56.0121 44.4666 55.9731 44.469 55.931C44.4719 55.8891 44.4324 55.8445 44.3903 55.8419ZM46.9069 47.5071C46.8845 47.5267 46.8593 47.5883 46.9002 47.6119C46.92 47.6343 46.9816 47.6593 47.0053 47.6186C47.0277 47.599 47.0529 47.5374 47.012 47.5138C46.9937 47.4707 46.9516 47.4681 46.9069 47.5071ZM48.0413 48.9039C48.0189 48.9234 47.9937 48.985 48.0346 49.0086C48.0544 49.031 48.0948 49.0545 48.1397 49.0153C48.1621 48.9957 48.1856 48.9553 48.1464 48.9105C48.1055 48.887 48.0639 48.8843 48.0413 48.9039ZM43.3013 54.0695C43.2592 54.0669 43.2159 54.0853 43.2133 54.1269C43.2107 54.1688 43.2302 54.1912 43.2709 54.2148C43.313 54.2174 43.3562 54.1991 43.3589 54.1574C43.3615 54.1155 43.3432 54.0724 43.3013 54.0695ZM45.0821 54.2667C45.04 54.264 44.9967 54.2824 44.9941 54.324C44.9915 54.3659 45.011 54.3883 45.0517 54.4119C45.0937 54.4145 45.137 54.3962 45.1396 54.3545C45.1423 54.3128 45.124 54.2693 45.0821 54.2667ZM45.3504 50.7305C45.3097 50.7069 45.2662 50.725 45.2426 50.7657C45.2191 50.8062 45.2372 50.8495 45.2781 50.8731C45.3187 50.8967 45.3622 50.8786 45.3858 50.8379C45.4096 50.7974 45.391 50.7541 45.3504 50.7305ZM45.1358 46.827C45.0952 46.8034 45.0517 46.8215 45.0281 46.8622C45.0046 46.9027 45.0226 46.946 45.0635 46.9696C45.1045 46.9932 45.1477 46.9751 45.1713 46.9344C45.1951 46.8939 45.1765 46.8506 45.1358 46.827ZM46.9499 47.8252C46.9093 47.8016 46.8657 47.8197 46.8422 47.8604C46.8187 47.9009 46.8367 47.9442 46.8776 47.9678C46.9183 47.9914 46.9618 47.9733 46.9854 47.9326C47.0089 47.8921 46.9906 47.849 46.9499 47.8252ZM48.7861 48.8041C48.7455 48.7805 48.7019 48.7986 48.6784 48.8393C48.6549 48.8798 48.6729 48.9231 48.7138 48.9467C48.7545 48.9703 48.798 48.9522 48.8216 48.9115C48.8242 48.8696 48.8059 48.8265 48.7861 48.8041ZM44.1401 55.4686C44.0968 55.487 44.073 55.5274 44.0913 55.5705C44.1099 55.6136 44.1503 55.6374 44.1936 55.6191C44.2369 55.6008 44.2607 55.5603 44.2424 55.5172C44.2452 55.4753 44.1834 55.4503 44.1401 55.4686ZM51.2849 47.3438C51.2454 47.2993 51.2036 47.2965 51.1586 47.3357L51.2849 47.3438ZM44.7629 51.0086C44.7208 51.0059 44.6761 51.045 44.6738 51.0871C44.6711 51.129 44.7104 51.1738 44.7525 51.1762C44.7946 51.1788 44.8393 51.1397 44.8417 51.0976C44.8445 51.0557 44.805 51.0112 44.7629 51.0086ZM44.5572 49.6076C44.5151 49.6049 44.4704 49.644 44.468 49.6861C44.4654 49.728 44.5047 49.7728 44.5468 49.7752C44.5889 49.7778 44.6321 49.7594 44.6359 49.6966C44.6386 49.6549 44.5991 49.6104 44.5572 49.6076ZM46.6058 49.9061C46.5637 49.9035 46.519 49.9425 46.5166 49.9847C46.514 50.0266 46.5323 50.0696 46.5953 50.0737C46.6374 50.0763 46.6821 50.0373 46.7057 49.9968C46.6871 49.9532 46.6479 49.9087 46.6058 49.9061ZM48.8582 47.0213C48.8175 46.9977 48.774 47.0158 48.7505 47.0565C48.7269 47.097 48.745 47.1403 48.7845 47.1848C48.8251 47.2084 48.8687 47.1903 48.9131 47.151C48.9172 47.0884 48.8986 47.0448 48.8582 47.0213ZM49.1671 47.7981C49.125 47.7954 49.1027 47.815 49.0803 47.8345C49.0777 47.8764 49.0972 47.8988 49.1169 47.9211C49.159 47.9238 49.1814 47.9042 49.2037 47.8847C49.2064 47.8426 49.188 47.7993 49.1671 47.7981Z" fill="white"/>
<defs>
<linearGradient id="paint0_linear" x1="132.156" y1="51.7013" x2="104.053" y2="51.8304" gradientUnits="userSpaceOnUse">
<stop stop-color="#92C4FE"/>
<stop offset="1" stop-color="#5BABF2"/>
</linearGradient>
<linearGradient id="paint1_linear" x1="127.5" y1="33.1959" x2="108.538" y2="33.2831" gradientUnits="userSpaceOnUse">
<stop stop-color="#FF4945"/>
<stop offset="1" stop-color="#F92424"/>
</linearGradient>
<linearGradient id="paint2_linear" x1="46.7838" y1="113.942" x2="66.6949" y2="96.2249" gradientUnits="userSpaceOnUse">
<stop stop-color="#E94A47"/>
<stop offset="1" stop-color="#D62929"/>
</linearGradient>
<linearGradient id="paint3_linear" x1="39.1836" y1="35.9949" x2="49.9706" y2="35.9949" gradientUnits="userSpaceOnUse">
<stop stop-color="#23286B"/>
<stop offset="1" stop-color="#151A4F"/>
</linearGradient>
<linearGradient id="paint4_linear" x1="49.5034" y1="68.6399" x2="68.1045" y2="52.3351" gradientUnits="userSpaceOnUse">
<stop stop-color="#E94A47"/>
<stop offset="1" stop-color="#D62929"/>
</linearGradient>
<linearGradient id="paint5_linear" x1="34.7399" y1="55.4432" x2="51.8445" y2="62.7506" gradientUnits="userSpaceOnUse">
<stop stop-color="#E94A47"/>
<stop offset="1" stop-color="#D62929"/>
</linearGradient>
<linearGradient id="paint6_linear" x1="66.4846" y1="146.06" x2="47.6369" y2="146.06" gradientUnits="userSpaceOnUse">
<stop stop-color="#428DFC"/>
<stop offset="1" stop-color="#1D72D8"/>
</linearGradient>
<linearGradient id="paint7_linear" x1="60.0431" y1="146.06" x2="41.1953" y2="146.06" gradientUnits="userSpaceOnUse">
<stop stop-color="#428DFC"/>
<stop offset="1" stop-color="#1D72D8"/>
</linearGradient>
</defs>
</svg>
