<svg fill="none" height="160" viewBox="0 0 176 160" width="176" xmlns="http://www.w3.org/2000/svg" xmlns:xlink="http://www.w3.org/1999/xlink"><linearGradient id="a" gradientUnits="userSpaceOnUse" x1="30.6826" x2="82.1331" y1="71.488" y2="71.488"><stop offset="0" stop-color="#e8f1fe"/><stop offset="1" stop-color="#c1d7f8"/></linearGradient><linearGradient id="b" gradientUnits="userSpaceOnUse" x1="88.4962" x2="166.566" y1="84.5154" y2="84.5154"><stop offset="0" stop-color="#a1c3fc"/><stop offset="1" stop-color="#78a9ef"/></linearGradient><linearGradient id="c"><stop offset="0" stop-color="#ffbeb6"/><stop offset="1" stop-color="#f2a19c"/></linearGradient><linearGradient id="d" gradientUnits="userSpaceOnUse" x1="109.081" x2="116.785" xlink:href="#c" y1="114.822" y2="114.822"/><linearGradient id="e" gradientUnits="userSpaceOnUse" x1="54.9415" x2="62.2195" xlink:href="#c" y1="96.0917" y2="96.0917"/><linearGradient id="f"><stop offset="0" stop-color="#3e8af8"/><stop offset="1" stop-color="#1479f2"/></linearGradient><linearGradient id="g" gradientUnits="userSpaceOnUse" x1="47.2372" x2="85.9158" xlink:href="#f" y1="103.933" y2="103.933"/><linearGradient id="h" gradientUnits="userSpaceOnUse" x1="38.5058" x2="54.4492" xlink:href="#c" y1="103.268" y2="103.268"/><linearGradient id="i" gradientUnits="userSpaceOnUse" x1="83.9496" x2="62.1561" xlink:href="#f" y1="102.269" y2="98.8079"/><linearGradient id="j"><stop offset="0" stop-color="#eee"/><stop offset="1" stop-color="#dce3ea"/></linearGradient><linearGradient id="k" gradientUnits="userSpaceOnUse" x1="133.053" x2="105.827" xlink:href="#j" y1="119.056" y2="119.056"/><linearGradient id="l" gradientUnits="userSpaceOnUse" x1="172.575" x2="141.432" xlink:href="#j" y1="119.047" y2="119.047"/><linearGradient id="m" gradientUnits="userSpaceOnUse" x1="138.018" x2="122.247" xlink:href="#j" y1="113.955" y2="151.218"/><linearGradient id="n" gradientUnits="userSpaceOnUse" x1="20.9167" x2="25.9259" y1="107.105" y2="107.105"><stop offset="0" stop-color="#c6dafd"/><stop offset="1" stop-color="#b8d1fd"/></linearGradient><linearGradient id="o" gradientUnits="userSpaceOnUse" x1="19.799" x2="29.3351" y1="114.976" y2="114.976"><stop offset="0" stop-color="#428dfc"/><stop offset="1" stop-color="#1d72d8"/></linearGradient><path d="m56.415 97.676c14.2089 0 25.7275-11.7251 25.7275-26.1886 0-14.4636-11.5186-26.1887-25.7275-26.1887s-25.7275 11.7251-25.7275 26.1887c0 14.4635 11.5186 26.1886 25.7275 26.1886z" fill="url(#a)"/><path d="m149.657 47.8734-3.247-3.2279 3.247-3.2472.519.538-2.69 2.7092 2.69 2.6899z" fill="#87b4ea"/><path d="m147.24 47.8734-3.209-3.2279 3.209-3.2472.557.538-2.709 2.7092 2.709 2.6899z" fill="#87b4ea"/><path d="m16.7177 75.4647-.538-.5572 2.6899-2.69-2.6899-2.7092.538-.538 3.2087 3.2472z" fill="#1d72d8"/><path d="m19.1197 75.4647-.5572-.5572 2.7092-2.69-2.7092-2.7092.5572-.538 3.228 3.2472z" fill="#1d72d8"/><path d="m154.752 117.735 2.459 1.268c.25.077.5.135.769.173l-3.843-1.959c.211.192.403.365.615.518z" fill="#78a9ef"/><path d="m153.426 116.448 5.572 2.863h.403l-6.206-3.19c.077.096.154.212.231.327z" fill="#78a9ef"/><path d="m152.889 115.545 7.243 3.727c.096-.019.212-.019.327-.057l-7.686-3.958c.039.096.077.173.116.288z" fill="#78a9ef"/><path d="m152.716 114.796 8.339 4.284c.096-.019.173-.057.288-.077l-8.608-4.438c-.038.077-.038.154-.019.231z" fill="#78a9ef"/><path d="m152.754 114.2 9.107 4.669c.077-.019.154-.058.231-.096l-9.28-4.765c-.058.038-.058.115-.058.192z" fill="#78a9ef"/><path d="m152.867 113.604 9.626 4.977c.077-.019.135-.077.212-.096l-9.78-5.034c-.039.038-.058.115-.058.153z" fill="#78a9ef"/><path d="m153.039 113.086 10.03 5.168c.057-.019.134-.077.173-.134l-10.165-5.227c.02.077 0 .135-.038.193z" fill="#78a9ef"/><path d="m153.273 112.567 10.338 5.322c.057-.058.134-.077.172-.134l-10.413-5.38c-.02.076-.039.153-.097.192z" fill="#78a9ef"/><path d="m153.675 112.067c-.019.02-.019.02-.058.058l10.491 5.399c.058-.058.096-.077.154-.134l-10.472-5.38c-.038 0-.077.038-.115.057z" fill="#78a9ef"/><path d="m154.615 111.914c-.058 0-.077 0-.135 0l10.069 5.168c.057-.058.076-.096.134-.154l-9.799-5.034c-.115.02-.192.02-.269.02z" fill="#78a9ef"/><path d="m155.48 111.817 9.435 4.842c.057-.057.076-.096.096-.153l-9.3-4.765c-.058.019-.134.038-.231.076z" fill="#78a9ef"/><path d="m156.191 111.529 9.05 4.669c.019-.057.077-.096.096-.153l-8.953-4.593c-.039 0-.116.058-.193.077z" fill="#78a9ef"/><path d="m156.77 111.203 8.761 4.515c.019-.058.058-.096.077-.173l-8.666-4.477c-.057.039-.115.077-.172.135z" fill="#78a9ef"/><path d="m157.23 110.799 8.512 4.381c.019-.058.058-.135.077-.173l-8.454-4.362c-.038.077-.077.096-.135.154z" fill="#78a9ef"/><path d="m157.613 110.376 8.32 4.285c.019-.058.019-.134.058-.173l-8.262-4.265c-.039.038-.077.096-.116.153z" fill="#78a9ef"/><path d="m157.922 109.877 8.127 4.189c0-.077.02-.135.02-.212l-8.051-4.15c-.019.077-.058.134-.096.173z" fill="#78a9ef"/><path d="m166.107 113.258-7.877-4.054c-.02.058-.058.135-.058.173l7.935 4.074c0-.077 0-.116 0-.193z" fill="#78a9ef"/><path d="m166.029 112.567-7.686-3.958c0 .077-.019.134-.019.211l7.763 3.977c-.039-.076-.039-.153-.058-.23z" fill="#78a9ef"/><path d="m165.819 111.837-7.32-3.785c-.019.057-.058.096-.077.172l7.474 3.862c0-.076-.019-.153-.077-.249z" fill="#78a9ef"/><path d="m165.432 111.049c-.019-.019-.019-.058-.057-.058l-6.476-3.343c-.076.019-.134.077-.172.135l6.84 3.516c-.019-.077-.077-.173-.135-.25z" fill="#78a9ef"/><path d="m164.242 109.762-4.169-2.152c-.173-.058-.384-.077-.557-.077l5.303 2.728c-.192-.173-.365-.327-.577-.499z" fill="#78a9ef"/><path d="m122.743 96.7729-.768.173-9.127 2.1711v.0192l9.127-2.1711.768-.173 5.073-1.2104v-.0193zm-13.949 6.9171v.038l14.449-3.439v-.038zm48.938-52.7616c-.461-.5764-.922-1.1336-1.364-1.6909l-21.981 16.8315-.115.0961-4.189 3.2087-1.018.7686-3.036 2.3248-1.019.7686-3.554 2.7284-.769.5764-3.958 3.0358-.595.4612-26.5925 20.4054-.5765.442-.4611.346c.4035.614.8262 1.191 1.2873 1.767.173.212.3459.442.4996.654.3266.422.6725.826 1.0183 1.229 2.1328 2.479 4.4769 4.65 6.9939 6.514l.8647-1.038 9.8763-2.363 1.018-.231 13.507-3.228 1.441-.345 1.019-.25 6.456-1.537c-.02.422-.058.864-.077 1.287l-.807.192-1.018.25-7.763 1.864-6.936 1.652-1.019.25-15.217 3.631-.9223.212c.2498.173.538.384.7878.557l.1345-.039 5.072-1.21.116-.019 10.029-2.402 1.019-.25 4.823-1.153.768-.192.922-.211 8.205-1.96 1.018-.25.73-.173c0 .154-.019.308-.038.461-.039.25-.077.481-.116.769l-10.49 2.498-.231.057-.768.173-14.949 3.574-1.018.25-3.901.922c.154.096.327.212.5.308l3.401-.807 1.018-.25 4.554-1.095 1.21-.289 9.55-2.286.365-.096h.019l10.644-2.536v.019c-.057.288-.115.596-.192.903-.019.058-.019.134-.038.192-.039.115-.058.231-.096.346l-11.144 2.671-3.478.826-1.018.25-4.554 1.095-1.268.307-7.282 1.73h-.02s.02 0 .02.019c.038.019.077.038.115.057.231.135.461.25.672.346l1.461-.346 10.856-2.593 1.018-.25 3.113-.75 11.374-2.709v.019c-.115.346-.25.788-.365 1.249l-11.682 2.786-9.492 2.287-4.669 1.114s.02 0 .02.019c.288.154.595.269.883.423l6.418-1.537 6.437-1.537 11.778-2.805c-.019.057-.039.115-.058.173-.038.115-.077.23-.115.345-.039.116-.077.231-.135.346-.057.154-.134.308-.211.442l-11.951 2.844-.961.231-9.415 2.248c.404.153.807.307 1.211.461l8.723-2.095 2.479-.595 9.549-2.287-.019.019c-.25.481-.5.942-.769 1.442l-3.554.845-8.435 2.017-4.035.961-1.691.404c.019 0 .038 0 .038.019.25.077.5.134.75.211l2.651-.634 2.018-.48 10.471-2.498 1.461-.346h.019c-.058.135-.116.25-.192.365-.25.442-.519.865-.788 1.249l-7.052 1.691-.077.019-5.61 1.345c.5.096 1.018.192 1.518.288l.058-.019 5.937-1.422.903-.211 3.631-.865.039-.019c-.135.25-.289.384-.423.557-.096.096-.173.212-.25.308-.154.192-.327.384-.499.576l-3.382.807-2.786.673c.807.076 1.595.115 2.402.153h.115l.096-.019.173-.038 2.459-.577.058-.019c-.231.231-.461.461-.692.653 4.266-.096 8.55-.807 12.681-2.19 2.21-.749 4.4-1.672 6.495-2.786 2.056-1.095 4.035-2.363 5.937-3.824 5.841-4.496 10.222-10.183 13.027-16.4853 6.264-13.8917 4.861-30.6463-5.034-43.5773zm-28.917 37.8323c.077.1153.154.2306.211.3459v.0192c.096.1537.192.3266.288.4419h-.038l-7.82 1.8637-.769.173-4.822 1.1528-1.019.2306-2.056.4803 1.172-1.3257.884-.2114 1.019-.2498 9.357-2.2288.788-.1921 2.709-.6533c.057.0768.077.1153.096.1537zm-12.163.0961 1.268-1.5564 8.339-1.979c.289.3266.577.6533.846.9799v.0192c.019.0192.038.0385.057.0577l-6.974 1.6524-1.019.2305-2.555.6149zm5.841-6.9939-.211.0576.096-.1345c.019.0192.077.0769.115.0769zm-.941.9607 1.652-.4035c.077.0961.135.0768.173.1345.346.269.692.6148 1.019.8646h-.039l-.077.0192-1.018.2306-2.959.7109-.058.0192zm1.691 1.614 1.018-.2498.769-.1922c.057.0769.115.1345.173.1922.057.0576.115.1153.173.1729.038.0384.076.0769.115.1153.154.1537.288.2882.442.4611h-.019l-1.653.3843-.346.0769-5.533 1.3065h-.02l1.172-1.4218zm-7.34 5.3799 3.286-.7878 1.018-.2498 4.823-1.1528.711-.1729 1.902-.4612c.25.3651.461.6341.711 1.0184l-2.306.5572-1.018.2497-10.28 2.4594zm-3.651 4.4576 8.474-2.0367.768-.1729 8.147-1.9406c.038.0768.096.1729.135.2498v.0192c.134.269.288.5572.422.8262 0 0 0 .0192.019.0192.02.0384.039.0961.077.1345l-2.939.6917-1.019.2306-14.698 3.4969-.788.1922h-.019l.576-.6917zm-1.94 2.3057.019-.0384 1.249-.2882 14.699-3.5162 1.018-.2498 3.113-.7493c.096.2113.173.4035.23.5764.096.2306.192.4611.269.6725l-3.958.9415-.519.1152-9.28 2.2097-1.018.2497-7.071 1.6716h-.019zm-5.015 6.2442 1.422-1.825 5.111-1.2105 1.018-.2498 14.948-3.5545.193-.0385.576-.1345 3.036-.7301c.038.1729.077.3459.115.4996.077.3074.154.5764.231.903l-4.842 1.1529-8.704 2.0751-.769.1729zm12.374-2.401.768-.193 8.397-1.9978 5.226-1.2489c.077.4035.154.807.211 1.1144h-.038l-6.072 1.441-1.883.442-1.018.2493-14.449 3.44-1.018.25-4.227.999h-.02l1.134-1.422zm-14.872 5.476 4.996-1.192 1.018-.249 4.823-1.153.653-.154 9.549-2.286.442-.097 1.422-.345 3.401-.8074 1.018-.2498 2.229-.538c.058.4035.077.7302.096 1.1144v.0192l-2.325.5576-1.018.249-4.073.98-10.626 2.537-.768.192-11.99 2.863zm23.23-2.364-1.019.25-1.191.288-3.612.865-.096.019-10.03 2.402-1.018.25-4.573 1.095-.327.077-4.5534 1.095 1.4414-1.825 2.44-.577 1.018-.25 9.396-2.248.48-.115 4.823-1.153 1.018-.25 4.477-1.076 7.762-1.844h.02c.019.538.019.941.057 1.479zm5.457-8.8574-2.921.6917-.307.0769-.442.096-5.073 1.2105-.768.1729-9.127 2.1712-1.018.2498-4.669 1.1144h-.02l1.173-1.441 8.165-1.9599.673-.1537 4.823-1.1528.768-.1729 8.397-1.9983c.019.0577.038.1153.057.1729v.0193c.058.1921.116.365.173.5379 0 .0193.019.0385.019.0577.02.0384.039.0961.039.1345.019.0576.038.1153.058.1729zm-8.743 2.0943-.768.173-9.127 2.1711v.0192l9.127-2.1711.768-.173 5.073-1.2104v-.0193zm-13.949 6.9171v.038l14.449-3.439v-.038z" fill="url(#b)"/><path d="m106.889 126.382 12.893-3.094c.961-.557 1.921-1.095 2.805-1.844l-19.079 4.553c1.153.289 2.248.346 3.381.385z" fill="#ebf2fe"/><path d="m122.549 119.772-22.5568 5.38c.7298.25 1.4798.5 2.2288.634l21.424-5.111c.345-.288.691-.576 1.018-.903-.692.019-1.403.019-2.114 0z" fill="#ebf2fe"/><path d="m125.352 119.119-2.786.653c.711.019 1.403.019 2.095 0 .23-.211.461-.442.691-.653z" fill="#bed6fd"/><path d="m91.5962 119.618-.3267.404c.2498.23.4996.499.7686.653l16.1009-3.862c-.614-.231-1.191-.48-1.767-.73z" fill="#ebf2fe"/><path d="m130.964 110.223-24.632 5.879c.576.25 1.191.5 1.768.73l22.326-5.322c.25-.365.385-.845.538-1.287z" fill="#bed6fd"/><path d="m95.5342 114.853-1.4795 1.73 8.9733-2.133c-.558-.308-1.115-.634-1.672-.98z" fill="#ebf2fe"/><path d="m132.117 106.13-30.762 7.359c.558.327 1.115.653 1.672.98l28.763-6.859c.116-.481.212-1.038.327-1.48z" fill="#bed6fd"/><path d="m93.4767 117.37-1.172 1.441 13.1043-3.112c-.538-.25-1.057-.5-1.576-.788z" fill="#ebf2fe"/><path d="m131.635 108.263-27.803 6.648c.538.288 1.038.538 1.576.788l25.881-6.187c.096-.461.211-.903.346-1.249z" fill="#bed6fd"/><path d="m92.7305 121.271c.4227.326.8838.634 1.3449.96l17.5426-4.188c-.769-.231-1.518-.461-2.248-.73z" fill="#ebf2fe"/><path d="m130.118 112.336-20.751 4.977c.769.288 1.499.499 2.248.73l17.715-4.227c.269-.5.519-.999.788-1.48z" fill="#bed6fd"/><path d="m123.374 82.5545c-.058-.0576-.096-.0576-.173-.1345l-1.653.4035-1.325 1.5948 4.15-.9799c-.288-.269-.653-.5956-.999-.8839z" fill="#bed6fd"/><path d="m131.597 95.082-24.883 5.937-1.441 1.825 26.669-6.3593c-.115-.4804-.211-.9031-.345-1.4027z" fill="#bed6fd"/><path d="m97.0898 123.961c.5572.288 1.1337.576 1.7293.768l21.2319-5.072c-1.057-.096-2.152-.231-3.228-.404z" fill="#ebf2fe"/><path d="m126.965 117.255c.154-.173.308-.327.423-.557l-10.568 2.517c1.057.173 2.133.307 3.228.403l6.168-1.479c.25-.25.5-.577.749-.884z" fill="#bed6fd"/><path d="m122.377 81.786-.096.1345.212-.0576c-.039 0-.077-.0577-.116-.0769z" fill="#bed6fd"/><path d="m94.5547 122.539c.538.403 1.0568.711 1.5947 1.018l19.1566-4.592c-.961-.211-1.96-.423-2.921-.692z" fill="#ebf2fe"/><path d="m129.022 114.296-16.62 3.958c.961.25 1.922.48 2.921.692l12.739-3.036c.346-.5.672-.999.96-1.614z" fill="#bed6fd"/><path d="m97.1291 112.874-1.1721 1.441 4.861-1.172c-.423-.288-.8644-.557-1.2872-.864z" fill="#ebf2fe"/><path d="m132.349 104.458-32.7982 7.84c.4227.307.8642.576 1.2872.864l31.357-7.493c.039-.423.116-.769.154-1.211z" fill="#bed6fd"/><path d="m128.737 88.6454-14.757 3.5162-1.191 1.3449 16.505-3.9196c-.154-.3074-.346-.6533-.557-.9415z" fill="#bed6fd"/><path d="m126.254 85.3021-8.338 1.9791-1.326 1.5947 10.548-2.517c-.269-.3459-.576-.7109-.884-1.0568z" fill="#bed6fd"/><path d="m127.619 86.993-11.74 2.8053-1.172 1.441 13.604-3.2471c-.212-.3651-.442-.6341-.692-.9992z" fill="#bed6fd"/><path d="m129.599 90.144-17.37 4.1502-1.479 1.7293 19.464-4.6306c-.154-.4227-.385-.8646-.615-1.2489z" fill="#bed6fd"/><path d="m125.007 84.0149-5.495 1.3065-1.172 1.4411 7.57-1.8061c-.288-.3459-.557-.5957-.903-.9415z" fill="#bed6fd"/><path d="m97.8398 111.971.9031-.23c-.1537-.096-.3074-.231-.4611-.327z" fill="#ebf2fe"/><path d="m132.502 102.403-33.3366 7.954-.8646 1.038c.1537.096.3074.23.4611.326l33.6631-8.031c.019-.423.038-.845.077-1.287z" fill="#bed6fd"/><path d="m116.593 124.806-6.187 1.48c2.114-.289 4.227-.692 6.187-1.48z" fill="#ebf2fe"/><path d="m132.348 98.8289-29.531 7.0511-1.172 1.441 30.8-7.3585c-.058-.3843-.058-.6917-.097-1.1336z" fill="#bed6fd"/><path d="m101.047 108.013-1.4415 1.825 32.8945-7.858c0-.538 0-.961-.058-1.48z" fill="#bed6fd"/><path d="m131.12 93.6218-22.807 5.4568-1.172 1.4414 24.325-5.803c-.077-.3266-.193-.7301-.346-1.0952z" fill="#bed6fd"/><path d="m132.04 97.0034-27.38 6.5326-1.172 1.441 28.725-6.84c-.019-.3074-.096-.7301-.173-1.1336z" fill="#bed6fd"/><path d="m130.405 91.7581-20.079 4.7842-1.287 1.6909 21.846-5.2262c-.115-.3843-.269-.7686-.48-1.2489z" fill="#bed6fd"/><path d="m144.776 64.3974v1.7677h.769v-1.7677zm0 15.1982v2.0367h.769v-2.0367zm-1.268-19.2524v2.0367h1.018v-2.0367zm0 15.1983v2.0174h1.018v-2.0174zm-1.268-19.0027v1.7677h1.018v-1.7677zm0 15.1983v2.0175h1.018v-2.0175zm0 15.717v2.0175h1.018v-2.0175zm-1.768-34.9694v2.0175h1.019v-2.0175zm0 15.717v2.0175h1.019v-2.0175zm0 15.1983v2.0174h1.019v-2.0174zm-1.268-19.0026v1.7677h.769v-1.7677zm0 15.1982v2.0367h.769v-2.0367zm-1.268-19.2524v2.0367h.769v-2.0367zm0 15.1983v2.0174h.769v-2.0174zm0 15.717v1.7677h.769v-1.7677zm-1.518-34.7197v1.7677h.769v-1.7677zm0 15.1983v2.0175h.769v-2.0175zm0 15.717v2.0175h.769v-2.0175zm-1.768-34.9694v2.0175h1.019v-2.0175zm0 15.717v2.0175h1.019v-2.0175zm0 15.1983v2.0174h1.019v-2.0174zm0 15.717v1.768h1.019v-1.768zm-1.268-50.1869v1.5179h1.019v-1.5179zm0 15.4673v1.7677h1.019v-1.7677zm0 15.1982v2.0367h1.019v-2.0367zm0 15.717v1.7677h1.019v-1.7677zm-1.268-50.4366v1.7677h.769v-1.7677zm0 15.4672v2.0367h.769v-2.0367zm0 15.1983v2.0174h.769v-2.0174zm0 15.717v1.7677h.769v-1.7677zm-1.518-50.1869v1.7869h1.019v-1.7677h-1.019zm0 15.4672v1.7677h1.019v-1.7677zm0 15.1983v2.0175h1.019v-2.0175zm0 15.717v2.0175h1.019v-2.0175zm-9.895 19.5219v.269l.769-.193v-.096h-.769zm9.895-3.805v1.768h1.019v-1.768zm-9.895 4.074.769-.193v-.096h-.769zm8.377-54.7603v2.0175h1.019v-2.0175zm0 15.717v2.0175h1.019v-2.0175zm0 15.1983v2.0174h1.019v-2.0174zm0 15.717v1.768h1.019v-1.768zm-1.268-50.1869v1.5179h.769v-1.5179zm0 15.4673v1.7677h.769v-1.7677zm0 15.1982v2.0367h.769v-2.0367zm0 15.717v1.7677h.769v-1.7677zm-1.537-50.4366v1.7677h1.019v-1.7677zm0 15.4672v2.0367h1.019v-2.0367zm0 15.1983v2.0174h1.019v-2.0174zm0 15.717v1.7677h1.019v-1.7677zm-1.268-50.1869v1.7869h1.018v-1.7677h-1.018zm0 15.4672v1.7677h1.018v-1.7677zm0 15.1983v2.0175h1.018v-2.0175zm0 15.717v2.0175h1.018v-2.0175zm0 15.7169v1.768h1.018v-1.768zm-1.768-66.1535v1.7676h1.019v-1.7676zm0 15.4672v2.0175h1.019v-2.0175zm0 15.717v2.0175h1.019v-2.0175zm0 15.1983v2.0174h1.019v-2.0174zm0 15.717v1.768h1.019v-1.768zm-1.268-50.1869v1.5179h.769v-1.5179zm0 15.4673v1.7677h.769v-1.7677zm0 15.1982v2.0367h.769v-2.0367zm0 15.717v1.7677h.769v-1.7677zm-1.268-50.4366v1.7677h.769v-1.7677zm0 15.4672v2.0367h.769v-2.0367zm0 15.1983v2.0174h.769v-2.0174zm0 15.717v1.7677h.769v-1.7677zm0 15.7175v1.767h.769v-1.767zm-1.518-65.9044v1.7869h1.019v-1.7677h-1.019zm0 15.4672v1.7677h1.019v-1.7677zm0 15.1983v2.0175h1.019v-2.0175zm0 15.717v2.0175h1.019v-2.0175zm0 15.7169v1.768h1.019v-1.768zm-1.518-66.1535v1.7676h.769v-1.7676zm0 15.4672v2.0175h.769v-2.0175zm0 15.717v2.0175h.769v-2.0175zm0 15.1983v2.0174h.769v-2.0174zm0 15.717v1.768h.769v-1.768zm-1.518-65.9039v1.7677h1.019v-1.7677zm0 15.717v1.5179h1.019v-1.5179zm0 15.4673v1.7677h1.019v-1.7677zm0 15.1982v2.0367h1.019v-2.0367zm0 15.717v1.7677h1.019v-1.7677zm0 15.7174v1.767h1.019v-1.767zm-1.268-66.154v1.7677h1.019v-1.7677zm0 15.4672v2.0367h1.019v-2.0367zm0 15.1983v2.0174h1.019v-2.0174zm0 15.717v1.7677h1.019v-1.7677zm0 15.7175v1.767h1.019v-1.767zm-1.268-65.9044v1.7869h.769v-1.7677h-.769zm0 15.4672v1.7677h.769v-1.7677zm0 15.1983v2.0175h.769v-2.0175zm0 15.717v2.0175h.769v-2.0175zm0 15.7169v1.768h.769v-1.768zm-1.787-66.1535v1.7676h1.019v-1.7676zm0 15.4672v2.0175h1.019v-2.0175zm0 15.717v2.0175h1.019v-2.0175zm0 15.1983v2.0174h1.019v-2.0174zm10.145 13.565v.1153h.769v-.2882zm-10.145 3.92h1.019v-1.768h-1.019zm10.145-3.92v.1153h.769v-.2882zm-11.663-63.7519v1.7677h1.268v-1.7677zm0 15.717v1.5179h1.268v-1.5179zm0 15.4673v1.7677h1.268v-1.7677zm0 15.1982v2.0367h1.268v-2.0367zm0 15.717v1.7677h1.268v-1.7677zm10.875 13.4304h.212l.038-.057zm-5.034 2.575 1.019-.25v-.038h-1.019zm-5.841-.288v1.767h1.268v-1.767zm5.841 0v.288l1.019-.25v-.038zm5.034-2.287h.212l.038-.057zm-12.143-63.867v1.7677h1.019v-1.7677zm0 15.4672v2.0367h1.019v-2.0367zm0 15.1983v2.0174h1.019v-2.0174zm0 15.717v1.7677h1.019v-1.7677zm11.048 13.6805h.096v-.019zm-11.048 3.804h1.019v-1.767h-1.019zm11.048-3.804h.096v-.019zm-12.316-63.8674v1.7869h1.018v-1.7677h-1.018zm0 15.4672v1.7677h1.018v-1.7677zm0 15.1983v2.0175h1.018v-2.0175zm0 15.717v2.0175h1.018v-2.0175zm5.841 15.7169v.154l.653-.154zm-5.841 1.768h1.018v-1.768h-1.018zm5.841-1.768v.154l.653-.154zm-7.359-66.1535v1.7676h.769v-1.7676zm0 15.4672v2.0175h.769v-2.0175zm0 15.717v2.0175h.769v-2.0175zm0 15.1983v2.0174h.769v-2.0174zm0 15.717v1.768h.769v-1.768zm-47.6504-34.7196v1.7677h.7685v-1.7677zm1.5371 19.0026v2.0174h.7685v-2.0174zm0-15.1983v2.0175h.7685v-2.0175zm1.5179 19.2524v2.0175h.7685v-2.0175zm0-15.717v2.0367h.7685v-2.0367zm0-15.1983v1.7677h.7685v-1.7677zm1.5179 34.7197v1.7677h.7685v-1.7677zm0-15.717v2.0174h.7685v-2.0174zm0-15.1983v2.0367h.7685v-2.0367zm1.0183 19.2524v2.0367h1.0184v-2.0367zm0-15.1982v1.7677h1.0184v-1.7677zm1.5179 19.0026v2.0174h.7686v-2.0174zm0-15.1983v2.0175h.7686v-2.0175zm0-15.717v2.0175h.7686v-2.0175zm1.5179 34.9694v2.0175h1.0184v-2.0175zm0-15.717v2.0367h1.0184v-2.0367zm0-15.1983v1.7677h1.0184v-1.7677zm1.5179 34.7197v1.7677h1.0184v-1.7677zm0-15.717v2.0174h1.0184v-2.0174zm0-15.1983v2.0367h1.0184v-2.0367zm0-15.4672v1.7677h1.0184v-1.7677zm1.2682 50.4366v1.7677h1.0183v-1.7677zm0-15.717v2.0367h1.0183v-2.0367zm0-15.1982v1.7677h1.0183v-1.7677zm0-15.4673v1.5179h1.0183v-1.5179zm1.5179 50.1869v1.768h.7685v-1.768zm0-15.717v2.0174h.7685v-2.0174zm0-15.1983v2.0175h.7685v-2.0175zm0-15.717v2.0175h.7685v-2.0175zm1.5179 50.6863v1.768h1.0183v-1.768zm0-15.7169v2.0175h1.0183v-2.0175zm0-15.717v2.0367h1.0183v-2.0367zm0-15.1983v1.7677h1.0183v-1.7677zm0-15.4672v1.7869h1.0183v-1.7677h-1.0183zm1.2681 50.1869v1.7677h1.0183v-1.7677zm0-15.717v2.0174h1.0183v-2.0174zm0-15.1983v2.0367h1.0183v-2.0367zm0-15.4672v1.7677h1.0183v-1.7677zm1.2681 50.4366v1.7677h1.0184v-1.7677zm0-15.717v2.0367h1.0184v-2.0367zm0-15.1982v1.7677h1.0184v-1.7677zm0-15.4673v1.5179h1.0184v-1.5179zm1.5179 50.1869v1.768h1.0184v-1.768zm0-15.717v2.0174h1.0184v-2.0174zm0-15.1983v2.0175h1.0184v-2.0175zm0-15.717v2.0175h1.0184v-2.0175zm0-15.4672v1.7676h1.0184v-1.7676zm1.7869 66.1535v1.768h.7686v-1.768zm0-15.7169v2.0175h.7686v-2.0175zm0-15.717v2.0367h.7686v-2.0367zm0-15.1983v1.7677h.7686v-1.7677zm0-15.4672v1.7869h.7686v-1.7677h-.7686zm1.2681 65.9044v1.767h1.0184v-1.767zm0-15.7175v1.7677h1.0184v-1.7677zm0-15.717v2.0174h1.0184v-2.0174zm0-15.1983v2.0367h1.0184v-2.0367zm0-15.4672v1.7677h1.0184v-1.7677zm1.5179 50.4366v1.7677h.7686v-1.7677zm0-15.717v2.0367h.7686v-2.0367zm0-15.1982v1.7677h.7686v-1.7677zm0-15.4673v1.5179h.7686v-1.5179zm1.2682 50.1869v1.768h.7685v-1.768zm0-15.717v2.0174h.7685v-2.0174zm0-15.1983v2.0175h.7685v-2.0175zm0-15.717v2.0175h.7685v-2.0175zm0-15.4672v1.7676h.7685v-1.7676zm1.5179 66.1535v1.768h1.0183v-1.768zm0-15.7169v2.0175h1.0183v-2.0175zm0-15.717v2.0367h1.0183v-2.0367zm0-15.1983v1.7677h1.0183v-1.7677zm0-15.4672v1.7869h1.0183v-1.7677h-1.0183zm1.2681 65.9044v1.767h1.0183v-1.767zm0-15.7175v1.7677h1.0183v-1.7677zm0-15.717v2.0174h1.0183v-2.0174zm0-15.1983v2.0367h1.0183v-2.0367zm0-15.4672v1.7677h1.0183v-1.7677zm1.5179 66.154v1.767h.7686v-1.767zm0-15.7174v1.7677h.7686v-1.7677zm0-15.717v2.0367h.7686v-2.0367zm0-15.1982v1.7677h.7686v-1.7677zm0-15.4673v1.5179h.7686v-1.5179zm0-15.717v1.7677h.7686v-1.7677zm1.2681 65.9039v1.768h1.0184v-1.768zm0-15.717v2.0174h1.0184v-2.0174zm0-15.1983v2.0175h1.0184v-2.0175zm0-15.717v2.0175h1.0184v-2.0175zm0-15.4672v1.7676h1.0184v-1.7676zm1.7677 66.1535v1.768h1.0183v-1.768zm0-15.7169v2.0175h1.0183v-2.0175zm0-15.717v2.0367h1.0183v-2.0367zm0-15.1983v1.7677h1.0183v-1.7677zm0-15.4672v1.7869h1.0183v-1.7677h-1.0183zm1.2681 65.9044v1.767h1.0184v-1.767zm0-15.7175v1.7677h1.0184v-1.7677zm0-15.717v2.0174h1.0184v-2.0174zm0-15.1983v2.0367h1.0184v-2.0367zm0-15.4672v1.7677h1.0184v-1.7677zm1.2682 66.154v1.767h1.0183v-1.767zm0-15.7174v1.7677h1.0183v-1.7677zm0-15.717v2.0367h1.0183v-2.0367zm0-15.1982v1.7677h1.0183v-1.7677zm0-15.4673v1.5179h1.0183v-1.5179zm0-15.717v1.7677h1.0183v-1.7677zm1.5179 65.9039v1.768h1.0183v-1.768zm0-15.717v2.0174h1.0183v-2.0174zm0-15.1983v2.0175h1.0183v-2.0175zm0-15.717v2.0175h1.0183v-2.0175zm0-15.4672v1.7676h1.0183v-1.7676zm1.7869 66.1535v1.768h.7685v-1.768zm0-15.7169v2.0175h.7685v-2.0175zm0-15.717v2.0367h.7685v-2.0367zm0-15.1983v1.7677h.7685v-1.7677zm0-15.4672v1.7869h.7685v-1.7677h-.7685zm1.2681 65.9044v1.767h1.0183v-1.767zm0-15.7175v1.7677h1.0183v-1.7677zm0-15.717v2.0174h1.0183v-2.0174zm0-15.1983v2.0367h1.0183v-2.0367zm0-15.4672v1.7677h1.0183v-1.7677zm17.4844 63.022v.864h1.019v-1.095zm-10.145 3.151.116-.019h-.116zm-6.0713 1.748h1.0183v-1.767h-1.0183zm6.0713-1.767v.019l.116-.019zm10.145-3.132v.864h1.019v-1.095zm-16.2163-12.5854v1.7677h1.0183v-1.7677zm0-15.717v2.0367h1.0183v-2.0367zm0-15.1982v1.7677h1.0183v-1.7677zm0-15.4673v1.5179h1.0183v-1.5179zm0-15.717v1.7677h1.0183v-1.7677zm1.2489 65.9039v1.768h1.0184v-1.768zm0-15.717v2.0174h1.0184v-2.0174zm0-15.1983v2.0175h1.0184v-2.0175zm0-15.717v2.0175h1.0184v-2.0175zm0-15.4672v1.7676h1.0184v-1.7676zm2.0364 66.1535v1.768h1.019v-1.768zm0-15.7169v2.0175h1.019v-2.0175zm0-15.717v2.0367h1.019v-2.0367zm0-15.1983v1.7677h1.019v-1.7677zm0-15.4672v1.7869h1.019v-1.7677h-1.019zm1.518 65.9044v1.767h1.019v-1.767zm0-15.7175v1.7677h1.019v-1.7677zm0-15.717v2.0174h1.019v-2.0174zm0-15.1983v2.0367h1.019v-2.0367zm0-15.4672v1.7677h1.019v-1.7677zm0-15.7171v1.7869h1.019v-1.7677h-1.019zm6.84 81.8711v.307l1.268-.307v-.02h-1.268zm-5.572 0v1.767h1.019v-1.767zm5.572 0v.307l1.268-.307v-.02h-1.268zm-5.572-15.7174v1.7677h1.019v-1.7677zm0-15.717v2.0367h1.019v-2.0367zm0-15.1982v1.7677h1.019v-1.7677zm0-15.4673v1.5179h1.019v-1.5179zm0-15.717v1.7677h1.019v-1.7677z" fill="#eee"/><path d="m63.1757 45.1257h-3.5546v15.8708l3.5546 3.4969z" fill="#fff"/><path d="m56.5858 45.1257h-3.5546v9.3765l3.5546 3.4969z" fill="#fff"/><path d="m49.9962 45.1257h-3.3048v2.9013l3.3048 3.497z" fill="#fff"/><path d="m75.8403 45.1257h-3.2856v28.8402l3.2856 3.3817z" fill="#fff"/><path d="m78.8945 80.3065 3.0358 2.9974v-38.1782h-3.0358z" fill="#fff"/><path d="m69.5155 45.1257h-3.5546v22.3651l3.5546 3.4969z" fill="#fff"/><path d="m176 115.257v26.092h-176v-26.054c16.159-.288 32.3179-.499 48.4769-.634 5.3991-.038 10.7982-.077 16.1973-.096 10.7599-.058 21.5197-.077 32.2795-.058 1.9214 0 3.8433 0 5.7453.02h.442 2.113.096c1.576 0 3.151 0 4.708.019h.077c.864 0 1.729 0 2.593.019 1.595 0 3.171.019 4.765.019h.02.845c.73 0 1.441 0 2.171.02h.096c1.71.019 3.401.019 5.092.038h.096c.557 0 1.095 0 1.653.019h.019 1.287.019c4.996.039 9.992.096 15.006.154 3.017.038 6.053.058 9.069.096h.462c.269 0 .518 0 .787.019h.442.73.096.404.826.423c.269 0 .557 0 .826.019h.442c.288 0 .557 0 .826.02h.404c.307 0 .595.019.903.019h.442.787.404c.288 0 .576 0 .865.019h.403c.288 0 .576 0 .884.019h.423c.288 0 .557 0 .845.019h.211c3.478.097 6.898.154 10.299.212z" fill="#fff"/><path d="m115.281 116.294c-.307-.48-.634-1.633-.942-2.094-1.594 0-3.65 1.23-5.226 1.038.519-.788 1.153-1.134 1.845-1.787.845-.788 1.96-.538 2.997-.999.135-.058.75-.135.884-.077.346.173.519.576.538.653.404 1.114.404 1.441.807 2.575.211.576.404 1.152.615 1.748-.327.077-.653-.058-.922-.269-.231-.23-.423-.519-.596-.788z" fill="url(#d)"/><path d="m46.0749 103.863c-1.2105-.884-1.5756-2.556-1.4987-4.0543.0768-1.4411.4803-2.8629 1.172-4.1118.7302-1.345 1.7677-2.4979 2.8437-3.5738 1.9598-1.9791 4.1502-3.8428 6.7441-4.842.8454-.3266 1.9406-.4803 2.517.2114.2306.2882.3267.6725.4035 1.0376.538 2.9205.1537 5.9947-1.1144 8.6655-1.2681 2.6707-3.3816 4.9384-5.9755 6.3594-1.5756.827-3.6315 1.345-5.0917.308z" fill="#d62929"/><path d="m86.5555 104.093c-.5765 1.403-.7302 3.151-.3843 4.612.2882 1.153 1.1336 2.229 2.3057 2.19.903-.038 1.5755-.826 1.9982-1.633.9607-1.806 1.1336-2.959 1.1913-4.996.0192-.442-.0192-1.537-.5572-1.902-.6917-.48-2.1328-.711-2.9206-.307-.7685.422-1.2873 1.21-1.6331 2.036z" fill="#1d72d8"/><path d="m56.7368 84.6296c-.0576 0-.096-.0384-.096-.096-.0385-.8455-.538-1.6524-1.3258-2.1904-.7878-.5188-1.7292-.6725-2.517-.3843-.4035.1537-.7878.3843-1.1529.6148-.4611.3075-.9607.6149-1.5179.7302-1.3257.2882-2.5938-.5188-3.7275-1.2489l-.2305-.1538c-.9031-.5764-2.6131-1.441-3.8236-.5572-.2498.173-.4611.4227-.6725.6725-.2882.3459-.5956.6917-1.0183.8839-.7494.3266-1.6524.0384-2.7476-.8647-.6917-.5764-1.5756-1.2873-2.4979-1.0952-.0576.0193-.1152-.0192-.1152-.0768-.0193-.0577.0192-.1153.0768-.1153 1.0184-.2113 1.9791.5764 2.6708 1.1336 1.0375.8455 1.8637 1.1144 2.5362.8454.3843-.1537.6533-.4803.9415-.8262.2113-.2497.4419-.5187.7109-.7109 1.3066-.9415 3.0935-.0576 4.0541.5572l.2306.1537c1.1336.7302 2.3249 1.4987 3.5738 1.2105.5188-.1153.9607-.4035 1.4411-.7109.3842-.2306.7685-.4803 1.1912-.6341.8454-.3074 1.8638-.1537 2.7092.4035.8454.5573 1.3834 1.4411 1.4218 2.3441-.0192.0577-.0576.1153-.1153.1153z" fill="#d62929"/><path d="m49.6481 84.3031c-.9799 0-1.8637-.538-2.7284-1.0376-.9607-.5764-1.8829-1.1144-2.9013-.9799-.6725.096-1.2297.4803-1.8253.8838-.4227.2882-.8646.5957-1.3642.7878-1.5755.5956-3.2087-.0576-4.8035-.6917-.4803-.1922-.9607-.3843-1.441-.538-.0577-.0192-.0769-.0769-.0577-.1345.0193-.0576.0769-.0769.1345-.0576.4804.1537.9799.365 1.4603.5572 1.5563.634 3.1511 1.2681 4.6498.6917.4611-.173.903-.4804 1.3065-.7686.5764-.4035 1.1913-.807 1.9022-.9223 1.0952-.1537 2.0943.4227 3.0358.9992.8839.5187 1.7869 1.076 2.7668.9991.7686-.0384 1.4795-.4611 2.152-.8646l.0768-.0385c.7302-.4419 1.5179-.8646 2.3634-.8262.9222.0385 1.8061.7109 2.1903 1.6716.0193.0577 0 .1153-.0576.1346-.0576.0192-.1153 0-.1345-.0577-.3651-.8838-1.172-1.5179-2.0175-1.5563-.7877-.0385-1.5563.365-2.248.7877l-.0384.0577c-.7109.4227-1.4219.8454-2.2481.9031-.0576 0-.1152 0-.1729 0z" fill="#d62929"/><path d="m51.0308 88.2802c-.0768-1.3065.2306-2.6899 1.1721-3.6506s2.5746-1.345 3.7467-.6533c.3266.1921.7493.4419 1.0183.6917.5957.5764 1.0376 1.1528 1.6524 1.7101.2882.2882.5957.5572.7878.903.2498.4419.3074.9607.3459 1.4603.0768 1.0183.0192 2.0943-.4996 2.9781-.9799 1.6716-3.4969 2.1712-5.2838 1.2874-1.8062-.8647-2.8245-2.8053-2.9398-4.7267z" fill="#ffbeb6"/><path d="m54.9531 97.7336c1.2105-.7302 1.2105-.1537 1.4219-1.3642.1537-.9031-.6725-2.5171-.442-3.4009.2306-.8838.5765-1.3642 1.4411-1.6524.3651-.1345 1.1913 0 1.5179.2306.3266.2305.4611.634.6341.9799.4034.8646.903 1.4795 1.71 1.979.269.1729.7109.4419.8646.7109.1537.2883.1345.6533.0961.98-.0576.5572-.1345 1.1144-.3074 1.6524-.4804 1.5179-1.7869 2.7281-3.3048 3.0931-1.5372.365-2.5555-2.0556-3.6315-3.2084z" fill="url(#e)"/><path d="m44.8833 84.2838c1.2682-.1537 2.4594.7494 3.7468.7494.9222-.0192 1.7484-.4996 2.5362-.9607.7878-.4804 1.614-.9607 2.5363-.9992.9222-.0384 3.055.538 3.1126 1.4603-2.8436-1.3065-4.3039.6917-4.8227 2.2096-.4995 1.5179-.0768 3.1895.6725 4.5922.4804.9222 1.1144 1.8445 1.0568 2.882-.0961 1.4795-1.5756 2.4594-2.0944 3.8428-.2497.6725-.269 1.4027-.365 2.1138-.3651 2.651-1.883 5.13-4.0734 6.629-2.1904 1.517-5.034 2.036-7.6279 1.402 1.0952-.288 1.4026-1.825.8838-2.824-.5188-1.019-1.5563-1.633-2.4786-2.287-.9223-.653-1.8637-1.518-1.979-2.632-.0961-.8839.3074-1.7485.2498-2.6323-.0961-1.345-1.249-2.3441-2.0367-3.4393-1.345-1.883-1.7101-4.4385-.9223-6.6288.0576-.1538.1153-.2883.2114-.4228.3458-.4034.9991-.2497 1.4986-.096 1.9983.6533 4.3232 1.0183 6.0717-.1345 1.3257-.9031 2.2288-2.6323 3.8235-2.8245z" fill="#d62929"/><path d="m57.8131 84.5143c-.9223-.0576-1.6524.3843-1.6908.9799 0 .0577 0 .1153.0192.173-.1345-.0385-.269-.0385-.4227 0-.1922.0768-.3843.269-.4996.4611-.1729-.1345-.4035-.2113-.6725-.2113-.3458 0-.7493.1152-1.0952.3458-.7685.4804-1.1528 1.2681-.8454 1.7677.1537.269.4612.4035.8454.4035.3459 0 .7494-.1153 1.0952-.3459.7686-.4803 1.1529-1.2681.8454-1.7676l-.0192-.0193c.0577-.1729.2306-.3842.4035-.4419.1537-.0576.3075-.0384.4612.0769.2305.3843.7877.6725 1.4602.7109h.1345c.8454 0 1.5179-.4227 1.5563-.9991.0385-.5572-.6724-1.0952-1.5755-1.1337zm-3.3624 3.4201c-.3267.1922-.6725.3075-.9992.3075-.3266 0-.5572-.1153-.6724-.3075-.2498-.4035.096-1.076.7685-1.4987.3266-.1921.6725-.3074.9991-.3074.3267 0 .5572.1153.6725.3074.2498.4227-.0768 1.0952-.7685 1.4987zm3.2663-1.4795c-.6148-.0384-1.1336-.3074-1.3065-.6532-.0384-.0961-.0769-.1922-.0577-.2882.0193-.442.6149-.7878 1.345-.7878h.1345c.7878.0384 1.4026.4611 1.3834.9415-.0576.4803-.7109.8262-1.4987.7877z" fill="#23286b"/><path d="m113.497 112.163c-.365-.173-.749-.326-1.152-.307-.442.038-.827.288-1.211.538-1.902 1.21-4.304 1.998-6.417 1.21-1.038-.384-1.883-1.114-2.729-1.844-2.8626-2.44-5.7063-4.881-8.5692-7.321-2.2096-1.883-4.4576-3.785-7.1476-4.8225-2.6899-1.0376-5.9563-1.0568-8.262.7105-.9799.75-1.7293 2.21-.9415 3.151.2498.308.6149.481.9799.635 5.6489 2.632 11.3171 5.245 16.966 7.877.9799.461 1.9598.903 2.8436 1.518 1.7293 1.191 5.3798 3.343 7.3208 4.131.653.269 1.191.365 1.671.365.231.019.462.039.692.039 1.095.057 2.19.096 3.286.153.903.039 1.787.193 2.517-.345.115-.097.346-.346.384-.481.077-.269-.154-.557-.423-.653s-1.095-.115-1.364-.096c-.807 0-1.595.019-2.344-.039.403-.345.845-.73 1.383-1.133.596-.461 1.172-.961 1.903-1.172 1.345-.404 2.728.346 3.996.96 1.268.615 2.844 1.096 3.997.289-2.479-1.153-4.938-2.248-7.379-3.363z" fill="#ffbeb6"/><path d="m85.923 114.411c-1.3834-3.746-4.669-7.608-6.821-10.817-1.9982-2.998-4.1886-5.9565-7.1668-7.9548-2.9781-1.9982-2.4401-2.2864-6.1484-2.1135-.2498.0192-4.669.9415-4.669.9415s.8454 1.9021-1.3258 2.8821c-1.2105.5572-2.9974.0576-3.4201-1.2297-1.7292.5187-5.3223 2.0751-6.6288 4.1694-1.2873 2.075-1.8446 4.535-2.3633 6.936-.538 2.421.3458 4.4 2.0367 7.186z" fill="url(#g)"/><path d="m51.3577 91.22c.7493-.269-.3074-1.6908-1.0184-2.0367-1.1336-.4995-3.4008.1537-3.2663.9607.1537.9992 2.7283 2.9206 3.9965 4.5537.2305.2883.4611.6149.4995.98.0577.5187-.2882 1.0183-.634 1.4026-1.3834 1.5755-3.1896 2.7092-4.7459 4.1117-3.8044 3.382-6.8402 7.455-7.5511 12.508-.6533 4.65 1.2297 3.843 2.421 3.747.6533-.058 1.2297-.327 1.7485-.73 4.9764-3.862 7.82-9.972 9.069-16.159.4227-2.0367 1.8061-3.593 2.4978-5.5528.3266-.9031-.5765-1.9406-1.4219-2.3633-.2882-.1538-.6148-.2114-.9414-.2883-1.076-.3074-2.0559-1.0183-2.6708-1.9598.538.1153.7301-.0576.7878-.3843.2882.4996.8646 1.345 1.2297 1.2105z" fill="url(#h)"/><path d="m65.7695 93.5834c4.6882-1.2489 8.3389-.4419 12.835 1.3834 4.496 1.8445 8.531 4.6113 12.5275 7.3782-1.7293-.442-3.5738.788-4.3039 2.421-.7302 1.633-.538 3.554-.0193 5.265-3.6122-3.036-5.1493-1.384-8.6655-4.535-3.5161-3.151-7.3397-9.3764-12.3738-11.9126z" fill="url(#i)"/><path d="m85.7513 102.134c.0576-.02.0576-.02.1153.019.0192.057.0192.057-.0193.115-.0576.019-.0576.019-.1152-.019-.0193-.039-.0385-.096.0192-.115zm-1.4219 1.191c.0193.057.0769.038.1153.019.0577-.019.0385-.077.0192-.115-.0192-.058-.0768-.039-.1152-.019-.0193.076-.0193.115-.0193.115zm.9992-3.8622c.0192.0576.0768.0384.0768.0384.0577-.0192.0385-.0768.0385-.0768-.0193-.0577-.0769-.0384-.0769-.0384-.0576-.0193-.0576.0384-.0384.0768zm-1.7101.4611c.0192.0577.0769.0385.0769.0385.0576-.0192.0384-.0769.0384-.0769l-.0769-.0384c-.0576.0384-.0384.0768-.0384.0768zm-1.71.5191c.0192.057.0768.038.0768.038.0577-.019.0385-.077.0385-.077-.0193-.057-.0769-.038-.0769-.038 0 .019-.0576.019-.0384.077zm4.2271.96c.0768.039.1152.02.1729.02.0384-.077.0192-.116.0192-.173-.0769-.039-.1153-.02-.1729-.02-.0577.058-.0385.116-.0192.173zm-1.6524 1.826c.0768.038.1152.019.1729.019.0384-.077.0192-.115.0192-.173-.0769-.038-.1153-.019-.1729-.019-.0961.077-.0961.134-.0192.173zm-1.7101 1.806c.0769.038.1153.019.1729.019.0385-.077.0192-.115.0192-.173-.0768-.038-.1152-.019-.1729-.019-.1153.077-.0961.115-.0192.173zm-1.7293 1.787c.0769.038.1153.019.173.019.0384-.077.0192-.115.0192-.173-.0769-.038-.1153-.019-.1729-.019-.0961.077-.0769.192-.0193.173zm1.0184-8.8579c.0192.0577.0192.1153.0768.0961.0577-.0192.1153-.0192.0961-.0769-.0192-.0576-.0192-.1153-.0768-.096-.0769-.0385-.1153.0192-.0961.0768zm-2.5363.0384c.0193.0577.0193.1153.0769.0961s.1153-.0192.0961-.0768c-.0192-.0577-.0192-.1153-.0769-.0961-.0576.0192-.1153.0192-.0961.0768zm-2.4593.0769c.0192.0576.0192.1153.0768.0961.0577-.0192.1153-.0192.0961-.0769-.0192-.0576-.0192-.1153-.0769-.0961-.0768-.0384-.1153.0193-.096.0769zm6.8209 2.2476c.0192.058.0769.097.1345.077.0577-.019.0961-.077.0769-.134-.0192-.058-.0769-.096-.1345-.077-.0577 0-.0961.077-.0769.134zm-2.2672 1c.0192.057.0768.096.1345.076.0576-.019.096-.076.0768-.134s-.0768-.096-.1345-.077c-.0576.019-.096.096-.0768.135zm-2.2673 1.018c.0192.058.0769.096.1345.077.0577-.019.0961-.077.0769-.135-.0192-.057-.0769-.096-.1345-.077-.0577.02-.0961.077-.0769.135zm-2.2672 1.018c.0192.058.0768.096.1345.077.0576-.019.096-.077.0768-.134-.0192-.058-.0768-.096-.1345-.077-.0576 0-.096.077-.0768.134zm7.6087-4.1308c.0192.0577.0769.0385.1153.0193.0576-.0193.0384-.0769.0192-.1153-.0192-.0577-.0769-.0385-.1153-.0193-.0384.0577-.0192.1153-.0192.1153zm-1.6716.9028c.0192.058.0768.039.1153.02.0576-.02.0384-.077.0192-.116-.0192-.0574-.0769-.038-.1153-.019.0384.058-.0192.115-.0192.115zm-1.6524.923c.0192.057.0768.038.1153.019.0576-.019.0384-.077.0192-.116-.0192-.057-.0769-.038-.1153-.019.0192.039-.0192.116-.0192.116zm-1.6716.903c.0192.057.0768.038.1153.019.0576-.019.0384-.077.0192-.115-.0192-.058-.0769-.039-.1153-.02.0192.039-.0192.058-.0192.116zm6.7633.922c.0576-.019.1153-.019.1153-.019-.0192-.058-.0192-.116-.0192-.116-.0577.02-.1153.02-.1153.02 0 .057.0192.115.0192.115zm-.4996 1.806c.0577-.019.1153-.019.1153-.019-.0192-.058-.0192-.115-.0192-.115-.0576.019-.1153.019-.1153.019-.0576.077-.0384.134.0192.115zm-.5572 1.825c.0577-.019.1153-.019.1153-.019-.0192-.058-.0192-.115-.0192-.115-.0577.019-.1153.019-.1153.019-.0384.077.0192.115.0192.115zm-4.0157-8.4346c.0192.0576.0192.0576.0769.0961.0576-.0192.0576-.0192.096-.0769-.0192-.0576-.0192-.0576-.0768-.0961-.0577.0193-.0961.0769-.0961.0769zm-1.9022.2306c.0192.0576.0192.0576.0769.096.0576-.0192.0576-.0192.096-.0768-.0192-.0577-.0192-.0577-.0768-.0961-.0577 0-.1153.0192-.0961.0769zm-1.8445.1921c.0192.0576.0192.0576.0768.0961.0577-.0192.0577-.0192.0961-.0769-.0192-.0576-.0192-.0576-.0769-.096-.0576.0192-.1152.0384-.096.0768zm7.3974 2.6709c.0192.057.0768.038.1152-.019.0577-.02.0385-.077-.0192-.116-.0192-.057-.0768-.038-.1153.02-.0768.019-.0576.076.0193.115zm-1.2297 1.479c.0192.058.0768.039.1152-.019.0577-.019.0385-.077-.0192-.115-.0192-.058-.0768-.039-.1153.019 0 .019.0001.077.0193.115zm-1.1721 1.48c.0192.057.0769.038.1153-.019.0576-.02.0384-.077-.0192-.116-.0192-.057-.0769-.038-.1153.02 0 0 0 .057.0192.115zm-1.172 1.422c.0192.057.0768.038.1152-.02.0577-.019.0385-.076-.0192-.115-.0192-.057-.0768-.038-.1153.019-.0576.077-.0384.116.0193.116zm2.4978-6.9366s.0576.0384 0 0c.0576-.0192.1153-.0192.0384-.0769 0 .0192 0 .0192-.0384.0769-.0192-.0577 0 0 0 0zm-.8839.5956c.0577.0384.0577.0384 0 0 .0577-.0192.1153-.0192.0385-.0768.0576.0384 0 0-.0385.0768zm-.8262.6149s.0192.0576 0 0c.0577-.0192.1153-.0192.0385-.0769 0 0 0 0-.0385.0769-.0192-.0577 0 0 0 0zm3.766.096.0576-.0192-.0192-.0576-.0576.0192c-.0385.0192.0192.0576.0192.0576zm-.173 1.0371.0577-.019-.0192-.057-.0577.019zm-.1921 1.038.0576-.019-.0192-.058-.0576.019zm-3.8236-4.2078s.0769.0384 0 0c.0769.0384.1153-.0192.1153-.0192-.0192-.0577-.0192-.0577-.1153.0192.0384-.0577-.0192-.0577 0 0zm-.9799.2113s.0192.0577 0 0c.0769.0385.1153-.0192.1153-.0192-.0577 0-.0769-.0576-.1153.0192-.0192-.0576-.0192-.0576 0 0zm3.6699 1.8638.0576-.0192-.0192-.0577-.0576.0193c-.0385.0768-.0385.0768.0192.0576zm-.5764.9027.0576-.019-.0192-.058-.0577.02zm-.5765.903.0577-.019-.0192-.057-.0577.019c.0192 0 .0192 0 .0192.057zm-1.9598-3.9385c.0192.0577.0769.0385.1153.0193.0576-.0193.0384-.0769.0192-.1153-.0192-.0577-.0768-.0385-.1153-.0192.0192.0576-.0192.0576-.0192.1152zm-1.7485.807c.0193.0577.0769.0385.1153.0192.0577-.0192.0385-.0768.0192-.1152-.0192-.0577-.0768-.0385-.1152-.0192-.0385.0192-.0769.0768-.0193.1152zm-1.8061.7878c.0192.0576.0769.0384.1153.0192.0577-.0192.0384-.0768.0192-.1153-.0192-.0576-.0768-.0384-.1153-.0192-.0384.0577-.0384.0577-.0192.1153zm-1.8061.8267c.0192.057.0769.038.1153.019.0576-.019.0384-.077.0192-.116-.0192-.057-.0768-.038-.1153-.019.0192-.019-.0192.058-.0192.116zm7.6472-.3656c.0576-.0192.1153-.0192.1153-.0192-.0192-.0576-.0193-.1153-.0193-.1153-.0576.0193-.1152.0193-.1152.0193-.0577.0768-.0385.1345.0192.1152zm-.7302 1.8826c.0577-.019.1153-.019.1153-.019-.0192-.057-.0192-.115-.0192-.115-.0576.019-.1153.019-.1153.019-.0576.019.0192.058.0192.115zm-.6724 1.807c.0576-.02.1152-.02.1152-.02l-.0192-.115c-.0576.019-.1153.019-.1153.019-.0384.077-.0384.116.0193.116zm-.7302 1.806c.0577-.02.1153-.02.1153-.02-.0192-.057-.0192-.115-.0192-.115-.0576.019-.1153.019-.1153.019-.0384.077-.0384.135.0192.116zm-3.4777-9.0309c.0192.0576.0192.1152.0768.096.0577-.0192.1153-.0192.0961-.0768-.0192-.0577-.0192-.1153-.0768-.0961-.0577 0-.1153.0192-.0961.0769zm-1.9983.0576c.0193.0577.0193.1153.0769.0961s.1153-.0192.0961-.0769c-.0192-.0576-.0192-.1153-.0769-.0961-.0768-.0384-.0576.0193-.0961.0769zm-1.9598 0c.0192.0577.0192.1153.0769.0961.0576-.0192.1153-.0192.096-.0769-.0192-.0576-.0192-.1153-.0768-.0961-.0577.0193-.0384.0769-.0961.0769zm8.7616 1.9598c.0192.0577.0768.0385.1153-.0192.0576-.0192.0384-.0768-.0192-.1153-.0193-.0576-.0769-.0384-.1153.0192-.0192 0 0 .0577.0192.1153zm-1.3642 1.4027c.0192.0576.0769.0384.1153-.0193.0576-.0192.0384-.0768-.0192-.1152-.0192-.0577-.0769-.0385-.1153.0192 0 .0576.0192.1153.0192.1153zm-1.345 1.4598c.0192.058.0769.039.1153-.019.0576-.019.0384-.077-.0192-.115-.0192-.058-.0769-.039-.1153.019 0 0 0 .058.0192.115zm-1.3065 1.403c.0192.058.0768.038.1153-.019.0576-.019.0384-.077-.0193-.115-.0192-.058-.0768-.039-.1152.019-.0577.019-.0385.057.0192.115zm-1.3642 1.403c.0192.057.0768.038.1153-.02.0576-.019.0384-.076-.0193-.115-.0192-.057-.0768-.038-.1152.019-.0385.077-.0193.116.0192.116zm7.5511-2.882c.0576-.02.1153-.02.096-.077-.0192-.058-.0192-.116-.0768-.096-.0577.019-.1153.019-.0961.076 0 .058.0769.097.0769.097zm.0576 1.959c.0577-.019.1153-.019.0961-.076-.0192-.058-.0192-.116-.0769-.097-.0576.02-.1153.02-.096.077 0 .039.0768.096.0768.096zm.0577 1.999c.0576-.02.1152-.02.096-.077-.0192-.058-.0192-.115-.0768-.096-.0577.019-.1153.019-.0961.077.0192.057.0192.057.0769.096zm.0576 1.959c.0576-.019.1153-.019.0961-.076-.0192-.058-.0192-.116-.0769-.096-.0576.019-.1153.019-.0961.076.0193.058.0193.058.0769.096zm-8.1083-11.7393s.0192.0577.0769.0384c0 0 .0576-.0192.0384-.0768 0 0-.0192-.0576-.0769-.0384-.0576.0192-.0576.0192-.0384.0768zm3.5738 2.8053s.0769.0384.0576-.0192c-.0192-.0577.0385-.0769-.0192-.0577 0 0-.0768-.0384-.0576.0192zm-.9223.8838s.0769.0384.0577-.0192c0 0 .0384-.0769-.0192-.0576 0 0-.0769-.0385-.0577.0192zm-.9222.8839s.0768.0384.0576-.0193c0 0 .0384-.0768-.0192-.0576 0 0-.0769-.0384-.0577.0192zm4.5729-.5765s.0576-.0192.0384-.0768c-.0192-.0577-.0192-.0577-.0768-.0385 0 0-.0577.0193-.0385.0769 0 0 .0192.0576.0769.0384zm-.0577 1.2878s.0577-.02.0385-.077c0 0-.0192-.058-.0769-.039 0 0-.0576.02-.0384.077.0576-.019.0768.039.0768.039zm-.0192 1.268s.0577-.02.0385-.077c0 0-.0193-.058-.0769-.039 0 0-.0576.02-.0384.077.0192 0 .0192 0 .0768.039zm-4.0926-4.8038c.0193.0576.0769.0384.0769.0384.0576-.0192.0384-.0768.0384-.0768-.0192-.0577-.0768-.0385-.0768-.0385-.0577.0193-.0385.0769-.0385.0769zm-1.1912.4804c.0192.0576.0768.0384.0768.0384.0577-.0192.0385-.0769.0385-.0769-.0192-.0576-.0769-.0384-.0769-.0384s-.0576.0384-.0384.0769zm-1.1721.4227c.0192.0576.0769.0384.0769.0384.0576-.0192.0384-.0769.0384-.0769-.0192-.0576-.0768-.0384-.0768-.0384-.0385.0384-.0385.0769-.0385.0769zm5.207.4803.0577-.0192-.0193-.0577-.0576.0193zm-.5188 1.1144.0577-.0192-.0192-.0576-.0577.0192c.0192.0576.0192.0576.0192.0576zm-.4803 1.172.0576-.019-.0192-.058-.0576.019c-.0577.02-.0385.077.0192.058zm-.4996 1.191.0577-.019-.0192-.058-.0577.02c-.0576.019-.0576.019.0192.057zm4.4192-2.2285c.0577-.0192.0385-.0768.0385-.0768-.0192-.0577-.0769-.0385-.0769-.0385-.0576.0192-.0384.0769-.0384.0769.0192.0576.0768.0384.0768.0384zm.442 1.2105c.0576-.019.0384-.077.0384-.077-.0192-.058-.0769-.038-.0769-.038-.0576.019-.0384.077-.0384.077zm.4803 1.153c.0577-.019.0384-.077.0384-.077-.0192-.058-.0768-.038-.0768-.038-.0577.019-.0384.076-.0384.076.0192.058.0192.058.0768.039zm-9.876-7.6858c.0192.0577.0192.1153.0769.0961.0576-.0192.1153-.0192.0961-.0769-.0193-.0576-.0193-.1152-.0769-.096-.0576 0-.1153.0192-.0961.0768zm-1.9406-.1729c.0192.0577.0192.1153.0769.0961.0576-.0192.1153-.0192.096-.0769-.0192-.0576-.0192-.1153-.0768-.096-.0577 0-.1153.0192-.0961.0768zm-1.9598-.1729c.0192.0576.0192.1153.0768.0961.0577-.0193.1153-.0193.0961-.0769s-.0192-.1153-.0768-.0961c-.0769-.0576-.1153.0192-.0961.0769zm6.8017 3.4585c.0193.0576.0769.0384.1153.0192.0577-.0192.0385-.0768.0192-.1153-.0192-.0576-.0768-.0384-.1152-.0192-.0577 0-.0961.0769-.0193.1153zm-1.5371 1.2105c.0192.0576.0769.0384.1153.0192.0576-.0192.0384-.0769.0192-.1153-.0192-.0576-.0768-.0384-.1153-.0192-.0192.0576-.0576.1345-.0192.1153zm-1.4987 1.2681c.0192.0577.0769.0384.1153.0192.0577-.0192.0384-.0768.0192-.1153-.0192-.0576-.0768-.0384-.1153-.0192-.0576.0192-.0384.0769-.0192.1153zm-1.5179 1.2295c.0192.058.0769.039.1153.019.0576-.019.0384-.076.0192-.115-.0192-.058-.0768-.038-.1153-.019-.0384.058-.0192.115-.0192.115zm7.2245-2.3439c.0576-.0192.1153-.0192.0961-.0769-.0193-.0576-.0193-.1152-.0769-.096s-.1153.0192-.0961.0768c0 .0577.0769.0961.0769.0961zm-.1729 1.9599c.0576-.019.1152-.019.096-.077s-.0192-.115-.0768-.096c-.0577.019-.1153.019-.0961.077 0 .058.0192.115.0769.096zm-.1922 1.96c.0577-.019.1153-.019.0961-.077s-.0192-.115-.0769-.096c-.0576.019-.1153.019-.096.077.0192.057.0192.057.0768.096zm-.1729 1.902c.0576-.019.1153-.019.0961-.077-.0193-.058-.0193-.115-.0769-.096s-.1153.019-.0961.077c0 .058.0192.115.0769.096zm-3.9581-8.3774c.0192.0577.0769.0385.1153.0192.0576-.0192.0384-.0768.0192-.1152-.0192-.0577-.0768-.0385-.0768-.0385-.0193 0-.0577.0769-.0577.1345zm-1.8637.5572c.0192.0577.0768.0385.1152.0193.0577-.0193.0385-.0769.0193-.1153-.0193-.0577-.0769-.0385-.0769-.0385-.0384 0-.0769.0769-.0576.1345zm-1.8254.538c.0192.0577.0769.0385.1153.0192.0577-.0192.0384-.0768.0192-.1152-.0192-.0577-.0768-.0385-.1153-.0193-.0192.0577-.0768.0769-.0192.1153zm-1.8637.5572c.0192.0577.0768.0385.0768.0385.0577-.0192.0385-.0769.0385-.0769-.0193-.0576-.0769-.0384-.1153-.0192-.0192 0 0 .0576 0 .0576zm8.9345-.4803c.0768.0384.1153.0192.1153-.0192.0384-.0769.0192-.1153-.0193-.1153-.0768-.0384-.1152-.0192-.1152.0192-.0769.0192-.0577.0769.0192.1153zm-.9223 1.7677c.0769.0384.1153.0192.1153-.0192.0384-.0769.0384-.0769-.0192-.1153-.0769-.0384-.0769-.0384-.1153.0192-.0769.0192-.0577.0769.0192.1153zm-.9415 1.6906c.0769.039.1153.019.1153-.019.0384-.077.0384-.077-.0192-.115-.0769-.039-.1153-.019-.1153.019-.0384.077-.0384.134.0192.115zm-.9223 1.749c.0769.038.1153.019.1153-.02.0385-.076.0192-.115-.0192-.115-.0768-.038-.1153-.019-.1153.019-.0576.02-.0384.077.0192.116zm-.9414 1.71c.0768.038.1152.019.1152-.019.0385-.077.0385-.077-.0192-.116-.0768-.038-.1153-.019-.1153.019.0193.058.0193.116.0193.116zm6.5135-4.823c.0576-.0192.0384-.0768.0384-.0768-.0192-.0577-.0768-.0385-.0768-.0385-.0577.0192-.0385.0769-.0192.1153zm.6148 1.864c.0577-.019.0385-.077.0193-.116-.0193-.057-.0769-.038-.0769-.038-.0576.019-.0384.077-.0384.077-.0192.115.0384.096.096.077zm.5573 1.883c.0576-.019.0384-.077.0192-.116-.0193-.057-.0769-.038-.1153-.019-.0577.019-.0384.077-.0192.116.0576.038.0576.038.1153.019zm.5572 1.883c.0576-.019.0384-.077.0384-.077-.0192-.058-.0769-.039-.1153-.019-.0576.019-.0384.077-.0192.115.0384 0 .0384 0 .0961-.019zm-7.9162-10.1068s0 .0384 0 0c.0769.0384.1153-.0193.1153-.0193-.0192-.0768-.0769-.0576-.1153.0193-.0192-.0577-.0192-.0577 0 0zm-1.1336.2882c.0192.0576.0192.0576 0 0 .0768.0384.1153-.0193.1153-.0193-.0577.0193-.0769-.0384-.1153.0193-.0192-.0385 0 0 0 0zm-1.1144.365s0 .0577 0 0c.0768.0385.1152-.0192.1152-.0192-.0768-.0576-.0768-.0576-.1152.0192-.0193-.0576-.0193-.0576 0 0zm3.9965 1.4219.0576-.0192-.0192-.0577-.0576.0192c-.0385.0192-.0385.0769.0192.0577zm-.5765 1.0759.0577-.0192-.0192-.0576-.0577.0192s0 0 .0192.0576zm-.5379 1.0184.0576-.0192-.0192-.0577-.0577.0192c-.0384.0193-.0384.0769.0193.0577zm3.8428-1.8446s.0576 0 0 0c.0384-.0768-.0193-.1152-.0193-.1152-.0576.0768-.0576.0768.0193.1152-.0577.0193-.0577.0193 0 0zm.3074 1.1913c.0576 0 .0384-.0576 0 0 .0384-.0768-.0192-.1153-.0192-.1153s0 .0193.0192.1153c0-.0384 0 0 0 0zm.365 1.1336c.0385-.0192.0385-.0768 0 0 .0385-.0768-.0192-.1152-.0192-.1152s-.0768.0192.0192.1152c-.0768-.0384 0 0 0 0zm-8.2812-6.4943s.0192.0577.0769.0384c0 0 .0576-.0192.0384-.0768 0 0-.0192-.0577-.0769-.0384 0 .0768-.0384.0768-.0384.0768zm4.131 2.6131s.0769.0384.0577-.0192c0 0 .0384-.0769-.0193-.0576 0 0-.0768-.0385-.0576.0192.0577-.0192.0192.0576.0192.0576zm-.8838.7494s.0768.0384.0576-.0192c0 0 .0385-.0769-.0192-.0577 0 0-.0768-.0384-.0576.0192zm-.9031.7685s.0769.0385.0577-.0192c0 0 .0384-.0768-.0192-.0576 0 0-.0769-.0385-.0577.0192 0 0 0 0 .0192.0576zm-.9607.7302s.0769.0384.0577-.0193c0 0 .0384-.0768-.0192-.0576 0 0-.0769-.0384-.0577.0192zm4.7843-1.1145s.0576-.0192.0384-.0768c0 0-.0192-.0577-.0768-.0384 0 0-.0577.0192-.0385.0768.0577-.0192.0577-.0192.0769.0384zm-.0961 1.1337s.0577-.0192.0385-.0769c0 0-.0193-.0576-.0769-.0384 0 0-.0576.0192-.0384.0768.0192.0577.0192.0577.0768.0385zm-.1537 1.1912s.0577-.0192.0385-.0768c0 0-.0193-.0577-.0769-.0385 0 0-.0576.0193-.0384.0769.0768.0384.0768.0384.0768.0384zm-.096 1.1918s.0576-.02.0384-.077c0 0-.0192-.058-.0769-.039 0 0-.0576.019-.0384.077.0192 0 .0192.058.0769.039zm-2.6708-4.6695c.0577-.0192.0384-.0769.0384-.0769s-.0576.0193-.0384.0769c-.0192-.0576-.0576 0 0 0zm-.5956.7878c.0576-.0192.0576-.0192 0 0 .0576-.0192.0384-.0769.0384-.0769-.0192-.0384-.0192-.0384-.0384.0769-.0192-.0577-.0192-.0577 0 0zm3.4201-.0961c.0576-.0192.0576-.0192 0 0 .0384-.0769.0384-.0768-.0192-.0576.0192 0 .0192 0 .0192.0576zm.1537.9415c.0384-.0192.0384-.0192 0 0 .0384-.0769.0384-.0769-.0192-.0577 0 0 0 0 .0192.0577zm-4.4769-2.517c.0192.0576.0577.0384 0 0 .0577-.0193.0577-.0193.0577-.0193-.0193-.0576-.0192-.0576-.0577.0193-.0192-.0577 0 0 0 0zm-.7878.4995c.0577-.0192.0577-.0192.0577-.0192-.0192-.0576-.0769-.0384-.0577.0192-.0192-.0576-.0576.0192 0 0zm3.6699.5764c.0577 0 .0577 0 0 0 .0384-.0768.0384-.0768.0384-.0768-.0192-.0384-.0576.0384-.0384.0768-.0192-.0384 0 0 0 0zm-.2113.9415c.0384-.0192.0384-.0192 0 0 .0384-.0768.0384-.0768.0384-.0768-.0192-.0577-.0769-.0385-.0384.0768-.0192-.0576 0 0 0 0zm-.2306.9223s.0576-.0192 0 0c.0384-.0769.0384-.0769.0384-.0769-.0576-.0384-.0576-.0384-.0384.0769-.0576-.0384 0 0 0 0zm-1.7869-3.1127.0576-.0192-.0192-.0576-.0576.0192c-.0384.0768-.0384.0768.0192.0576zm-.2306 1.1529.0577-.0192-.0192-.0577-.0577.0192c-.0384.0192-.0192.0769.0192.0577zm2.3633.5956c.0385-.0769.0193-.1153-.0192-.1153-.0576.0769-.0576.0769.0192.1153-.0576.0192-.0576.0192 0 0z" fill="#fff"/><path d="m122.855 117.62h-27.2261v2.978h27.2261z" fill="url(#k)"/><path d="m153.982 117.601h-31.127v2.997h31.127z" fill="url(#l)"/><path d="m116.844 117.601h37.14l11.894-23.1145h-37.141z" fill="url(#m)"/><g fill="#fff"><path d="m160.59 94.7363c0-.0385.019-.0577.038-.0769.039-.0192.058 0 .077.0384 0 .0385-.019.0577-.038.0769-.039 0-.077-.0192-.077-.0384z" opacity=".51"/><path d="m160.457 95.5625c-.057-.0385-.057-.1153 0-.173.039-.0384.116-.0576.173 0 .039.0385.058.1153 0 .173-.038.0384-.115.0384-.173 0z" opacity=".51"/><path d="m160.517 97.9257c.058.0192.096.0768.077.1345-.019.0576-.077.096-.135.096-.057-.0192-.096-.0768-.096-.1345.039-.0576.096-.096.154-.096z" opacity=".51"/><path d="m160.148 94.9476c.038-.0192.077 0 .096.0384.019.0385 0 .0769-.039.0961-.038.0192-.076 0-.096-.0192 0-.0577.02-.0961.039-.1153z" opacity=".51"/><path d="m160.302 96.0236c.019-.0192.057-.0384.077-.0192.019.0192.038.0577.019.0769s-.058.0384-.077.0192c-.039 0-.039-.0384-.019-.0769z" opacity=".51"/><path d="m159.746 100.769c.019-.057.077-.096.135-.096.057.02.096.077.096.135-.02.058-.077.096-.135.096-.057-.019-.096-.077-.096-.135z" opacity=".51"/><path d="m161.612 102.172c.057 0 .096.038.115.096 0 .058-.039.096-.096.115-.058 0-.116-.038-.116-.096-.019-.057.039-.096.097-.115z" opacity=".51"/><path d="m161.42 99.6742c.058 0 .096.0384.116.0961 0 .0576-.039.096-.096.1153-.058 0-.097-.0385-.116-.0961 0-.0577.039-.1153.096-.1153z" opacity=".51"/><path d="m160.882 103.94c.057-.02.134 0 .153.057.019.058 0 .135-.057.154-.058.019-.135 0-.154-.058-.039-.057-.019-.134.058-.153z" opacity=".51"/><path d="m161.61 98.0794c-.02-.0384 0-.0768.019-.096.038-.0192.077 0 .096.0384s0 .0768-.039.0961c-.019 0-.057 0-.076-.0385z" opacity=".51"/><path d="m160.977 100.193c-.039-.058 0-.135.038-.154.058-.038.135 0 .154.039.038.057 0 .134-.058.153-.038.039-.096.02-.134-.038z" opacity=".51"/><path d="m161.148 97.2917c0-.0577.039-.0961.097-.1153.057 0 .096.0384.115.0961 0 .0576-.039.1152-.096.1152-.058 0-.116-.0384-.116-.096z" opacity=".51"/><path d="m158.46 95.6201c-.058-.0384-.058-.1153-.038-.1537.038-.0576.115-.0576.153-.0192.058.0384.058.1153.02.1537-.02.0384-.077.0577-.135.0192z" opacity=".51"/><path d="m157.999 96.3118c.038 0 .077.0384.077.0768s-.039.0769-.077.0769c-.039 0-.077-.0192-.077-.0577 0-.0576.038-.0768.077-.096z" opacity=".51"/><path d="m159.67 101.307c.058-.019.135 0 .154.058s0 .135-.058.154c-.057.019-.134 0-.153-.058-.02-.058 0-.115.057-.154z" opacity=".51"/><path d="m157.711 94.5825c.019.0192.019.0576 0 .0768-.02.0193-.058.0193-.077-.0192-.019-.0192-.02-.0576.019-.0768 0-.0192.038-.0192.058.0192z" opacity=".51"/><path d="m157.882 94.6401c.038 0 .077.0192.077.0577 0 .0384-.02.0768-.058.0768s-.077-.0192-.077-.0576.019-.0769.058-.0769z" opacity=".51"/><path d="m158.323 96.9458c.038 0 .058.0384.058.0577 0 .0384-.039.0576-.077.0576-.039 0-.058-.0384-.058-.0769.019-.0192.039-.0384.077-.0384z" opacity=".51"/><path d="m158.093 98.0026c.038-.0192.077-.0192.096-.0192.058.0192.077.0769.058.1345-.02.0577-.077.0769-.135.0576-.019 0-.038-.0192-.058-.0576-.019-.0192-.019-.0576-.019-.0769.039 0 .039-.0192.058-.0384z" opacity=".51"/><path d="m158.554 97.3877c.038.0384.019.0961-.02.1345-.038.0384-.096.0192-.134-.0192-.039-.0384-.019-.0961.019-.1345s.096-.0192.135.0192z" opacity=".51"/><path d="m158.863 95.6778c.019-.0577.077-.0769.134-.0577.058.0192.077.0769.058.1345-.019.0577-.077.0769-.135.0577-.057-.0192-.077-.0769-.057-.1345z" opacity=".51"/><path d="m159.267 103.402c.058.019.096.077.096.134-.019.058-.076.096-.134.096-.058-.019-.096-.077-.096-.134 0-.058.077-.096.134-.096z" opacity=".51"/><path d="m158.459 98.6943c.058-.0192.135 0 .154.0577.019.0576 0 .1345-.058.1537-.057.0192-.134 0-.153-.0576-.019-.0577 0-.1345.057-.1538z" opacity=".51"/><path d="m161.994 95.0628c0 .0193 0 .0193 0 0 .038.0193.058.0769.038.1153-.019.0384-.077.0577-.115.0384-.038-.0192-.058-.0768-.038-.1152.019-.0385.076-.0577.115-.0385z" opacity=".51"/><path d="m163.724 95.5625c-.02-.0193-.02-.0577.019-.0769.019-.0192.057-.0192.077 0 .019.0192.019.0576-.02.0769-.019.0384-.057.0192-.076 0z" opacity=".51"/><path d="m159.843 99.117c.038.0385.019.0961-.02.1345-.038.0385-.096.0192-.134-.0192-.039-.0384-.019-.096.019-.1345.058-.0192.115-.0192.135.0192z" opacity=".51"/><path d="m159.825 97.676c-.057.0384-.134 0-.153-.0577-.039-.0576 0-.1345.057-.1729.058-.0384.135 0 .154.0576.019.0769 0 .1345-.058.173z" opacity=".51"/><path d="m158.497 95.1013c-.057.0192-.134 0-.153-.0577-.039-.0576 0-.1345.057-.1729.058-.0384.135 0 .154.0576.019.0577 0 .1345-.058.173z" opacity=".51"/><path d="m161.034 96.0813c.039-.0192.058 0 .077.0384 0 .0384-.019.0576-.038.0768-.039 0-.077 0-.077-.0384-.019-.0384 0-.0576.038-.0768z" opacity=".51"/><path d="m161.149 94.8324c-.019.0192-.038.0384-.077.0384-.057 0-.096-.0384-.115-.0961 0-.0576.038-.1153.096-.1153s.115.0385.115.0961c0 .0384 0 .0576-.019.0769z" opacity=".51"/><path d="m160.994 96.5039c.019.0384 0 .0768-.039.0961-.038.0192-.077 0-.096-.0193-.019-.0384 0-.0768.039-.096.038-.0384.076-.0192.096.0192z" opacity=".51"/><path d="m157.364 96.2925c-.058.0193-.134 0-.154-.0576-.019-.0576 0-.1345.058-.1537s.134 0 .154.0576c.019.0577 0 .1153-.058.1537z" opacity=".51"/><path d="m153.193 94.6978c-.02.0192-.058.0384-.097 0-.019-.0192-.038-.0769 0-.0961.02-.0384.077-.0384.097 0 .038.0384.038.0769 0 .0961z" opacity=".51"/><path d="m154.23 95.9467c-.058.0192-.096-.0192-.116-.0576-.019-.0384.02-.0961.058-.1153.058-.0192.096.0192.115.0769.02.0384 0 .096-.057.096z" opacity=".51"/><path d="m156.823 97.9066c-.057-.0385-.057-.1153-.019-.173.039-.0576.115-.0576.154-.0192.057.0384.057.1153.019.1537-.038.0385-.096.0769-.154.0385z" opacity=".51"/><path d="m157.115 95.7546c-.039-.0385-.02-.0961.019-.1345.038-.0385.096-.0192.134.0192.039.0384.02.0961-.019.1345-.038.0192-.096.0192-.134-.0192z" opacity=".51"/><path d="m155.251 96.869c-.039-.0193-.039-.0577-.02-.0769.02-.0384.058-.0384.077-.0192.039.0192.039.0576.019.0768 0 .0193-.038.0385-.076.0193z" opacity=".51"/><path d="m163.722 96.6c.058-.0193.115.0384.135.096.019.0577-.039.1153-.097.1345-.057.0192-.115-.0384-.134-.0961-.019-.0576.019-.1152.096-.1344z" opacity=".51"/><path d="m163.55 96.1389c.039-.0577.115-.0576.173-.0192s.058.1153.019.1729c-.038.0576-.115.0576-.173.0192-.057-.0384-.057-.1153-.019-.1729z" opacity=".51"/><path d="m163.417 94.8899c.038 0 .057.0384.057.0768 0 .0385-.038.0577-.077.0577-.038 0-.057-.0385-.057-.0769.019-.0384.057-.0768.077-.0576z" opacity=".51"/><path d="m162.572 97.3494c.038-.0385.115-.0577.172 0 .039.0384.058.1153 0 .1729-.038.0576-.115.0576-.172 0-.039-.0576-.058-.1153 0-.1729z" opacity=".51"/><path d="m163.186 96.3502c.039 0 .058.0384.058.0769 0 .0384-.039.0576-.077.0576s-.058-.0384-.058-.0768c.02-.0385.039-.0577.077-.0577z" opacity=".51"/><path d="m162.956 97.8104c.038 0 .057.0384.057.0769 0 .0384-.038.0576-.076.0576-.039 0-.058-.0384-.058-.0768.019-.0385.058-.0577.077-.0577z" opacity=".51"/><path d="m157.285 100.443c.019-.058.076-.096.134-.077s.077.077.058.134c-.02.058-.077.077-.135.058-.057 0-.077-.058-.057-.115z" opacity=".51"/><path d="m163.858 95.2358c.019-.0192.058-.0384.096 0 .019.0192.039.0769 0 .0961-.019.0384-.077.0384-.096 0-.019-.0192-.038-.0577 0-.0961z" opacity=".51"/><path d="m163.763 95.4663c-.058.0192-.115 0-.134-.0384-.02-.0576 0-.1153.038-.1345.058-.0192.115 0 .135.0384.038.0385.019.0961-.039.1345z" opacity=".51"/><path d="m161.455 97.6184c-.038 0-.057-.0193-.076-.0385-.02-.0192 0-.0576.038-.0768.038 0 .058.0192.077.0384.019.0384 0 .0769-.039.0769z" opacity=".51"/><path d="m165.28 94.5825c.058-.0384.135-.0192.154.0384.039.0577.019.1153-.038.1537-.058.0385-.135.0193-.154-.0384-.019-.0576 0-.1345.038-.1537z" opacity=".51"/><path d="m161.092 95.4087c-.057-.0193-.096-.0769-.096-.1345.019-.0577.077-.0961.135-.0961.057.0192.096.0769.096.1345-.02.0768-.077.1153-.135.0961z" opacity=".51"/><path d="m155.326 97.1189c-.039-.0385-.039-.0769 0-.1153.019-.0385.077-.0385.115 0 .038.0192.038.0768 0 .096-.019.0385-.077.0385-.115.0193z" opacity=".51"/><path d="m152.848 95.793c-.038-.0577-.019-.1345.039-.1537.057-.0385.134-.0193.153.0384v.0192c.019 0 .039.0192.058.0384.038.0577.019.1345-.039.1537-.057.0385-.134.0192-.153-.0384-.039-.0192-.058-.0384-.058-.0576z" opacity=".51"/><path d="m153.635 95.5432c.02.0192 0 .0576-.019.0576s-.057 0-.057-.0192 0-.0576.019-.0576c.019-.0192.038-.0192.057.0192z" opacity=".51"/><path d="m153.194 97.9065c.058.0192.096.0961.077.1537s-.096.0961-.154.0769c-.058-.0193-.096-.0961-.077-.1538.019-.0576.096-.096.154-.0768z" opacity=".51"/><path d="m154.077 95.1398c.057.0192.096.096.077.1537-.02.0576-.097.096-.154.0768-.058-.0192-.096-.0961-.077-.1537s.096-.096.154-.0768z" opacity=".51"/><path d="m154.406 95.1589c.057 0 .115.0577.134.1153 0 .0577-.058.1153-.115.1153-.058 0-.115-.0384-.115-.1153-.02-.0576.019-.1153.096-.1153z" opacity=".51"/><path d="m154.269 97.2149c.038.0384.057.096.019.1345-.039.0384-.096.0576-.135.0192-.038-.0385-.057-.0961-.019-.1537.019-.0385.096-.0385.135 0z" opacity=".51"/><path d="m154.636 100.942c.058 0 .115.058.135.116 0 .057-.058.115-.116.115-.057 0-.115-.039-.115-.115-.019-.058.019-.116.096-.116z" opacity=".51"/><path d="m150.964 94.8515c-.019-.0384-.019-.0769-.038-.1153.019 0 .019.0192.038.0384s.019.0577 0 .0769z" opacity=".51"/><path d="m151.368 95.1012c.057.0385.057.1153.019.173-.039.0576-.115.0576-.173.0192s-.058-.1153-.019-.1729c.057-.0577.115-.0577.173-.0193z" opacity=".51"/><path d="m151.866 95.0821c-.058 0-.077-.0576-.077-.0961 0-.0384.058-.0768.096-.0768.058 0 .077.0576.077.0961 0 .0384-.038.0768-.096.0768z" opacity=".51"/><path d="m152.079 95.8699c.039.0192.039.0768.02.096-.02.0385-.077.0385-.096 0-.02-.0192-.039-.0576 0-.096 0-.0192.057-.0192.076 0z" opacity=".51"/><path d="m151.773 96.5232c-.057-.0193-.096-.0961-.077-.1538.02-.0576.077-.096.154-.0768.058.0192.096.0961.077.1537s-.077.0961-.154.0769z" opacity=".51"/><path d="m156.537 96.7729c.077 0 .115.0385.135.1153 0 .0577-.039.1153-.116.1345-.057 0-.115-.0384-.134-.1153 0-.0768.038-.1345.115-.1345z" opacity=".51"/><path d="m155.901 95.3127c.039.0384.039.096 0 .1537-.038.0384-.115.0384-.153 0-.039-.0385-.039-.0961 0-.1345.038-.0577.115-.0577.153-.0192z" opacity=".51"/><path d="m157.248 105.419c.058 0 .115.039.135.115 0 .058-.039.116-.116.135-.057 0-.115-.038-.134-.115 0-.058.038-.116.115-.135z" opacity=".51"/><path d="m156.039 95.4856c.038.0193.038.0577.019.0769-.019.0384-.058.0384-.077.0192-.038-.0192-.038-.0576-.019-.0768.019-.0385.057-.0385.077-.0193z" opacity=".51"/><path d="m157.018 102.537c.057 0 .115.039.134.115 0 .058-.038.116-.115.135-.058 0-.115-.039-.135-.115 0-.077.039-.135.116-.135z" opacity=".51"/><path d="m156.596 102.96c.053 0 .096-.043.096-.096s-.043-.096-.096-.096-.096.043-.096.096.043.096.096.096z" opacity=".51"/><path d="m156.768 99.655c.057 0 .115.0385.134.0961.02.0576-.038.1153-.096.1345-.057 0-.115-.0384-.134-.1153-.019-.0576.038-.1153.096-.1153z" opacity=".51"/><path d="m155.078 96.869c.019-.0385.058-.0577.077-.0385.038.0192.058.0577.038.0961-.019.0384-.057.0576-.096.0384 0-.0192-.019-.0576-.019-.096z" opacity=".51"/><path d="m154.653 98.0026c-.019-.0576.02-.0961.077-.1153.039-.0192.096.0192.096.0577.02.0384-.019.096-.057.1152-.058.0193-.096-.0192-.116-.0576z" opacity=".51"/><path d="m155.709 95.2165c.039.0193.058.0577.039.0961v.0192c-.019.0385-.058.0385-.077.0385-.038-.0192-.058-.0577-.038-.0961 0-.0384.038-.0769.076-.0577z" opacity=".51"/><path d="m154.674 98.5022c-.02.0385-.058.0577-.077.0577-.039-.0192-.058-.0577-.039-.0961.02-.0384.058-.0576.077-.0384.019 0 .039.0384.039.0768z" opacity=".51"/><path d="m155.193 100.039c.038-.0573.115-.0573.154-.038.057.038.057.115.019.154-.039.057-.116.057-.154.038-.038-.038-.058-.096-.019-.154z" opacity=".51"/><path d="m154.502 98.0603c.02-.0192.02-.0192 0 0 .077 0 .135.0384.135.1153 0 .0576-.038.1153-.115.1153-.02 0-.039 0-.039 0-.038 0-.077-.0193-.096-.0577-.038-.0576-.019-.1345.039-.1537.019-.0192.057-.0384.076-.0192z" opacity=".51"/><path d="m141.936 101.769c.057 0 .115.038.134.115 0 .057-.038.115-.115.134-.058 0-.115-.038-.135-.115 0-.058.039-.115.116-.134z" opacity=".51"/><path d="m141.953 96.7921c.019-.0577.077-.0961.135-.0769.057.0192.077.0769.057.1345-.019.0576-.077.0768-.134.0576-.039 0-.058-.0576-.058-.1152z" opacity=".51"/><path d="m144.354 97.6567c.058-.0192.135 0 .154.0577.019.0576 0 .1345-.058.1537-.057.0192-.134 0-.153-.0576-.039-.0577 0-.1153.057-.1538z" opacity=".51"/><path d="m141.686 98.8865c.057 0 .115.0384.134.1153 0 .0576-.038.1153-.115.1345-.058 0-.115-.0385-.135-.1153 0-.0769.058-.1345.116-.1345z" opacity=".51"/><path d="m143.951 99.7511c.058.0192.096.0769.096.1345-.019.0576-.077.0961-.135.0961-.057-.0192-.096-.0769-.096-.1345 0-.0577.058-.0961.135-.0961z" opacity=".51"/><path d="m139.878 96.3887c.039-.0577.116-.0577.154-.0385.058.0385.058.1153.019.1537-.038.0577-.115.0577-.153.0385-.058-.0385-.058-.0961-.02-.1537z" opacity=".51"/><path d="m144.392 95.5816c-.038-.0384-.019-.0961.019-.1345.039-.0384.096-.0192.116 0 .038.0384.019.0961-.02.1345-.038.0576-.096.0384-.115 0z" opacity=".51"/><path d="m141.455 96.0044c.058 0 .116.0384.135.0961.019.0576-.039.1152-.096.1345-.058 0-.116-.0385-.135-.1153-.019-.0577.039-.1153.096-.1153z" opacity=".51"/><path d="m139.32 97.2725c.057 0 .115.0576.134.1152 0 .0577-.057.1153-.115.1153s-.115-.0384-.115-.1153c-.02-.0384.019-.096.096-.1152z" opacity=".51"/><path d="m139.342 94.8515c-.02.0385-.058.0577-.077.0385-.039-.0192-.058-.0577-.039-.0961s.058-.0577.077-.0384c.039.0192.058.0576.039.096.019 0 .019 0 0 0z" opacity=".51"/><path d="m141.28 99.3092c.053 0 .096-.043.096-.0961 0-.053-.043-.096-.096-.096s-.096.043-.096.096c0 .0531.043.0961.096.0961z" opacity=".51"/><path d="m144.435 97.0996c.019-.0576.076-.0961.134-.0961.058.0193.096.0769.096.1346-.019.0576-.077.096-.134.096-.077 0-.116-.0576-.096-.1345z" opacity=".51"/><path d="m143.147 95.0436c.058-.0192.134 0 .154.0576.019.0577 0 .1345-.058.1537-.058.0193-.135 0-.154-.0576s0-.1345.058-.1537z" opacity=".51"/><path d="m149.795 101.269c.058-.019.116.038.135.096s-.019.115-.096.135c-.058.019-.116-.039-.135-.097 0-.057.039-.115.096-.134z" opacity=".51"/><path d="m145.549 100.289c.058-.019.135 0 .154.058.019.057 0 .134-.058.153-.057.02-.134 0-.153-.057-.02-.058 0-.135.057-.154z" opacity=".51"/><path d="m149.371 95.8314c-.057-.0385-.057-.1153 0-.173.039-.0384.116-.0576.173 0 .039.0385.058.1153 0 .173-.057.0384-.134.0384-.173 0z" opacity=".51"/><path d="m152.809 96.235c.058.0384.058.1153.019.1729-.038.0577-.115.0577-.173.0192-.057-.0384-.057-.1152-.019-.1729.039-.0576.115-.0768.173-.0192z" opacity=".51"/><path d="m151.715 98.3485c.057-.0192.115 0 .134.0384.019.0576 0 .1153-.038.1345-.058.0192-.116 0-.135-.0384-.038-.0577-.019-.1153.039-.1345z" opacity=".51"/><path d="m149.334 98.5022c.058-.0192.116.0384.135.096.019.0577-.039.1153-.096.1345-.058.0192-.116-.0384-.135-.096 0-.0769.039-.1345.096-.1345z" opacity=".51"/><path d="m150.581 96.1004c.058-.0192.115 0 .135.0385.019.0576 0 .1152-.039.1345-.057.0192-.115 0-.134-.0385-.02-.0384 0-.096.038-.1345z" opacity=".51"/><path d="m146.104 96.0236c.058 0 .096.0384.115.096 0 .0577-.038.0961-.096.1153-.058 0-.096-.0384-.115-.0961 0-.0576.038-.1152.096-.1152z" opacity=".51"/><path d="m145.664 96.5423c-.038-.0576 0-.1345.039-.1537.057-.0384.134 0 .154.0384.038.0577 0 .1345-.058.1537-.039.0385-.115.0193-.135-.0384z" opacity=".51"/><path d="m148.869 95.7162c.058 0 .116.0384.135.0961.019.0576-.019.1152-.096.1344-.058.0193-.115-.0192-.135-.096-.019-.0577.039-.1153.096-.1345z" opacity=".51"/><path d="m147.027 98.9633c.058-.0384.135 0 .154.0577.038.0576 0 .1345-.039.1537-.057.0192-.134 0-.153-.0576-.039-.0577-.019-.1345.038-.1538z" opacity=".51"/><path d="m146.276 98.5214c.057 0 .096.0384.115.096 0 .0577-.038.0961-.096.1153-.058 0-.115-.0384-.115-.096 0-.0577.038-.0961.096-.1153z" opacity=".51"/></g><path d="m46.8798 131.473c4.0217 0 7.282-2.537 7.282-5.668 0-3.13-3.2603-5.668-7.282-5.668-4.0218 0-7.2821 2.538-7.2821 5.668 0 3.131 3.2603 5.668 7.2821 5.668z" fill="#e6e6e6"/><path d="m43.959 118.293c.5957-.846 1.3066-1.614 2.1328-2.248 1.076-.827 2.3249-1.365 3.5738-1.903 1.3065-.557 2.6323-1.114 4.0349-1.345.9415-.153 1.9022-.153 2.8629-.134 2.0559.058 3.9005.154 5.8795.711 1.979.576 3.862 2.305 5.0148 4.016 2.9398 4.38 2.69 7.147 2.69 8.127.0384 7.397-14.3336 14.372-19.9249 9.338-.3843-.346-.807-.711-.8454-1.23-.0577-.96 1.0375-1.537 1.9982-1.729 1.7677-.346 3.6123-.73 5.3992-.961 5.572-.691 6.3982-1.421 9.4533-2.805.5764-.25 1.0375-.73 1.3834-1.249.3458-.538.4803-1.229.1921-1.787-.4227-.826-1.4987-1.037-2.421-.922-2.3441.25-4.3808 1.71-6.4174 2.863-3.8428 2.152-8.3005 3.42-12.662 2.92-1.6909-.192-3.5162-.768-4.3616-2.248-.8454-1.498-.4035-3.362.0768-5.014.2114-.731.4227-1.499.7302-2.21.269-.749.7109-1.479 1.2104-2.19z" fill="#e6e6e6"/><path d="m49.589 127.746c-.3074 0-.5956-.058-.9031-.173-.0576-.019-.0768-.077-.0576-.115.0192-.039.0769-.077.1153-.058.7878.307 1.7485.154 2.3825-.423.0384-.038.0961-.038.1345 0 .0384.039.0384.096 0 .135-.4419.403-1.0375.634-1.6716.634z" fill="#23286b"/><path d="m42.2695 127.342c.3459.231.7302.481 1.1529.538.4995.058.9991-.038 1.4602-.23z" fill="#e6e6e6"/><path d="m43.7264 127.976c-.1153 0-.2114 0-.3075-.019-.4419-.057-.8262-.288-1.1912-.557-.0385-.038-.0577-.096-.0193-.135.0385-.038.0961-.057.1345-.019.3651.231.711.461 1.1145.519.4611.058.9607-.019 1.4218-.211.0576-.02.0961 0 .1345.057.0192.058 0 .096-.0577.135-.4227.154-.8454.23-1.2296.23z" fill="#23286b"/><path d="m41.3641 119.33c.6725.942 1.2873 1.922 1.7677 2.959-1.1913.404-2.2096 1.268-2.8437 2.383-.1537-1.845.2114-3.728 1.076-5.342z" fill="#d5d5d5"/><path d="m50.9535 122.865c.5957-1.075 1.2682-2.151 1.9791-3.17.634 1.787 1.0567 3.689.7685 5.553-.3843-.826-.9799-1.556-1.7484-2.094-.2883-.212-.6149-.404-.98-.442.173-.039-.2305.192-.0192.153z" fill="#d5d5d5"/><path d="m47.322 129.148h-.8454v.846h.8454z" fill="#afc3e4"/><path d="m25.6318 92.1423c-1.2489 1.0568-2.1904 6.5904-2.1904 11.9707 0 5.38.9415 9.876 2.1904 10.952 1.2489-1.057 2.1904-5.553 2.1904-10.952 0-5.3995-.9415-10.8947-2.1904-11.9707z" fill="#a1c3fc"/><path d="m22.0005 95.7354c-1.1144 1.2104-1.4026 6.8016-.7493 12.1436.6341 5.341 2.1135 9.703 3.4777 10.606 1.1144-1.211 1.5179-5.784.8647-11.125-.6149-5.361-2.2097-10.7216-3.5931-11.6246z" fill="url(#n)"/><path d="m28.3396 119.714h-7.5319c-.5572 0-.9991-.442-.9991-.999v-8.492h9.5301v8.492c0 .557-.4611.999-.9991.999z" fill="url(#o)"/></svg>